<svg xmlns="http://www.w3.org/2000/svg" width="190.371" height="190.37" viewBox="0 0 190.371 190.37"><g transform="translate(0 -0.001)"><path d="M425.039,297.57a5.58,5.58,0,0,1-7.888,0l-36.546-36.546,7.888-7.888,36.546,36.546A5.58,5.58,0,0,1,425.039,297.57Zm0,0" transform="translate(-239.09 -159.015)" fill="#484b63"/><path d="M7.5,62.5H124.623V226.843H7.5Zm0,0" transform="translate(-4.711 -39.261)" fill="#bbdeaf"/><path d="M40,307.727H62.309v60.234H40Zm0,0" transform="translate(-25.127 -193.308)" fill="#ffd63d"/><path d="M134,247.727h22.309V330.27H134Zm0,0" transform="translate(-84.176 -155.617)" fill="#ff854e"/><path d="M230,269.727h22.309V344.09H230Zm0,0" transform="translate(-144.482 -169.437)" fill="#ffd63d"/><path d="M237.834,24.82a59.118,59.118,0,1,0,0,83.605A59.119,59.119,0,0,0,237.834,24.82Zm0,0" transform="translate(-86.006 -4.713)" fill="#bbdeaf"/><path d="M248.831,119.42a47.965,47.965,0,1,1,0-67.832A48.019,48.019,0,0,1,248.831,119.42Zm0,0" transform="translate(-104.889 -23.595)" fill="#fff3c6"/><path d="M187.926,127.963l-28.61-28.614A61.928,61.928,0,0,0,161.8,27.91a2.789,2.789,0,1,0-4.659,3.066,56.382,56.382,0,1,1-7.284-8.932l.152.154a2.789,2.789,0,0,0,3.958-3.93l-.16-.161a61.975,61.975,0,0,0-87.553,0q-1.137,1.137-2.2,2.318H2.789A2.789,2.789,0,0,0,0,23.213V35.547a2.789,2.789,0,1,0,5.577,0V26h54a61.43,61.43,0,0,0-5.5,9.383H19.335a2.789,2.789,0,1,0,0,5.577H51.77a61.779,61.779,0,0,0-2,6.818H19.335a2.789,2.789,0,1,0,0,5.577h29.4a62.315,62.315,0,0,0-.562,6.816H19.335a2.789,2.789,0,0,0,0,5.579H48.272a61.971,61.971,0,0,0,6.242,23.554h-4.69a2.789,2.789,0,0,0-2.789,2.79v82.555a2.789,2.789,0,0,0,2.789,2.79H72.134a2.789,2.789,0,0,0,2.789-2.79V112.894a61.444,61.444,0,0,0,7.808,4.572v57.186a2.79,2.79,0,0,0,2.789,2.79h22.309a2.789,2.789,0,0,0,2.789-2.79V123.771a62.916,62.916,0,0,0,6.508-.4v43.077a2.789,2.789,0,1,0,5.577,0V122.472a61.489,61.489,0,0,0,24.784-11.287l28.6,28.608a8.368,8.368,0,0,0,11.836-11.831Zm-118.581,43.9H52.614V94.885h5.024a61.947,61.947,0,0,0,8.614,10.786q1.508,1.508,3.094,2.886Zm18.964,0v-52a62.075,62.075,0,0,0,16.732,3.708v48.29Zm95.673-36.014a2.789,2.789,0,0,1-3.946,0L151.786,107.6c.684-.626,1.358-1.265,2.019-1.926s1.3-1.332,1.927-2.019l28.248,28.254A2.792,2.792,0,0,1,183.983,135.849Zm0,0"/><path d="M119.914,251.447a2.788,2.788,0,0,0-2.789,2.789v6.322H5.577V123.4A2.789,2.789,0,1,0,0,123.4V263.347a2.788,2.788,0,0,0,2.789,2.789H119.914a2.787,2.787,0,0,0,2.789-2.789v-9.111A2.787,2.787,0,0,0,119.914,251.447Zm0,0" transform="translate(0 -75.764)"/><path d="M32.5,302.984v60.245a2.789,2.789,0,0,0,2.789,2.789H57.6a2.789,2.789,0,0,0,2.789-2.789V302.984A2.789,2.789,0,0,0,57.6,300.2H35.289A2.789,2.789,0,0,0,32.5,302.984Zm5.577,2.79H54.811v54.664H38.077Zm0,0" transform="translate(-20.416 -188.577)"/><path d="M68.141,200.758a2.789,2.789,0,0,0,0-5.579H47.289a2.789,2.789,0,0,0,0,5.579Zm0,0" transform="translate(-27.954 -122.608)"/><path d="M210.209,29.988A50.679,50.679,0,1,0,246.1,44.833,50.409,50.409,0,0,0,210.209,29.988Zm31.944,82.687a45.242,45.242,0,1,1,13.21-31.949A44.865,44.865,0,0,1,242.154,112.676Zm0,0" transform="translate(-100.18 -18.837)"/></g></svg>