<svg xmlns="http://www.w3.org/2000/svg" width="295" height="211" viewBox="0 0 295 211"><g transform="translate(-1020 -3103)"><rect width="295" height="211" transform="translate(1020 3103)" fill="#fff"/><g transform="translate(1121.049 3149.866)"><g transform="translate(5.783 1.844)"><path d="M95.437,50.361a5.1,5.1,0,0,1,5.09,5.09v93.664a5.1,5.1,0,0,1-5.09,5.09H17.045a5.1,5.1,0,0,1-5.09-5.09V55.451a5.1,5.1,0,0,1,5.09-5.09H95.437Z" transform="translate(-11.955 -40.667)" fill="#bbdeaf" fill-rule="evenodd"/><path d="M347.955,154.206h6.569a5.1,5.1,0,0,0,5.09-5.09V55.451a5.1,5.1,0,0,0-5.09-5.09h-6.569Z" transform="translate(-271.042 -40.667)" fill="#bbdeaf" fill-rule="evenodd"/><path d="M115.011,81.3H45.179a2.293,2.293,0,0,0-2.289,2.289v85.1a2.293,2.293,0,0,0,2.289,2.289h69.832a2.293,2.293,0,0,0,2.289-2.289v-85.1A2.293,2.293,0,0,0,115.011,81.3Z" transform="translate(-35.809 -64.521)" fill="#eceff1" fill-rule="evenodd"/><path d="M347.955,170.979h2.289c.072,0,.143,0,.214-.01a2.294,2.294,0,0,0,2.075-2.279v-85.1a2.294,2.294,0,0,0-2.075-2.279c-.07-.007-.142-.01-.214-.01h-2.289Z" transform="translate(-271.042 -64.522)" fill="#d1d1d6" fill-rule="evenodd"/><path d="M122.1,14.63h7.256a2.248,2.248,0,0,0,2.1-1.384,8.656,8.656,0,0,1,15.9,0,2.248,2.248,0,0,0,2.1,1.384h7.256A2.293,2.293,0,0,1,159,16.919v8.657a2.294,2.294,0,0,1-2.289,2.289H122.1a2.293,2.293,0,0,1-2.289-2.289V16.918A2.294,2.294,0,0,1,122.1,14.63Z" transform="translate(-95.119 -8.012)" fill="#ff854e" fill-rule="evenodd"/><path d="M154.426,47.866H119.808a2.294,2.294,0,0,0,2.289,2.289h34.618A2.293,2.293,0,0,0,159,47.866V39.209a2.294,2.294,0,0,0-2.289-2.289v8.657a2.293,2.293,0,0,1-2.289,2.289Z" transform="translate(-95.12 -30.303)" fill="#c48958" fill-rule="evenodd"/><g transform="translate(60.836 42.17)"><circle cx="25.448" cy="25.448" r="25.448" fill="#fff3c6"/><path d="M402.194,217.683a25.329,25.329,0,0,1-4.245,14.078,25.479,25.479,0,0,1-18.94,11.271q1.118.1,2.262.1a25.647,25.647,0,0,0,3.642-.259q.23-.033.459-.07a25.45,25.45,0,0,0-4.1-50.567q-1.143,0-2.262.1A25.45,25.45,0,0,1,402.194,217.683Z" transform="translate(-355.822 -192.235)" fill="#685e68" fill-rule="evenodd"/><path d="M329.369,314.126a17.779,17.779,0,0,0-17.67,15.859,25.362,25.362,0,0,0,17.67,7.134,25.647,25.647,0,0,0,3.642-.259,25.371,25.371,0,0,0,14.027-6.876A17.773,17.773,0,0,0,329.369,314.126Z" transform="translate(-303.921 -286.224)" fill="#8ac9fe" fill-rule="evenodd"/><path d="M379.009,314.268c10.578,1.344,14.841,9.348,15.821,18.94a25.575,25.575,0,0,0,4.109-3.225,17.773,17.773,0,0,0-17.669-15.859,18,18,0,0,0-2.262.143Z" transform="translate(-355.823 -286.223)" fill="#60b7ff" fill-rule="evenodd"/><circle cx="8.985" cy="8.985" r="8.985" transform="translate(16.463 8.588)" fill="#f6dccd"/><path d="M391.8,238.74a8.987,8.987,0,0,1-7.854,8.914,8.985,8.985,0,1,0,0-17.829A8.987,8.987,0,0,1,391.8,238.74Z" transform="translate(-359.632 -221.166)" fill="#f1cbbc" fill-rule="evenodd"/></g></g><path d="M92.522,96.736c-.151,0-.3,0-.458,0a27.379,27.379,0,0,1-2.96-.161V108.3a1.83,1.83,0,0,1-1.831,1.831H12.862a1.832,1.832,0,0,1-1.831-1.831V18.62a1.832,1.832,0,0,1,1.831-1.831H28.638V13.37H10.872a3.262,3.262,0,0,0-3.259,3.259v93.662a3.263,3.263,0,0,0,3.259,3.26H89.265a3.262,3.262,0,0,0,3.257-3.26ZM30.47,23.529h39.2A1.832,1.832,0,0,0,71.5,21.7V20.452H85.442V43A27.33,27.33,0,0,0,70.9,52.272H46.979a1.831,1.831,0,1,0,0,3.662h21.4A27.127,27.127,0,0,0,65.687,62.5H46.979a1.831,1.831,0,1,0,0,3.663H64.987a26.979,26.979,0,0,0-.2,3.3,27.669,27.669,0,0,0,.2,3.271h-18a1.831,1.831,0,1,0,0,3.662h18.7a27.056,27.056,0,0,0,2.688,6.568H46.979a1.831,1.831,0,1,0,0,3.662h23.9a27.331,27.331,0,0,0,14.563,9.3v10.544H14.693V20.452H28.638V21.7a1.832,1.832,0,0,0,1.831,1.831ZM32.3,19.865V10.293h9.357a1.829,1.829,0,0,0,1.778-1.4,6.826,6.826,0,0,1,13.266,0,1.829,1.829,0,0,0,1.779,1.4h9.354v9.572Zm39.2-6.5H89.265a3.261,3.261,0,0,1,3.257,3.259v25.56c-.151,0-.3-.008-.458-.008a27.377,27.377,0,0,0-2.96.163V18.62a1.83,1.83,0,0,0-1.831-1.831H71.5V13.37ZM92.064,45.845a23.6,23.6,0,0,1,18.719,38A19.552,19.552,0,0,0,98.9,71.309a10.818,10.818,0,1,0-13.668,0A19.545,19.545,0,0,0,73.347,83.843a23.6,23.6,0,0,1,18.718-38Zm-.005,24.239a7.156,7.156,0,1,1,.01,0h-.01Zm.005,22.993a23.522,23.522,0,0,1-15.722-6.011,15.9,15.9,0,0,1,15.716-13.32h.01a15.908,15.908,0,0,1,15.723,13.32A23.54,23.54,0,0,1,92.064,93.077Zm4.12,3.352v13.862a6.927,6.927,0,0,1-6.919,6.922H10.872a6.928,6.928,0,0,1-6.921-6.922V16.629a6.928,6.928,0,0,1,6.921-6.922H28.638V8.461A1.831,1.831,0,0,1,30.47,6.63h9.847a10.492,10.492,0,0,1,19.5,0h9.848A1.831,1.831,0,0,1,71.5,8.461V9.706H89.265a6.927,6.927,0,0,1,6.919,6.922V42.493a27.28,27.28,0,0,1,0,53.936ZM36.657,84.479a1.831,1.831,0,0,1,2.461,2.713L29,96.378a1.834,1.834,0,0,1-2.528-.059L22.3,92.15a1.831,1.831,0,0,1,2.588-2.591l2.935,2.934Zm0-17.4A1.831,1.831,0,0,1,39.118,69.8L29,78.982a1.834,1.834,0,0,1-2.528-.059L22.3,74.753a1.832,1.832,0,0,1,2.588-2.592L27.826,75.1Zm0-17.4A1.831,1.831,0,1,1,39.118,52.4L29,61.585a1.835,1.835,0,0,1-2.528-.06L22.3,57.356a1.832,1.832,0,1,1,2.591-2.591L27.826,57.7ZM50.069,6.649a2.289,2.289,0,1,0,2.29,2.288,2.293,2.293,0,0,0-2.29-2.288ZM24.891,37.368,27.826,40.3l8.831-8.014A1.831,1.831,0,0,1,39.118,35L29,44.187a1.834,1.834,0,0,1-2.528-.059L22.3,39.959a1.831,1.831,0,1,1,2.588-2.591Zm22.088,8.337a1.831,1.831,0,1,1,0-3.663H75.933a1.831,1.831,0,1,1,0,3.663Zm0,51.149a1.831,1.831,0,1,1,0-3.663H75.933a1.831,1.831,0,1,1,0,3.663ZM45.147,33.646a1.831,1.831,0,0,1,1.832-1.831H75.933a1.831,1.831,0,1,1,0,3.662H46.979A1.833,1.833,0,0,1,45.147,33.646Z" transform="translate(0 0)" fill-rule="evenodd"/></g></g></svg>