<svg xmlns="http://www.w3.org/2000/svg" width="1030" height="335" viewBox="0 0 1030 335"><g transform="translate(-285 -5503)"><path d="M0,0H1030V335H0Z" transform="translate(285 5503)" fill="#ebf5e7"/><path d="M8.842-5.546H3.779v3.428H9.721V0H1.143V-12.8H9.7v2.136H3.779v3.05H8.842Zm4.6-3.964.079,1.1a3.32,3.32,0,0,1,2.733-1.274A2.759,2.759,0,0,1,18.5-8.8a4.142,4.142,0,0,1,.756,2.654V0h-2.54V-6.082a1.648,1.648,0,0,0-.352-1.173A1.574,1.574,0,0,0,15.2-7.62a1.747,1.747,0,0,0-1.608.914V0h-2.54V-9.51Zm11.7,7.638a1.666,1.666,0,0,0,1.143-.387,1.355,1.355,0,0,0,.457-1.028h2.382a3.258,3.258,0,0,1-.527,1.771A3.48,3.48,0,0,1,27.171-.268a4.442,4.442,0,0,1-1.991.444,4.129,4.129,0,0,1-3.217-1.3A5.13,5.13,0,0,1,20.786-4.7v-.167a5.071,5.071,0,0,1,1.169-3.507,4.08,4.08,0,0,1,3.208-1.31A4,4,0,0,1,28.024-8.67a3.594,3.594,0,0,1,1.094,2.7H26.736a1.745,1.745,0,0,0-.457-1.206,1.524,1.524,0,0,0-1.16-.464,1.53,1.53,0,0,0-1.34.647,3.749,3.749,0,0,0-.453,2.1v.264a3.8,3.8,0,0,0,.448,2.113A1.549,1.549,0,0,0,25.137-1.872Zm11.127.905a3.185,3.185,0,0,1-2.6,1.143A3,3,0,0,1,31.329-.7a3.752,3.752,0,0,1-.822-2.575V-9.51h2.54v6.151q0,1.487,1.354,1.487a1.834,1.834,0,0,0,1.775-.9V-9.51h2.549V0H36.334ZM45.018.176a4.668,4.668,0,0,1-3.406-1.283A4.561,4.561,0,0,1,40.3-4.526v-.246a5.745,5.745,0,0,1,.554-2.562,4.064,4.064,0,0,1,1.569-1.74,4.4,4.4,0,0,1,2.316-.611,3.947,3.947,0,0,1,3.072,1.23,5,5,0,0,1,1.121,3.489v1.037H42.873a2.36,2.36,0,0,0,.743,1.494,2.245,2.245,0,0,0,1.569.563,2.742,2.742,0,0,0,2.294-1.063l1.248,1.4A3.813,3.813,0,0,1,47.18-.277,5.075,5.075,0,0,1,45.018.176Zm-.29-7.813a1.587,1.587,0,0,0-1.226.512,2.651,2.651,0,0,0-.6,1.466h3.533v-.2a1.891,1.891,0,0,0-.457-1.311A1.638,1.638,0,0,0,44.728-7.638Zm10.793,5.01a.818.818,0,0,0-.461-.734,5.241,5.241,0,0,0-1.481-.479q-3.393-.712-3.393-2.883a2.613,2.613,0,0,1,1.05-2.114,4.237,4.237,0,0,1,2.747-.848,4.56,4.56,0,0,1,2.9.853,2.687,2.687,0,0,1,1.085,2.215h-2.54a1.229,1.229,0,0,0-.352-.9,1.488,1.488,0,0,0-1.1-.356,1.52,1.52,0,0,0-.993.29.916.916,0,0,0-.352.738.783.783,0,0,0,.4.681,4.114,4.114,0,0,0,1.349.448,11.019,11.019,0,0,1,1.6.426A2.628,2.628,0,0,1,57.99-2.733a2.481,2.481,0,0,1-1.116,2.1,4.815,4.815,0,0,1-2.883.8A5.029,5.029,0,0,1,51.869-.25a3.561,3.561,0,0,1-1.455-1.169,2.716,2.716,0,0,1-.527-1.6h2.408a1.326,1.326,0,0,0,.5,1.037,1.987,1.987,0,0,0,1.248.36,1.839,1.839,0,0,0,1.1-.277A.861.861,0,0,0,55.521-2.628Zm7.146-9.22V-9.51h1.626v1.863H62.666V-2.9a1.133,1.133,0,0,0,.2.756,1.015,1.015,0,0,0,.773.229,4.051,4.051,0,0,0,.747-.062V-.053a5.229,5.229,0,0,1-1.538.229,2.425,2.425,0,0,1-2.725-2.7V-7.646H58.737V-9.51h1.389v-2.338ZM71.218,0a2.821,2.821,0,0,1-.255-.853,3.073,3.073,0,0,1-2.4,1.028,3.376,3.376,0,0,1-2.316-.809,2.6,2.6,0,0,1-.918-2.039,2.687,2.687,0,0,1,1.121-2.32,5.529,5.529,0,0,1,3.239-.817h1.169v-.545a1.567,1.567,0,0,0-.338-1.055,1.331,1.331,0,0,0-1.068-.4,1.513,1.513,0,0,0-1.006.308,1.045,1.045,0,0,0-.365.844H65.54a2.551,2.551,0,0,1,.51-1.529,3.37,3.37,0,0,1,1.441-1.1,5.253,5.253,0,0,1,2.092-.4,4.15,4.15,0,0,1,2.791.883,3.09,3.09,0,0,1,1.033,2.483V-2.2a4.546,4.546,0,0,0,.378,2.048V0Zm-2.1-1.767a2.188,2.188,0,0,0,1.037-.25,1.645,1.645,0,0,0,.7-.672V-4.324h-.949q-1.907,0-2.03,1.318l-.009.149a1.017,1.017,0,0,0,.334.782A1.3,1.3,0,0,0,69.117-1.767Zm11.391-.861a.818.818,0,0,0-.461-.734,5.241,5.241,0,0,0-1.481-.479q-3.393-.712-3.393-2.883a2.613,2.613,0,0,1,1.05-2.114,4.237,4.237,0,0,1,2.747-.848,4.56,4.56,0,0,1,2.9.853,2.687,2.687,0,0,1,1.085,2.215h-2.54a1.229,1.229,0,0,0-.352-.9,1.488,1.488,0,0,0-1.1-.356,1.52,1.52,0,0,0-.993.29.916.916,0,0,0-.352.738.783.783,0,0,0,.4.681,4.114,4.114,0,0,0,1.349.448,11.019,11.019,0,0,1,1.6.426,2.628,2.628,0,0,1,2.013,2.558,2.481,2.481,0,0,1-1.116,2.1,4.815,4.815,0,0,1-2.883.8A5.029,5.029,0,0,1,76.856-.25,3.561,3.561,0,0,1,75.4-1.419a2.716,2.716,0,0,1-.527-1.6h2.408a1.326,1.326,0,0,0,.5,1.037,1.987,1.987,0,0,0,1.248.36,1.839,1.839,0,0,0,1.1-.277A.861.861,0,0,0,80.508-2.628Z" transform="translate(523 5573)" fill="#12263f"/><path d="M11.188-4.263A4.528,4.528,0,0,1,9.664-1.011,5.355,5.355,0,0,1,6.038.176,4.816,4.816,0,0,1,2.167-1.481,6.793,6.793,0,0,1,.756-6.029v-.782a7.671,7.671,0,0,1,.65-3.252,4.874,4.874,0,0,1,1.859-2.158,5.207,5.207,0,0,1,2.808-.751,5.217,5.217,0,0,1,3.568,1.187,4.866,4.866,0,0,1,1.564,3.331H8.569a2.673,2.673,0,0,0-.69-1.8,2.555,2.555,0,0,0-1.806-.558A2.24,2.24,0,0,0,4.1-9.866a5.3,5.3,0,0,0-.672,2.931v.967a5.667,5.667,0,0,0,.628,3.032,2.2,2.2,0,0,0,1.982.958,2.6,2.6,0,0,0,1.824-.558,2.521,2.521,0,0,0,.69-1.727Zm7.26,3.3a3.185,3.185,0,0,1-2.6,1.143A3,3,0,0,1,13.513-.7a3.752,3.752,0,0,1-.822-2.575V-9.51h2.54v6.151q0,1.487,1.354,1.487a1.834,1.834,0,0,0,1.775-.9V-9.51h2.549V0H18.519ZM27.2.176A4.668,4.668,0,0,1,23.8-1.107a4.561,4.561,0,0,1-1.314-3.419v-.246a5.745,5.745,0,0,1,.554-2.562A4.064,4.064,0,0,1,24.6-9.075a4.4,4.4,0,0,1,2.316-.611,3.947,3.947,0,0,1,3.072,1.23,5,5,0,0,1,1.121,3.489v1.037H25.058A2.36,2.36,0,0,0,25.8-2.435a2.245,2.245,0,0,0,1.569.563,2.742,2.742,0,0,0,2.294-1.063l1.248,1.4A3.813,3.813,0,0,1,29.364-.277,5.075,5.075,0,0,1,27.2.176Zm-.29-7.813a1.587,1.587,0,0,0-1.226.512,2.651,2.651,0,0,0-.6,1.466h3.533v-.2a1.891,1.891,0,0,0-.457-1.311A1.638,1.638,0,0,0,26.912-7.638Zm10.793,5.01a.818.818,0,0,0-.461-.734,5.241,5.241,0,0,0-1.481-.479Q32.37-4.553,32.37-6.724a2.613,2.613,0,0,1,1.05-2.114,4.237,4.237,0,0,1,2.747-.848,4.56,4.56,0,0,1,2.9.853,2.687,2.687,0,0,1,1.085,2.215h-2.54a1.229,1.229,0,0,0-.352-.9,1.488,1.488,0,0,0-1.1-.356,1.52,1.52,0,0,0-.993.29.916.916,0,0,0-.352.738.783.783,0,0,0,.4.681,4.114,4.114,0,0,0,1.349.448,11.019,11.019,0,0,1,1.6.426,2.628,2.628,0,0,1,2.013,2.558,2.481,2.481,0,0,1-1.116,2.1,4.815,4.815,0,0,1-2.883.8A5.029,5.029,0,0,1,34.053-.25,3.561,3.561,0,0,1,32.6-1.419a2.716,2.716,0,0,1-.527-1.6h2.408a1.326,1.326,0,0,0,.5,1.037,1.987,1.987,0,0,0,1.248.36,1.839,1.839,0,0,0,1.1-.277A.861.861,0,0,0,37.705-2.628Zm7.146-9.22V-9.51h1.626v1.863H44.851V-2.9a1.133,1.133,0,0,0,.2.756,1.015,1.015,0,0,0,.773.229,4.051,4.051,0,0,0,.747-.062V-.053a5.229,5.229,0,0,1-1.538.229,2.425,2.425,0,0,1-2.725-2.7V-7.646H40.922V-9.51h1.389v-2.338ZM50.572,0H48.023V-9.51h2.549Zm-2.7-11.971a1.251,1.251,0,0,1,.382-.94A1.436,1.436,0,0,1,49.3-13.28a1.44,1.44,0,0,1,1.037.369,1.244,1.244,0,0,1,.387.94,1.247,1.247,0,0,1-.391.949,1.443,1.443,0,0,1-1.033.369,1.443,1.443,0,0,1-1.033-.369A1.247,1.247,0,0,1,47.874-11.971Zm4.395,7.128a5.64,5.64,0,0,1,.545-2.522,3.989,3.989,0,0,1,1.569-1.714,4.577,4.577,0,0,1,2.377-.606A4.33,4.33,0,0,1,59.9-8.508a4.727,4.727,0,0,1,1.358,3.2l.018.65a4.97,4.97,0,0,1-1.222,3.511A4.247,4.247,0,0,1,56.777.176a4.268,4.268,0,0,1-3.283-1.318,5.058,5.058,0,0,1-1.226-3.586Zm2.54.18a3.555,3.555,0,0,0,.51,2.073,1.682,1.682,0,0,0,1.459.717,1.686,1.686,0,0,0,1.441-.709,3.89,3.89,0,0,0,.519-2.267,3.519,3.519,0,0,0-.519-2.06,1.686,1.686,0,0,0-1.459-.731,1.658,1.658,0,0,0-1.441.726A3.955,3.955,0,0,0,54.809-4.662ZM65.18-9.51l.079,1.1a3.32,3.32,0,0,1,2.733-1.274,2.759,2.759,0,0,1,2.25.888A4.142,4.142,0,0,1,71-6.144V0h-2.54V-6.082a1.648,1.648,0,0,0-.352-1.173,1.574,1.574,0,0,0-1.169-.365,1.747,1.747,0,0,0-1.608.914V0h-2.54V-9.51ZM78.434,0a2.821,2.821,0,0,1-.255-.853,3.073,3.073,0,0,1-2.4,1.028,3.376,3.376,0,0,1-2.316-.809,2.6,2.6,0,0,1-.918-2.039,2.687,2.687,0,0,1,1.121-2.32A5.529,5.529,0,0,1,76.9-5.81h1.169v-.545a1.567,1.567,0,0,0-.338-1.055,1.331,1.331,0,0,0-1.068-.4,1.513,1.513,0,0,0-1.006.308,1.045,1.045,0,0,0-.365.844h-2.54a2.551,2.551,0,0,1,.51-1.529,3.37,3.37,0,0,1,1.441-1.1,5.253,5.253,0,0,1,2.092-.4,4.15,4.15,0,0,1,2.791.883,3.09,3.09,0,0,1,1.033,2.483V-2.2A4.546,4.546,0,0,0,81-.149V0Zm-2.1-1.767a2.188,2.188,0,0,0,1.037-.25,1.645,1.645,0,0,0,.7-.672V-4.324h-.949q-1.907,0-2.03,1.318l-.009.149a1.017,1.017,0,0,0,.334.782A1.3,1.3,0,0,0,76.333-1.767ZM87.917-7.128A6.9,6.9,0,0,0,87-7.2a1.86,1.86,0,0,0-1.89.976V0h-2.54V-9.51h2.4l.07,1.134a2.354,2.354,0,0,1,2.118-1.31,2.662,2.662,0,0,1,.791.114ZM91.819,0H89.271V-9.51h2.549Zm-2.7-11.971a1.251,1.251,0,0,1,.382-.94,1.436,1.436,0,0,1,1.042-.369,1.44,1.44,0,0,1,1.037.369,1.244,1.244,0,0,1,.387.94,1.247,1.247,0,0,1-.391.949,1.443,1.443,0,0,1-1.033.369,1.443,1.443,0,0,1-1.033-.369A1.247,1.247,0,0,1,89.121-11.971Zm4.395,7.128a5.64,5.64,0,0,1,.545-2.522,3.989,3.989,0,0,1,1.569-1.714,4.577,4.577,0,0,1,2.377-.606,4.33,4.33,0,0,1,3.142,1.178,4.727,4.727,0,0,1,1.358,3.2l.018.65A4.97,4.97,0,0,1,101.3-1.147,4.247,4.247,0,0,1,98.024.176a4.268,4.268,0,0,1-3.283-1.318,5.058,5.058,0,0,1-1.226-3.586Zm2.54.18a3.555,3.555,0,0,0,.51,2.073,1.682,1.682,0,0,0,1.459.717,1.686,1.686,0,0,0,1.441-.709,3.89,3.89,0,0,0,.519-2.267,3.519,3.519,0,0,0-.519-2.06,1.686,1.686,0,0,0-1.459-.731,1.658,1.658,0,0,0-1.441.726A3.955,3.955,0,0,0,96.056-4.662Zm13.184,2.035a.818.818,0,0,0-.461-.734,5.241,5.241,0,0,0-1.481-.479Q103.9-4.553,103.9-6.724a2.613,2.613,0,0,1,1.05-2.114,4.237,4.237,0,0,1,2.747-.848,4.56,4.56,0,0,1,2.9.853,2.687,2.687,0,0,1,1.085,2.215h-2.54a1.229,1.229,0,0,0-.352-.9,1.488,1.488,0,0,0-1.1-.356,1.52,1.52,0,0,0-.993.29.916.916,0,0,0-.352.738.783.783,0,0,0,.4.681,4.114,4.114,0,0,0,1.349.448,11.019,11.019,0,0,1,1.6.426,2.628,2.628,0,0,1,2.013,2.558,2.481,2.481,0,0,1-1.116,2.1,4.815,4.815,0,0,1-2.883.8,5.029,5.029,0,0,1-2.123-.426,3.561,3.561,0,0,1-1.455-1.169,2.716,2.716,0,0,1-.527-1.6h2.408a1.326,1.326,0,0,0,.5,1.037,1.987,1.987,0,0,0,1.248.36,1.839,1.839,0,0,0,1.1-.277A.861.861,0,0,0,109.239-2.628Z" transform="translate(523 5637)" fill="#12263f"/><path d="M8.842-5.229H3.779V0H1.143V-12.8H9.475v2.136h-5.7v3.3H8.842ZM13.518,0H10.969V-9.51h2.549Zm-2.7-11.971a1.251,1.251,0,0,1,.382-.94,1.436,1.436,0,0,1,1.042-.369,1.44,1.44,0,0,1,1.037.369,1.244,1.244,0,0,1,.387.94,1.247,1.247,0,0,1-.391.949,1.443,1.443,0,0,1-1.033.369,1.443,1.443,0,0,1-1.033-.369A1.247,1.247,0,0,1,10.819-11.971Zm8.745,10.1a1.666,1.666,0,0,0,1.143-.387,1.355,1.355,0,0,0,.457-1.028h2.382a3.258,3.258,0,0,1-.527,1.771A3.48,3.48,0,0,1,21.6-.268a4.442,4.442,0,0,1-1.991.444,4.129,4.129,0,0,1-3.217-1.3A5.13,5.13,0,0,1,15.214-4.7v-.167a5.071,5.071,0,0,1,1.169-3.507,4.08,4.08,0,0,1,3.208-1.31A4,4,0,0,1,22.452-8.67a3.594,3.594,0,0,1,1.094,2.7H21.164a1.745,1.745,0,0,0-.457-1.206,1.524,1.524,0,0,0-1.16-.464,1.53,1.53,0,0,0-1.34.647,3.749,3.749,0,0,0-.453,2.1v.264A3.8,3.8,0,0,0,18.2-2.515,1.549,1.549,0,0,0,19.564-1.872Zm7.91-6.6a3.17,3.17,0,0,1,2.54-1.213q3.094,0,3.138,3.595V0h-2.54V-6.021a1.767,1.767,0,0,0-.352-1.208,1.507,1.507,0,0,0-1.169-.391,1.729,1.729,0,0,0-1.617.861V0h-2.54V-13.5h2.54ZM40.579,0a2.821,2.821,0,0,1-.255-.853,3.073,3.073,0,0,1-2.4,1.028,3.376,3.376,0,0,1-2.316-.809,2.6,2.6,0,0,1-.918-2.039,2.687,2.687,0,0,1,1.121-2.32A5.529,5.529,0,0,1,39.05-5.81h1.169v-.545a1.567,1.567,0,0,0-.338-1.055,1.331,1.331,0,0,0-1.068-.4,1.513,1.513,0,0,0-1.006.308,1.045,1.045,0,0,0-.365.844H34.9a2.551,2.551,0,0,1,.51-1.529,3.37,3.37,0,0,1,1.441-1.1,5.253,5.253,0,0,1,2.092-.4,4.15,4.15,0,0,1,2.791.883,3.09,3.09,0,0,1,1.033,2.483V-2.2a4.546,4.546,0,0,0,.378,2.048V0Zm-2.1-1.767a2.188,2.188,0,0,0,1.037-.25,1.645,1.645,0,0,0,.7-.672V-4.324H39.27q-1.907,0-2.03,1.318l-.009.149a1.017,1.017,0,0,0,.334.782A1.3,1.3,0,0,0,38.479-1.767Zm11.391-.861a.818.818,0,0,0-.461-.734,5.241,5.241,0,0,0-1.481-.479q-3.393-.712-3.393-2.883a2.613,2.613,0,0,1,1.05-2.114,4.237,4.237,0,0,1,2.747-.848,4.56,4.56,0,0,1,2.9.853,2.687,2.687,0,0,1,1.085,2.215h-2.54a1.229,1.229,0,0,0-.352-.9,1.488,1.488,0,0,0-1.1-.356,1.52,1.52,0,0,0-.993.29.916.916,0,0,0-.352.738.783.783,0,0,0,.4.681,4.114,4.114,0,0,0,1.349.448,11.019,11.019,0,0,1,1.6.426,2.628,2.628,0,0,1,2.013,2.558,2.481,2.481,0,0,1-1.116,2.1,4.815,4.815,0,0,1-2.883.8A5.029,5.029,0,0,1,46.217-.25a3.561,3.561,0,0,1-1.455-1.169,2.716,2.716,0,0,1-.527-1.6h2.408a1.326,1.326,0,0,0,.5,1.037,1.987,1.987,0,0,0,1.248.36A1.839,1.839,0,0,0,49.5-1.9.861.861,0,0,0,49.869-2.628Zm8.191-2.2a5.731,5.731,0,0,1,1-3.542,3.237,3.237,0,0,1,2.729-1.318,2.913,2.913,0,0,1,2.294,1.037V-13.5H66.63V0H64.336l-.123-1.011A2.989,2.989,0,0,1,61.77.176a3.228,3.228,0,0,1-2.694-1.323A5.916,5.916,0,0,1,58.061-4.825Zm2.54.189a3.754,3.754,0,0,0,.466,2.051,1.517,1.517,0,0,0,1.354.713,1.7,1.7,0,0,0,1.661-.995V-6.625a1.675,1.675,0,0,0-1.644-.995Q60.6-7.62,60.6-4.636ZM72.976.176A4.668,4.668,0,0,1,69.57-1.107a4.561,4.561,0,0,1-1.314-3.419v-.246a5.745,5.745,0,0,1,.554-2.562,4.064,4.064,0,0,1,1.569-1.74,4.4,4.4,0,0,1,2.316-.611,3.947,3.947,0,0,1,3.072,1.23,5,5,0,0,1,1.121,3.489v1.037H70.831a2.36,2.36,0,0,0,.743,1.494,2.245,2.245,0,0,0,1.569.563,2.742,2.742,0,0,0,2.294-1.063l1.248,1.4A3.813,3.813,0,0,1,75.138-.277,5.075,5.075,0,0,1,72.976.176Zm-.29-7.813a1.587,1.587,0,0,0-1.226.512,2.651,2.651,0,0,0-.6,1.466h3.533v-.2a1.891,1.891,0,0,0-.457-1.311A1.638,1.638,0,0,0,72.686-7.638ZM85.491,0H82.942V-9.51h2.549Zm-2.7-11.971a1.251,1.251,0,0,1,.382-.94,1.436,1.436,0,0,1,1.042-.369,1.44,1.44,0,0,1,1.037.369,1.244,1.244,0,0,1,.387.94,1.247,1.247,0,0,1-.391.949,1.443,1.443,0,0,1-1.033.369,1.443,1.443,0,0,1-1.033-.369A1.247,1.247,0,0,1,82.793-11.971ZM89.921-9.51,90-8.411a3.32,3.32,0,0,1,2.733-1.274,2.759,2.759,0,0,1,2.25.888,4.142,4.142,0,0,1,.756,2.654V0H93.2V-6.082a1.648,1.648,0,0,0-.352-1.173,1.574,1.574,0,0,0-1.169-.365,1.747,1.747,0,0,0-1.608.914V0H87.53V-9.51Zm7.348,4.685a5.731,5.731,0,0,1,1-3.542A3.237,3.237,0,0,1,101-9.686a2.913,2.913,0,0,1,2.294,1.037V-13.5h2.549V0h-2.294l-.123-1.011A2.989,2.989,0,0,1,100.978.176a3.228,3.228,0,0,1-2.694-1.323A5.916,5.916,0,0,1,97.269-4.825Zm2.54.189a3.754,3.754,0,0,0,.466,2.051,1.517,1.517,0,0,0,1.354.713,1.7,1.7,0,0,0,1.661-.995V-6.625a1.675,1.675,0,0,0-1.644-.995Q99.809-7.62,99.809-4.636ZM113.317,0a2.821,2.821,0,0,1-.255-.853,3.073,3.073,0,0,1-2.4,1.028,3.376,3.376,0,0,1-2.316-.809,2.6,2.6,0,0,1-.918-2.039,2.687,2.687,0,0,1,1.121-2.32,5.529,5.529,0,0,1,3.239-.817h1.169v-.545a1.567,1.567,0,0,0-.338-1.055,1.331,1.331,0,0,0-1.068-.4,1.513,1.513,0,0,0-1.006.308,1.045,1.045,0,0,0-.365.844h-2.54a2.551,2.551,0,0,1,.51-1.529,3.37,3.37,0,0,1,1.441-1.1,5.253,5.253,0,0,1,2.092-.4,4.15,4.15,0,0,1,2.791.883,3.09,3.09,0,0,1,1.033,2.483V-2.2a4.546,4.546,0,0,0,.378,2.048V0Zm-2.1-1.767a2.188,2.188,0,0,0,1.037-.25,1.645,1.645,0,0,0,.7-.672V-4.324h-.949q-1.907,0-2.03,1.318l-.009.149a1.017,1.017,0,0,0,.334.782A1.3,1.3,0,0,0,111.217-1.767Zm5.871-3.059a5.573,5.573,0,0,1,1.042-3.524,3.375,3.375,0,0,1,2.808-1.336,2.96,2.96,0,0,1,2.435,1.072l.105-.9h2.3V-.316a4.064,4.064,0,0,1-.567,2.171,3.641,3.641,0,0,1-1.6,1.406,5.608,5.608,0,0,1-2.408.483,5.215,5.215,0,0,1-2.039-.417,3.619,3.619,0,0,1-1.5-1.077L118.793.7a2.975,2.975,0,0,0,2.3,1.063,2.178,2.178,0,0,0,1.573-.541,2.027,2.027,0,0,0,.563-1.534v-.51a2.938,2.938,0,0,1-2.312.993,3.366,3.366,0,0,1-2.773-1.34,5.572,5.572,0,0,1-1.059-3.555Zm2.54.189a3.47,3.47,0,0,0,.519,2.029,1.65,1.65,0,0,0,1.424.735,1.764,1.764,0,0,0,1.661-.871V-6.749a1.76,1.76,0,0,0-1.644-.871,1.66,1.66,0,0,0-1.437.748A3.911,3.911,0,0,0,119.628-4.636ZM133.242,0a2.821,2.821,0,0,1-.255-.853,3.073,3.073,0,0,1-2.4,1.028,3.376,3.376,0,0,1-2.316-.809,2.6,2.6,0,0,1-.918-2.039,2.687,2.687,0,0,1,1.121-2.32,5.529,5.529,0,0,1,3.239-.817h1.169v-.545a1.567,1.567,0,0,0-.338-1.055,1.331,1.331,0,0,0-1.068-.4,1.513,1.513,0,0,0-1.006.308,1.045,1.045,0,0,0-.365.844h-2.54a2.551,2.551,0,0,1,.51-1.529,3.37,3.37,0,0,1,1.441-1.1,5.253,5.253,0,0,1,2.092-.4A4.15,4.15,0,0,1,134.4-8.8a3.09,3.09,0,0,1,1.033,2.483V-2.2a4.546,4.546,0,0,0,.378,2.048V0Zm-2.1-1.767a2.188,2.188,0,0,0,1.037-.25,1.645,1.645,0,0,0,.7-.672V-4.324h-.949q-1.907,0-2.03,1.318l-.009.149a1.017,1.017,0,0,0,.334.782A1.3,1.3,0,0,0,131.142-1.767Zm10.2-.105a1.666,1.666,0,0,0,1.143-.387,1.355,1.355,0,0,0,.457-1.028h2.382a3.258,3.258,0,0,1-.527,1.771,3.48,3.48,0,0,1-1.419,1.248,4.442,4.442,0,0,1-1.991.444,4.129,4.129,0,0,1-3.217-1.3A5.13,5.13,0,0,1,136.986-4.7v-.167a5.071,5.071,0,0,1,1.169-3.507,4.08,4.08,0,0,1,3.208-1.31,4,4,0,0,1,2.861,1.015,3.594,3.594,0,0,1,1.094,2.7h-2.382a1.745,1.745,0,0,0-.457-1.206,1.524,1.524,0,0,0-1.16-.464,1.53,1.53,0,0,0-1.34.647,3.749,3.749,0,0,0-.453,2.1v.264a3.8,3.8,0,0,0,.448,2.113A1.549,1.549,0,0,0,141.337-1.872ZM149.449,0H146.9V-9.51h2.549Zm-2.7-11.971a1.251,1.251,0,0,1,.382-.94,1.436,1.436,0,0,1,1.042-.369,1.44,1.44,0,0,1,1.037.369,1.244,1.244,0,0,1,.387.94,1.247,1.247,0,0,1-.391.949,1.443,1.443,0,0,1-1.033.369,1.443,1.443,0,0,1-1.033-.369A1.247,1.247,0,0,1,146.751-11.971Zm4.395,7.128a5.64,5.64,0,0,1,.545-2.522,3.989,3.989,0,0,1,1.569-1.714,4.577,4.577,0,0,1,2.377-.606,4.33,4.33,0,0,1,3.142,1.178,4.727,4.727,0,0,1,1.358,3.2l.018.65a4.97,4.97,0,0,1-1.222,3.511A4.247,4.247,0,0,1,155.654.176a4.268,4.268,0,0,1-3.283-1.318,5.058,5.058,0,0,1-1.226-3.586Zm2.54.18a3.555,3.555,0,0,0,.51,2.073,1.682,1.682,0,0,0,1.459.717,1.686,1.686,0,0,0,1.441-.709,3.89,3.89,0,0,0,.519-2.267,3.519,3.519,0,0,0-.519-2.06,1.686,1.686,0,0,0-1.459-.731,1.658,1.658,0,0,0-1.441.726A3.955,3.955,0,0,0,153.686-4.662Zm2.452-8.838h2.769l-2.435,2.725h-2.065Zm7.919,3.99.079,1.1a3.32,3.32,0,0,1,2.733-1.274,2.759,2.759,0,0,1,2.25.888,4.142,4.142,0,0,1,.756,2.654V0h-2.54V-6.082a1.648,1.648,0,0,0-.352-1.173,1.574,1.574,0,0,0-1.169-.365,1.747,1.747,0,0,0-1.608.914V0h-2.54V-9.51Z" transform="translate(523 5709)" fill="#12263f"/><path d="M8.842-5.229H3.779V0H1.143V-12.8H9.475v2.136h-5.7v3.3H8.842ZM13.518,0H10.969V-9.51h2.549Zm-2.7-11.971a1.251,1.251,0,0,1,.382-.94,1.436,1.436,0,0,1,1.042-.369,1.44,1.44,0,0,1,1.037.369,1.244,1.244,0,0,1,.387.94,1.247,1.247,0,0,1-.391.949,1.443,1.443,0,0,1-1.033.369,1.443,1.443,0,0,1-1.033-.369A1.247,1.247,0,0,1,10.819-11.971Zm8.745,10.1a1.666,1.666,0,0,0,1.143-.387,1.355,1.355,0,0,0,.457-1.028h2.382a3.258,3.258,0,0,1-.527,1.771A3.48,3.48,0,0,1,21.6-.268a4.442,4.442,0,0,1-1.991.444,4.129,4.129,0,0,1-3.217-1.3A5.13,5.13,0,0,1,15.214-4.7v-.167a5.071,5.071,0,0,1,1.169-3.507,4.08,4.08,0,0,1,3.208-1.31A4,4,0,0,1,22.452-8.67a3.594,3.594,0,0,1,1.094,2.7H21.164a1.745,1.745,0,0,0-.457-1.206,1.524,1.524,0,0,0-1.16-.464,1.53,1.53,0,0,0-1.34.647,3.749,3.749,0,0,0-.453,2.1v.264A3.8,3.8,0,0,0,18.2-2.515,1.549,1.549,0,0,0,19.564-1.872Zm7.91-6.6a3.17,3.17,0,0,1,2.54-1.213q3.094,0,3.138,3.595V0h-2.54V-6.021a1.767,1.767,0,0,0-.352-1.208,1.507,1.507,0,0,0-1.169-.391,1.729,1.729,0,0,0-1.617.861V0h-2.54V-13.5h2.54ZM40.579,0a2.821,2.821,0,0,1-.255-.853,3.073,3.073,0,0,1-2.4,1.028,3.376,3.376,0,0,1-2.316-.809,2.6,2.6,0,0,1-.918-2.039,2.687,2.687,0,0,1,1.121-2.32A5.529,5.529,0,0,1,39.05-5.81h1.169v-.545a1.567,1.567,0,0,0-.338-1.055,1.331,1.331,0,0,0-1.068-.4,1.513,1.513,0,0,0-1.006.308,1.045,1.045,0,0,0-.365.844H34.9a2.551,2.551,0,0,1,.51-1.529,3.37,3.37,0,0,1,1.441-1.1,5.253,5.253,0,0,1,2.092-.4,4.15,4.15,0,0,1,2.791.883,3.09,3.09,0,0,1,1.033,2.483V-2.2a4.546,4.546,0,0,0,.378,2.048V0Zm-2.1-1.767a2.188,2.188,0,0,0,1.037-.25,1.645,1.645,0,0,0,.7-.672V-4.324H39.27q-1.907,0-2.03,1.318l-.009.149a1.017,1.017,0,0,0,.334.782A1.3,1.3,0,0,0,38.479-1.767Zm11.391-.861a.818.818,0,0,0-.461-.734,5.241,5.241,0,0,0-1.481-.479q-3.393-.712-3.393-2.883a2.613,2.613,0,0,1,1.05-2.114,4.237,4.237,0,0,1,2.747-.848,4.56,4.56,0,0,1,2.9.853,2.687,2.687,0,0,1,1.085,2.215h-2.54a1.229,1.229,0,0,0-.352-.9,1.488,1.488,0,0,0-1.1-.356,1.52,1.52,0,0,0-.993.29.916.916,0,0,0-.352.738.783.783,0,0,0,.4.681,4.114,4.114,0,0,0,1.349.448,11.019,11.019,0,0,1,1.6.426,2.628,2.628,0,0,1,2.013,2.558,2.481,2.481,0,0,1-1.116,2.1,4.815,4.815,0,0,1-2.883.8A5.029,5.029,0,0,1,46.217-.25a3.561,3.561,0,0,1-1.455-1.169,2.716,2.716,0,0,1-.527-1.6h2.408a1.326,1.326,0,0,0,.5,1.037,1.987,1.987,0,0,0,1.248.36A1.839,1.839,0,0,0,49.5-1.9.861.861,0,0,0,49.869-2.628Zm8.218-2.2A5.573,5.573,0,0,1,59.128-8.35a3.375,3.375,0,0,1,2.808-1.336,2.96,2.96,0,0,1,2.435,1.072l.105-.9h2.3V-.316a4.064,4.064,0,0,1-.567,2.171,3.641,3.641,0,0,1-1.6,1.406,5.608,5.608,0,0,1-2.408.483,5.215,5.215,0,0,1-2.039-.417,3.619,3.619,0,0,1-1.5-1.077L59.792.7a2.975,2.975,0,0,0,2.3,1.063,2.178,2.178,0,0,0,1.573-.541A2.027,2.027,0,0,0,64.23-.308v-.51a2.938,2.938,0,0,1-2.312.993,3.366,3.366,0,0,1-2.773-1.34A5.572,5.572,0,0,1,58.087-4.72Zm2.54.189a3.47,3.47,0,0,0,.519,2.029,1.65,1.65,0,0,0,1.424.735,1.764,1.764,0,0,0,1.661-.871V-6.749a1.76,1.76,0,0,0-1.644-.871,1.66,1.66,0,0,0-1.437.748A3.911,3.911,0,0,0,60.627-4.636ZM74.074-7.128a6.9,6.9,0,0,0-.914-.07,1.86,1.86,0,0,0-1.89.976V0H68.73V-9.51h2.4l.07,1.134a2.354,2.354,0,0,1,2.118-1.31,2.662,2.662,0,0,1,.791.114ZM80.807,0a2.821,2.821,0,0,1-.255-.853,3.073,3.073,0,0,1-2.4,1.028,3.376,3.376,0,0,1-2.316-.809,2.6,2.6,0,0,1-.918-2.039,2.687,2.687,0,0,1,1.121-2.32,5.529,5.529,0,0,1,3.239-.817h1.169v-.545a1.567,1.567,0,0,0-.338-1.055,1.331,1.331,0,0,0-1.068-.4,1.513,1.513,0,0,0-1.006.308,1.045,1.045,0,0,0-.365.844h-2.54a2.551,2.551,0,0,1,.51-1.529,3.37,3.37,0,0,1,1.441-1.1,5.253,5.253,0,0,1,2.092-.4,4.15,4.15,0,0,1,2.791.883A3.09,3.09,0,0,1,83-6.319V-2.2a4.546,4.546,0,0,0,.378,2.048V0Zm-2.1-1.767a2.188,2.188,0,0,0,1.037-.25,1.645,1.645,0,0,0,.7-.672V-4.324H79.5q-1.907,0-2.03,1.318l-.009.149a1.017,1.017,0,0,0,.334.782A1.3,1.3,0,0,0,78.706-1.767ZM79.673-13.5h2.769l-2.435,2.725H77.941ZM85.562,0V-7.646H84.146V-9.51h1.415v-.439a3.566,3.566,0,0,1,1.1-2.764,4.438,4.438,0,0,1,3.063-.971,10.16,10.16,0,0,1,2.883.519l-.369,2.1a11.248,11.248,0,0,0-1.336-.33,6.564,6.564,0,0,0-1.02-.075q-1.775,0-1.775,1.573v.387h1.872v1.863H88.11V0ZM93.8,0H91.248V-9.51H93.8Zm6.056-1.872A1.666,1.666,0,0,0,101-2.259a1.355,1.355,0,0,0,.457-1.028h2.382a3.258,3.258,0,0,1-.527,1.771,3.48,3.48,0,0,1-1.419,1.248A4.442,4.442,0,0,1,99.9.176a4.129,4.129,0,0,1-3.217-1.3A5.13,5.13,0,0,1,95.5-4.7v-.167a5.071,5.071,0,0,1,1.169-3.507,4.08,4.08,0,0,1,3.208-1.31A4,4,0,0,1,102.74-8.67a3.594,3.594,0,0,1,1.094,2.7h-2.382A1.745,1.745,0,0,0,101-7.174a1.524,1.524,0,0,0-1.16-.464,1.53,1.53,0,0,0-1.34.647,3.749,3.749,0,0,0-.453,2.1v.264a3.8,3.8,0,0,0,.448,2.113A1.549,1.549,0,0,0,99.853-1.872ZM110.795,0a2.821,2.821,0,0,1-.255-.853,3.073,3.073,0,0,1-2.4,1.028,3.376,3.376,0,0,1-2.316-.809,2.6,2.6,0,0,1-.918-2.039,2.687,2.687,0,0,1,1.121-2.32,5.529,5.529,0,0,1,3.239-.817h1.169v-.545a1.567,1.567,0,0,0-.338-1.055,1.331,1.331,0,0,0-1.068-.4,1.513,1.513,0,0,0-1.006.308,1.045,1.045,0,0,0-.365.844h-2.54a2.551,2.551,0,0,1,.51-1.529,3.37,3.37,0,0,1,1.441-1.1,5.253,5.253,0,0,1,2.092-.4,4.15,4.15,0,0,1,2.791.883,3.09,3.09,0,0,1,1.033,2.483V-2.2a4.546,4.546,0,0,0,.378,2.048V0Zm-2.1-1.767a2.188,2.188,0,0,0,1.037-.25,1.645,1.645,0,0,0,.7-.672V-4.324h-.949q-1.907,0-2.03,1.318l-.009.149a1.017,1.017,0,0,0,.334.782A1.3,1.3,0,0,0,108.694-1.767Zm11.391-.861a.818.818,0,0,0-.461-.734,5.241,5.241,0,0,0-1.481-.479q-3.393-.712-3.393-2.883a2.613,2.613,0,0,1,1.05-2.114,4.237,4.237,0,0,1,2.747-.848,4.56,4.56,0,0,1,2.9.853,2.687,2.687,0,0,1,1.085,2.215h-2.54a1.229,1.229,0,0,0-.352-.9,1.488,1.488,0,0,0-1.1-.356,1.52,1.52,0,0,0-.993.29.916.916,0,0,0-.352.738.783.783,0,0,0,.4.681,4.114,4.114,0,0,0,1.349.448,11.019,11.019,0,0,1,1.6.426,2.628,2.628,0,0,1,2.013,2.558,2.481,2.481,0,0,1-1.116,2.1,4.815,4.815,0,0,1-2.883.8,5.029,5.029,0,0,1-2.123-.426,3.561,3.561,0,0,1-1.455-1.169,2.716,2.716,0,0,1-.527-1.6h2.408a1.326,1.326,0,0,0,.5,1.037,1.987,1.987,0,0,0,1.248.36,1.839,1.839,0,0,0,1.1-.277A.861.861,0,0,0,120.085-2.628Z" transform="translate(523 5782)" fill="#12263f"/><path d="M5.88-4.685h-2.1V0H1.143V-12.8H5.9a5.375,5.375,0,0,1,3.5,1.011,3.488,3.488,0,0,1,1.23,2.856,3.937,3.937,0,0,1-.567,2.184A3.866,3.866,0,0,1,8.341-5.353L11.109-.123V0H8.279ZM3.779-6.82H5.906a2.178,2.178,0,0,0,1.538-.505,1.806,1.806,0,0,0,.545-1.393,1.933,1.933,0,0,0-.514-1.424A2.137,2.137,0,0,0,5.9-10.661H3.779Zm13.061,7a4.668,4.668,0,0,1-3.406-1.283A4.561,4.561,0,0,1,12.12-4.526v-.246a5.745,5.745,0,0,1,.554-2.562,4.064,4.064,0,0,1,1.569-1.74,4.4,4.4,0,0,1,2.316-.611,3.947,3.947,0,0,1,3.072,1.23,5,5,0,0,1,1.121,3.489v1.037H14.7a2.36,2.36,0,0,0,.743,1.494,2.245,2.245,0,0,0,1.569.563A2.742,2.742,0,0,0,19.3-2.936l1.248,1.4A3.813,3.813,0,0,1,19-.277,5.075,5.075,0,0,1,16.84.176Zm-.29-7.813a1.587,1.587,0,0,0-1.226.512,2.651,2.651,0,0,0-.6,1.466h3.533v-.2A1.891,1.891,0,0,0,17.8-7.174,1.638,1.638,0,0,0,16.55-7.638Zm12.015-3.894a12.225,12.225,0,0,0-1.406-.088q-1.723,0-1.723,1.468v.642h1.89v1.863h-1.89V0H22.887V-7.646H21.472V-9.51h1.415v-.738a3.249,3.249,0,0,1,1.037-2.544,4.24,4.24,0,0,1,2.883-.892q1.327,0,4.307.281V0H28.564ZM37.6.176a4.668,4.668,0,0,1-3.406-1.283A4.561,4.561,0,0,1,32.88-4.526v-.246a5.745,5.745,0,0,1,.554-2.562A4.064,4.064,0,0,1,35-9.075a4.4,4.4,0,0,1,2.316-.611,3.947,3.947,0,0,1,3.072,1.23,5,5,0,0,1,1.121,3.489v1.037H35.455A2.36,2.36,0,0,0,36.2-2.435a2.245,2.245,0,0,0,1.569.563,2.742,2.742,0,0,0,2.294-1.063l1.248,1.4A3.813,3.813,0,0,1,39.762-.277,5.075,5.075,0,0,1,37.6.176Zm-.29-7.813a1.587,1.587,0,0,0-1.226.512,2.651,2.651,0,0,0-.6,1.466h3.533v-.2a1.891,1.891,0,0,0-.457-1.311A1.638,1.638,0,0,0,37.31-7.638Zm9.264.967,1.6-2.839h2.716L48.182-4.852,51,0H48.278l-1.7-2.988L44.895,0H42.161l2.821-4.852-2.7-4.658h2.725ZM54.791,0H52.242V-9.51h2.549Zm-2.7-11.971a1.251,1.251,0,0,1,.382-.94,1.436,1.436,0,0,1,1.042-.369,1.44,1.44,0,0,1,1.037.369,1.244,1.244,0,0,1,.387.94,1.247,1.247,0,0,1-.391.949,1.443,1.443,0,0,1-1.033.369,1.443,1.443,0,0,1-1.033-.369A1.247,1.247,0,0,1,52.093-11.971Zm4.395,7.128a5.64,5.64,0,0,1,.545-2.522A3.989,3.989,0,0,1,58.6-9.079a4.577,4.577,0,0,1,2.377-.606,4.33,4.33,0,0,1,3.142,1.178,4.727,4.727,0,0,1,1.358,3.2l.018.65a4.97,4.97,0,0,1-1.222,3.511A4.247,4.247,0,0,1,61,.176a4.268,4.268,0,0,1-3.283-1.318,5.058,5.058,0,0,1-1.226-3.586Zm2.54.18a3.555,3.555,0,0,0,.51,2.073A1.682,1.682,0,0,0,61-1.872a1.686,1.686,0,0,0,1.441-.709,3.89,3.89,0,0,0,.519-2.267,3.519,3.519,0,0,0-.519-2.06,1.686,1.686,0,0,0-1.459-.731,1.658,1.658,0,0,0-1.441.726A3.955,3.955,0,0,0,59.027-4.662ZM61.479-13.5h2.769l-2.435,2.725H59.748ZM69.4-9.51l.079,1.1a3.32,3.32,0,0,1,2.733-1.274,2.759,2.759,0,0,1,2.25.888,4.142,4.142,0,0,1,.756,2.654V0h-2.54V-6.082a1.648,1.648,0,0,0-.352-1.173,1.574,1.574,0,0,0-1.169-.365,1.747,1.747,0,0,0-1.608.914V0h-2.54V-9.51ZM90.185-4.667a5.7,5.7,0,0,1-1,3.52A3.2,3.2,0,0,1,86.493.176a2.963,2.963,0,0,1-2.329-1V3.656h-2.54V-9.51h2.355l.088.932a2.985,2.985,0,0,1,2.408-1.107,3.22,3.22,0,0,1,2.733,1.3A5.858,5.858,0,0,1,90.185-4.8Zm-2.54-.185a3.743,3.743,0,0,0-.47-2.048,1.532,1.532,0,0,0-1.367-.721,1.663,1.663,0,0,0-1.644.914v3.894a1.692,1.692,0,0,0,1.661.94Q87.645-1.872,87.645-4.852ZM96.135.176a4.668,4.668,0,0,1-3.406-1.283,4.561,4.561,0,0,1-1.314-3.419v-.246a5.745,5.745,0,0,1,.554-2.562,4.064,4.064,0,0,1,1.569-1.74,4.4,4.4,0,0,1,2.316-.611,3.947,3.947,0,0,1,3.072,1.23,5,5,0,0,1,1.121,3.489v1.037H93.99a2.36,2.36,0,0,0,.743,1.494,2.245,2.245,0,0,0,1.569.563A2.742,2.742,0,0,0,98.6-2.936l1.248,1.4A3.813,3.813,0,0,1,98.3-.277,5.075,5.075,0,0,1,96.135.176Zm-.29-7.813a1.587,1.587,0,0,0-1.226.512,2.651,2.651,0,0,0-.6,1.466H97.55v-.2a1.891,1.891,0,0,0-.457-1.311A1.638,1.638,0,0,0,95.845-7.638Zm10.986.51a6.9,6.9,0,0,0-.914-.07,1.86,1.86,0,0,0-1.89.976V0h-2.54V-9.51h2.4l.07,1.134a2.354,2.354,0,0,1,2.118-1.31,2.662,2.662,0,0,1,.791.114Zm6.372,4.5a.818.818,0,0,0-.461-.734,5.241,5.241,0,0,0-1.481-.479q-3.393-.712-3.393-2.883a2.613,2.613,0,0,1,1.05-2.114,4.237,4.237,0,0,1,2.747-.848,4.56,4.56,0,0,1,2.9.853,2.687,2.687,0,0,1,1.085,2.215h-2.54a1.229,1.229,0,0,0-.352-.9,1.488,1.488,0,0,0-1.1-.356,1.52,1.52,0,0,0-.993.29.916.916,0,0,0-.352.738.783.783,0,0,0,.4.681,4.114,4.114,0,0,0,1.349.448,11.019,11.019,0,0,1,1.6.426,2.628,2.628,0,0,1,2.013,2.558,2.481,2.481,0,0,1-1.116,2.1,4.815,4.815,0,0,1-2.883.8,5.029,5.029,0,0,1-2.123-.426A3.561,3.561,0,0,1,108.1-1.419a2.716,2.716,0,0,1-.527-1.6h2.408a1.326,1.326,0,0,0,.5,1.037,1.987,1.987,0,0,0,1.248.36,1.839,1.839,0,0,0,1.1-.277A.861.861,0,0,0,113.2-2.628Zm3.709-2.215a5.64,5.64,0,0,1,.545-2.522,3.989,3.989,0,0,1,1.569-1.714,4.577,4.577,0,0,1,2.377-.606,4.33,4.33,0,0,1,3.142,1.178,4.727,4.727,0,0,1,1.358,3.2l.018.65A4.97,4.97,0,0,1,124.7-1.147,4.247,4.247,0,0,1,121.421.176a4.268,4.268,0,0,1-3.283-1.318,5.058,5.058,0,0,1-1.226-3.586Zm2.54.18a3.555,3.555,0,0,0,.51,2.073,1.682,1.682,0,0,0,1.459.717,1.686,1.686,0,0,0,1.441-.709,3.89,3.89,0,0,0,.519-2.267,3.519,3.519,0,0,0-.519-2.06,1.686,1.686,0,0,0-1.459-.731,1.658,1.658,0,0,0-1.441.726A3.955,3.955,0,0,0,119.452-4.662ZM129.823-9.51l.079,1.1a3.32,3.32,0,0,1,2.733-1.274,2.759,2.759,0,0,1,2.25.888,4.142,4.142,0,0,1,.756,2.654V0H133.1V-6.082a1.648,1.648,0,0,0-.352-1.173,1.574,1.574,0,0,0-1.169-.365,1.747,1.747,0,0,0-1.608.914V0h-2.54V-9.51ZM143.077,0a2.821,2.821,0,0,1-.255-.853,3.073,3.073,0,0,1-2.4,1.028,3.376,3.376,0,0,1-2.316-.809,2.6,2.6,0,0,1-.918-2.039,2.687,2.687,0,0,1,1.121-2.32,5.529,5.529,0,0,1,3.239-.817h1.169v-.545a1.567,1.567,0,0,0-.338-1.055,1.331,1.331,0,0,0-1.068-.4A1.513,1.513,0,0,0,140.3-7.5a1.045,1.045,0,0,0-.365.844H137.4a2.551,2.551,0,0,1,.51-1.529,3.37,3.37,0,0,1,1.441-1.1,5.253,5.253,0,0,1,2.092-.4,4.15,4.15,0,0,1,2.791.883,3.09,3.09,0,0,1,1.033,2.483V-2.2a4.546,4.546,0,0,0,.378,2.048V0Zm-2.1-1.767a2.188,2.188,0,0,0,1.037-.25,1.645,1.645,0,0,0,.7-.672V-4.324h-.949q-1.907,0-2.03,1.318l-.009.149a1.017,1.017,0,0,0,.334.782A1.3,1.3,0,0,0,140.977-1.767ZM149.9,0h-2.549V-13.5H149.9Z" transform="translate(893 5573)" fill="#12263f"/><path d="M11.654-6.108a7.725,7.725,0,0,1-.668,3.313A5.03,5.03,0,0,1,9.075-.6,5.288,5.288,0,0,1,6.223.176,5.324,5.324,0,0,1,3.384-.589,5.08,5.08,0,0,1,1.45-2.773,7.5,7.5,0,0,1,.756-6.038v-.633A7.685,7.685,0,0,1,1.437-10,5.072,5.072,0,0,1,3.362-12.2a5.3,5.3,0,0,1,2.843-.769,5.3,5.3,0,0,1,2.843.769A5.072,5.072,0,0,1,10.973-10a7.663,7.663,0,0,1,.681,3.318Zm-2.672-.58a5.385,5.385,0,0,0-.721-3.059,2.349,2.349,0,0,0-2.057-1.046A2.349,2.349,0,0,0,4.157-9.76a5.324,5.324,0,0,0-.729,3.028v.624a5.453,5.453,0,0,0,.721,3.041A2.342,2.342,0,0,0,6.223-1.986,2.321,2.321,0,0,0,8.262-3.028a5.421,5.421,0,0,0,.721-3.037Zm12.99,2.021A5.758,5.758,0,0,1,21-1.1,3.231,3.231,0,0,1,18.272.176,2.969,2.969,0,0,1,15.8-1.011L15.688,0H13.4V-13.5h2.54v4.843a2.893,2.893,0,0,1,2.312-1.028,3.258,3.258,0,0,1,2.729,1.279,5.767,5.767,0,0,1,.989,3.6Zm-2.54-.185a3.783,3.783,0,0,0-.457-2.1,1.545,1.545,0,0,0-1.362-.664,1.676,1.676,0,0,0-1.67.993v3.753a1.7,1.7,0,0,0,1.688,1,1.568,1.568,0,0,0,1.617-1.213A6.257,6.257,0,0,0,19.433-4.852Zm9.255,2.224a.818.818,0,0,0-.461-.734,5.241,5.241,0,0,0-1.481-.479q-3.393-.712-3.393-2.883A2.613,2.613,0,0,1,24.4-8.837a4.237,4.237,0,0,1,2.747-.848,4.56,4.56,0,0,1,2.9.853,2.687,2.687,0,0,1,1.085,2.215h-2.54a1.229,1.229,0,0,0-.352-.9,1.488,1.488,0,0,0-1.1-.356,1.52,1.52,0,0,0-.993.29.916.916,0,0,0-.352.738.783.783,0,0,0,.4.681,4.114,4.114,0,0,0,1.349.448,11.019,11.019,0,0,1,1.6.426,2.628,2.628,0,0,1,2.013,2.558,2.481,2.481,0,0,1-1.116,2.1,4.815,4.815,0,0,1-2.883.8A5.029,5.029,0,0,1,25.036-.25a3.561,3.561,0,0,1-1.455-1.169,2.716,2.716,0,0,1-.527-1.6h2.408a1.326,1.326,0,0,0,.5,1.037,1.987,1.987,0,0,0,1.248.36,1.839,1.839,0,0,0,1.1-.277A.861.861,0,0,0,28.688-2.628Zm8.481,2.8a4.668,4.668,0,0,1-3.406-1.283,4.561,4.561,0,0,1-1.314-3.419v-.246A5.745,5.745,0,0,1,33-7.334a4.064,4.064,0,0,1,1.569-1.74,4.4,4.4,0,0,1,2.316-.611,3.947,3.947,0,0,1,3.072,1.23A5,5,0,0,1,41.08-4.966v1.037H35.024a2.36,2.36,0,0,0,.743,1.494,2.245,2.245,0,0,0,1.569.563A2.742,2.742,0,0,0,39.63-2.936l1.248,1.4A3.813,3.813,0,0,1,39.331-.277,5.075,5.075,0,0,1,37.169.176Zm-.29-7.813a1.587,1.587,0,0,0-1.226.512,2.651,2.651,0,0,0-.6,1.466h3.533v-.2a1.891,1.891,0,0,0-.457-1.311A1.638,1.638,0,0,0,36.879-7.638Zm10.986.51a6.9,6.9,0,0,0-.914-.07,1.86,1.86,0,0,0-1.89.976V0h-2.54V-9.51h2.4l.07,1.134a2.354,2.354,0,0,1,2.118-1.31,2.662,2.662,0,0,1,.791.114ZM52.8-3.1,54.571-9.51h2.654L54.018,0H51.592L48.384-9.51h2.654ZM63.721,0a2.821,2.821,0,0,1-.255-.853,3.073,3.073,0,0,1-2.4,1.028A3.376,3.376,0,0,1,58.75-.633a2.6,2.6,0,0,1-.918-2.039,2.687,2.687,0,0,1,1.121-2.32,5.529,5.529,0,0,1,3.239-.817H63.36v-.545a1.567,1.567,0,0,0-.338-1.055,1.331,1.331,0,0,0-1.068-.4,1.513,1.513,0,0,0-1.006.308,1.045,1.045,0,0,0-.365.844h-2.54a2.551,2.551,0,0,1,.51-1.529,3.37,3.37,0,0,1,1.441-1.1,5.253,5.253,0,0,1,2.092-.4,4.15,4.15,0,0,1,2.791.883,3.09,3.09,0,0,1,1.033,2.483V-2.2a4.546,4.546,0,0,0,.378,2.048V0Zm-2.1-1.767a2.188,2.188,0,0,0,1.037-.25,1.645,1.645,0,0,0,.7-.672V-4.324h-.949q-1.907,0-2.03,1.318l-.009.149a1.017,1.017,0,0,0,.334.782A1.3,1.3,0,0,0,61.62-1.767Zm10.2-.105a1.666,1.666,0,0,0,1.143-.387,1.355,1.355,0,0,0,.457-1.028H75.8a3.258,3.258,0,0,1-.527,1.771A3.48,3.48,0,0,1,73.85-.268a4.442,4.442,0,0,1-1.991.444,4.129,4.129,0,0,1-3.217-1.3A5.13,5.13,0,0,1,67.465-4.7v-.167a5.071,5.071,0,0,1,1.169-3.507,4.08,4.08,0,0,1,3.208-1.31A4,4,0,0,1,74.7-8.67a3.594,3.594,0,0,1,1.094,2.7H73.415a1.745,1.745,0,0,0-.457-1.206,1.524,1.524,0,0,0-1.16-.464,1.53,1.53,0,0,0-1.34.647A3.749,3.749,0,0,0,70-4.891v.264a3.8,3.8,0,0,0,.448,2.113A1.549,1.549,0,0,0,71.815-1.872ZM79.928,0H77.379V-9.51h2.549Zm-2.7-11.971a1.251,1.251,0,0,1,.382-.94,1.436,1.436,0,0,1,1.042-.369,1.44,1.44,0,0,1,1.037.369,1.244,1.244,0,0,1,.387.94,1.247,1.247,0,0,1-.391.949,1.443,1.443,0,0,1-1.033.369,1.443,1.443,0,0,1-1.033-.369A1.247,1.247,0,0,1,77.229-11.971Zm4.395,7.128a5.64,5.64,0,0,1,.545-2.522,3.989,3.989,0,0,1,1.569-1.714,4.577,4.577,0,0,1,2.377-.606,4.33,4.33,0,0,1,3.142,1.178,4.727,4.727,0,0,1,1.358,3.2l.018.65a4.97,4.97,0,0,1-1.222,3.511A4.247,4.247,0,0,1,86.133.176,4.268,4.268,0,0,1,82.85-1.143a5.058,5.058,0,0,1-1.226-3.586Zm2.54.18a3.555,3.555,0,0,0,.51,2.073,1.682,1.682,0,0,0,1.459.717,1.686,1.686,0,0,0,1.441-.709,3.89,3.89,0,0,0,.519-2.267,3.519,3.519,0,0,0-.519-2.06,1.686,1.686,0,0,0-1.459-.731,1.658,1.658,0,0,0-1.441.726A3.955,3.955,0,0,0,84.164-4.662ZM86.616-13.5h2.769L86.95-10.775H84.885Zm7.919,3.99.079,1.1a3.32,3.32,0,0,1,2.733-1.274A2.759,2.759,0,0,1,99.6-8.8a4.142,4.142,0,0,1,.756,2.654V0h-2.54V-6.082a1.648,1.648,0,0,0-.352-1.173,1.574,1.574,0,0,0-1.169-.365,1.747,1.747,0,0,0-1.608.914V0h-2.54V-9.51Zm16.6,9.686a4.668,4.668,0,0,1-3.406-1.283,4.561,4.561,0,0,1-1.314-3.419v-.246a5.745,5.745,0,0,1,.554-2.562,4.064,4.064,0,0,1,1.569-1.74,4.4,4.4,0,0,1,2.316-.611,3.947,3.947,0,0,1,3.072,1.23,5,5,0,0,1,1.121,3.489v1.037h-6.056a2.36,2.36,0,0,0,.743,1.494,2.245,2.245,0,0,0,1.569.563A2.742,2.742,0,0,0,113.6-2.936l1.248,1.4A3.813,3.813,0,0,1,113.3-.277,5.075,5.075,0,0,1,111.138.176Zm-.29-7.813a1.587,1.587,0,0,0-1.226.512,2.651,2.651,0,0,0-.6,1.466h3.533v-.2a1.891,1.891,0,0,0-.457-1.311A1.638,1.638,0,0,0,110.848-7.638Zm9.264.967,1.6-2.839h2.716L121.72-4.852,124.541,0h-2.725l-1.7-2.988L118.433,0H115.7l2.821-4.852-2.7-4.658h2.725Zm8.578-5.177V-9.51h1.626v1.863h-1.626V-2.9a1.133,1.133,0,0,0,.2.756,1.015,1.015,0,0,0,.773.229,4.051,4.051,0,0,0,.747-.062V-.053a5.229,5.229,0,0,1-1.538.229,2.425,2.425,0,0,1-2.725-2.7V-7.646h-1.389V-9.51h1.389v-2.338ZM136.107.176A4.668,4.668,0,0,1,132.7-1.107a4.561,4.561,0,0,1-1.314-3.419v-.246a5.745,5.745,0,0,1,.554-2.562,4.064,4.064,0,0,1,1.569-1.74,4.4,4.4,0,0,1,2.316-.611,3.947,3.947,0,0,1,3.072,1.23,5,5,0,0,1,1.121,3.489v1.037h-6.056a2.36,2.36,0,0,0,.743,1.494,2.245,2.245,0,0,0,1.569.563,2.742,2.742,0,0,0,2.294-1.063l1.248,1.4A3.813,3.813,0,0,1,138.27-.277,5.075,5.075,0,0,1,136.107.176Zm-.29-7.813a1.587,1.587,0,0,0-1.226.512,2.651,2.651,0,0,0-.6,1.466h3.533v-.2a1.891,1.891,0,0,0-.457-1.311A1.638,1.638,0,0,0,135.817-7.638Zm10.986.51a6.9,6.9,0,0,0-.914-.07,1.86,1.86,0,0,0-1.89.976V0h-2.54V-9.51h2.4l.07,1.134a2.354,2.354,0,0,1,2.118-1.31,2.662,2.662,0,0,1,.791.114Zm3.56-2.382.079,1.1a3.32,3.32,0,0,1,2.733-1.274,2.759,2.759,0,0,1,2.25.888,4.142,4.142,0,0,1,.756,2.654V0h-2.54V-6.082a1.648,1.648,0,0,0-.352-1.173,1.574,1.574,0,0,0-1.169-.365,1.747,1.747,0,0,0-1.608.914V0h-2.54V-9.51ZM163.617,0a2.821,2.821,0,0,1-.255-.853,3.073,3.073,0,0,1-2.4,1.028,3.376,3.376,0,0,1-2.316-.809,2.6,2.6,0,0,1-.918-2.039,2.687,2.687,0,0,1,1.121-2.32,5.529,5.529,0,0,1,3.239-.817h1.169v-.545a1.567,1.567,0,0,0-.338-1.055,1.331,1.331,0,0,0-1.068-.4,1.513,1.513,0,0,0-1.006.308,1.045,1.045,0,0,0-.365.844h-2.54a2.551,2.551,0,0,1,.51-1.529,3.37,3.37,0,0,1,1.441-1.1,5.253,5.253,0,0,1,2.092-.4,4.15,4.15,0,0,1,2.791.883,3.09,3.09,0,0,1,1.033,2.483V-2.2a4.546,4.546,0,0,0,.378,2.048V0Zm-2.1-1.767a2.188,2.188,0,0,0,1.037-.25,1.645,1.645,0,0,0,.7-.672V-4.324h-.949q-1.907,0-2.03,1.318l-.009.149a1.017,1.017,0,0,0,.334.782A1.3,1.3,0,0,0,161.517-1.767Z" transform="translate(893 5637)" fill="#12263f"/><path d="M11.188-4.263A4.528,4.528,0,0,1,9.664-1.011,5.355,5.355,0,0,1,6.038.176,4.816,4.816,0,0,1,2.167-1.481,6.793,6.793,0,0,1,.756-6.029v-.782a7.671,7.671,0,0,1,.65-3.252,4.874,4.874,0,0,1,1.859-2.158,5.207,5.207,0,0,1,2.808-.751,5.217,5.217,0,0,1,3.568,1.187,4.866,4.866,0,0,1,1.564,3.331H8.569a2.673,2.673,0,0,0-.69-1.8,2.555,2.555,0,0,0-1.806-.558A2.24,2.24,0,0,0,4.1-9.866a5.3,5.3,0,0,0-.672,2.931v.967a5.667,5.667,0,0,0,.628,3.032,2.2,2.2,0,0,0,1.982.958,2.6,2.6,0,0,0,1.824-.558,2.521,2.521,0,0,0,.69-1.727Zm1.169-.58A5.64,5.64,0,0,1,12.9-7.365a3.989,3.989,0,0,1,1.569-1.714,4.577,4.577,0,0,1,2.377-.606,4.33,4.33,0,0,1,3.142,1.178,4.727,4.727,0,0,1,1.358,3.2l.018.65a4.97,4.97,0,0,1-1.222,3.511A4.247,4.247,0,0,1,16.866.176a4.268,4.268,0,0,1-3.283-1.318,5.058,5.058,0,0,1-1.226-3.586Zm2.54.18a3.555,3.555,0,0,0,.51,2.073,1.682,1.682,0,0,0,1.459.717,1.686,1.686,0,0,0,1.441-.709,3.89,3.89,0,0,0,.519-2.267,3.519,3.519,0,0,0-.519-2.06,1.686,1.686,0,0,0-1.459-.731,1.658,1.658,0,0,0-1.441.726A3.955,3.955,0,0,0,14.9-4.662ZM25.269-9.51l.079,1.1a3.32,3.32,0,0,1,2.733-1.274,2.759,2.759,0,0,1,2.25.888,4.142,4.142,0,0,1,.756,2.654V0h-2.54V-6.082A1.648,1.648,0,0,0,28.2-7.255a1.574,1.574,0,0,0-1.169-.365,1.747,1.747,0,0,0-1.608.914V0h-2.54V-9.51Zm10.784-2.338V-9.51h1.626v1.863H36.053V-2.9a1.133,1.133,0,0,0,.2.756,1.015,1.015,0,0,0,.773.229,4.051,4.051,0,0,0,.747-.062V-.053a5.229,5.229,0,0,1-1.538.229,2.425,2.425,0,0,1-2.725-2.7V-7.646H32.124V-9.51h1.389v-2.338Zm8.385,4.72a6.9,6.9,0,0,0-.914-.07,1.86,1.86,0,0,0-1.89.976V0h-2.54V-9.51h2.4l.07,1.134a2.354,2.354,0,0,1,2.118-1.31,2.662,2.662,0,0,1,.791.114ZM50.906,0a2.821,2.821,0,0,1-.255-.853,3.073,3.073,0,0,1-2.4,1.028,3.376,3.376,0,0,1-2.316-.809,2.6,2.6,0,0,1-.918-2.039,2.687,2.687,0,0,1,1.121-2.32,5.529,5.529,0,0,1,3.239-.817h1.169v-.545a1.567,1.567,0,0,0-.338-1.055,1.331,1.331,0,0,0-1.068-.4,1.513,1.513,0,0,0-1.006.308,1.045,1.045,0,0,0-.365.844h-2.54a2.551,2.551,0,0,1,.51-1.529,3.37,3.37,0,0,1,1.441-1.1,5.253,5.253,0,0,1,2.092-.4,4.15,4.15,0,0,1,2.791.883,3.09,3.09,0,0,1,1.033,2.483V-2.2a4.546,4.546,0,0,0,.378,2.048V0Zm-2.1-1.767a2.188,2.188,0,0,0,1.037-.25,1.645,1.645,0,0,0,.7-.672V-4.324H49.6q-1.907,0-2.03,1.318l-.009.149a1.017,1.017,0,0,0,.334.782A1.3,1.3,0,0,0,48.806-1.767ZM60.2-2.628a.818.818,0,0,0-.461-.734,5.241,5.241,0,0,0-1.481-.479q-3.393-.712-3.393-2.883a2.613,2.613,0,0,1,1.05-2.114,4.237,4.237,0,0,1,2.747-.848,4.56,4.56,0,0,1,2.9.853A2.687,2.687,0,0,1,62.64-6.618H60.1a1.229,1.229,0,0,0-.352-.9,1.488,1.488,0,0,0-1.1-.356,1.52,1.52,0,0,0-.993.29.916.916,0,0,0-.352.738.783.783,0,0,0,.4.681,4.114,4.114,0,0,0,1.349.448,11.019,11.019,0,0,1,1.6.426,2.628,2.628,0,0,1,2.013,2.558,2.481,2.481,0,0,1-1.116,2.1,4.815,4.815,0,0,1-2.883.8A5.029,5.029,0,0,1,56.544-.25,3.561,3.561,0,0,1,55.09-1.419a2.716,2.716,0,0,1-.527-1.6h2.408a1.326,1.326,0,0,0,.5,1.037,1.987,1.987,0,0,0,1.248.36,1.839,1.839,0,0,0,1.1-.277A.861.861,0,0,0,60.2-2.628Zm7.146-9.22V-9.51h1.626v1.863H67.342V-2.9a1.133,1.133,0,0,0,.2.756,1.015,1.015,0,0,0,.773.229,4.051,4.051,0,0,0,.747-.062V-.053a5.229,5.229,0,0,1-1.538.229,2.425,2.425,0,0,1-2.725-2.7V-7.646H63.413V-9.51H64.8v-2.338ZM74.76.176a4.668,4.668,0,0,1-3.406-1.283A4.561,4.561,0,0,1,70.04-4.526v-.246a5.745,5.745,0,0,1,.554-2.562,4.064,4.064,0,0,1,1.569-1.74,4.4,4.4,0,0,1,2.316-.611,3.947,3.947,0,0,1,3.072,1.23,5,5,0,0,1,1.121,3.489v1.037H72.615a2.36,2.36,0,0,0,.743,1.494,2.245,2.245,0,0,0,1.569.563,2.742,2.742,0,0,0,2.294-1.063l1.248,1.4A3.813,3.813,0,0,1,76.922-.277,5.075,5.075,0,0,1,74.76.176Zm-.29-7.813a1.587,1.587,0,0,0-1.226.512,2.651,2.651,0,0,0-.6,1.466h3.533v-.2a1.891,1.891,0,0,0-.457-1.311A1.638,1.638,0,0,0,74.47-7.638ZM84.2-4.825a5.731,5.731,0,0,1,1-3.542,3.237,3.237,0,0,1,2.729-1.318A2.913,2.913,0,0,1,90.22-8.648V-13.5h2.549V0H90.475l-.123-1.011A2.989,2.989,0,0,1,87.908.176a3.228,3.228,0,0,1-2.694-1.323A5.916,5.916,0,0,1,84.2-4.825Zm2.54.189a3.754,3.754,0,0,0,.466,2.051,1.517,1.517,0,0,0,1.354.713,1.7,1.7,0,0,0,1.661-.995V-6.625a1.675,1.675,0,0,0-1.644-.995Q86.739-7.62,86.739-4.636ZM99.114.176a4.668,4.668,0,0,1-3.406-1.283,4.561,4.561,0,0,1-1.314-3.419v-.246a5.745,5.745,0,0,1,.554-2.562,4.064,4.064,0,0,1,1.569-1.74,4.4,4.4,0,0,1,2.316-.611,3.947,3.947,0,0,1,3.072,1.23,5,5,0,0,1,1.121,3.489v1.037H96.97a2.36,2.36,0,0,0,.743,1.494,2.245,2.245,0,0,0,1.569.563,2.742,2.742,0,0,0,2.294-1.063l1.248,1.4a3.813,3.813,0,0,1-1.547,1.261A5.075,5.075,0,0,1,99.114.176Zm-.29-7.813a1.587,1.587,0,0,0-1.226.512A2.651,2.651,0,0,0,97-5.66h3.533v-.2a1.891,1.891,0,0,0-.457-1.311A1.638,1.638,0,0,0,98.824-7.638Zm14.5,7.813a4.668,4.668,0,0,1-3.406-1.283,4.561,4.561,0,0,1-1.314-3.419v-.246a5.745,5.745,0,0,1,.554-2.562,4.064,4.064,0,0,1,1.569-1.74,4.4,4.4,0,0,1,2.316-.611,3.947,3.947,0,0,1,3.072,1.23,5,5,0,0,1,1.121,3.489v1.037h-6.056a2.36,2.36,0,0,0,.743,1.494,2.245,2.245,0,0,0,1.569.563,2.742,2.742,0,0,0,2.294-1.063l1.248,1.4a3.813,3.813,0,0,1-1.547,1.261A5.075,5.075,0,0,1,113.326.176Zm-.29-7.813a1.587,1.587,0,0,0-1.226.512,2.651,2.651,0,0,0-.6,1.466h3.533v-.2a1.891,1.891,0,0,0-.457-1.311A1.638,1.638,0,0,0,113.036-7.638Zm9.264.967,1.6-2.839h2.716l-2.707,4.658L126.729,0H124l-1.7-2.988L120.621,0h-2.733l2.821-4.852-2.7-4.658h2.725Zm14.1,2a5.7,5.7,0,0,1-1,3.52A3.2,3.2,0,0,1,132.706.176a2.963,2.963,0,0,1-2.329-1V3.656h-2.54V-9.51h2.355l.088.932a2.985,2.985,0,0,1,2.408-1.107,3.22,3.22,0,0,1,2.733,1.3A5.858,5.858,0,0,1,136.4-4.8Zm-2.54-.185a3.743,3.743,0,0,0-.47-2.048,1.532,1.532,0,0,0-1.367-.721,1.663,1.663,0,0,0-1.644.914v3.894a1.692,1.692,0,0,0,1.661.94Q133.857-1.872,133.857-4.852Zm8.49,5.027a4.668,4.668,0,0,1-3.406-1.283,4.561,4.561,0,0,1-1.314-3.419v-.246a5.745,5.745,0,0,1,.554-2.562,4.064,4.064,0,0,1,1.569-1.74,4.4,4.4,0,0,1,2.316-.611,3.947,3.947,0,0,1,3.072,1.23,5,5,0,0,1,1.121,3.489v1.037H140.2a2.36,2.36,0,0,0,.743,1.494,2.245,2.245,0,0,0,1.569.563,2.742,2.742,0,0,0,2.294-1.063l1.248,1.4A3.813,3.813,0,0,1,144.51-.277,5.075,5.075,0,0,1,142.348.176Zm-.29-7.813a1.587,1.587,0,0,0-1.226.512,2.651,2.651,0,0,0-.6,1.466h3.533v-.2a1.891,1.891,0,0,0-.457-1.311A1.638,1.638,0,0,0,142.058-7.638Zm10.986.51a6.9,6.9,0,0,0-.914-.07,1.86,1.86,0,0,0-1.89.976V0H147.7V-9.51h2.4l.07,1.134a2.354,2.354,0,0,1,2.118-1.31,2.662,2.662,0,0,1,.791.114ZM156.946,0H154.4V-9.51h2.549Zm-2.7-11.971a1.251,1.251,0,0,1,.382-.94,1.436,1.436,0,0,1,1.042-.369,1.44,1.44,0,0,1,1.037.369,1.244,1.244,0,0,1,.387.94,1.247,1.247,0,0,1-.391.949,1.443,1.443,0,0,1-1.033.369,1.443,1.443,0,0,1-1.033-.369A1.247,1.247,0,0,1,154.248-11.971ZM163.415.176a4.668,4.668,0,0,1-3.406-1.283A4.561,4.561,0,0,1,158.7-4.526v-.246a5.745,5.745,0,0,1,.554-2.562,4.064,4.064,0,0,1,1.569-1.74,4.4,4.4,0,0,1,2.316-.611,3.947,3.947,0,0,1,3.072,1.23,5,5,0,0,1,1.121,3.489v1.037h-6.056a2.36,2.36,0,0,0,.743,1.494,2.245,2.245,0,0,0,1.569.563,2.742,2.742,0,0,0,2.294-1.063l1.248,1.4a3.813,3.813,0,0,1-1.547,1.261A5.075,5.075,0,0,1,163.415.176Zm-.29-7.813a1.587,1.587,0,0,0-1.226.512,2.651,2.651,0,0,0-.6,1.466h3.533v-.2a1.891,1.891,0,0,0-.457-1.311A1.638,1.638,0,0,0,163.125-7.638Zm7.98-1.872.079,1.1a3.32,3.32,0,0,1,2.733-1.274,2.759,2.759,0,0,1,2.25.888,4.142,4.142,0,0,1,.756,2.654V0h-2.54V-6.082a1.648,1.648,0,0,0-.352-1.173,1.574,1.574,0,0,0-1.169-.365,1.747,1.747,0,0,0-1.608.914V0h-2.54V-9.51Zm11.7,7.638a1.666,1.666,0,0,0,1.143-.387,1.355,1.355,0,0,0,.457-1.028h2.382a3.258,3.258,0,0,1-.527,1.771,3.48,3.48,0,0,1-1.419,1.248,4.442,4.442,0,0,1-1.991.444,4.129,4.129,0,0,1-3.217-1.3A5.13,5.13,0,0,1,178.453-4.7v-.167a5.071,5.071,0,0,1,1.169-3.507,4.08,4.08,0,0,1,3.208-1.31,4,4,0,0,1,2.861,1.015,3.594,3.594,0,0,1,1.094,2.7H184.4a1.745,1.745,0,0,0-.457-1.206,1.524,1.524,0,0,0-1.16-.464,1.53,1.53,0,0,0-1.34.647,3.749,3.749,0,0,0-.453,2.1v.264a3.8,3.8,0,0,0,.448,2.113A1.549,1.549,0,0,0,182.8-1.872ZM190.916,0h-2.549V-9.51h2.549Zm-2.7-11.971a1.251,1.251,0,0,1,.382-.94,1.436,1.436,0,0,1,1.042-.369,1.44,1.44,0,0,1,1.037.369,1.244,1.244,0,0,1,.387.94,1.247,1.247,0,0,1-.391.949,1.443,1.443,0,0,1-1.033.369,1.443,1.443,0,0,1-1.033-.369A1.247,1.247,0,0,1,188.218-11.971ZM198.519,0a2.821,2.821,0,0,1-.255-.853,3.073,3.073,0,0,1-2.4,1.028,3.376,3.376,0,0,1-2.316-.809,2.6,2.6,0,0,1-.918-2.039,2.687,2.687,0,0,1,1.121-2.32,5.529,5.529,0,0,1,3.239-.817h1.169v-.545a1.567,1.567,0,0,0-.338-1.055,1.331,1.331,0,0,0-1.068-.4,1.513,1.513,0,0,0-1.006.308,1.045,1.045,0,0,0-.365.844h-2.54a2.551,2.551,0,0,1,.51-1.529,3.37,3.37,0,0,1,1.441-1.1,5.253,5.253,0,0,1,2.092-.4,4.15,4.15,0,0,1,2.791.883,3.09,3.09,0,0,1,1.033,2.483V-2.2a4.546,4.546,0,0,0,.378,2.048V0Zm-2.1-1.767a2.188,2.188,0,0,0,1.037-.25,1.645,1.645,0,0,0,.7-.672V-4.324h-.949q-1.907,0-2.03,1.318l-.009.149a1.017,1.017,0,0,0,.334.782A1.3,1.3,0,0,0,196.418-1.767Zm11.391-.861a.818.818,0,0,0-.461-.734,5.241,5.241,0,0,0-1.481-.479q-3.393-.712-3.393-2.883a2.613,2.613,0,0,1,1.05-2.114,4.237,4.237,0,0,1,2.747-.848,4.56,4.56,0,0,1,2.9.853,2.687,2.687,0,0,1,1.085,2.215h-2.54a1.229,1.229,0,0,0-.352-.9,1.488,1.488,0,0,0-1.1-.356,1.52,1.52,0,0,0-.993.29.916.916,0,0,0-.352.738.783.783,0,0,0,.4.681,4.114,4.114,0,0,0,1.349.448,11.019,11.019,0,0,1,1.6.426,2.628,2.628,0,0,1,2.013,2.558,2.481,2.481,0,0,1-1.116,2.1,4.815,4.815,0,0,1-2.883.8,5.029,5.029,0,0,1-2.123-.426A3.561,3.561,0,0,1,202.7-1.419a2.716,2.716,0,0,1-.527-1.6h2.408a1.326,1.326,0,0,0,.5,1.037,1.987,1.987,0,0,0,1.248.36,1.839,1.839,0,0,0,1.1-.277A.861.861,0,0,0,207.809-2.628Z" transform="translate(893 5709)" fill="#12263f"/><path d="M3.779-2.118h5.6V0H1.143V-12.8H3.779ZM13.4,0H10.854V-9.51H13.4Zm-2.7-11.971a1.251,1.251,0,0,1,.382-.94,1.436,1.436,0,0,1,1.042-.369,1.44,1.44,0,0,1,1.037.369,1.244,1.244,0,0,1,.387.94,1.247,1.247,0,0,1-.391.949,1.443,1.443,0,0,1-1.033.369,1.443,1.443,0,0,1-1.033-.369A1.247,1.247,0,0,1,10.705-11.971Zm9.94,9.343a.818.818,0,0,0-.461-.734A5.241,5.241,0,0,0,18.7-3.841q-3.393-.712-3.393-2.883a2.613,2.613,0,0,1,1.05-2.114,4.237,4.237,0,0,1,2.747-.848,4.56,4.56,0,0,1,2.9.853,2.687,2.687,0,0,1,1.085,2.215h-2.54a1.229,1.229,0,0,0-.352-.9,1.488,1.488,0,0,0-1.1-.356,1.52,1.52,0,0,0-.993.29.916.916,0,0,0-.352.738.783.783,0,0,0,.4.681,4.114,4.114,0,0,0,1.349.448,11.019,11.019,0,0,1,1.6.426,2.628,2.628,0,0,1,2.013,2.558A2.481,2.481,0,0,1,22-.628a4.815,4.815,0,0,1-2.883.8A5.029,5.029,0,0,1,16.994-.25a3.561,3.561,0,0,1-1.455-1.169,2.716,2.716,0,0,1-.527-1.6H17.42a1.326,1.326,0,0,0,.5,1.037,1.987,1.987,0,0,0,1.248.36,1.839,1.839,0,0,0,1.1-.277A.861.861,0,0,0,20.646-2.628Zm7.146-9.22V-9.51h1.626v1.863H27.791V-2.9a1.133,1.133,0,0,0,.2.756,1.015,1.015,0,0,0,.773.229,4.051,4.051,0,0,0,.747-.062V-.053a5.229,5.229,0,0,1-1.538.229,2.425,2.425,0,0,1-2.725-2.7V-7.646H23.862V-9.51h1.389v-2.338ZM36.343,0a2.821,2.821,0,0,1-.255-.853,3.073,3.073,0,0,1-2.4,1.028,3.376,3.376,0,0,1-2.316-.809,2.6,2.6,0,0,1-.918-2.039,2.687,2.687,0,0,1,1.121-2.32,5.529,5.529,0,0,1,3.239-.817h1.169v-.545a1.567,1.567,0,0,0-.338-1.055,1.331,1.331,0,0,0-1.068-.4A1.513,1.513,0,0,0,33.57-7.5a1.045,1.045,0,0,0-.365.844h-2.54a2.551,2.551,0,0,1,.51-1.529,3.37,3.37,0,0,1,1.441-1.1,5.253,5.253,0,0,1,2.092-.4A4.15,4.15,0,0,1,37.5-8.8a3.09,3.09,0,0,1,1.033,2.483V-2.2a4.546,4.546,0,0,0,.378,2.048V0Zm-2.1-1.767a2.188,2.188,0,0,0,1.037-.25,1.645,1.645,0,0,0,.7-.672V-4.324h-.949q-1.907,0-2.03,1.318l-.009.149a1.017,1.017,0,0,0,.334.782A1.3,1.3,0,0,0,34.242-1.767ZM44.569-4.825a5.731,5.731,0,0,1,1-3.542A3.237,3.237,0,0,1,48.3-9.686,2.913,2.913,0,0,1,50.59-8.648V-13.5h2.549V0H50.845l-.123-1.011A2.989,2.989,0,0,1,48.278.176a3.228,3.228,0,0,1-2.694-1.323A5.916,5.916,0,0,1,44.569-4.825Zm2.54.189a3.754,3.754,0,0,0,.466,2.051,1.517,1.517,0,0,0,1.354.713,1.7,1.7,0,0,0,1.661-.995V-6.625a1.675,1.675,0,0,0-1.644-.995Q47.109-7.62,47.109-4.636ZM59.484.176a4.668,4.668,0,0,1-3.406-1.283,4.561,4.561,0,0,1-1.314-3.419v-.246a5.745,5.745,0,0,1,.554-2.562,4.064,4.064,0,0,1,1.569-1.74A4.4,4.4,0,0,1,59.2-9.686a3.947,3.947,0,0,1,3.072,1.23A5,5,0,0,1,63.4-4.966v1.037H57.34a2.36,2.36,0,0,0,.743,1.494,2.245,2.245,0,0,0,1.569.563,2.742,2.742,0,0,0,2.294-1.063l1.248,1.4A3.813,3.813,0,0,1,61.646-.277,5.075,5.075,0,0,1,59.484.176Zm-.29-7.813a1.587,1.587,0,0,0-1.226.512,2.651,2.651,0,0,0-.6,1.466H60.9v-.2a1.891,1.891,0,0,0-.457-1.311A1.638,1.638,0,0,0,59.194-7.638Zm14.08,5.766a1.666,1.666,0,0,0,1.143-.387,1.355,1.355,0,0,0,.457-1.028h2.382a3.258,3.258,0,0,1-.527,1.771A3.48,3.48,0,0,1,75.309-.268a4.442,4.442,0,0,1-1.991.444,4.129,4.129,0,0,1-3.217-1.3A5.13,5.13,0,0,1,68.924-4.7v-.167a5.071,5.071,0,0,1,1.169-3.507A4.08,4.08,0,0,1,73.3-9.686,4,4,0,0,1,76.162-8.67a3.594,3.594,0,0,1,1.094,2.7H74.874a1.745,1.745,0,0,0-.457-1.206,1.524,1.524,0,0,0-1.16-.464,1.53,1.53,0,0,0-1.34.647,3.749,3.749,0,0,0-.453,2.1v.264a3.8,3.8,0,0,0,.448,2.113A1.549,1.549,0,0,0,73.274-1.872Zm7.91-6.6a3.17,3.17,0,0,1,2.54-1.213q3.094,0,3.138,3.595V0h-2.54V-6.021a1.767,1.767,0,0,0-.352-1.208A1.507,1.507,0,0,0,82.8-7.62a1.729,1.729,0,0,0-1.617.861V0h-2.54V-13.5h2.54ZM93.155.176A4.668,4.668,0,0,1,89.75-1.107a4.561,4.561,0,0,1-1.314-3.419v-.246a5.745,5.745,0,0,1,.554-2.562,4.064,4.064,0,0,1,1.569-1.74,4.4,4.4,0,0,1,2.316-.611,3.947,3.947,0,0,1,3.072,1.23,5,5,0,0,1,1.121,3.489v1.037H91.011a2.36,2.36,0,0,0,.743,1.494,2.245,2.245,0,0,0,1.569.563,2.742,2.742,0,0,0,2.294-1.063l1.248,1.4A3.813,3.813,0,0,1,95.317-.277,5.075,5.075,0,0,1,93.155.176Zm-.29-7.813a1.587,1.587,0,0,0-1.226.512,2.651,2.651,0,0,0-.6,1.466H94.57v-.2a1.891,1.891,0,0,0-.457-1.311A1.638,1.638,0,0,0,92.865-7.638Zm5.247,2.795a5.684,5.684,0,0,1,1-3.542,3.261,3.261,0,0,1,2.738-1.3,2.92,2.92,0,0,1,2.435,1.169l.167-.993h2.232V3.656h-2.549V-.817a2.928,2.928,0,0,1-2.3.993,3.237,3.237,0,0,1-2.707-1.318A5.963,5.963,0,0,1,98.112-4.843Zm2.54.18a3.729,3.729,0,0,0,.479,2.077,1.533,1.533,0,0,0,1.349.713,1.708,1.708,0,0,0,1.652-.933V-6.74a1.694,1.694,0,0,0-1.635-.9,1.552,1.552,0,0,0-1.362.713A4.118,4.118,0,0,0,100.652-4.662Zm13.72,3.7a3.185,3.185,0,0,1-2.6,1.143A3,3,0,0,1,109.437-.7a3.752,3.752,0,0,1-.822-2.575V-9.51h2.54v6.151q0,1.487,1.354,1.487a1.834,1.834,0,0,0,1.775-.9V-9.51h2.549V0h-2.391ZM123.126.176a4.668,4.668,0,0,1-3.406-1.283,4.561,4.561,0,0,1-1.314-3.419v-.246a5.745,5.745,0,0,1,.554-2.562,4.064,4.064,0,0,1,1.569-1.74,4.4,4.4,0,0,1,2.316-.611,3.947,3.947,0,0,1,3.072,1.23,5,5,0,0,1,1.121,3.489v1.037h-6.056a2.36,2.36,0,0,0,.743,1.494,2.245,2.245,0,0,0,1.569.563,2.742,2.742,0,0,0,2.294-1.063l1.248,1.4a3.813,3.813,0,0,1-1.547,1.261A5.075,5.075,0,0,1,123.126.176Zm-.29-7.813a1.587,1.587,0,0,0-1.226.512,2.651,2.651,0,0,0-.6,1.466h3.533v-.2a1.891,1.891,0,0,0-.457-1.311A1.638,1.638,0,0,0,122.836-7.638Zm5.247,2.795a5.64,5.64,0,0,1,.545-2.522A3.989,3.989,0,0,1,130.2-9.079a4.577,4.577,0,0,1,2.377-.606,4.33,4.33,0,0,1,3.142,1.178,4.727,4.727,0,0,1,1.358,3.2l.018.65a4.97,4.97,0,0,1-1.222,3.511A4.247,4.247,0,0,1,132.592.176a4.268,4.268,0,0,1-3.283-1.318,5.058,5.058,0,0,1-1.226-3.586Zm2.54.18a3.555,3.555,0,0,0,.51,2.073,1.682,1.682,0,0,0,1.459.717,1.686,1.686,0,0,0,1.441-.709,3.89,3.89,0,0,0,.519-2.267,3.519,3.519,0,0,0-.519-2.06,1.686,1.686,0,0,0-1.459-.731,1.658,1.658,0,0,0-1.441.726A3.955,3.955,0,0,0,130.623-4.662Z" transform="translate(893 5782)" fill="#12263f"/><g transform="translate(122 288)"><rect width="66" height="66" rx="6" transform="translate(318 5245)" fill="#fff"/><g transform="translate(328.626 5254.318)"><g transform="translate(0.694 0.694)"><path d="M54.164,53.477H23.513a1.869,1.869,0,0,1-1.869-1.869V9.369A1.869,1.869,0,0,1,23.513,7.5h22.4a1.869,1.869,0,0,1,1.322.547l8.25,8.25a1.869,1.869,0,0,1,.547,1.322V51.608A1.869,1.869,0,0,1,54.164,53.477Z" transform="translate(-21.644 -7.5)" fill="#f5d664"/></g><g transform="translate(23.496 0.694)"><path d="M279.163,16.3l-8.25-8.25a1.869,1.869,0,0,0-1.322-.547h-1.469v7.476a4.112,4.112,0,0,0,4.112,4.112h4.3a.935.935,0,0,1,.935.935V51.7a1.869,1.869,0,0,1-1.287,1.776h1.661a1.869,1.869,0,0,0,1.869-1.869V17.619A1.868,1.868,0,0,0,279.163,16.3Z" transform="translate(-268.123 -7.5)" fill="#fff2c3"/></g><g transform="translate(25.738 0.864)"><path d="M294.237,18.515h7.306a1.865,1.865,0,0,0-.377-.547l-8.25-8.25a1.865,1.865,0,0,0-.547-.377v7.306A1.869,1.869,0,0,0,294.237,18.515Z" transform="translate(-292.368 -9.34)" fill="#ff854e"/></g><g transform="translate(3.684 3.684)"><g transform="translate(0 22.054)"><circle cx="1.495" cy="1.495" r="1.495" fill="#f7e365"/></g><g transform="translate(0 9.345)"><circle cx="1.495" cy="1.495" r="1.495" fill="#a2f5c3"/></g><g transform="translate(0 15.325)"><circle cx="1.495" cy="1.495" r="1.495" fill="#e175a5"/></g><g transform="translate(5.981 9.345)"><path d="M140.3,143.832H119.368a.748.748,0,0,1-.748-.748v-1.5a.748.748,0,0,1,.748-.748H140.3a.748.748,0,0,1,.748.748v1.5A.748.748,0,0,1,140.3,143.832Z" transform="translate(-118.62 -140.842)" fill="#ff854e"/></g><path d="M64.435,42.816H54.717a.748.748,0,0,1-.748-.748v-1.5a.748.748,0,0,1,.748-.748h9.719a.748.748,0,0,1,.748.748v1.5A.748.748,0,0,1,64.435,42.816Z" transform="translate(-53.969 -39.826)" fill="#ff854e"/><g transform="translate(5.981 9.345)"><path d="M130.955,143.832H119.368a.748.748,0,0,1-.748-.748v-1.5a.748.748,0,0,1,.748-.748h11.588a.748.748,0,0,1,.748.748v1.5A.748.748,0,0,1,130.955,143.832Z" transform="translate(-118.62 -140.842)" fill="#e69642"/></g><g transform="translate(5.981 15.326)"><path d="M140.3,208.482H119.368a.748.748,0,0,1-.748-.748v-1.5a.748.748,0,0,1,.748-.748H140.3a.748.748,0,0,1,.748.748v1.5A.748.748,0,0,1,140.3,208.482Z" transform="translate(-118.62 -205.492)" fill="#ff854e"/></g><g transform="translate(5.981 15.326)"><path d="M136.562,208.482H119.368a.748.748,0,0,1-.748-.748v-1.5a.748.748,0,0,1,.748-.748h17.195a.748.748,0,0,1,.748.748v1.5A.748.748,0,0,1,136.562,208.482Z" transform="translate(-118.62 -205.492)" fill="#e69642"/></g><g transform="translate(5.981 22.054)"><path d="M140.3,281.214H119.368a.748.748,0,0,1-.748-.748v-1.5a.748.748,0,0,1,.748-.747H140.3a.748.748,0,0,1,.748.747v1.5A.748.748,0,0,1,140.3,281.214Z" transform="translate(-118.62 -278.224)" fill="#ff854e"/></g><g transform="translate(5.981 22.054)"><path d="M128.152,281.214h-8.784a.748.748,0,0,1-.748-.748v-1.5a.748.748,0,0,1,.748-.747h8.784a.748.748,0,0,1,.748.747v1.5A.748.748,0,0,1,128.152,281.214Z" transform="translate(-118.62 -278.224)" fill="#e69642"/></g></g><g transform="translate(26.112 28.728)"><circle cx="8.971" cy="8.971" r="8.971" fill="#bbdeaf"/><g transform="translate(4.133 4.133)"><circle cx="4.838" cy="4.838" r="4.838" fill="#f5d664"/></g></g><path d="M14.835,39.111a.694.694,0,0,0,.694-.694V2.563A1.177,1.177,0,0,1,16.7,1.388h22.4c.027,0,.053,0,.08,0V8.17a2.566,2.566,0,0,0,2.563,2.563h6.778c0,.027,0,.053,0,.08v1.67a.694.694,0,1,0,1.388,0v-1.67A2.58,2.58,0,0,0,49.167,9L40.917.751A2.546,2.546,0,0,0,39.105,0H16.7a2.566,2.566,0,0,0-2.563,2.562V38.417a.694.694,0,0,0,.694.694ZM47.549,9.345h-5.8A1.176,1.176,0,0,1,40.573,8.17V2.37Z" transform="translate(-14.141 0)"/><path d="M48.658,275.1a2.189,2.189,0,1,0-2.189-2.189A2.192,2.192,0,0,0,48.658,275.1Zm0-2.99a.8.8,0,1,1-.8.8A.8.8,0,0,1,48.658,272.112Z" transform="translate(-43.478 -245.68)"/><path d="M48.658,137.72a2.189,2.189,0,1,0-2.189-2.189A2.192,2.192,0,0,0,48.658,137.72Zm0-2.99a.8.8,0,1,1-.8.8A.8.8,0,0,1,48.658,134.73Z" transform="translate(-43.478 -121.007)"/><path d="M48.658,202.37a2.189,2.189,0,1,0-2.189-2.189A2.191,2.191,0,0,0,48.658,202.37Zm0-2.99a.8.8,0,1,1-.8.8A.8.8,0,0,1,48.658,199.38Z" transform="translate(-43.478 -179.676)"/><path d="M47.91,36.7h9.719a1.443,1.443,0,0,0,1.441-1.441v-1.5a1.443,1.443,0,0,0-1.441-1.441H47.91a1.443,1.443,0,0,0-1.441,1.441v1.5A1.443,1.443,0,0,0,47.91,36.7Zm-.054-2.937a.054.054,0,0,1,.054-.054h9.719a.054.054,0,0,1,.054.054v1.5a.054.054,0,0,1-.054.054H47.91a.054.054,0,0,1-.054-.054Z" transform="translate(-43.478 -29.335)"/><path d="M47.163,98.364h2.243a.694.694,0,0,0,0-1.388H47.163a.694.694,0,0,0,0,1.388Z" transform="translate(-43.478 -88.005)"/><path d="M110.406,97.67a.694.694,0,0,0-.694-.694h-5.981a.694.694,0,0,0,0,1.388h5.981A.694.694,0,0,0,110.406,97.67Z" transform="translate(-94.814 -88.005)"/><path d="M134.935,134.783a1.443,1.443,0,0,0-1.441-1.441H112.561a1.443,1.443,0,0,0-1.441,1.441v1.5a1.443,1.443,0,0,0,1.441,1.441h20.933a1.443,1.443,0,0,0,1.441-1.441Zm-22.428,1.5v-1.5a.054.054,0,0,1,.054-.054h11.588a.054.054,0,0,1,.054.054v1.5a.054.054,0,0,1-.054.054H112.561A.054.054,0,0,1,112.508,136.278Zm21.04,0a.054.054,0,0,1-.054.054h-7.906c0-.018,0-.036,0-.054v-1.5c0-.018,0-.036,0-.054h7.906a.054.054,0,0,1,.054.054v1.5Z" transform="translate(-102.149 -121.007)"/><path d="M112.561,202.37h20.933a1.443,1.443,0,0,0,1.441-1.441v-1.5a1.443,1.443,0,0,0-1.441-1.441H112.561a1.443,1.443,0,0,0-1.441,1.441v1.5A1.443,1.443,0,0,0,112.561,202.37Zm20.986-2.937v1.5a.054.054,0,0,1-.054.054h-2.3c0-.018,0-.036,0-.054v-1.5c0-.018,0-.036,0-.054h2.3A.054.054,0,0,1,133.548,199.433Zm-21.04,0a.054.054,0,0,1,.054-.054h17.195a.054.054,0,0,1,.054.054v1.5a.054.054,0,0,1-.054.054H112.561a.054.054,0,0,1-.054-.054Z" transform="translate(-102.149 -179.676)"/><path d="M49.918,175.464v-12.34a.694.694,0,0,0-1.388,0v12.34a9.612,9.612,0,0,0-1.645.262,1.436,1.436,0,0,0,.042-.341v-1.5a1.443,1.443,0,0,0-1.441-1.441H24.554a1.443,1.443,0,0,0-1.441,1.441v1.5a1.443,1.443,0,0,0,1.441,1.441H44.239a9.66,9.66,0,0,0,0,16.555H16.7a1.177,1.177,0,0,1-1.176-1.175v-3.147a.694.694,0,1,0-1.388,0v3.147a2.566,2.566,0,0,0,2.563,2.562h32.52a9.665,9.665,0,0,0,.694-19.3ZM45.54,173.89v1.5a.054.054,0,0,1-.054.054H34.777c0-.018,0-.036,0-.054v-1.5c0-.018,0-.036,0-.054h10.71A.054.054,0,0,1,45.54,173.89Zm-21.04,1.5v-1.5a.054.054,0,0,1,.054-.054h8.784a.054.054,0,0,1,.054.054v1.5a.054.054,0,0,1-.054.054H24.554a.054.054,0,0,1-.054-.054Zm24.724,18a8.277,8.277,0,0,1,0-16.555h0a8.277,8.277,0,0,1,0,16.555Z" transform="translate(-14.141 -147.404)"/><path d="M374.542,390.785l-1.257,1.257-.383-.383a.694.694,0,0,0-.981.981l.874.874a.694.694,0,0,0,.981,0l1.747-1.747a.694.694,0,1,0-.981-.981Z" transform="translate(-338.639 -354.449)"/><path d="M344,353.055a.693.693,0,0,0-.76.62,4.144,4.144,0,1,1-.632-2.659.694.694,0,1,0,1.168-.749,5.533,5.533,0,1,0,.845,3.547A.694.694,0,0,0,344,353.055Z" transform="translate(-304.031 -315.552)"/><path d="M218.724,362.016a.694.694,0,1,0,0-1.388H215.86a.694.694,0,1,0,0,1.388Z" transform="translate(-196.569 -327.267)"/><path d="M110.462,393.647a.694.694,0,0,0,.694.694h12.55a.694.694,0,1,0,0-1.388h-12.55A.694.694,0,0,0,110.462,393.647Z" transform="translate(-101.551 -356.601)"/><path d="M47.163,394.341h2.9a.694.694,0,1,0,0-1.388h-2.9a.694.694,0,0,0,0,1.388Z" transform="translate(-43.478 -356.601)"/><path d="M59.778,360.628H47.163a.694.694,0,1,0,0,1.388H59.778a.694.694,0,1,0,0-1.388Z" transform="translate(-43.478 -327.267)"/><path d="M47.163,426.666H58.5a.694.694,0,1,0,0-1.388H47.163a.694.694,0,1,0,0,1.388Z" transform="translate(-43.478 -385.936)"/></g></g><g transform="translate(122 294)"><rect width="66" height="66" rx="6" transform="translate(318 5308)" fill="#fff"/><g transform="translate(328.644 5319.385)"><path d="M408,408h8.387v4.193a4.194,4.194,0,0,1-4.193,4.193H408Zm0,0" transform="translate(-372.355 -372.355)" fill="#bbdeaf"/><path d="M42.946,8H8V47.139a4.194,4.194,0,0,0,4.193,4.193H47.139a4.194,4.194,0,0,1-4.193-4.193Zm0,0" transform="translate(-7.301 -7.301)" fill="#ffe082"/><g transform="translate(4.892 4.892)"><path d="M328.774,176.387A8.387,8.387,0,1,1,320.387,168,8.387,8.387,0,0,1,328.774,176.387Zm0,0" transform="translate(-289.635 -158.215)" fill="#bbdeaf"/><path d="M72,56H95.763v4.193H72Zm0,0" transform="translate(-70.602 -56)" fill="#ff8a65"/><path d="M56,152h6.989v6.989H56Zm0,0" transform="translate(-56 -143.613)" fill="#ff8a65"/><path d="M56,264h6.989v6.989H56Zm0,0" transform="translate(-56 -245.828)" fill="#ff854e"/><path d="M56,376h6.989v6.989H56Zm0,0" transform="translate(-56 -348.043)" fill="#ff8a65"/></g><path d="M372.193,209.086h-1.4v-2.1a2.1,2.1,0,0,1,2.1-2.1,1.4,1.4,0,0,0,1.4-1.4v-.7a1.4,1.4,0,0,0-1.4-1.4h-2.1a1.4,1.4,0,0,0-1.4,1.4v.7H368v-.7a2.8,2.8,0,0,1,2.8-2.8h2.1a2.8,2.8,0,0,1,2.8,2.8v.7a2.8,2.8,0,0,1-2.8,2.8.7.7,0,0,0-.7.7Zm0,0" transform="translate(-335.85 -182.527)" fill="#fff"/><path d="M400,320h1.4v1.4H400Zm0,0" transform="translate(-365.054 -292.043)" fill="#fff"/><path d="M76.236,144.719l-1.892-1.892.988-.988.9.9,4.4-4.4.988.988Zm0,0" transform="translate(-67.849 -126.257)" fill="#fff"/><path d="M450.8,434.8h-1.4v-1.4H448V432h2.8Zm0,0" transform="translate(-408.861 -394.259)" fill="#fff"/><path d="M44.73,23.064a9.092,9.092,0,0,0-8.387-9.05V0H0V39.838A4.9,4.9,0,0,0,4.892,44.73H39.838a4.9,4.9,0,0,0,4.892-4.892V34.946H36.344V32.115A9.092,9.092,0,0,0,44.73,23.064ZM4.892,43.333A3.5,3.5,0,0,1,1.4,39.838V1.4H34.946V14.014a9.077,9.077,0,0,0,0,18.1v7.722a4.873,4.873,0,0,0,1.475,3.495Zm38.44-6.989v3.495a3.495,3.495,0,0,1-6.989,0V36.344Zm-7.688-5.591a7.688,7.688,0,1,1,7.688-7.688A7.688,7.688,0,0,1,35.645,30.752Zm0,0"/><path d="M72,48H95.763v1.4H72Zm0,0" transform="translate(-65.71 -43.807)"/><path d="M72,96H95.763v1.4H72Zm0,0" transform="translate(-65.71 -87.613)"/><path d="M48,152.387h8.387V144H48Zm1.4-6.989h5.591v5.591H49.4Zm0,0" transform="translate(-43.807 -131.42)"/><path d="M48,264.387h8.387V256H48Zm1.4-6.989h5.591v5.591H49.4Zm0,0" transform="translate(-43.807 -233.635)"/><path d="M48,376.387h8.387V368H48Zm1.4-6.989h5.591v5.591H49.4Zm0,0" transform="translate(-43.807 -335.85)"/><path d="M176,168h9.785v1.4H176Zm0,0" transform="translate(-160.624 -153.323)"/><path d="M176,200h6.989v1.4H176Zm0,0" transform="translate(-160.624 -182.527)"/><path d="M176,280h9.785v1.4H176Zm0,0" transform="translate(-160.624 -255.538)"/><path d="M176,312h6.989v1.4H176Zm0,0" transform="translate(-160.624 -284.742)"/><path d="M176,392h9.785v1.4H176Zm0,0" transform="translate(-160.624 -357.753)"/><path d="M176,424h6.989v1.4H176Zm0,0" transform="translate(-160.624 -386.958)"/><path d="M496,0h1.4V9.785H496Zm0,0" transform="translate(-452.667)"/><path d="M464,0h1.4V6.989H464Zm0,0" transform="translate(-423.463)"/><path d="M432,0h1.4V4.193H432Zm0,0" transform="translate(-394.259)"/></g></g><g transform="translate(122 302)"><rect width="66" height="66" rx="6" transform="translate(318 5370)" fill="#fff"/><g transform="translate(328.5 5379.063)"><path d="M35.807,184H15.61A5.61,5.61,0,0,0,10,189.61v14.4a5.61,5.61,0,0,0,5.61,5.61h6.076l-.084.007,4.107,4.107,0-4.114h10.1a5.61,5.61,0,0,0,5.61-5.61v-14.4A5.61,5.61,0,0,0,35.807,184Z" transform="translate(-9.065 -166.795)" fill="#ffd63d"/><path d="M16.644,205.6a.935.935,0,0,1-.661-.274l-3.84-3.84h-5.6A6.553,6.553,0,0,1,0,194.945v-14.4A6.553,6.553,0,0,1,6.545,174h9.444a.935.935,0,0,1,0,1.87H6.545a4.68,4.68,0,0,0-4.675,4.675v14.4a4.68,4.68,0,0,0,4.675,4.675h6.076a.935.935,0,0,1,.858.562l2.232,2.232v-1.859a.935.935,0,0,1,.935-.934h10.1a4.68,4.68,0,0,0,4.675-4.675v-6.452a.935.935,0,0,1,1.87,0v6.452a6.553,6.553,0,0,1-6.545,6.545H17.581l0,3.18a.935.935,0,0,1-.935.934Z" transform="translate(0 -157.73)"/><path d="M221.022,10h-2.367A12.655,12.655,0,0,0,206,22.655h0a12.655,12.655,0,0,0,12.655,12.655h2.367a12.652,12.652,0,0,0,3.722-.557l3.884,3.882V32.77a12.636,12.636,0,0,0,5.049-10.115h0A12.655,12.655,0,0,0,221.022,10Z" transform="translate(-186.738 -9.065)" fill="#bbdeaf"/><path d="M219.563,30.506a.935.935,0,0,1-.661-.274l-3.5-3.494a13.616,13.616,0,0,1-3.449.442H209.59A13.59,13.59,0,1,1,209.59,0h2.366a13.606,13.606,0,0,1,13.59,13.59,13.444,13.444,0,0,1-1.477,6.167,13.721,13.721,0,0,1-3.572,4.4v5.41a.935.935,0,0,1-.935.935Zm-3.884-5.752a.935.935,0,0,1,.661.274l2.288,2.287V23.705a.935.935,0,0,1,.372-.747A11.721,11.721,0,0,0,211.957,1.87H209.59a11.72,11.72,0,1,0,0,23.441h2.366A11.724,11.724,0,0,0,215.4,24.8.934.934,0,0,1,215.679,24.754Z" transform="translate(-177.673)"/><path d="M318.421,80.976a.935.935,0,0,1-.935-.935V77.795a1.77,1.77,0,0,1,1.394-1.734,2.089,2.089,0,1,0-2.548-2.038.935.935,0,1,1-1.87,0,3.973,3.973,0,0,1,1.258-2.894,3.959,3.959,0,1,1,3.636,6.742v2.172A.935.935,0,0,1,318.421,80.976Z" transform="translate(-285.059 -63.512)"/><path d="M347.735,208.2a.934.934,0,1,1,.661-.273A.942.942,0,0,1,347.735,208.2Z" transform="translate(-314.373 -187.037)"/><path d="M74.664,311.87H54.935a.935.935,0,1,1,0-1.87H74.664a.935.935,0,1,1,0,1.87Z" transform="translate(-48.951 -281.014)"/><path d="M265.935,367.87a.935.935,0,1,1,.661-.274A.942.942,0,0,1,265.935,367.87Z" transform="translate(-240.221 -331.778)"/><path d="M70.987,367.87H54.935a.935.935,0,1,1,0-1.87H70.987a.935.935,0,1,1,0,1.87Z" transform="translate(-48.951 -331.778)"/><path d="M68.587,255.87H54.935a.935.935,0,1,1,0-1.87H68.587a.935.935,0,0,1,0,1.87Z" transform="translate(-48.951 -230.25)"/></g></g><g transform="translate(122 308)"><rect width="66" height="66" rx="6" transform="translate(318 5433)" fill="#fff"/><g transform="translate(328.5 5446.5)"><g transform="translate(0.638 0.638)"><circle cx="10.444" cy="10.444" r="10.444" transform="translate(1.367)" fill="#ffd63d"/><g transform="translate(0 11.727)"><circle cx="1.367" cy="1.367" r="1.367" fill="#f9b767"/></g><g transform="translate(6.587 5.14)"><circle cx="1.367" cy="1.367" r="1.367" fill="#f9b767"/></g><g transform="translate(13.573 12.126)"><circle cx="1.367" cy="1.367" r="1.367" fill="#f9b767"/></g><g transform="translate(22.645 3.054)"><circle cx="1.367" cy="1.367" r="1.367" fill="#f9b767"/></g><g transform="translate(28.668 9.077)"><circle cx="1.367" cy="1.367" r="1.367" fill="#f9b767"/></g><g transform="translate(6.123 10.444)"><rect width="3.74" height="10.52" transform="translate(0 18.167)" fill="#ff854e"/><rect width="3.74" height="10.52" transform="translate(6.3 18.167)" fill="#ff854e"/><rect width="3.74" height="13.632" transform="translate(12.6 15.055)" fill="#ff854e"/><rect width="3.74" height="18.27" transform="translate(18.899 10.416)" fill="#bbdeaf"/><rect width="3.74" height="23.068" transform="translate(25.199 5.619)" fill="#bbdeaf"/><rect width="3.74" height="28.687" transform="translate(31.499)" fill="#bbdeaf"/></g></g><path d="M2.374,34.208a11.038,11.038,0,0,0,2.325,3.3.638.638,0,1,0,.892-.912,9.772,9.772,0,0,1-2.1-3.015A2,2,0,0,0,3.8,31.343l3.9-3.9a2,2,0,0,0,1.739.024l4.288,4.288c.012.012.024.023.037.033a2.005,2.005,0,1,0,3.683.114L22,27.35A9.809,9.809,0,0,1,7.559,38.09.638.638,0,0,0,6.921,39.2,11.085,11.085,0,0,0,23.037,26.311l.88-.88a2,2,0,0,0,1.689-.1l3.305,3.305a2.008,2.008,0,1,0,.935-.87l-3.37-3.37a2,2,0,1,0-3.539.214l-.4.4A11.082,11.082,0,0,0,1.367,29.588c0,.247.009.494.025.74a2,2,0,0,0,.982,3.88Zm28.3-5.349a.729.729,0,1,1-.729.729A.73.73,0,0,1,30.673,28.859ZM24.65,22.836a.729.729,0,1,1-.729.729A.73.73,0,0,1,24.65,22.836ZM7.863,25.651a.729.729,0,1,1,.729.729A.73.73,0,0,1,7.863,25.651Zm7.715,7.715a.729.729,0,1,1,.729-.729A.73.73,0,0,1,15.578,33.366ZM12.449,19.782a9.822,9.822,0,0,1,9.117,6.195l-4.947,4.947a2,2,0,0,0-1.982-.057l-.011-.012L10.363,26.59A2.005,2.005,0,1,0,6.8,26.541l-3.9,3.9a2,2,0,0,0-.223-.095c-.019-.252-.029-.506-.029-.759A9.817,9.817,0,0,1,12.449,19.782ZM1.276,32.238a.729.729,0,1,1,.729.729A.73.73,0,0,1,1.276,32.238Z" transform="translate(0 -18.506)"/><path d="M49.33,171.242a.638.638,0,0,0,0-1.276h-.28V156a.638.638,0,0,0-1.276,0v13.967H45.311V142.555h2.464v10.839a.638.638,0,1,0,1.276,0V141.917a.638.638,0,0,0-.638-.638h-3.74a.638.638,0,0,0-.638.638v28.049H42.75v-22.43a.638.638,0,0,0-.638-.638H38.373a.638.638,0,0,0-.638.638v22.43H36.45V152.333a.638.638,0,0,0-.638-.638h-3.74a.638.638,0,0,0-.638.638v17.632H30.151V156.972a.638.638,0,0,0-.638-.638h-3.74a.638.638,0,0,0-.638.638v12.994H23.851v-9.882a.638.638,0,0,0-.638-.638h-3.74a.638.638,0,0,0-.638.638v3.688a.638.638,0,1,0,1.276,0v-3.05h2.464v9.244H20.111v-3.589a.638.638,0,1,0-1.276,0v3.589H17.551v-9.882a.638.638,0,0,0-.638-.638H13.174a.638.638,0,0,0-.638.638v9.882H7.647a.638.638,0,0,0,0,1.276H49.33Zm-10.32-23.068h2.463v21.792H39.011Zm-6.3,4.8h2.464v16.994H32.711Zm-6.3,4.639h2.464v12.356H26.411Zm-12.6,3.112h2.463v9.244H13.812Z" transform="translate(-6.413 -130.835)"/><path d="M486.843,32.189a.638.638,0,0,0,.638-.638v-.14a.638.638,0,0,0-1.276,0v.14A.638.638,0,0,0,486.843,32.189Z" transform="translate(-444.844 -29.729)"/><path d="M461.307,32.189a.638.638,0,0,0,.638-.638v-.14a.638.638,0,1,0-1.276,0v.14A.638.638,0,0,0,461.307,32.189Z" transform="translate(-421.48 -29.729)"/><path d="M461.307,63.615h2.157a.638.638,0,1,0,0-1.276h-2.157a.638.638,0,0,0,0,1.276Z" transform="translate(-421.48 -58.61)"/><path d="M419.054,87.818h5.751a.638.638,0,0,0,0-1.276h-5.751a.638.638,0,0,0,0,1.276Z" transform="translate(-382.821 -80.754)"/></g></g><g transform="translate(87.25 288.25)"><rect width="66" height="66" rx="6" transform="translate(722.75 5244.75)" fill="#fff"/><g transform="translate(731.926 5253.927)"><g transform="translate(7 7)"><path d="M92.579,93.488V80.068a4.186,4.186,0,1,0-8.364.355,4.846,4.846,0,0,0-4.6,6.3,5.464,5.464,0,0,0-.428,10.106c-3.3,3.526.2,9.207,5.033,7.875a4.186,4.186,0,1,0,8.362.382v-11.6h0Z" transform="translate(-76.001 -76.001)" fill="#bbdeaf"/><path d="M260.19,76A4.13,4.13,0,0,0,256,80.068V105.09a4.186,4.186,0,1,0,8.362-.382c4.833,1.331,8.333-4.349,5.034-7.875a5.681,5.681,0,0,0,2.067-1.674,5.985,5.985,0,1,1-2.293-10.528,4.915,4.915,0,0,0-4.8-4.208A4.117,4.117,0,0,0,260.19,76Z" transform="translate(-239.422 -76.001)" fill="#ffd63d"/><path d="M324.708,179.869a5.987,5.987,0,1,0-5.987-5.987A6,6,0,0,0,324.708,179.869Z" transform="translate(-296.366 -159.432)" fill="#e1e6e9"/></g><path d="M283.05,150.5h-.015a.921.921,0,0,0,0,1.842h.027a.921.921,0,0,0-.012-1.842Z" transform="translate(-256.131 -136.639)"/><path d="M146.122,275.864l-.02,0a.921.921,0,0,0,.406,1.8h0a.921.921,0,0,0-.388-1.8Z" transform="translate(-131.994 -250.438)"/><path d="M246.921,3.684a.921.921,0,0,0,.921-.921V.921a.921.921,0,0,0-1.842,0V2.763A.921.921,0,0,0,246.921,3.684Z" transform="translate(-223.343)"/><path d="M124.042,35.934a.921.921,0,0,0,1.6-.921l-.921-1.6a.921.921,0,0,0-1.6.921Z" transform="translate(-111.669 -29.922)"/><path d="M33.417,124.718l1.6.921a.921.921,0,0,0,.921-1.6l-1.6-.921a.921.921,0,1,0-.921,1.6Z" transform="translate(-29.921 -111.671)"/><path d="M3.684,246.921A.921.921,0,0,0,2.763,246H.921a.921.921,0,0,0,0,1.842H2.763A.921.921,0,0,0,3.684,246.921Z" transform="translate(0 -223.343)"/><path d="M35.012,359.122l-1.6.921a.921.921,0,1,0,.921,1.6l1.6-.921a.921.921,0,1,0-.921-1.6Z" transform="translate(-29.921 -325.934)"/><path d="M125.3,441.844a.921.921,0,0,0-1.258.337l-.921,1.6a.921.921,0,1,0,1.6.921l.921-1.6A.921.921,0,0,0,125.3,441.844Z" transform="translate(-111.67 -401.038)"/><path d="M246.921,472a.921.921,0,0,0-.921.921v1.842a.921.921,0,1,0,1.842,0v-1.842A.921.921,0,0,0,246.921,472Z" transform="translate(-223.343 -428.528)"/><path d="M360.717,442.181a.921.921,0,1,0-1.6.921l.921,1.6a.921.921,0,0,0,1.6-.921Z" transform="translate(-325.934 -401.037)"/><path d="M444.7,360.043l-1.6-.921a.921.921,0,1,0-.921,1.6l1.6.921a.921.921,0,1,0,.921-1.6Z" transform="translate(-401.036 -325.935)"/><path d="M474.763,246h-1.842a.921.921,0,0,0,0,1.842h1.842a.921.921,0,1,0,0-1.842Z" transform="translate(-428.528 -223.343)"/><path d="M102.169,81.371a6.918,6.918,0,0,0-4.7-6.545,5.843,5.843,0,0,0-4.688-4.316A4.884,4.884,0,0,0,91.5,67.664a5.185,5.185,0,0,0-8,.472,5.185,5.185,0,0,0-8-.472,4.885,4.885,0,0,0-1.278,2.844,5.821,5.821,0,0,0-3.813,2.405,5.592,5.592,0,0,0-.955,4.213,6.367,6.367,0,0,0-.714,10.893,5.52,5.52,0,0,0,0,5.891,5.747,5.747,0,0,0,5.518,2.812,4.958,4.958,0,0,0,1.234,2.6,5.185,5.185,0,0,0,8.013-.459,5.185,5.185,0,0,0,8.013.459,4.957,4.957,0,0,0,1.234-2.6,5.747,5.747,0,0,0,5.518-2.812,5.519,5.519,0,0,0-.225-6.216A6.916,6.916,0,0,0,102.169,81.371ZM79.308,99.156a3.323,3.323,0,0,1-2.459-1.074,3.062,3.062,0,0,1-.8-1.788,3.934,3.934,0,0,0,2.412-2.632c.27-.712.406-1.069,1.177-1.276a.921.921,0,1,0-.477-1.779,3.321,3.321,0,0,0-2.422,2.4A2.229,2.229,0,0,1,74.9,94.738h-.006a3.994,3.994,0,0,1-4.582-1.783,3.694,3.694,0,0,1,.466-4.575.921.921,0,0,0-.276-1.46,4.544,4.544,0,0,1,.36-8.414.921.921,0,0,0,.545-1.152,3.76,3.76,0,0,1,.508-3.383,4.028,4.028,0,0,1,3.235-1.708,2.246,2.246,0,0,1,2.39,1.493,2.854,2.854,0,0,0,2.634,1.867.921.921,0,0,0,0-1.842c-.475,0-.6-.15-1.022-.915a3.964,3.964,0,0,0-3.071-2.375,3.075,3.075,0,0,1,.777-1.585,3.324,3.324,0,0,1,2.452-1.066,3.213,3.213,0,0,1,3.269,3.146V83.445a3.661,3.661,0,0,1-3.365-2.415A4.612,4.612,0,0,0,75.333,78.1a.921.921,0,1,0-.194,1.832c1.463.155,1.857.879,2.455,1.976a11.249,11.249,0,0,0,.741,1.226,7.858,7.858,0,0,1-2.048,1.416.921.921,0,1,0,.818,1.65,9.528,9.528,0,0,0,2.556-1.79,6.242,6.242,0,0,0,2.916.877V96.01A3.213,3.213,0,0,1,79.308,99.156ZM96.221,88.382a3.694,3.694,0,0,1,.466,4.575A3.994,3.994,0,0,1,92.1,94.74H92.1a2.229,2.229,0,0,1-1.844-1.731,3.321,3.321,0,0,0-2.422-2.4.921.921,0,1,0-.477,1.779c.771.207.907.564,1.177,1.276a3.934,3.934,0,0,0,2.412,2.632,3.062,3.062,0,0,1-.8,1.788,3.323,3.323,0,0,1-2.459,1.074,3.213,3.213,0,0,1-3.269-3.146V89.422a2.537,2.537,0,0,1,1.69-2.7,2.441,2.441,0,0,1,2.7,1.345.921.921,0,1,0,1.6-.921,4.283,4.283,0,0,0-4.776-2.2,3.843,3.843,0,0,0-1.214.565V70.988a3.213,3.213,0,0,1,3.269-3.146,3.324,3.324,0,0,1,2.452,1.066,3.075,3.075,0,0,1,.776,1.583A3.791,3.791,0,0,0,88.009,72.6a.921.921,0,1,0,1.6.919,2.139,2.139,0,0,1,2.244-1.251,4.057,4.057,0,0,1,3.531,2.2c-.04,0-.079,0-.119,0A6.908,6.908,0,1,0,96.1,88.226.913.913,0,0,0,96.221,88.382Zm-.959-1.945a5.066,5.066,0,1,1,5.066-5.066A5.071,5.071,0,0,1,95.261,86.437Z" transform="translate(-59.92 -59.921)"/><path d="M367.329,203.6h-1.65v-2.452a.921.921,0,1,0-1.842,0v3.373a.921.921,0,0,0,.921.921h2.571a.921.921,0,1,0,0-1.842Z" transform="translate(-330.327 -181.782)"/></g></g><g transform="translate(87 296)"><rect width="66" height="66" rx="6" transform="translate(723 5306)" fill="#fff"/><g transform="translate(733.5 5319.5)"><g transform="translate(26.743 24.462)"><path d="M321.4,317.692l-2.041,2.041a1.3,1.3,0,0,1-1.839,0l-9.074-9.074,3.88-3.88,9.074,9.074A1.3,1.3,0,0,1,321.4,317.692Z" transform="translate(-308.449 -306.778)" fill="#ff854e"/></g><g transform="translate(9.796 7.515)"><circle cx="12.604" cy="12.604" r="12.604" transform="translate(0 0)" fill="#ffd63d"/></g><g transform="translate(11.335 9.054)"><path d="M150.717,131.22a12.608,12.608,0,0,0-2.872-2.153,12.608,12.608,0,0,1-17.106,17.106,12.605,12.605,0,1,0,19.978-14.953Z" transform="translate(-130.739 -129.067)" fill="#fff3c6"/></g><g transform="translate(13.794 15.288)"><path d="M175.892,204.835a1.406,1.406,0,0,1,0,2.038c-1.511,1.434-4.606,3.875-8.18,3.875s-6.669-2.44-8.18-3.875a1.406,1.406,0,0,1,0-2.038c1.511-1.434,4.606-3.875,8.18-3.875S174.381,203.4,175.892,204.835Z" transform="translate(-159.095 -200.96)" fill="#fceed9"/></g><g transform="translate(13.829 17.64)"><path d="M176.264,229.611a18.046,18.046,0,0,0-1.831-1.522,1.4,1.4,0,0,1-.4,1.328c-1.511,1.434-4.606,3.875-8.18,3.875a11.153,11.153,0,0,1-6.349-2.352,1.4,1.4,0,0,0,.4.711c1.511,1.434,4.606,3.875,8.18,3.875s6.669-2.44,8.18-3.875A1.406,1.406,0,0,0,176.264,229.611Z" transform="translate(-159.502 -228.089)" fill="#fad59a"/></g><g transform="translate(19.87 17.64)"><circle cx="2.542" cy="2.542" r="2.542" fill="#7c8b96"/></g><g transform="translate(20.01 17.781)"><path d="M234.029,229.714a2.542,2.542,0,0,1-3.235,3.235,2.542,2.542,0,1,0,3.235-3.235Z" transform="translate(-230.794 -229.714)" fill="#465961"/></g><path d="M134.357,127.952a.651.651,0,1,0-.92.92l2.137,2.137a.673.673,0,0,1,0,.92l-2.04,2.04a.651.651,0,0,1-.92,0l-6.1-6.1a13.2,13.2,0,0,0,2.961-2.958l1.887,1.887a.651.651,0,0,0,.92-.92l-2.082-2.082a13.255,13.255,0,1,0-21.114,2.422.651.651,0,0,0,.947-.892,11.954,11.954,0,1,1,17.159.262,12.029,12.029,0,0,1-14.846,1.651.65.65,0,0,0-.7,1.1,13.252,13.252,0,0,0,13.749.256l6.3,6.3a1.954,1.954,0,0,0,2.76,0l2.04-2.04a1.954,1.954,0,0,0,0-2.76Z" transform="translate(-96.337 -97.013)"/><path d="M165.215,195.218a.65.65,0,0,0-.334-.857,9.992,9.992,0,0,0-4.022-.9c-3.792,0-7.033,2.539-8.628,4.053a2.057,2.057,0,0,0,0,2.982c1.595,1.514,4.836,4.053,8.628,4.053s7.033-2.539,8.628-4.053a2.057,2.057,0,0,0,0-2.982,18.661,18.661,0,0,0-1.793-1.5.65.65,0,1,0-.77,1.049,17.37,17.37,0,0,1,1.667,1.4.755.755,0,0,1,0,1.095c-1.454,1.38-4.392,3.7-7.732,3.7s-6.278-2.315-7.732-3.7a.756.756,0,0,1,0-1.095c1.454-1.38,4.392-3.7,7.732-3.7a8.7,8.7,0,0,1,3.5.793.65.65,0,0,0,.857-.334Z" transform="translate(-138.449 -178.821)"/><path d="M221.667,223.778a3.192,3.192,0,1,0,3.192-3.192A3.2,3.2,0,0,0,221.667,223.778Zm5.083,0a1.891,1.891,0,1,1-1.891-1.891A1.893,1.893,0,0,1,226.75,223.778Z" transform="translate(-202.448 -203.597)"/><path d="M381.383,44.1a.649.649,0,0,0,.46-.19l2.838-2.838,1.225,1.225a.972.972,0,0,0,1.372,0l3.442-3.442v.873a.65.65,0,0,0,1.3,0v-2.41a.65.65,0,0,0-.65-.65h-2.41a.65.65,0,0,0,0,1.3h.806l-3.174,3.174-1.225-1.225a.971.971,0,0,0-1.372,0l-3.072,3.072a.65.65,0,0,0,.46,1.11Z" transform="translate(-347.722 -35.621)"/><path d="M4.29,31.336a3.35,3.35,0,1,0-3.35-3.35A3.353,3.353,0,0,0,4.29,31.336Zm0-5.4a2.049,2.049,0,1,1-2.049,2.049A2.051,2.051,0,0,1,4.29,25.938Z" transform="translate(-0.859 -24.637)"/><path d="M5.437,127.624a3.35,3.35,0,1,0,3.35,3.35A3.354,3.354,0,0,0,5.437,127.624Zm0,5.4a2.049,2.049,0,1,1,2.049-2.049A2.051,2.051,0,0,1,5.437,133.022Z" transform="translate(-1.906 -118.695)"/><path d="M5.437,229.406a3.35,3.35,0,1,0,3.35,3.35A3.354,3.354,0,0,0,5.437,229.406Zm0,5.4a2.049,2.049,0,1,1,2.049-2.049A2.051,2.051,0,0,1,5.437,234.8Z" transform="translate(-1.906 -211.652)"/><path d="M101.837,37.912h5.757a.65.65,0,1,0,0-1.3h-5.757a.65.65,0,1,0,0,1.3Z" transform="translate(-92.414 -35.573)"/><path d="M101.837,69.883h2.878a.65.65,0,1,0,0-1.3h-2.878a.65.65,0,1,0,0,1.3Z" transform="translate(-92.414 -64.772)"/><path d="M464.187,142.775H461.01a.65.65,0,0,0,0,1.3h3.176a.65.65,0,0,0,0-1.3Z" transform="translate(-420.446 -132.532)"/><circle cx="0.722" cy="0.722" r="0.722" transform="translate(37.43 10.188)"/><path d="M464.187,173.356H461.01a.65.65,0,1,0,0,1.3h3.176a.65.65,0,0,0,0-1.3Z" transform="translate(-420.446 -160.462)"/><circle cx="0.722" cy="0.722" r="0.722" transform="translate(37.43 12.839)"/><path d="M265.876,440.751H262.7a.65.65,0,0,0,0,1.3h3.176a.65.65,0,0,0,0-1.3Z" transform="translate(-239.329 -404.673)"/><path d="M234.119,440.115a.722.722,0,1,0,.723.722A.722.722,0,0,0,234.119,440.115Z" transform="translate(-213.161 -404.092)"/><path d="M265.876,471.333H262.7a.65.65,0,0,0,0,1.3h3.176a.65.65,0,0,0,0-1.3Z" transform="translate(-239.329 -432.603)"/><circle cx="0.722" cy="0.722" r="0.722" transform="translate(20.236 38.674)"/><path d="M464.187,204H461.01a.65.65,0,0,0,0,1.3h3.176a.65.65,0,0,0,0-1.3Z" transform="translate(-420.446 -188.45)"/><path d="M464.187,234.583H461.01a.65.65,0,0,0,0,1.3h3.176a.65.65,0,0,0,0-1.3Z" transform="translate(-420.446 -216.38)"/><circle cx="0.722" cy="0.722" r="0.722" transform="translate(37.43 18.148)"/><path d="M464.187,265.165H461.01a.65.65,0,1,0,0,1.3h3.176a.65.65,0,0,0,0-1.3Z" transform="translate(-420.446 -244.311)"/><path d="M464.187,295.746H461.01a.65.65,0,1,0,0,1.3h3.176a.65.65,0,0,0,0-1.3Z" transform="translate(-420.446 -272.24)"/><path d="M432.43,295.11a.722.722,0,1,0,.723.722A.722.722,0,0,0,432.43,295.11Z" transform="translate(-394.278 -271.659)"/><path d="M17.554,397.179H15.121V393.46a1,1,0,0,0-1-1H11.764a1,1,0,0,0-1,1v3.719H9.839v-6.047a1,1,0,0,0-1-1H6.483a1,1,0,0,0-1,1v6.047h-.8v-2.056a1,1,0,0,0-1-1H1.328a1,1,0,0,0-1,1v2.14a.65.65,0,0,0,.32,1.216h16.9a.65.65,0,0,0,0-1.3Zm-5.487-3.415H13.82v3.415H12.068Zm-5.281-2.328H8.538v5.744H6.786Zm-5.155,3.992H3.383v1.752H1.631Z" transform="translate(0 -358.444)"/></g></g><g transform="translate(87 302)"><rect width="66" height="66" rx="6" transform="translate(723 5370)" fill="#fff"/><g transform="translate(733.5 5379)"><g transform="translate(0.738 0.738)"><g transform="translate(0 0)"><path d="M1096.282,808.125a5.813,5.813,0,0,1,2.983,5.079v6.861H1079.77V813.2a5.811,5.811,0,0,1,5.814-5.814h1.538l2.394,3.286,2.395-3.286h1.539A5.792,5.792,0,0,1,1096.282,808.125Z" transform="translate(-1056.844 -791.167)" fill="#79be60"/><path d="M1190.269,286.765v10.193a5.79,5.79,0,0,0-2.832-.735h-1.54l-.159-2.428-.061-.035a4.356,4.356,0,0,0,2.177-3.77v-3.062s-5.151.433-6.192-2.9a4.954,4.954,0,0,1-2.51,2.9v3.062a4.349,4.349,0,0,0,2.14,3.748l-.025.056-.159,2.429h-1.538a5.787,5.787,0,0,0-2.831.735V286.765a6.765,6.765,0,0,1,13.529,0Z" transform="translate(-1150.831 -280)" fill="#cc6c41"/><path d="M1263.892,413.859v3.062a4.353,4.353,0,0,1-2.177,3.77,4.4,4.4,0,0,1-.542.265,4.352,4.352,0,0,1-5.983-4.035v-3.062a4.956,4.956,0,0,0,2.51-2.9C1258.741,414.292,1263.892,413.859,1263.892,413.859Z" transform="translate(-1226.868 -406.932)" fill="#f9c7b2"/><path d="M1323.41,726.647l.159,2.428-2.395,3.286-2.394-3.286.159-2.429.025-.056a4.348,4.348,0,0,0,4.385.022Z" transform="translate(-1288.502 -712.852)" fill="#f0c0aa"/><path d="M347.53,1330.187l.588-.457,4.72,1.177a2.414,2.414,0,0,1,1.831,2.343v9.962H334.49v-9.962a2.414,2.414,0,0,1,1.831-2.343l4.72-1.177.695.54,2.844,2.21Z" transform="translate(-334.49 -1297.439)" fill="#ff854e"/><path d="M505.12,799.131a2.69,2.69,0,0,1-.414,1.512,11.007,11.007,0,0,1-.583,1.041,7.593,7.593,0,0,1-1.248-1.051c-4.255,2-6.906-.091-6.906-.091a5.1,5.1,0,0,1-1.831,1.142,4.993,4.993,0,0,1-.3-1.675,5.048,5.048,0,0,1,.056-1.482,3.837,3.837,0,0,1,.795-1.41q.1-.126.214-.245a7.763,7.763,0,0,1,3.659-1.914,7.376,7.376,0,0,1,2.2-.19,6.5,6.5,0,0,1,1.239.2,1.446,1.446,0,0,1,.849.57,9.183,9.183,0,0,0,.517,1.043c.277.328.655.523.939.843A3.3,3.3,0,0,1,505.12,799.131Z" transform="translate(-488.911 -778.915)" fill="#cc6c41"/><path d="M514.376,984.172v2.336a5.639,5.639,0,0,1-2.588,4.845,4.585,4.585,0,0,1-5.08-.177,5.131,5.131,0,0,1-.856-.76,5.821,5.821,0,0,1-1.462-3.909v-2.336a5.1,5.1,0,0,0,1.831-1.142s2.652,2.1,6.906.091A7.59,7.59,0,0,0,514.376,984.172Z" transform="translate(-499.164 -961.404)" fill="#f9c7b2"/><path d="M575.815,1250.806l-2.951,2.293-2.844-2.21a6.026,6.026,0,0,0,.428-2.012,3.389,3.389,0,0,0-.14-1.031l.012-.017a4.587,4.587,0,0,0,5.08.177l.023.037h0a2.749,2.749,0,0,0-.065.711A5.735,5.735,0,0,0,575.815,1250.806Z" transform="translate(-562.775 -1218.058)" fill="#f0c0aa"/></g></g><g transform="translate(0 0)"><g transform="translate(0 15.834)"><g transform="translate(7.245 13.954)"><path d="M546.748,1228.894a.739.739,0,0,1-.687-1.009,5.352,5.352,0,0,0,.377-1.758,2.221,2.221,0,0,0-.084-.688c-.013-.052-.025-.106-.038-.163a.738.738,0,1,1,1.44-.326c.011.051.023.1.034.144a3.648,3.648,0,0,1,.124,1.066,6.746,6.746,0,0,1-.479,2.265A.738.738,0,0,1,546.748,1228.894Z" transform="translate(-546.01 -1224.375)" fill="#333"/><g transform="translate(5.335 0.198)"><path d="M720.649,1235.039a.739.739,0,0,1-.682-.455,6.41,6.41,0,0,1-.516-2.318,3.46,3.46,0,0,1,.079-.872.738.738,0,0,1,1.463.144h0a.735.735,0,0,1-.017.159,2.042,2.042,0,0,0-.049.536,4.946,4.946,0,0,0,.4,1.784.738.738,0,0,1-.681,1.022Z" transform="translate(-719.45 -1230.8)" fill="#333"/></g></g><g transform="translate(4.901)"><g transform="translate(0.325 5.788)"><path d="M486.121,969.382a5.46,5.46,0,0,1-4.078-1.862,6.54,6.54,0,0,1-1.653-4.4v-2.336a.739.739,0,0,1,.5-.7,4.3,4.3,0,0,0,1.525-.939.728.728,0,0,1,1-.086,4.491,4.491,0,0,0,1.643.676,7.008,7.008,0,0,0,4.493-.671.738.738,0,0,1,.851.16,6.9,6.9,0,0,0,1.1.931.739.739,0,0,1,.35.628v2.336a6.54,6.54,0,0,1-1.653,4.4A5.462,5.462,0,0,1,486.121,969.382Zm-4.255-8.108v1.842a4.284,4.284,0,1,0,8.509,0v-1.947a8.3,8.3,0,0,1-.668-.562,8.251,8.251,0,0,1-5.055.548,6.427,6.427,0,0,1-1.606-.593A5.943,5.943,0,0,1,481.867,961.275Z" transform="translate(-480.39 -958.897)" fill="#333"/></g><path d="M470.875,779.159a.738.738,0,0,1-.678-.445,5.624,5.624,0,0,1-.357-1.922,5.744,5.744,0,0,1,.074-1.7,4.383,4.383,0,0,1,.942-1.706c.079-.1.162-.192.246-.282a8.677,8.677,0,0,1,4.033-2.129,8.081,8.081,0,0,1,2.424-.207,7.114,7.114,0,0,1,1.382.227,2.161,2.161,0,0,1,1.27.88,3.162,3.162,0,0,1,.287.6,1.476,1.476,0,0,0,.175.365,2.637,2.637,0,0,0,.376.334,4.064,4.064,0,0,1,.552.5,4.022,4.022,0,0,1,.994,2.129,3.385,3.385,0,0,1-.5,1.932l-.045.087a4.146,4.146,0,0,1-.687,1.144.738.738,0,0,1-1.056-1.028c.04-.062.148-.246.432-.8.031-.06.053-.1.061-.117a1.964,1.964,0,0,0,.327-1.091,2.566,2.566,0,0,0-.629-1.283,2.853,2.853,0,0,0-.361-.317,3.874,3.874,0,0,1-.589-.54,2.609,2.609,0,0,1-.424-.787,2,2,0,0,0-.149-.331.755.755,0,0,0-.429-.26,5.739,5.739,0,0,0-1.1-.176,6.622,6.622,0,0,0-1.979.174,7.007,7.007,0,0,0-3.285,1.7c-.062.067-.124.137-.182.209a2.978,2.978,0,0,0-.648,1.113,4.516,4.516,0,0,0-.037,1.265,4.441,4.441,0,0,0,.239,1.428.738.738,0,0,1-.385.971A.727.727,0,0,1,470.875,779.159Zm9.487-1.283h0Z" transform="translate(-469.811 -770.749)" fill="#333"/></g><g transform="translate(0 16.457)"><path d="M331.408,1320.7h-20.18a.739.739,0,0,1-.738-.738V1310a3.148,3.148,0,0,1,2.39-3.059l4.72-1.177a.738.738,0,0,1,.632.134l3.086,2.4,3.086-2.4a.738.738,0,0,1,.632-.134l4.72,1.177a3.148,3.148,0,0,1,2.39,3.059v9.962A.739.739,0,0,1,331.408,1320.7Zm-19.441-1.477h18.7V1310a1.674,1.674,0,0,0-1.271-1.627l-4.372-1.089-3.256,2.53a.738.738,0,0,1-.906,0l-3.256-2.53-4.372,1.089a1.674,1.674,0,0,0-1.271,1.627v9.224Z" transform="translate(-310.49 -1305.738)" fill="#333"/></g><g transform="translate(4.323 22.634)"><path d="M451.768,1515.322a.738.738,0,0,1-.738-.739v-7.3a.738.738,0,1,1,1.476,0v7.3A.738.738,0,0,1,451.768,1515.322Z" transform="translate(-451.03 -1506.54)" fill="#333"/><g transform="translate(11.533)"><path d="M826.678,1515.322a.738.738,0,0,1-.738-.739v-7.3a.738.738,0,0,1,1.477,0v7.3A.738.738,0,0,1,826.678,1515.322Z" transform="translate(-825.94 -1506.54)" fill="#333"/></g></g></g><g transform="translate(22.926)"><g transform="translate(0 16.223)"><path d="M1076,797.532h-19.494a.739.739,0,0,1-.739-.738v-6.861a6.56,6.56,0,0,1,6.553-6.552h1.538a.738.738,0,0,1,0,1.477h-1.538a5.082,5.082,0,0,0-5.076,5.076v6.123h18.018v-6.123a5.081,5.081,0,0,0-5.076-5.076h-1.54a.738.738,0,0,1,0-1.477h1.54a6.56,6.56,0,0,1,6.552,6.552v6.861A.738.738,0,0,1,1076,797.532Z" transform="translate(-1055.77 -783.38)" fill="#333"/></g><g transform="translate(2.983)"><g transform="translate(2.413 4.029)"><path d="M1236.27,398.749a5.1,5.1,0,0,1-5.09-5.09V390.6a.739.739,0,0,1,.39-.651,4.241,4.241,0,0,0,2.146-2.441.738.738,0,0,1,.7-.545h.014a.738.738,0,0,1,.7.518c.346,1.11,1.335,1.849,2.938,2.2a9.49,9.49,0,0,0,2.487.186.739.739,0,0,1,.8.736v3.062a5.084,5.084,0,0,1-5.09,5.089Zm-3.613-7.726v2.637a3.613,3.613,0,1,0,7.226,0v-2.306a10.926,10.926,0,0,1-2.124-.234,5.679,5.679,0,0,1-3.287-1.811A6.178,6.178,0,0,1,1232.657,391.022Z" transform="translate(-1231.18 -386.96)" fill="#333"/></g><path d="M1167.008,274.454a.739.739,0,0,1-.738-.738V263.5a6.026,6.026,0,0,0-12.053,0v10.213a.738.738,0,1,1-1.476,0V263.5a7.5,7.5,0,0,1,15.006,0v10.213A.739.739,0,0,1,1167.008,274.454Z" transform="translate(-1152.74 -256)" fill="#333"/></g><g transform="translate(7.352 13.794)"><path d="M1297.9,711.612a.738.738,0,0,1-.6-.3l-2.395-3.286a.739.739,0,0,1-.14-.483l.159-2.423a.738.738,0,0,1,1.475.042h0c0,.016,0,.032,0,.048l-.141,2.162,1.64,2.251,1.641-2.251-.142-2.161a.738.738,0,0,1,1.474-.1l.159,2.428a.736.736,0,0,1-.14.483l-2.395,3.286A.738.738,0,0,1,1297.9,711.612Z" transform="translate(-1294.768 -704.42)" fill="#333"/></g><g transform="translate(3.744 21.848)"><path d="M1178.228,974.757a.739.739,0,0,1-.738-.738v-7.051a.738.738,0,0,1,1.477,0v7.051A.738.738,0,0,1,1178.228,974.757Z" transform="translate(-1177.49 -966.23)" fill="#333"/><g transform="translate(12.006)"><path d="M1568.528,974.757a.738.738,0,0,1-.738-.738v-7.051a.738.738,0,0,1,1.476,0v7.051A.738.738,0,0,1,1568.528,974.757Z" transform="translate(-1567.79 -966.23)" fill="#333"/></g></g></g></g><g transform="translate(8.672 1.302)"><g transform="translate(2.023 2.023)"><path d="M658.9,374.07a.739.739,0,0,1-.738-.738v-8.494a.739.739,0,0,1,.738-.738h8.494a.738.738,0,1,1,0,1.477h-7.756v7.756A.738.738,0,0,1,658.9,374.07Z" transform="translate(-658.16 -364.1)" fill="#333"/></g><g transform="translate(0 8.283)"><path d="M595.152,571.3a.739.739,0,0,1-.547-.243l-2.023-2.234a.738.738,0,0,1,1.094-.991l1.476,1.63,1.476-1.63a.738.738,0,0,1,1.095.991l-2.023,2.234A.738.738,0,0,1,595.152,571.3Z" transform="translate(-592.39 -567.587)" fill="#333"/></g><g transform="translate(8.282)"><path d="M862.375,303.859a.738.738,0,0,1-.5-1.286l1.63-1.476-1.63-1.476a.738.738,0,0,1,.991-1.094l2.234,2.023a.738.738,0,0,1,0,1.095l-2.234,2.023A.736.736,0,0,1,862.375,303.859Z" transform="translate(-861.637 -298.337)" fill="#333"/></g><g transform="translate(15.483 32.344)"><path d="M1104.952,1359.75h-8.494a.738.738,0,0,1,0-1.477h7.755v-7.755a.738.738,0,0,1,1.477,0v8.494A.738.738,0,0,1,1104.952,1359.75Z" transform="translate(-1095.72 -1349.78)" fill="#333"/><g transform="translate(6.471)"><path d="M1310.861,1353.49a.736.736,0,0,1-.547-.243l-1.476-1.63-1.475,1.63a.738.738,0,1,1-1.095-.991l2.023-2.234a.738.738,0,0,1,1.094,0l2.023,2.234a.738.738,0,0,1-.547,1.234Z" transform="translate(-1306.077 -1349.78)" fill="#333"/></g><g transform="translate(0 6.471)"><path d="M1098.7,1565.662a.736.736,0,0,1-.5-.191l-2.234-2.023a.738.738,0,0,1,0-1.094l2.234-2.023a.738.738,0,0,1,.991,1.095l-1.63,1.476,1.63,1.476a.738.738,0,0,1-.5,1.285Z" transform="translate(-1095.73 -1560.14)" fill="#333"/></g></g></g></g></g><g transform="translate(0 13)"><rect width="66" height="66" rx="6" transform="translate(810 5730)" fill="#fff"/><g transform="translate(823.58 5740.036)"><path d="M15.081,2.337l.809-1.4a1.341,1.341,0,0,1,2.323,1.341l-.809,1.4" transform="translate(23.148 0.406)" fill="#e4eff8"/><path d="M15.889.937l-.808,1.4L17.4,3.678l.354-.613L16.5,2.337l.81-1.4A1.333,1.333,0,0,1,17.76.473c-.013-.008-.024-.02-.038-.028a1.337,1.337,0,0,0-1.833.491Z" transform="translate(23.148 0.406)" fill="#c4dcf0"/><path d="M13.493,17.923a4.024,4.024,0,0,0,8.048,0V13.229H13.493" transform="translate(20.711 20.306)" fill="#ff854e"/><path d="M37.818,40.606H4.289A4.015,4.015,0,0,1,.265,36.582V1.073H33.8v36.18A3.77,3.77,0,0,0,37.818,40.606Z" transform="translate(0.406 1.647)" fill="#f5ead9"/><path d="M22.932,1.229l1.162.671a1.338,1.338,0,0,1,.491,1.832l-10.4,18-3.755,2.479.27-4.491,10.4-18a1.338,1.338,0,0,1,1.832-.491Z" transform="translate(16.016 1.61)" fill="#ffca28"/><path d="M21.1,1.72l-10.4,18-.27,4.49,1.415-.934.2-3.28,10.4-18a1.334,1.334,0,0,1,.766-.608l-.275-.158a1.338,1.338,0,0,0-1.833.49Z" transform="translate(16.016 1.61)" fill="#ecb200"/><path d="M.265,1.073V36.582a4.015,4.015,0,0,0,4.024,4.024H37.817a4.086,4.086,0,0,1-3.152-1.341H5.63a4.015,4.015,0,0,1-4.024-4.024V1.073Z" transform="translate(0.406 1.647)" fill="#c4dcf0"/><path d="M3.723,11.642H6.405a1.338,1.338,0,0,1,1.341,1.341v2.682a1.338,1.338,0,0,1-1.341,1.341H3.723a1.338,1.338,0,0,1-1.341-1.341V12.983a1.338,1.338,0,0,1,1.341-1.341Z" transform="translate(3.655 17.869)" fill="#ffd63d"/><path d="M3.723,7.938H6.405A1.338,1.338,0,0,1,7.747,9.279v2.682A1.338,1.338,0,0,1,6.405,13.3H3.723a1.338,1.338,0,0,1-1.341-1.341V9.279A1.338,1.338,0,0,1,3.723,7.938Z" transform="translate(3.655 12.184)" fill="#ff854e"/><path d="M3.723,4.234H6.405A1.338,1.338,0,0,1,7.747,5.576V8.258A1.338,1.338,0,0,1,6.405,9.6H3.723A1.338,1.338,0,0,1,2.381,8.258V5.576A1.338,1.338,0,0,1,3.723,4.234Z" transform="translate(3.655 6.499)" fill="#ff854e"/><path d="M5.365.009a.644.644,0,0,0-.671.669V2.016H.668A.671.671,0,0,0,0,2.689V38.232a4.688,4.688,0,0,0,4.693,4.693H38.229a4.689,4.689,0,0,0,4.7-4.693v-4.7a.671.671,0,0,0-.675-.668H34.874V16.6l5.3-9.18,1.162.672L37.984,13.9a.671.671,0,0,0,1.163.671l3.687-6.385a.671.671,0,0,0-.248-.916L40.845,6.259l.337-.583a1.987,1.987,0,0,0,.169-1.633l.593-1.024a2.014,2.014,0,1,0-3.491-2.008l-.586,1.017a2.023,2.023,0,0,0-1.334.966L34.874,5.868V2.689a.671.671,0,0,0-.668-.673H29.511V.678a.672.672,0,0,0-1.344,0V2.016H24.815V.678a.671.671,0,0,0-1.343,0V2.016H20.12V.678a.671.671,0,0,0-1.343,0V2.016H15.427V.678a.672.672,0,0,0-1.344,0V2.016H10.731V.678a.671.671,0,0,0-1.343,0V2.016H6.037V.678A.645.645,0,0,0,5.365.009ZM40.444,2.931l-1.163-.672.335-.582a.672.672,0,0,1,1.163.673Zm-1.832.489,1.153.665a.665.665,0,0,1,.253.923l-.334.58L37.361,4.246l.334-.579a.664.664,0,0,1,.917-.248ZM1.341,3.357H4.695V4.7a.671.671,0,0,0,1.343,0V3.357H9.388V4.7a.671.671,0,0,0,1.343,0V3.357h3.352V4.7a.672.672,0,0,0,1.344,0V3.357h3.351V4.7a.671.671,0,0,0,1.343,0V3.357h3.352V4.7a.671.671,0,0,0,1.343,0V3.357h3.352V4.7a.672.672,0,0,0,1.344,0V3.357h4.021V8.191L26.141,21a.671.671,0,0,0-.089.3l-.263,4.33-.255.443a.672.672,0,0,0,1.163.672l.257-.444,3.623-2.392a.671.671,0,0,0,.208-.224l2.748-4.76q-.007,9.663,0,19.31a4.689,4.689,0,0,0,1.406,3.35H4.693a3.342,3.342,0,0,1-3.352-3.35ZM36.689,5.409l2.324,1.34L34.32,14.881,32,13.538ZM7.375,10.063a2,2,0,0,0-2.009,2.009v2.684a2.012,2.012,0,0,0,2.009,2.014h2.688a2.011,2.011,0,0,0,2.009-2.014V12.072a2.01,2.01,0,0,0-2.009-2.009Zm0,1.341h2.688a.667.667,0,0,1,.668.668v2.684a.668.668,0,0,1-.668.673H7.375a.668.668,0,0,1-.668-.673V12.072A.663.663,0,0,1,7.375,11.4Zm8.051,0a.671.671,0,1,0,0,1.343H20.12a.671.671,0,0,0,0-1.343Zm0,2.681a.672.672,0,0,0,0,1.344H25.541a.672.672,0,0,0,0-1.344Zm15.9.613L33.65,16.04,29.7,22.874l-2.5,1.654.178-3ZM7.375,19.454a2.006,2.006,0,0,0-2.009,2.009v2.684a2.008,2.008,0,0,0,2.009,2.009h2.688a2.008,2.008,0,0,0,2.009-2.009V21.464a2,2,0,0,0-2.009-2.009Zm0,1.336h2.688a.671.671,0,0,1,.668.673v2.684a.662.662,0,0,1-.668.668H7.375a.665.665,0,0,1-.668-.668V21.464A.671.671,0,0,1,7.375,20.79Zm8.051,0a.671.671,0,1,0,0,1.343H20.12a.671.671,0,0,0,0-1.343Zm0,2.681a.672.672,0,0,0,0,1.344h6.707a.672.672,0,0,0,0-1.344ZM7.375,28.84A2.008,2.008,0,0,0,5.365,30.85v2.684a2.011,2.011,0,0,0,2.009,2.014h2.688a2.011,2.011,0,0,0,2.009-2.014V30.85a2.01,2.01,0,0,0-2.009-2.009Zm8.051,1.34a.671.671,0,1,0,0,1.343H20.12a.671.671,0,0,0,0-1.343Zm-8.051,0h2.688a.665.665,0,0,1,.668.668v2.684a.669.669,0,0,1-.668.673H7.375a.668.668,0,0,1-.668-.673V30.85A.669.669,0,0,1,7.375,30.182Zm8.051,2.68a.671.671,0,1,0,0,1.343h11.4a.671.671,0,0,0,0-1.343Zm19.448,1.345h6.708v4.025a3.354,3.354,0,0,1-6.708,0Z" transform="translate(0 0)"/></g></g></g></svg>