<svg xmlns="http://www.w3.org/2000/svg" width="155" height="49" viewBox="0 0 155 49"><g transform="translate(-3559 -11700)" fill="#fff"><path d="M 3672.999755859375 11747.2587890625 L 3672.999755859375 11736.5009765625 L 3672.999755859375 11735.5009765625 L 3671.999755859375 11735.5009765625 L 3560 11735.5009765625 L 3560 11713.4990234375 L 3671.999755859375 11713.4990234375 L 3672.999755859375 11713.4990234375 L 3672.999755859375 11712.4990234375 L 3672.999755859375 11701.7412109375 L 3692.9228515625 11713.36328125 L 3692.999267578125 11713.4072265625 L 3692.999267578125 11713.4072265625 L 3693.495361328125 11713.697265625 L 3712.01513671875 11724.5 L 3693.495361328125 11735.302734375 L 3692.999267578125 11735.5927734375 L 3692.9228515625 11735.63671875 L 3672.999755859375 11747.2587890625 Z" stroke="none"/><path d="M 3673.999755859375 11745.517578125 L 3710.030517578125 11724.5 L 3673.999755859375 11703.482421875 L 3673.999755859375 11714.4990234375 L 3561 11714.4990234375 L 3561 11734.5009765625 L 3673.999755859375 11734.5009765625 L 3673.999755859375 11745.517578125 M 3671.999755859375 11749 L 3671.999755859375 11736.5009765625 L 3559 11736.5009765625 L 3559 11712.4990234375 L 3671.999755859375 11712.4990234375 L 3671.999755859375 11700 L 3693.4267578125 11712.4990234375 L 3693.999267578125 11712.4990234375 L 3693.999267578125 11712.8330078125 L 3713.999755859375 11724.5 L 3693.999267578125 11736.1669921875 L 3693.999267578125 11736.5009765625 L 3693.4267578125 11736.5009765625 L 3671.999755859375 11749 Z" stroke="none" fill="#006c62"/></g></svg>