<svg xmlns="http://www.w3.org/2000/svg" width="399" height="537" viewBox="0 0 399 537">
  <g id="Grupo_851277" data-name="Grupo 851277" transform="translate(-1021 -7008)">
    <path id="Trazado_578292" data-name="Trazado 578292" d="M0,0H399V537H0Z" transform="translate(1021 7008)" fill="#bbdeaf"/>
    <path id="Trazado_578293" data-name="Trazado 578293" d="M-57.852,0V-14.219h4.375a6.644,6.644,0,0,1,3.354.845,5.89,5.89,0,0,1,2.31,2.4,7.41,7.41,0,0,1,.83,3.54v.654A7.431,7.431,0,0,1-47.8-3.252,5.84,5.84,0,0,1-50.1-.859,6.694,6.694,0,0,1-53.447,0Zm2.93-11.846v9.492h1.416a3.181,3.181,0,0,0,2.627-1.123,5.075,5.075,0,0,0,.928-3.213v-.752a5.156,5.156,0,0,0-.9-3.286,3.171,3.171,0,0,0-2.627-1.118ZM-42.061,0h-2.832V-10.566h2.832Zm-3-13.3a1.39,1.39,0,0,1,.425-1.045,1.6,1.6,0,0,1,1.157-.41,1.6,1.6,0,0,1,1.152.41,1.382,1.382,0,0,1,.43,1.045,1.386,1.386,0,0,1-.435,1.055,1.6,1.6,0,0,1-1.147.41,1.6,1.6,0,0,1-1.147-.41A1.386,1.386,0,0,1-45.059-13.3ZM-33.613,0A3.134,3.134,0,0,1-33.9-.947,3.415,3.415,0,0,1-36.562.2a3.752,3.752,0,0,1-2.573-.9,2.89,2.89,0,0,1-1.021-2.266,2.986,2.986,0,0,1,1.245-2.578,6.144,6.144,0,0,1,3.6-.908h1.3v-.605a1.741,1.741,0,0,0-.376-1.172,1.479,1.479,0,0,0-1.187-.439,1.682,1.682,0,0,0-1.118.342,1.161,1.161,0,0,0-.405.938h-2.822a2.835,2.835,0,0,1,.566-1.7,3.744,3.744,0,0,1,1.6-1.226,5.837,5.837,0,0,1,2.324-.444,4.611,4.611,0,0,1,3.1.981,3.433,3.433,0,0,1,1.147,2.759v4.58a5.052,5.052,0,0,0,.42,2.275V0Zm-2.334-1.963a2.431,2.431,0,0,0,1.152-.278,1.828,1.828,0,0,0,.781-.747V-4.8h-1.055q-2.119,0-2.256,1.465l-.01.166a1.13,1.13,0,0,0,.371.869A1.441,1.441,0,0,0-35.947-1.963Zm6.523-3.4a6.193,6.193,0,0,1,1.157-3.916,3.75,3.75,0,0,1,3.12-1.484A3.289,3.289,0,0,1-22.441-9.57l.117-1h2.559V-.352a4.516,4.516,0,0,1-.63,2.412,4.045,4.045,0,0,1-1.772,1.563,6.231,6.231,0,0,1-2.676.537A5.794,5.794,0,0,1-27.109,3.7a4.021,4.021,0,0,1-1.67-1.2l1.25-1.719a3.306,3.306,0,0,0,2.559,1.182,2.42,2.42,0,0,0,1.748-.6,2.253,2.253,0,0,0,.625-1.7V-.908A3.264,3.264,0,0,1-25.166.2a3.74,3.74,0,0,1-3.081-1.489,6.191,6.191,0,0,1-1.177-3.95Zm2.822.21A3.856,3.856,0,0,0-26.025-2.9a1.833,1.833,0,0,0,1.582.817A1.96,1.96,0,0,0-22.6-3.048V-7.5a1.955,1.955,0,0,0-1.826-.968,1.844,1.844,0,0,0-1.6.831A4.346,4.346,0,0,0-26.6-5.151ZM-11.66-7.92A7.667,7.667,0,0,0-12.676-8a2.067,2.067,0,0,0-2.1,1.084V0H-17.6V-10.566h2.666l.078,1.26A2.615,2.615,0,0,1-12.5-10.762a2.957,2.957,0,0,1,.879.127ZM-4.473,0a3.134,3.134,0,0,1-.283-.947A3.415,3.415,0,0,1-7.422.2,3.752,3.752,0,0,1-10-.7a2.89,2.89,0,0,1-1.021-2.266A2.986,2.986,0,0,1-9.771-5.547a6.144,6.144,0,0,1,3.6-.908h1.3v-.605a1.741,1.741,0,0,0-.376-1.172,1.479,1.479,0,0,0-1.187-.439,1.682,1.682,0,0,0-1.118.342,1.161,1.161,0,0,0-.405.938h-2.822a2.835,2.835,0,0,1,.566-1.7,3.744,3.744,0,0,1,1.6-1.226,5.837,5.837,0,0,1,2.324-.444,4.611,4.611,0,0,1,3.1.981A3.433,3.433,0,0,1-2.041-7.021v4.58a5.052,5.052,0,0,0,.42,2.275V0ZM-6.807-1.963a2.431,2.431,0,0,0,1.152-.278,1.828,1.828,0,0,0,.781-.747V-4.8H-5.928q-2.119,0-2.256,1.465l-.01.166a1.13,1.13,0,0,0,.371.869A1.441,1.441,0,0,0-6.807-1.963Zm9.58-8.6.088,1.182A3.713,3.713,0,0,1,5.9-10.762,2.818,2.818,0,0,1,8.7-9.15a3.628,3.628,0,0,1,3.174-1.611,3.152,3.152,0,0,1,2.559,1,4.6,4.6,0,0,1,.84,3.013V0H12.441V-6.738a2.012,2.012,0,0,0-.352-1.313,1.558,1.558,0,0,0-1.24-.415A1.761,1.761,0,0,0,9.092-7.256L9.1,0H6.279V-6.729a1.988,1.988,0,0,0-.361-1.328,1.573,1.573,0,0,0-1.23-.41,1.829,1.829,0,0,0-1.738,1V0H.127V-10.566ZM23.564,0a3.134,3.134,0,0,1-.283-.947A3.415,3.415,0,0,1,20.615.2a3.752,3.752,0,0,1-2.573-.9,2.89,2.89,0,0,1-1.021-2.266,2.986,2.986,0,0,1,1.245-2.578,6.144,6.144,0,0,1,3.6-.908h1.3v-.605a1.741,1.741,0,0,0-.376-1.172A1.479,1.479,0,0,0,21.6-8.672a1.682,1.682,0,0,0-1.118.342,1.161,1.161,0,0,0-.405.938H17.256a2.835,2.835,0,0,1,.566-1.7,3.744,3.744,0,0,1,1.6-1.226,5.837,5.837,0,0,1,2.324-.444,4.611,4.611,0,0,1,3.1.981A3.433,3.433,0,0,1,26-7.021v4.58a5.052,5.052,0,0,0,.42,2.275V0ZM21.23-1.963a2.431,2.431,0,0,0,1.152-.278,1.828,1.828,0,0,0,.781-.747V-4.8H22.109q-2.119,0-2.256,1.465l-.01.166a1.13,1.13,0,0,0,.371.869A1.441,1.441,0,0,0,21.23-1.963Zm11.475-3.4A6.368,6.368,0,0,1,33.813-9.3a3.6,3.6,0,0,1,3.032-1.465,3.236,3.236,0,0,1,2.549,1.152V-15h2.832V0H39.678l-.137-1.123A3.321,3.321,0,0,1,36.826.2a3.587,3.587,0,0,1-2.993-1.47A6.573,6.573,0,0,1,32.705-5.361Zm2.822.21a4.171,4.171,0,0,0,.518,2.279,1.686,1.686,0,0,0,1.5.792,1.888,1.888,0,0,0,1.846-1.105V-7.362a1.861,1.861,0,0,0-1.826-1.105Q35.527-8.467,35.527-5.151ZM49.277.2A5.187,5.187,0,0,1,45.493-1.23a5.068,5.068,0,0,1-1.46-3.8V-5.3a6.383,6.383,0,0,1,.615-2.847,4.515,4.515,0,0,1,1.743-1.934,4.893,4.893,0,0,1,2.573-.679,4.385,4.385,0,0,1,3.413,1.367,5.555,5.555,0,0,1,1.245,3.877v1.152H46.895a2.622,2.622,0,0,0,.825,1.66,2.5,2.5,0,0,0,1.743.625,3.046,3.046,0,0,0,2.549-1.182L53.4-1.709a4.237,4.237,0,0,1-1.719,1.4A5.639,5.639,0,0,1,49.277.2Zm-.322-8.682a1.764,1.764,0,0,0-1.362.569,2.946,2.946,0,0,0-.669,1.628H50.85v-.226a2.1,2.1,0,0,0-.508-1.457A1.819,1.819,0,0,0,48.955-8.486ZM-81.108,12.188a13.583,13.583,0,0,0-1.562-.1q-1.914,0-1.914,1.631v.713h2.1V16.5h-2.1V25h-2.832V16.5h-1.572v-2.07h1.572v-.82a3.61,3.61,0,0,1,1.152-2.827,4.711,4.711,0,0,1,3.2-.991q1.475,0,4.785.313V25h-2.832Zm11.5,11.738A3.539,3.539,0,0,1-72.5,25.2a3.338,3.338,0,0,1-2.593-.977A4.169,4.169,0,0,1-76,21.357V14.434h2.822v6.834q0,1.652,1.5,1.652a2.038,2.038,0,0,0,1.973-1V14.434h2.832V25h-2.656Zm7.852-9.492V25.576a3.78,3.78,0,0,1-.928,2.72,3.526,3.526,0,0,1-2.676.972,5.738,5.738,0,0,1-1.4-.166V26.865a5.3,5.3,0,0,0,.889.088q1.279,0,1.279-1.357V14.434ZM-64.81,11.7a1.39,1.39,0,0,1,.425-1.045,1.6,1.6,0,0,1,1.157-.41,1.6,1.6,0,0,1,1.157.41,1.39,1.39,0,0,1,.425,1.045,1.386,1.386,0,0,1-.435,1.055,1.6,1.6,0,0,1-1.147.41,1.6,1.6,0,0,1-1.147-.41A1.386,1.386,0,0,1-64.81,11.7Zm4.824,7.92a6.267,6.267,0,0,1,.605-2.8,4.432,4.432,0,0,1,1.743-1.9A5.086,5.086,0,0,1-55,14.238,4.812,4.812,0,0,1-51.5,15.547,5.252,5.252,0,0,1-50,19.1l.02.723a5.523,5.523,0,0,1-1.357,3.9,4.718,4.718,0,0,1-3.643,1.47,4.742,4.742,0,0,1-3.647-1.465,5.62,5.62,0,0,1-1.362-3.984Zm2.822.2a3.95,3.95,0,0,0,.566,2.3,1.868,1.868,0,0,0,1.621.8,1.873,1.873,0,0,0,1.6-.787,4.322,4.322,0,0,0,.576-2.518,3.91,3.91,0,0,0-.576-2.289A1.873,1.873,0,0,0-55,16.514a1.842,1.842,0,0,0-1.6.807A4.395,4.395,0,0,0-57.163,19.819Zm17.852,1.186,1.953-6.572h3.027l-4.248,12.207-.234.557a3.221,3.221,0,0,1-3.125,2.07,4.441,4.441,0,0,1-1.25-.186V26.943l.43.01a2.322,2.322,0,0,0,1.2-.244,1.6,1.6,0,0,0,.62-.811l.332-.869-3.7-10.6h3.037Zm20.586-1.191a6.337,6.337,0,0,1-1.108,3.911,3.554,3.554,0,0,1-2.993,1.47,3.292,3.292,0,0,1-2.588-1.113v4.98h-2.822V14.434h2.617l.1,1.035a3.317,3.317,0,0,1,2.676-1.23,3.578,3.578,0,0,1,3.037,1.445,6.509,6.509,0,0,1,1.084,3.984Zm-2.822-.205a4.159,4.159,0,0,0-.522-2.275,1.7,1.7,0,0,0-1.519-.8,1.848,1.848,0,0,0-1.826,1.016v4.326a1.879,1.879,0,0,0,1.846,1.045Q-21.548,22.92-21.548,19.609ZM-10.854,25a3.134,3.134,0,0,1-.283-.947A3.415,3.415,0,0,1-13.8,25.2a3.752,3.752,0,0,1-2.573-.9A2.89,2.89,0,0,1-17.4,22.031a2.986,2.986,0,0,1,1.245-2.578,6.144,6.144,0,0,1,3.6-.908h1.3v-.605a1.741,1.741,0,0,0-.376-1.172,1.479,1.479,0,0,0-1.187-.439,1.682,1.682,0,0,0-1.118.342,1.161,1.161,0,0,0-.405.938h-2.822a2.835,2.835,0,0,1,.566-1.7A3.744,3.744,0,0,1-15,14.683a5.837,5.837,0,0,1,2.324-.444,4.611,4.611,0,0,1,3.1.981,3.433,3.433,0,0,1,1.147,2.759v4.58A5.052,5.052,0,0,0-8,24.834V25Zm-2.334-1.963a2.431,2.431,0,0,0,1.152-.278,1.828,1.828,0,0,0,.781-.747V20.2H-12.31q-2.119,0-2.256,1.465l-.01.166a1.13,1.13,0,0,0,.371.869A1.441,1.441,0,0,0-13.188,23.037ZM-.317,17.08A7.667,7.667,0,0,0-1.333,17a2.067,2.067,0,0,0-2.1,1.084V25H-6.255V14.434h2.666l.078,1.26a2.615,2.615,0,0,1,2.354-1.455,2.957,2.957,0,0,1,.879.127Zm5.225-5.244v2.6H6.714V16.5H4.907v5.273a1.259,1.259,0,0,0,.225.84,1.128,1.128,0,0,0,.859.254,4.5,4.5,0,0,0,.83-.068v2.139a5.81,5.81,0,0,1-1.709.254q-2.969,0-3.027-3V16.5H.542v-2.07H2.085v-2.6ZM11.265,25H8.433V14.434h2.832Zm-3-13.3a1.39,1.39,0,0,1,.425-1.045,1.6,1.6,0,0,1,1.157-.41,1.6,1.6,0,0,1,1.152.41,1.491,1.491,0,0,1,0,2.1,1.6,1.6,0,0,1-1.147.41,1.6,1.6,0,0,1-1.147-.41A1.386,1.386,0,0,1,8.267,11.7ZM17.983,22.92a1.851,1.851,0,0,0,1.27-.43,1.506,1.506,0,0,0,.508-1.143h2.646a3.62,3.62,0,0,1-.586,1.968A3.866,3.866,0,0,1,20.244,24.7a4.936,4.936,0,0,1-2.212.493,4.587,4.587,0,0,1-3.574-1.44,5.7,5.7,0,0,1-1.309-3.979V19.59a5.635,5.635,0,0,1,1.3-3.9,4.534,4.534,0,0,1,3.564-1.455,4.444,4.444,0,0,1,3.179,1.128,3.994,3.994,0,0,1,1.216,3H19.761a1.939,1.939,0,0,0-.508-1.34,1.887,1.887,0,0,0-2.778.2,4.166,4.166,0,0,0-.5,2.333v.293a4.219,4.219,0,0,0,.5,2.347A1.721,1.721,0,0,0,17.983,22.92ZM27,25H24.165V14.434H27ZM24,11.7a1.39,1.39,0,0,1,.425-1.045,1.831,1.831,0,0,1,2.31,0,1.491,1.491,0,0,1,0,2.1,1.81,1.81,0,0,1-2.295,0A1.386,1.386,0,0,1,24,11.7Zm14.834,8.115a6.337,6.337,0,0,1-1.108,3.911,3.554,3.554,0,0,1-2.993,1.47,3.292,3.292,0,0,1-2.588-1.113v4.98H29.321V14.434h2.617l.1,1.035a3.317,3.317,0,0,1,2.676-1.23,3.578,3.578,0,0,1,3.037,1.445,6.509,6.509,0,0,1,1.084,3.984Zm-2.822-.205a4.159,4.159,0,0,0-.522-2.275,1.7,1.7,0,0,0-1.519-.8,1.848,1.848,0,0,0-1.826,1.016v4.326a1.879,1.879,0,0,0,1.846,1.045Q36.011,22.92,36.011,19.609ZM46.7,25a3.134,3.134,0,0,1-.283-.947A3.415,3.415,0,0,1,43.755,25.2a3.752,3.752,0,0,1-2.573-.9,2.89,2.89,0,0,1-1.021-2.266,2.986,2.986,0,0,1,1.245-2.578,6.144,6.144,0,0,1,3.6-.908h1.3v-.605a1.741,1.741,0,0,0-.376-1.172,1.479,1.479,0,0,0-1.187-.439,1.682,1.682,0,0,0-1.118.342,1.161,1.161,0,0,0-.405.938H40.4a2.835,2.835,0,0,1,.566-1.7,3.744,3.744,0,0,1,1.6-1.226,5.837,5.837,0,0,1,2.324-.444,4.611,4.611,0,0,1,3.1.981,3.433,3.433,0,0,1,1.147,2.759v4.58a5.052,5.052,0,0,0,.42,2.275V25ZM44.37,23.037a2.431,2.431,0,0,0,1.152-.278,1.828,1.828,0,0,0,.781-.747V20.2H45.249q-2.119,0-2.256,1.465l-.01.166a1.13,1.13,0,0,0,.371.869A1.441,1.441,0,0,0,44.37,23.037Zm9.531-8.6.088,1.221a3.689,3.689,0,0,1,3.037-1.416,3.066,3.066,0,0,1,2.5.986,4.6,4.6,0,0,1,.84,2.949V25H57.544V18.242a1.831,1.831,0,0,0-.391-1.3,1.749,1.749,0,0,0-1.3-.405,1.942,1.942,0,0,0-1.787,1.016V25H51.245V14.434Zm11.982-2.6v2.6H67.69V16.5H65.884v5.273a1.259,1.259,0,0,0,.225.84,1.128,1.128,0,0,0,.859.254,4.5,4.5,0,0,0,.83-.068v2.139a5.81,5.81,0,0,1-1.709.254q-2.969,0-3.027-3V16.5H61.519v-2.07h1.543v-2.6ZM74.126,25.2a5.187,5.187,0,0,1-3.784-1.426,5.068,5.068,0,0,1-1.46-3.8V19.7a6.383,6.383,0,0,1,.615-2.847,4.515,4.515,0,0,1,1.743-1.934,4.893,4.893,0,0,1,2.573-.679,4.385,4.385,0,0,1,3.413,1.367,5.555,5.555,0,0,1,1.245,3.877v1.152H71.743a2.622,2.622,0,0,0,.825,1.66,2.5,2.5,0,0,0,1.743.625,3.046,3.046,0,0,0,2.549-1.182l1.387,1.553a4.237,4.237,0,0,1-1.719,1.4A5.639,5.639,0,0,1,74.126,25.2ZM73.8,16.514a1.764,1.764,0,0,0-1.362.569,2.946,2.946,0,0,0-.669,1.628H75.7v-.226a2.1,2.1,0,0,0-.508-1.457A1.819,1.819,0,0,0,73.8,16.514ZM85.8,22.08a.909.909,0,0,0-.513-.815,5.824,5.824,0,0,0-1.646-.532q-3.77-.791-3.77-3.2a2.9,2.9,0,0,1,1.167-2.349,4.708,4.708,0,0,1,3.052-.942,5.067,5.067,0,0,1,3.218.947,2.985,2.985,0,0,1,1.206,2.461H85.688a1.366,1.366,0,0,0-.391-1,1.653,1.653,0,0,0-1.221-.4,1.689,1.689,0,0,0-1.1.322,1.017,1.017,0,0,0-.391.82.87.87,0,0,0,.444.757,4.571,4.571,0,0,0,1.5.5,12.244,12.244,0,0,1,1.777.474,2.92,2.92,0,0,1,2.236,2.842A2.756,2.756,0,0,1,87.3,24.3a5.35,5.35,0,0,1-3.2.894,5.588,5.588,0,0,1-2.358-.474,3.957,3.957,0,0,1-1.616-1.3,3.018,3.018,0,0,1-.586-1.782h2.676a1.473,1.473,0,0,0,.557,1.152,2.208,2.208,0,0,0,1.387.4,2.044,2.044,0,0,0,1.226-.308A.957.957,0,0,0,85.8,22.08Z" transform="translate(1220 7087)" fill="#12263f"/>
    <g id="estructura-jerarquica" transform="translate(1131.748 7198.464)">
      <g id="Grupo_849792" data-name="Grupo 849792" transform="translate(2.897 2.645)">
        <path id="Trazado_575798" data-name="Trazado 575798" d="M98.218,242.585H82.207a8.052,8.052,0,0,1-8.052-8.052v-7.616a8.052,8.052,0,0,1,8.052-8.052H98.218a8.052,8.052,0,0,1,8.052,8.052v7.616A8.052,8.052,0,0,1,98.218,242.585Z" transform="translate(-50.74 -144.334)" fill="#efcf4a"/>
        <path id="Trazado_575799" data-name="Trazado 575799" d="M363.832,242.585H347.821a8.052,8.052,0,0,1-8.052-8.052v-7.616a8.052,8.052,0,0,1,8.052-8.052h16.011a8.052,8.052,0,0,1,8.052,8.052v7.616A8.052,8.052,0,0,1,363.832,242.585Z" transform="translate(-222.693 -144.334)" fill="#fff3c6"/>
        <path id="Trazado_575800" data-name="Trazado 575800" d="M231.025,31.22H215.014a8.052,8.052,0,0,1-8.052-8.052V15.552A8.052,8.052,0,0,1,215.014,7.5h16.011a8.052,8.052,0,0,1,8.052,8.052v7.616A8.052,8.052,0,0,1,231.025,31.22Z" transform="translate(-136.717 -7.5)" fill="#ff854e"/>
        <g id="Grupo_849791" data-name="Grupo 849791" transform="translate(0 149.063)">
          <g id="Grupo_849789" data-name="Grupo 849789">
            <path id="Trazado_575801" data-name="Trazado 575801" d="M31.815,453.951H15.8A8.052,8.052,0,0,1,7.752,445.9v-7.616a8.052,8.052,0,0,1,8.052-8.052H31.815a8.052,8.052,0,0,1,8.052,8.052V445.9A8.052,8.052,0,0,1,31.815,453.951Z" transform="translate(-7.752 -430.231)" fill="#efcf4a"/>
            <path id="Trazado_575802" data-name="Trazado 575802" d="M164.621,453.951H148.61a8.052,8.052,0,0,1-8.052-8.052v-7.616a8.052,8.052,0,0,1,8.052-8.052h16.011a8.052,8.052,0,0,1,8.052,8.052V445.9A8.052,8.052,0,0,1,164.621,453.951Z" transform="translate(-93.728 -430.231)" fill="#efcf4a"/>
          </g>
          <g id="Grupo_849790" data-name="Grupo 849790" transform="translate(93.66)">
            <path id="Trazado_575803" data-name="Trazado 575803" d="M297.428,453.951H281.417a8.052,8.052,0,0,1-8.052-8.052v-7.616a8.052,8.052,0,0,1,8.052-8.052h16.011a8.052,8.052,0,0,1,8.052,8.052V445.9A8.052,8.052,0,0,1,297.428,453.951Z" transform="translate(-273.365 -430.231)" fill="#fff3c6"/>
            <path id="Trazado_575804" data-name="Trazado 575804" d="M430.235,453.951H414.224a8.052,8.052,0,0,1-8.052-8.052v-7.616a8.052,8.052,0,0,1,8.052-8.052h16.011a8.052,8.052,0,0,1,8.052,8.052V445.9A8.052,8.052,0,0,1,430.235,453.951Z" transform="translate(-359.342 -430.231)" fill="#fff3c6"/>
          </g>
        </g>
      </g>
      <g id="Grupo_849793" data-name="Grupo 849793" transform="translate(0.252)">
        <path id="Trazado_575805" data-name="Trazado 575805" d="M77.352,240.375H93.363a10.709,10.709,0,0,0,10.7-10.7v-7.616a10.709,10.709,0,0,0-10.7-10.7H77.352a10.709,10.709,0,0,0-10.7,10.7v7.616A10.709,10.709,0,0,0,77.352,240.375Zm-5.407-18.313a5.413,5.413,0,0,1,5.407-5.407H93.363a5.413,5.413,0,0,1,5.407,5.407v7.616a5.413,5.413,0,0,1-5.407,5.407H77.352a5.413,5.413,0,0,1-5.407-5.407Z" transform="translate(-43.24 -136.834)"/>
        <path id="Trazado_575806" data-name="Trazado 575806" d="M342.966,240.375h16.011a10.709,10.709,0,0,0,10.7-10.7v-7.616a10.709,10.709,0,0,0-10.7-10.7H342.966a10.709,10.709,0,0,0-10.7,10.7v7.616A10.709,10.709,0,0,0,342.966,240.375Zm-5.407-18.313a5.413,5.413,0,0,1,5.407-5.407h16.011a5.413,5.413,0,0,1,5.407,5.407v7.616a5.413,5.413,0,0,1-5.407,5.407H342.966a5.413,5.413,0,0,1-5.407-5.407Z" transform="translate(-215.193 -136.834)"/>
        <path id="Trazado_575807" data-name="Trazado 575807" d="M210.159,29.01H226.17a10.709,10.709,0,0,0,10.7-10.7V10.7A10.709,10.709,0,0,0,226.17,0H210.159a10.709,10.709,0,0,0-10.7,10.7v7.616A10.709,10.709,0,0,0,210.159,29.01ZM204.751,10.7a5.413,5.413,0,0,1,5.407-5.407H226.17a5.413,5.413,0,0,1,5.407,5.407v7.616a5.413,5.413,0,0,1-5.407,5.407H210.159a5.413,5.413,0,0,1-5.407-5.407Z" transform="translate(-129.217)"/>
        <path id="Trazado_575808" data-name="Trazado 575808" d="M26.959,422.731H10.949a10.709,10.709,0,0,0-10.7,10.7v7.616a10.609,10.609,0,0,0,2.133,6.411,2.645,2.645,0,1,0,4.232-3.173,5.357,5.357,0,0,1-1.076-3.238v-7.616a5.413,5.413,0,0,1,5.407-5.407H26.96a5.413,5.413,0,0,1,5.407,5.407v7.616a5.413,5.413,0,0,1-5.407,5.407H12.712a2.645,2.645,0,1,0,0,5.289H26.959a10.709,10.709,0,0,0,10.7-10.7v-7.616A10.709,10.709,0,0,0,26.959,422.731Z" transform="translate(-0.252 -273.668)"/>
        <path id="Trazado_575809" data-name="Trazado 575809" d="M159.767,422.731H143.756a10.709,10.709,0,0,0-10.7,10.7v7.616a10.709,10.709,0,0,0,10.7,10.7h16.011a10.709,10.709,0,0,0,10.7-10.7v-7.616A10.709,10.709,0,0,0,159.767,422.731Zm5.407,18.313a5.413,5.413,0,0,1-5.407,5.407H143.756a5.413,5.413,0,0,1-5.407-5.407v-7.616a5.413,5.413,0,0,1,5.407-5.407h16.011a5.413,5.413,0,0,1,5.407,5.407Z" transform="translate(-86.229 -273.668)"/>
        <path id="Trazado_575810" data-name="Trazado 575810" d="M292.573,422.731H276.562a10.709,10.709,0,0,0-10.7,10.7v7.616a10.709,10.709,0,0,0,10.7,10.7h16.011a10.709,10.709,0,0,0,10.7-10.7v-7.616A10.709,10.709,0,0,0,292.573,422.731Zm5.408,18.313a5.413,5.413,0,0,1-5.407,5.407H276.562a5.413,5.413,0,0,1-5.407-5.407v-7.616a5.413,5.413,0,0,1,5.407-5.407h16.011a5.413,5.413,0,0,1,5.407,5.407v7.616Z" transform="translate(-172.205 -273.668)"/>
        <path id="Trazado_575811" data-name="Trazado 575811" d="M425.38,422.731H409.369a10.709,10.709,0,0,0-10.7,10.7v7.616a10.709,10.709,0,0,0,10.7,10.7H425.38a10.709,10.709,0,0,0,10.7-10.7v-7.616A10.709,10.709,0,0,0,425.38,422.731Zm5.407,18.313a5.413,5.413,0,0,1-5.407,5.407H409.369a5.413,5.413,0,0,1-5.407-5.407v-7.616a5.413,5.413,0,0,1,5.407-5.407H425.38a5.413,5.413,0,0,1,5.407,5.407Z" transform="translate(-258.181 -273.668)"/>
        <path id="Trazado_575812" data-name="Trazado 575812" d="M92.62,339.06a2.645,2.645,0,1,0,5.289,0v-14.1a2.645,2.645,0,0,0-2.645-2.645H74.494v-16.4a2.645,2.645,0,1,0-5.289,0v16.4H48.435a2.645,2.645,0,0,0-2.645,2.645v14.1a2.645,2.645,0,1,0,5.289,0V327.6H92.62v11.46Z" transform="translate(-29.732 -196.331)"/>
        <path id="Trazado_575813" data-name="Trazado 575813" d="M358.234,339.06a2.645,2.645,0,1,0,5.289,0v-14.1a2.645,2.645,0,0,0-2.645-2.645h-20.77v-16.4a2.645,2.645,0,1,0-5.289,0v16.4h-20.77a2.645,2.645,0,0,0-2.645,2.645v14.1a2.645,2.645,0,1,0,5.289,0V327.6h41.541Z" transform="translate(-201.686 -196.331)"/>
        <path id="Trazado_575814" data-name="Trazado 575814" d="M343.065,152.924H353.6v11.46a2.645,2.645,0,1,0,5.289,0v-14.1a2.645,2.645,0,0,0-2.645-2.645H343.065a2.645,2.645,0,1,0,0,5.289Z" transform="translate(-220.47 -95.576)"/>
        <path id="Trazado_575815" data-name="Trazado 575815" d="M189.143,115.321a2.645,2.645,0,0,0-2.645-2.645H164.313V96.28a2.645,2.645,0,1,0-5.289,0v16.4H114.838a2.645,2.645,0,0,0-2.645,2.645v14.1a2.645,2.645,0,0,0,5.289,0v-11.46H186.5A2.645,2.645,0,0,0,189.143,115.321Z" transform="translate(-72.72 -60.617)"/>
      </g>
    </g>
  </g>
</svg>
