<svg xmlns="http://www.w3.org/2000/svg" width="399" height="537" viewBox="0 0 399 537">
  <g id="Grupo_851275" data-name="Grupo 851275" transform="translate(-181 -7008)">
    <g id="Grupo_851274" data-name="Grupo 851274">
      <path id="Trazado_578288" data-name="Trazado 578288" d="M0,0H399V537H0Z" transform="translate(181 7008)" fill="#ffd63d"/>
    </g>
    <path id="Trazado_578289" data-name="Trazado 578289" d="M1.27,0V-14.219H5.645A6.644,6.644,0,0,1,9-13.374a5.89,5.89,0,0,1,2.31,2.4,7.41,7.41,0,0,1,.83,3.54v.654a7.431,7.431,0,0,1-.815,3.525,5.84,5.84,0,0,1-2.3,2.393A6.694,6.694,0,0,1,5.674,0ZM4.2-11.846v9.492H5.615A3.181,3.181,0,0,0,8.242-3.477,5.075,5.075,0,0,0,9.17-6.689v-.752a5.156,5.156,0,0,0-.9-3.286,3.171,3.171,0,0,0-2.627-1.118ZM17.061,0H14.229V-10.566h2.832Zm-3-13.3a1.39,1.39,0,0,1,.425-1.045,1.6,1.6,0,0,1,1.157-.41,1.6,1.6,0,0,1,1.152.41,1.382,1.382,0,0,1,.43,1.045,1.386,1.386,0,0,1-.435,1.055,1.6,1.6,0,0,1-1.147.41,1.6,1.6,0,0,1-1.147-.41A1.386,1.386,0,0,1,14.063-13.3ZM25.508,0a3.134,3.134,0,0,1-.283-.947A3.415,3.415,0,0,1,22.559.2a3.752,3.752,0,0,1-2.573-.9,2.89,2.89,0,0,1-1.021-2.266A2.986,2.986,0,0,1,20.21-5.547a6.144,6.144,0,0,1,3.6-.908h1.3v-.605a1.741,1.741,0,0,0-.376-1.172,1.479,1.479,0,0,0-1.187-.439,1.682,1.682,0,0,0-1.118.342,1.161,1.161,0,0,0-.405.938H19.2a2.835,2.835,0,0,1,.566-1.7,3.744,3.744,0,0,1,1.6-1.226,5.837,5.837,0,0,1,2.324-.444,4.611,4.611,0,0,1,3.1.981,3.433,3.433,0,0,1,1.147,2.759v4.58a5.052,5.052,0,0,0,.42,2.275V0ZM23.174-1.963a2.431,2.431,0,0,0,1.152-.278,1.828,1.828,0,0,0,.781-.747V-4.8H24.053Q21.934-4.8,21.8-3.34l-.01.166a1.13,1.13,0,0,0,.371.869A1.441,1.441,0,0,0,23.174-1.963Zm6.523-3.4a6.193,6.193,0,0,1,1.157-3.916,3.75,3.75,0,0,1,3.12-1.484A3.289,3.289,0,0,1,36.68-9.57l.117-1h2.559V-.352a4.516,4.516,0,0,1-.63,2.412,4.045,4.045,0,0,1-1.772,1.563,6.231,6.231,0,0,1-2.676.537A5.794,5.794,0,0,1,32.012,3.7a4.021,4.021,0,0,1-1.67-1.2L31.592.781A3.306,3.306,0,0,0,34.15,1.963a2.42,2.42,0,0,0,1.748-.6,2.253,2.253,0,0,0,.625-1.7V-.908A3.264,3.264,0,0,1,33.955.2a3.74,3.74,0,0,1-3.081-1.489A6.191,6.191,0,0,1,29.7-5.244Zm2.822.21A3.856,3.856,0,0,0,33.1-2.9a1.833,1.833,0,0,0,1.582.817,1.96,1.96,0,0,0,1.846-.968V-7.5A1.955,1.955,0,0,0,34.7-8.467a1.844,1.844,0,0,0-1.6.831A4.346,4.346,0,0,0,32.52-5.151ZM47.461-7.92A7.667,7.667,0,0,0,46.445-8a2.067,2.067,0,0,0-2.1,1.084V0H41.523V-10.566h2.666l.078,1.26a2.615,2.615,0,0,1,2.354-1.455,2.957,2.957,0,0,1,.879.127ZM54.648,0a3.134,3.134,0,0,1-.283-.947A3.415,3.415,0,0,1,51.7.2a3.752,3.752,0,0,1-2.573-.9,2.89,2.89,0,0,1-1.021-2.266,2.986,2.986,0,0,1,1.245-2.578,6.144,6.144,0,0,1,3.6-.908h1.3v-.605a1.741,1.741,0,0,0-.376-1.172,1.479,1.479,0,0,0-1.187-.439,1.682,1.682,0,0,0-1.118.342,1.161,1.161,0,0,0-.405.938H48.34a2.835,2.835,0,0,1,.566-1.7,3.744,3.744,0,0,1,1.6-1.226,5.837,5.837,0,0,1,2.324-.444,4.611,4.611,0,0,1,3.1.981A3.433,3.433,0,0,1,57.08-7.021v4.58A5.052,5.052,0,0,0,57.5-.166V0ZM52.314-1.963a2.431,2.431,0,0,0,1.152-.278,1.828,1.828,0,0,0,.781-.747V-4.8H53.193q-2.119,0-2.256,1.465l-.01.166A1.13,1.13,0,0,0,51.3-2.3,1.441,1.441,0,0,0,52.314-1.963Zm9.58-8.6.088,1.182a3.713,3.713,0,0,1,3.037-1.377,2.818,2.818,0,0,1,2.8,1.611A3.628,3.628,0,0,1,71-10.762a3.152,3.152,0,0,1,2.559,1,4.6,4.6,0,0,1,.84,3.013V0H71.563V-6.738a2.012,2.012,0,0,0-.352-1.313,1.558,1.558,0,0,0-1.24-.415,1.762,1.762,0,0,0-1.758,1.211L68.223,0H65.4V-6.729a1.988,1.988,0,0,0-.361-1.328,1.573,1.573,0,0,0-1.23-.41,1.829,1.829,0,0,0-1.738,1V0H59.248V-10.566ZM82.686,0A3.134,3.134,0,0,1,82.4-.947,3.415,3.415,0,0,1,79.736.2a3.752,3.752,0,0,1-2.573-.9,2.89,2.89,0,0,1-1.021-2.266,2.986,2.986,0,0,1,1.245-2.578,6.144,6.144,0,0,1,3.6-.908h1.3v-.605a1.741,1.741,0,0,0-.376-1.172,1.479,1.479,0,0,0-1.187-.439A1.682,1.682,0,0,0,79.6-8.33a1.161,1.161,0,0,0-.405.938H76.377a2.835,2.835,0,0,1,.566-1.7,3.744,3.744,0,0,1,1.6-1.226,5.837,5.837,0,0,1,2.324-.444,4.611,4.611,0,0,1,3.1.981,3.433,3.433,0,0,1,1.147,2.759v4.58a5.052,5.052,0,0,0,.42,2.275V0ZM80.352-1.963A2.431,2.431,0,0,0,81.5-2.241a1.828,1.828,0,0,0,.781-.747V-4.8H81.23q-2.119,0-2.256,1.465l-.01.166a1.13,1.13,0,0,0,.371.869A1.441,1.441,0,0,0,80.352-1.963Zm11.475-3.4A6.368,6.368,0,0,1,92.935-9.3a3.6,3.6,0,0,1,3.032-1.465,3.236,3.236,0,0,1,2.549,1.152V-15h2.832V0H98.8l-.137-1.123A3.321,3.321,0,0,1,95.947.2a3.587,3.587,0,0,1-2.993-1.47A6.573,6.573,0,0,1,91.826-5.361Zm2.822.21a4.171,4.171,0,0,0,.518,2.279,1.686,1.686,0,0,0,1.5.792,1.888,1.888,0,0,0,1.846-1.105V-7.362a1.861,1.861,0,0,0-1.826-1.105Q94.648-8.467,94.648-5.151ZM108.4.2a5.187,5.187,0,0,1-3.784-1.426,5.068,5.068,0,0,1-1.46-3.8V-5.3a6.383,6.383,0,0,1,.615-2.847,4.515,4.515,0,0,1,1.743-1.934,4.893,4.893,0,0,1,2.573-.679A4.385,4.385,0,0,1,111.5-9.395a5.555,5.555,0,0,1,1.245,3.877v1.152h-6.729a2.622,2.622,0,0,0,.825,1.66,2.5,2.5,0,0,0,1.743.625,3.046,3.046,0,0,0,2.549-1.182l1.387,1.553a4.237,4.237,0,0,1-1.719,1.4A5.639,5.639,0,0,1,108.4.2Zm-.322-8.682a1.764,1.764,0,0,0-1.362.569,2.946,2.946,0,0,0-.669,1.628h3.926v-.226a2.1,2.1,0,0,0-.508-1.457A1.819,1.819,0,0,0,108.076-8.486Zm20.771,3.3a6.4,6.4,0,0,1-1.084,3.96A3.591,3.591,0,0,1,124.736.2a3.3,3.3,0,0,1-2.744-1.318L121.865,0h-2.539V-15h2.822v5.381a3.214,3.214,0,0,1,2.568-1.143,3.62,3.62,0,0,1,3.032,1.421,6.408,6.408,0,0,1,1.1,4Zm-2.822-.205a4.2,4.2,0,0,0-.508-2.339A1.717,1.717,0,0,0,124-8.467a1.862,1.862,0,0,0-1.855,1.1v4.17a1.887,1.887,0,0,0,1.875,1.113,1.742,1.742,0,0,0,1.8-1.348A6.952,6.952,0,0,0,126.025-5.391ZM133.564,0h-2.832V-15h2.832Zm1.885-5.381a6.267,6.267,0,0,1,.605-2.8,4.432,4.432,0,0,1,1.743-1.9,5.086,5.086,0,0,1,2.642-.674,4.812,4.812,0,0,1,3.491,1.309A5.252,5.252,0,0,1,145.439-5.9l.02.723a5.523,5.523,0,0,1-1.357,3.9A4.718,4.718,0,0,1,140.459.2a4.742,4.742,0,0,1-3.647-1.465,5.62,5.62,0,0,1-1.362-3.984Zm2.822.2a3.95,3.95,0,0,0,.566,2.3,1.868,1.868,0,0,0,1.621.8,1.873,1.873,0,0,0,1.6-.787,4.322,4.322,0,0,0,.576-2.518,3.91,3.91,0,0,0-.576-2.289,1.873,1.873,0,0,0-1.621-.812,1.842,1.842,0,0,0-1.6.807A4.395,4.395,0,0,0,138.271-5.181Zm8.486-.2a6.316,6.316,0,0,1,1.108-3.936,3.624,3.624,0,0,1,3.042-1.445,3.244,3.244,0,0,1,2.705,1.3l.186-1.1h2.48V4.063h-2.832V-.908A3.253,3.253,0,0,1,150.889.2a3.6,3.6,0,0,1-3.008-1.465A6.626,6.626,0,0,1,146.758-5.381Zm2.822.2a4.143,4.143,0,0,0,.532,2.308,1.7,1.7,0,0,0,1.5.792,1.9,1.9,0,0,0,1.836-1.037V-7.489a1.882,1.882,0,0,0-1.816-1,1.725,1.725,0,0,0-1.514.792A4.576,4.576,0,0,0,149.58-5.181Zm15.244,4.106A3.539,3.539,0,0,1,161.934.2a3.338,3.338,0,0,1-2.593-.977,4.169,4.169,0,0,1-.913-2.861v-6.924h2.822v6.834q0,1.652,1.5,1.652a2.038,2.038,0,0,0,1.973-1v-7.489h2.832V0H164.9ZM174.551.2a5.187,5.187,0,0,1-3.784-1.426,5.068,5.068,0,0,1-1.46-3.8V-5.3a6.383,6.383,0,0,1,.615-2.847,4.515,4.515,0,0,1,1.743-1.934,4.893,4.893,0,0,1,2.573-.679,4.385,4.385,0,0,1,3.413,1.367A5.555,5.555,0,0,1,178.9-5.518v1.152h-6.729a2.622,2.622,0,0,0,.825,1.66,2.5,2.5,0,0,0,1.743.625,3.046,3.046,0,0,0,2.549-1.182l1.387,1.553a4.237,4.237,0,0,1-1.719,1.4A5.639,5.639,0,0,1,174.551.2Zm-.322-8.682a1.764,1.764,0,0,0-1.362.569,2.946,2.946,0,0,0-.669,1.628h3.926v-.226a2.1,2.1,0,0,0-.508-1.457A1.819,1.819,0,0,0,174.229-8.486ZM186.221-2.92a.909.909,0,0,0-.513-.815,5.824,5.824,0,0,0-1.646-.532q-3.77-.791-3.77-3.2a2.9,2.9,0,0,1,1.167-2.349,4.708,4.708,0,0,1,3.052-.942,5.067,5.067,0,0,1,3.218.947,2.985,2.985,0,0,1,1.206,2.461h-2.822a1.366,1.366,0,0,0-.391-1,1.653,1.653,0,0,0-1.221-.4,1.689,1.689,0,0,0-1.1.322,1.017,1.017,0,0,0-.391.82.87.87,0,0,0,.444.757,4.571,4.571,0,0,0,1.5.5,12.244,12.244,0,0,1,1.777.474,2.92,2.92,0,0,1,2.236,2.842A2.756,2.756,0,0,1,187.725-.7a5.35,5.35,0,0,1-3.2.894,5.588,5.588,0,0,1-2.358-.474,3.957,3.957,0,0,1-1.616-1.3,3.018,3.018,0,0,1-.586-1.782h2.676a1.473,1.473,0,0,0,.557,1.152,2.208,2.208,0,0,0,1.387.4,2.044,2.044,0,0,0,1.226-.308A.957.957,0,0,0,186.221-2.92Z" transform="translate(286 7087)" fill="#12263f"/>
    <g id="gantt" transform="translate(303.672 7201.5)">
      <rect id="Rectángulo_283588" data-name="Rectángulo 283588" width="115.267" height="16.377" transform="translate(3.52 18.896)" fill="#79be60"/>
      <rect id="Rectángulo_283589" data-name="Rectángulo 283589" width="44.092" height="16.377" transform="translate(33.754 46.611)" fill="#ff6969"/>
      <rect id="Rectángulo_283590" data-name="Rectángulo 283590" width="40.941" height="16.377" transform="translate(105.561 102.669)" fill="#bbdeaf"/>
      <g id="Grupo_849794" data-name="Grupo 849794" transform="translate(50.131 74.954)">
        <rect id="Rectángulo_283591" data-name="Rectángulo 283591" width="52.279" height="16.377" transform="translate(25.195 55.43)" fill="#ff854e"/>
        <rect id="Rectángulo_283592" data-name="Rectángulo 283592" width="119.046" height="16.377" fill="#ff854e"/>
      </g>
      <rect id="Rectángulo_283593" data-name="Rectángulo 283593" width="60.469" height="40.313" transform="translate(3.52 128.496)" fill="#fff"/>
      <rect id="Rectángulo_283594" data-name="Rectángulo 283594" width="32.754" height="40.313" transform="translate(3.52 128.496)" fill="#b9ecff"/>
      <rect id="Rectángulo_283595" data-name="Rectángulo 283595" width="154.105" height="5.039" transform="translate(91.703 164.106) rotate(-90.006)" fill="#fe3934"/>
      <rect id="Rectángulo_283596" data-name="Rectángulo 283596" width="5" height="5" transform="translate(92 167)"/>
      <path id="Trazado_575816" data-name="Trazado 575816" d="M320.526,72.656H301V67.617h14.487V57.539H301V52.5h19.526Z" transform="translate(-199.219 -34.863)"/>
      <path id="Trazado_575817" data-name="Trazado 575817" d="M86.664,72.656H1V52.5H86.664v5.039H6.039V67.617H86.664Z" transform="translate(0 -34.863)"/>
      <path id="Trazado_575818" data-name="Trazado 575818" d="M140.761,155.156H91V135h49.761Zm-44.722-5.039h39.683V140.039H96.039Z" transform="translate(-59.766 -89.648)"/>
      <path id="Trazado_575819" data-name="Trazado 575819" d="M371.547,237.656H301v-5.039h65.508V222.539H301V217.5h70.547Z" transform="translate(-199.219 -144.434)"/>
      <path id="Trazado_575820" data-name="Trazado 575820" d="M178.8,237.656H139.75V217.5H178.8v5.039H144.789v10.078H178.8Z" transform="translate(-92.139 -144.434)"/>
      <path id="Trazado_575821" data-name="Trazado 575821" d="M351.977,320.156H306.625V300h45.352Zm-40.312-5.039h35.273V305.039H311.664Z" transform="translate(-202.954 -199.219)"/>
      <path id="Trazado_575822" data-name="Trazado 575822" d="M328.715,402.656H301v-5.039h22.676V387.539H301V382.5h27.715Z" transform="translate(-199.219 -254.004)"/>
      <path id="Trazado_575823" data-name="Trazado 575823" d="M229.853,402.656H216.625V382.5h13.228v5.039h-8.188v10.078h8.188Z" transform="translate(-143.188 -254.004)"/>
      <rect id="Rectángulo_283597" data-name="Rectángulo 283597" width="5.039" height="5.039" transform="translate(91.639)"/>
      <path id="Trazado_575824" data-name="Trazado 575824" d="M66.508,420.352H1V375H66.508ZM6.039,415.313h55.43V380.039H6.039Z" transform="translate(0 -249.023)"/>
      <rect id="Rectángulo_283598" data-name="Rectángulo 283598" width="5" height="5" transform="translate(11 136)" fill="#ff6969"/>
      <rect id="Rectángulo_283599" data-name="Rectángulo 283599" width="5" height="5" transform="translate(11 146)" fill="#fde21b"/>
      <rect id="Rectángulo_283600" data-name="Rectángulo 283600" width="5" height="5" transform="translate(11 156)" fill="#1fb5f3"/>
      <rect id="Rectángulo_283601" data-name="Rectángulo 283601" width="35" height="5" transform="translate(21 136)"/>
      <rect id="Rectángulo_283602" data-name="Rectángulo 283602" width="25" height="5" transform="translate(21 146)"/>
      <rect id="Rectángulo_283603" data-name="Rectángulo 283603" width="5" height="5" transform="translate(21 156)" fill="#fff"/>
      <rect id="Rectángulo_283604" data-name="Rectángulo 283604" width="7.559" height="5.039" transform="translate(31.234 156.211)"/>
      <rect id="Rectángulo_283605" data-name="Rectángulo 283605" width="12.598" height="5.039" transform="translate(43.832 156.211)"/>
      <rect id="Rectángulo_283606" data-name="Rectángulo 283606" width="5" height="5" transform="translate(51 146)"/>
    </g>
  </g>
</svg>
