<svg xmlns="http://www.w3.org/2000/svg" width="66" height="66" viewBox="0 0 66 66"><g transform="translate(-723 -5306)"><rect width="66" height="66" rx="6" transform="translate(723 5306)" fill="#fff"/><g transform="translate(733.5 5319.5)"><g transform="translate(26.743 24.462)"><path d="M321.4,317.692l-2.041,2.041a1.3,1.3,0,0,1-1.839,0l-9.074-9.074,3.88-3.88,9.074,9.074A1.3,1.3,0,0,1,321.4,317.692Z" transform="translate(-308.449 -306.778)" fill="#ff854e"/></g><g transform="translate(9.796 7.515)"><circle cx="12.604" cy="12.604" r="12.604" transform="translate(0 0)" fill="#ffd63d"/></g><g transform="translate(11.335 9.054)"><path d="M150.717,131.22a12.608,12.608,0,0,0-2.872-2.153,12.608,12.608,0,0,1-17.106,17.106,12.605,12.605,0,1,0,19.978-14.953Z" transform="translate(-130.739 -129.067)" fill="#fff3c6"/></g><g transform="translate(13.794 15.288)"><path d="M175.892,204.835a1.406,1.406,0,0,1,0,2.038c-1.511,1.434-4.606,3.875-8.18,3.875s-6.669-2.44-8.18-3.875a1.406,1.406,0,0,1,0-2.038c1.511-1.434,4.606-3.875,8.18-3.875S174.381,203.4,175.892,204.835Z" transform="translate(-159.095 -200.96)" fill="#fceed9"/></g><g transform="translate(13.829 17.64)"><path d="M176.264,229.611a18.046,18.046,0,0,0-1.831-1.522,1.4,1.4,0,0,1-.4,1.328c-1.511,1.434-4.606,3.875-8.18,3.875a11.153,11.153,0,0,1-6.349-2.352,1.4,1.4,0,0,0,.4.711c1.511,1.434,4.606,3.875,8.18,3.875s6.669-2.44,8.18-3.875A1.406,1.406,0,0,0,176.264,229.611Z" transform="translate(-159.502 -228.089)" fill="#fad59a"/></g><g transform="translate(19.87 17.64)"><circle cx="2.542" cy="2.542" r="2.542" fill="#7c8b96"/></g><g transform="translate(20.01 17.781)"><path d="M234.029,229.714a2.542,2.542,0,0,1-3.235,3.235,2.542,2.542,0,1,0,3.235-3.235Z" transform="translate(-230.794 -229.714)" fill="#465961"/></g><path d="M134.357,127.952a.651.651,0,1,0-.92.92l2.137,2.137a.673.673,0,0,1,0,.92l-2.04,2.04a.651.651,0,0,1-.92,0l-6.1-6.1a13.2,13.2,0,0,0,2.961-2.958l1.887,1.887a.651.651,0,0,0,.92-.92l-2.082-2.082a13.255,13.255,0,1,0-21.114,2.422.651.651,0,0,0,.947-.892,11.954,11.954,0,1,1,17.159.262,12.029,12.029,0,0,1-14.846,1.651.65.65,0,0,0-.7,1.1,13.252,13.252,0,0,0,13.749.256l6.3,6.3a1.954,1.954,0,0,0,2.76,0l2.04-2.04a1.954,1.954,0,0,0,0-2.76Z" transform="translate(-96.337 -97.013)"/><path d="M165.215,195.218a.65.65,0,0,0-.334-.857,9.992,9.992,0,0,0-4.022-.9c-3.792,0-7.033,2.539-8.628,4.053a2.057,2.057,0,0,0,0,2.982c1.595,1.514,4.836,4.053,8.628,4.053s7.033-2.539,8.628-4.053a2.057,2.057,0,0,0,0-2.982,18.661,18.661,0,0,0-1.793-1.5.65.65,0,1,0-.77,1.049,17.37,17.37,0,0,1,1.667,1.4.755.755,0,0,1,0,1.095c-1.454,1.38-4.392,3.7-7.732,3.7s-6.278-2.315-7.732-3.7a.756.756,0,0,1,0-1.095c1.454-1.38,4.392-3.7,7.732-3.7a8.7,8.7,0,0,1,3.5.793.65.65,0,0,0,.857-.334Z" transform="translate(-138.449 -178.821)"/><path d="M221.667,223.778a3.192,3.192,0,1,0,3.192-3.192A3.2,3.2,0,0,0,221.667,223.778Zm5.083,0a1.891,1.891,0,1,1-1.891-1.891A1.893,1.893,0,0,1,226.75,223.778Z" transform="translate(-202.448 -203.597)"/><path d="M381.383,44.1a.649.649,0,0,0,.46-.19l2.838-2.838,1.225,1.225a.972.972,0,0,0,1.372,0l3.442-3.442v.873a.65.65,0,0,0,1.3,0v-2.41a.65.65,0,0,0-.65-.65h-2.41a.65.65,0,0,0,0,1.3h.806l-3.174,3.174-1.225-1.225a.971.971,0,0,0-1.372,0l-3.072,3.072a.65.65,0,0,0,.46,1.11Z" transform="translate(-347.722 -35.621)"/><path d="M4.29,31.336a3.35,3.35,0,1,0-3.35-3.35A3.353,3.353,0,0,0,4.29,31.336Zm0-5.4a2.049,2.049,0,1,1-2.049,2.049A2.051,2.051,0,0,1,4.29,25.938Z" transform="translate(-0.859 -24.637)"/><path d="M5.437,127.624a3.35,3.35,0,1,0,3.35,3.35A3.354,3.354,0,0,0,5.437,127.624Zm0,5.4a2.049,2.049,0,1,1,2.049-2.049A2.051,2.051,0,0,1,5.437,133.022Z" transform="translate(-1.906 -118.695)"/><path d="M5.437,229.406a3.35,3.35,0,1,0,3.35,3.35A3.354,3.354,0,0,0,5.437,229.406Zm0,5.4a2.049,2.049,0,1,1,2.049-2.049A2.051,2.051,0,0,1,5.437,234.8Z" transform="translate(-1.906 -211.652)"/><path d="M101.837,37.912h5.757a.65.65,0,1,0,0-1.3h-5.757a.65.65,0,1,0,0,1.3Z" transform="translate(-92.414 -35.573)"/><path d="M101.837,69.883h2.878a.65.65,0,1,0,0-1.3h-2.878a.65.65,0,1,0,0,1.3Z" transform="translate(-92.414 -64.772)"/><path d="M464.187,142.775H461.01a.65.65,0,0,0,0,1.3h3.176a.65.65,0,0,0,0-1.3Z" transform="translate(-420.446 -132.532)"/><circle cx="0.722" cy="0.722" r="0.722" transform="translate(37.43 10.188)"/><path d="M464.187,173.356H461.01a.65.65,0,1,0,0,1.3h3.176a.65.65,0,0,0,0-1.3Z" transform="translate(-420.446 -160.462)"/><circle cx="0.722" cy="0.722" r="0.722" transform="translate(37.43 12.839)"/><path d="M265.876,440.751H262.7a.65.65,0,0,0,0,1.3h3.176a.65.65,0,0,0,0-1.3Z" transform="translate(-239.329 -404.673)"/><path d="M234.119,440.115a.722.722,0,1,0,.723.722A.722.722,0,0,0,234.119,440.115Z" transform="translate(-213.161 -404.092)"/><path d="M265.876,471.333H262.7a.65.65,0,0,0,0,1.3h3.176a.65.65,0,0,0,0-1.3Z" transform="translate(-239.329 -432.603)"/><circle cx="0.722" cy="0.722" r="0.722" transform="translate(20.236 38.674)"/><path d="M464.187,204H461.01a.65.65,0,0,0,0,1.3h3.176a.65.65,0,0,0,0-1.3Z" transform="translate(-420.446 -188.45)"/><path d="M464.187,234.583H461.01a.65.65,0,0,0,0,1.3h3.176a.65.65,0,0,0,0-1.3Z" transform="translate(-420.446 -216.38)"/><circle cx="0.722" cy="0.722" r="0.722" transform="translate(37.43 18.148)"/><path d="M464.187,265.165H461.01a.65.65,0,1,0,0,1.3h3.176a.65.65,0,0,0,0-1.3Z" transform="translate(-420.446 -244.311)"/><path d="M464.187,295.746H461.01a.65.65,0,1,0,0,1.3h3.176a.65.65,0,0,0,0-1.3Z" transform="translate(-420.446 -272.24)"/><path d="M432.43,295.11a.722.722,0,1,0,.723.722A.722.722,0,0,0,432.43,295.11Z" transform="translate(-394.278 -271.659)"/><path d="M17.554,397.179H15.121V393.46a1,1,0,0,0-1-1H11.764a1,1,0,0,0-1,1v3.719H9.839v-6.047a1,1,0,0,0-1-1H6.483a1,1,0,0,0-1,1v6.047h-.8v-2.056a1,1,0,0,0-1-1H1.328a1,1,0,0,0-1,1v2.14a.65.65,0,0,0,.32,1.216h16.9a.65.65,0,0,0,0-1.3Zm-5.487-3.415H13.82v3.415H12.068Zm-5.281-2.328H8.538v5.744H6.786Zm-5.155,3.992H3.383v1.752H1.631Z" transform="translate(0 -358.444)"/></g></g></svg>