<svg xmlns="http://www.w3.org/2000/svg" width="66" height="66" viewBox="0 0 66 66"><g transform="translate(-318 -5308)"><rect width="66" height="66" rx="6" transform="translate(318 5308)" fill="#fff"/><g transform="translate(328.644 5319.385)"><path d="M408,408h8.387v4.193a4.194,4.194,0,0,1-4.193,4.193H408Zm0,0" transform="translate(-372.355 -372.355)" fill="#bbdeaf"/><path d="M42.946,8H8V47.139a4.194,4.194,0,0,0,4.193,4.193H47.139a4.194,4.194,0,0,1-4.193-4.193Zm0,0" transform="translate(-7.301 -7.301)" fill="#ffe082"/><g transform="translate(4.892 4.892)"><path d="M328.774,176.387A8.387,8.387,0,1,1,320.387,168,8.387,8.387,0,0,1,328.774,176.387Zm0,0" transform="translate(-289.635 -158.215)" fill="#bbdeaf"/><path d="M72,56H95.763v4.193H72Zm0,0" transform="translate(-70.602 -56)" fill="#ff8a65"/><path d="M56,152h6.989v6.989H56Zm0,0" transform="translate(-56 -143.613)" fill="#ff8a65"/><path d="M56,264h6.989v6.989H56Zm0,0" transform="translate(-56 -245.828)" fill="#ff854e"/><path d="M56,376h6.989v6.989H56Zm0,0" transform="translate(-56 -348.043)" fill="#ff8a65"/></g><path d="M372.193,209.086h-1.4v-2.1a2.1,2.1,0,0,1,2.1-2.1,1.4,1.4,0,0,0,1.4-1.4v-.7a1.4,1.4,0,0,0-1.4-1.4h-2.1a1.4,1.4,0,0,0-1.4,1.4v.7H368v-.7a2.8,2.8,0,0,1,2.8-2.8h2.1a2.8,2.8,0,0,1,2.8,2.8v.7a2.8,2.8,0,0,1-2.8,2.8.7.7,0,0,0-.7.7Zm0,0" transform="translate(-335.85 -182.527)" fill="#fff"/><path d="M400,320h1.4v1.4H400Zm0,0" transform="translate(-365.054 -292.043)" fill="#fff"/><path d="M76.236,144.719l-1.892-1.892.988-.988.9.9,4.4-4.4.988.988Zm0,0" transform="translate(-67.849 -126.257)" fill="#fff"/><path d="M450.8,434.8h-1.4v-1.4H448V432h2.8Zm0,0" transform="translate(-408.861 -394.259)" fill="#fff"/><path d="M44.73,23.064a9.092,9.092,0,0,0-8.387-9.05V0H0V39.838A4.9,4.9,0,0,0,4.892,44.73H39.838a4.9,4.9,0,0,0,4.892-4.892V34.946H36.344V32.115A9.092,9.092,0,0,0,44.73,23.064ZM4.892,43.333A3.5,3.5,0,0,1,1.4,39.838V1.4H34.946V14.014a9.077,9.077,0,0,0,0,18.1v7.722a4.873,4.873,0,0,0,1.475,3.495Zm38.44-6.989v3.495a3.495,3.495,0,0,1-6.989,0V36.344Zm-7.688-5.591a7.688,7.688,0,1,1,7.688-7.688A7.688,7.688,0,0,1,35.645,30.752Zm0,0"/><path d="M72,48H95.763v1.4H72Zm0,0" transform="translate(-65.71 -43.807)"/><path d="M72,96H95.763v1.4H72Zm0,0" transform="translate(-65.71 -87.613)"/><path d="M48,152.387h8.387V144H48Zm1.4-6.989h5.591v5.591H49.4Zm0,0" transform="translate(-43.807 -131.42)"/><path d="M48,264.387h8.387V256H48Zm1.4-6.989h5.591v5.591H49.4Zm0,0" transform="translate(-43.807 -233.635)"/><path d="M48,376.387h8.387V368H48Zm1.4-6.989h5.591v5.591H49.4Zm0,0" transform="translate(-43.807 -335.85)"/><path d="M176,168h9.785v1.4H176Zm0,0" transform="translate(-160.624 -153.323)"/><path d="M176,200h6.989v1.4H176Zm0,0" transform="translate(-160.624 -182.527)"/><path d="M176,280h9.785v1.4H176Zm0,0" transform="translate(-160.624 -255.538)"/><path d="M176,312h6.989v1.4H176Zm0,0" transform="translate(-160.624 -284.742)"/><path d="M176,392h9.785v1.4H176Zm0,0" transform="translate(-160.624 -357.753)"/><path d="M176,424h6.989v1.4H176Zm0,0" transform="translate(-160.624 -386.958)"/><path d="M496,0h1.4V9.785H496Zm0,0" transform="translate(-452.667)"/><path d="M464,0h1.4V6.989H464Zm0,0" transform="translate(-423.463)"/><path d="M432,0h1.4V4.193H432Zm0,0" transform="translate(-394.259)"/></g></g></svg>