<svg xmlns="http://www.w3.org/2000/svg" width="66" height="66" viewBox="0 0 66 66"><g transform="translate(-722.75 -5244.75)"><rect width="66" height="66" rx="6" transform="translate(722.75 5244.75)" fill="#fff"/><g transform="translate(731.926 5253.927)"><g transform="translate(7 7)"><path d="M92.579,93.488V80.068a4.186,4.186,0,1,0-8.364.355,4.846,4.846,0,0,0-4.6,6.3,5.464,5.464,0,0,0-.428,10.106c-3.3,3.526.2,9.207,5.033,7.875a4.186,4.186,0,1,0,8.362.382v-11.6h0Z" transform="translate(-76.001 -76.001)" fill="#bbdeaf"/><path d="M260.19,76A4.13,4.13,0,0,0,256,80.068V105.09a4.186,4.186,0,1,0,8.362-.382c4.833,1.331,8.333-4.349,5.034-7.875a5.681,5.681,0,0,0,2.067-1.674,5.985,5.985,0,1,1-2.293-10.528,4.915,4.915,0,0,0-4.8-4.208A4.117,4.117,0,0,0,260.19,76Z" transform="translate(-239.422 -76.001)" fill="#ffd63d"/><path d="M324.708,179.869a5.987,5.987,0,1,0-5.987-5.987A6,6,0,0,0,324.708,179.869Z" transform="translate(-296.366 -159.432)" fill="#e1e6e9"/></g><path d="M283.05,150.5h-.015a.921.921,0,0,0,0,1.842h.027a.921.921,0,0,0-.012-1.842Z" transform="translate(-256.131 -136.639)"/><path d="M146.122,275.864l-.02,0a.921.921,0,0,0,.406,1.8h0a.921.921,0,0,0-.388-1.8Z" transform="translate(-131.994 -250.438)"/><path d="M246.921,3.684a.921.921,0,0,0,.921-.921V.921a.921.921,0,0,0-1.842,0V2.763A.921.921,0,0,0,246.921,3.684Z" transform="translate(-223.343)"/><path d="M124.042,35.934a.921.921,0,0,0,1.6-.921l-.921-1.6a.921.921,0,0,0-1.6.921Z" transform="translate(-111.669 -29.922)"/><path d="M33.417,124.718l1.6.921a.921.921,0,0,0,.921-1.6l-1.6-.921a.921.921,0,1,0-.921,1.6Z" transform="translate(-29.921 -111.671)"/><path d="M3.684,246.921A.921.921,0,0,0,2.763,246H.921a.921.921,0,0,0,0,1.842H2.763A.921.921,0,0,0,3.684,246.921Z" transform="translate(0 -223.343)"/><path d="M35.012,359.122l-1.6.921a.921.921,0,1,0,.921,1.6l1.6-.921a.921.921,0,1,0-.921-1.6Z" transform="translate(-29.921 -325.934)"/><path d="M125.3,441.844a.921.921,0,0,0-1.258.337l-.921,1.6a.921.921,0,1,0,1.6.921l.921-1.6A.921.921,0,0,0,125.3,441.844Z" transform="translate(-111.67 -401.038)"/><path d="M246.921,472a.921.921,0,0,0-.921.921v1.842a.921.921,0,1,0,1.842,0v-1.842A.921.921,0,0,0,246.921,472Z" transform="translate(-223.343 -428.528)"/><path d="M360.717,442.181a.921.921,0,1,0-1.6.921l.921,1.6a.921.921,0,0,0,1.6-.921Z" transform="translate(-325.934 -401.037)"/><path d="M444.7,360.043l-1.6-.921a.921.921,0,1,0-.921,1.6l1.6.921a.921.921,0,1,0,.921-1.6Z" transform="translate(-401.036 -325.935)"/><path d="M474.763,246h-1.842a.921.921,0,0,0,0,1.842h1.842a.921.921,0,1,0,0-1.842Z" transform="translate(-428.528 -223.343)"/><path d="M102.169,81.371a6.918,6.918,0,0,0-4.7-6.545,5.843,5.843,0,0,0-4.688-4.316A4.884,4.884,0,0,0,91.5,67.664a5.185,5.185,0,0,0-8,.472,5.185,5.185,0,0,0-8-.472,4.885,4.885,0,0,0-1.278,2.844,5.821,5.821,0,0,0-3.813,2.405,5.592,5.592,0,0,0-.955,4.213,6.367,6.367,0,0,0-.714,10.893,5.52,5.52,0,0,0,0,5.891,5.747,5.747,0,0,0,5.518,2.812,4.958,4.958,0,0,0,1.234,2.6,5.185,5.185,0,0,0,8.013-.459,5.185,5.185,0,0,0,8.013.459,4.957,4.957,0,0,0,1.234-2.6,5.747,5.747,0,0,0,5.518-2.812,5.519,5.519,0,0,0-.225-6.216A6.916,6.916,0,0,0,102.169,81.371ZM79.308,99.156a3.323,3.323,0,0,1-2.459-1.074,3.062,3.062,0,0,1-.8-1.788,3.934,3.934,0,0,0,2.412-2.632c.27-.712.406-1.069,1.177-1.276a.921.921,0,1,0-.477-1.779,3.321,3.321,0,0,0-2.422,2.4A2.229,2.229,0,0,1,74.9,94.738h-.006a3.994,3.994,0,0,1-4.582-1.783,3.694,3.694,0,0,1,.466-4.575.921.921,0,0,0-.276-1.46,4.544,4.544,0,0,1,.36-8.414.921.921,0,0,0,.545-1.152,3.76,3.76,0,0,1,.508-3.383,4.028,4.028,0,0,1,3.235-1.708,2.246,2.246,0,0,1,2.39,1.493,2.854,2.854,0,0,0,2.634,1.867.921.921,0,0,0,0-1.842c-.475,0-.6-.15-1.022-.915a3.964,3.964,0,0,0-3.071-2.375,3.075,3.075,0,0,1,.777-1.585,3.324,3.324,0,0,1,2.452-1.066,3.213,3.213,0,0,1,3.269,3.146V83.445a3.661,3.661,0,0,1-3.365-2.415A4.612,4.612,0,0,0,75.333,78.1a.921.921,0,1,0-.194,1.832c1.463.155,1.857.879,2.455,1.976a11.249,11.249,0,0,0,.741,1.226,7.858,7.858,0,0,1-2.048,1.416.921.921,0,1,0,.818,1.65,9.528,9.528,0,0,0,2.556-1.79,6.242,6.242,0,0,0,2.916.877V96.01A3.213,3.213,0,0,1,79.308,99.156ZM96.221,88.382a3.694,3.694,0,0,1,.466,4.575A3.994,3.994,0,0,1,92.1,94.74H92.1a2.229,2.229,0,0,1-1.844-1.731,3.321,3.321,0,0,0-2.422-2.4.921.921,0,1,0-.477,1.779c.771.207.907.564,1.177,1.276a3.934,3.934,0,0,0,2.412,2.632,3.062,3.062,0,0,1-.8,1.788,3.323,3.323,0,0,1-2.459,1.074,3.213,3.213,0,0,1-3.269-3.146V89.422a2.537,2.537,0,0,1,1.69-2.7,2.441,2.441,0,0,1,2.7,1.345.921.921,0,1,0,1.6-.921,4.283,4.283,0,0,0-4.776-2.2,3.843,3.843,0,0,0-1.214.565V70.988a3.213,3.213,0,0,1,3.269-3.146,3.324,3.324,0,0,1,2.452,1.066,3.075,3.075,0,0,1,.776,1.583A3.791,3.791,0,0,0,88.009,72.6a.921.921,0,1,0,1.6.919,2.139,2.139,0,0,1,2.244-1.251,4.057,4.057,0,0,1,3.531,2.2c-.04,0-.079,0-.119,0A6.908,6.908,0,1,0,96.1,88.226.913.913,0,0,0,96.221,88.382Zm-.959-1.945a5.066,5.066,0,1,1,5.066-5.066A5.071,5.071,0,0,1,95.261,86.437Z" transform="translate(-59.92 -59.921)"/><path d="M367.329,203.6h-1.65v-2.452a.921.921,0,1,0-1.842,0v3.373a.921.921,0,0,0,.921.921h2.571a.921.921,0,1,0,0-1.842Z" transform="translate(-330.327 -181.782)"/></g></g></svg>