<svg xmlns="http://www.w3.org/2000/svg" width="66" height="66" viewBox="0 0 66 66"><g transform="translate(-723 -5370)"><rect width="66" height="66" rx="6" transform="translate(723 5370)" fill="#fff"/><g transform="translate(733.5 5379)"><g transform="translate(0.738 0.738)"><g transform="translate(0 0)"><path d="M1096.282,808.125a5.813,5.813,0,0,1,2.983,5.079v6.861H1079.77V813.2a5.811,5.811,0,0,1,5.814-5.814h1.538l2.394,3.286,2.395-3.286h1.539A5.792,5.792,0,0,1,1096.282,808.125Z" transform="translate(-1056.844 -791.167)" fill="#79be60"/><path d="M1190.269,286.765v10.193a5.79,5.79,0,0,0-2.832-.735h-1.54l-.159-2.428-.061-.035a4.356,4.356,0,0,0,2.177-3.77v-3.062s-5.151.433-6.192-2.9a4.954,4.954,0,0,1-2.51,2.9v3.062a4.349,4.349,0,0,0,2.14,3.748l-.025.056-.159,2.429h-1.538a5.787,5.787,0,0,0-2.831.735V286.765a6.765,6.765,0,0,1,13.529,0Z" transform="translate(-1150.831 -280)" fill="#cc6c41"/><path d="M1263.892,413.859v3.062a4.353,4.353,0,0,1-2.177,3.77,4.4,4.4,0,0,1-.542.265,4.352,4.352,0,0,1-5.983-4.035v-3.062a4.956,4.956,0,0,0,2.51-2.9C1258.741,414.292,1263.892,413.859,1263.892,413.859Z" transform="translate(-1226.868 -406.932)" fill="#f9c7b2"/><path d="M1323.41,726.647l.159,2.428-2.395,3.286-2.394-3.286.159-2.429.025-.056a4.348,4.348,0,0,0,4.385.022Z" transform="translate(-1288.502 -712.852)" fill="#f0c0aa"/><path d="M347.53,1330.187l.588-.457,4.72,1.177a2.414,2.414,0,0,1,1.831,2.343v9.962H334.49v-9.962a2.414,2.414,0,0,1,1.831-2.343l4.72-1.177.695.54,2.844,2.21Z" transform="translate(-334.49 -1297.439)" fill="#ff854e"/><path d="M505.12,799.131a2.69,2.69,0,0,1-.414,1.512,11.007,11.007,0,0,1-.583,1.041,7.593,7.593,0,0,1-1.248-1.051c-4.255,2-6.906-.091-6.906-.091a5.1,5.1,0,0,1-1.831,1.142,4.993,4.993,0,0,1-.3-1.675,5.048,5.048,0,0,1,.056-1.482,3.837,3.837,0,0,1,.795-1.41q.1-.126.214-.245a7.763,7.763,0,0,1,3.659-1.914,7.376,7.376,0,0,1,2.2-.19,6.5,6.5,0,0,1,1.239.2,1.446,1.446,0,0,1,.849.57,9.183,9.183,0,0,0,.517,1.043c.277.328.655.523.939.843A3.3,3.3,0,0,1,505.12,799.131Z" transform="translate(-488.911 -778.915)" fill="#cc6c41"/><path d="M514.376,984.172v2.336a5.639,5.639,0,0,1-2.588,4.845,4.585,4.585,0,0,1-5.08-.177,5.131,5.131,0,0,1-.856-.76,5.821,5.821,0,0,1-1.462-3.909v-2.336a5.1,5.1,0,0,0,1.831-1.142s2.652,2.1,6.906.091A7.59,7.59,0,0,0,514.376,984.172Z" transform="translate(-499.164 -961.404)" fill="#f9c7b2"/><path d="M575.815,1250.806l-2.951,2.293-2.844-2.21a6.026,6.026,0,0,0,.428-2.012,3.389,3.389,0,0,0-.14-1.031l.012-.017a4.587,4.587,0,0,0,5.08.177l.023.037h0a2.749,2.749,0,0,0-.065.711A5.735,5.735,0,0,0,575.815,1250.806Z" transform="translate(-562.775 -1218.058)" fill="#f0c0aa"/></g></g><g transform="translate(0 0)"><g transform="translate(0 15.834)"><g transform="translate(7.245 13.954)"><path d="M546.748,1228.894a.739.739,0,0,1-.687-1.009,5.352,5.352,0,0,0,.377-1.758,2.221,2.221,0,0,0-.084-.688c-.013-.052-.025-.106-.038-.163a.738.738,0,1,1,1.44-.326c.011.051.023.1.034.144a3.648,3.648,0,0,1,.124,1.066,6.746,6.746,0,0,1-.479,2.265A.738.738,0,0,1,546.748,1228.894Z" transform="translate(-546.01 -1224.375)" fill="#333"/><g transform="translate(5.335 0.198)"><path d="M720.649,1235.039a.739.739,0,0,1-.682-.455,6.41,6.41,0,0,1-.516-2.318,3.46,3.46,0,0,1,.079-.872.738.738,0,0,1,1.463.144h0a.735.735,0,0,1-.017.159,2.042,2.042,0,0,0-.049.536,4.946,4.946,0,0,0,.4,1.784.738.738,0,0,1-.681,1.022Z" transform="translate(-719.45 -1230.8)" fill="#333"/></g></g><g transform="translate(4.901)"><g transform="translate(0.325 5.788)"><path d="M486.121,969.382a5.46,5.46,0,0,1-4.078-1.862,6.54,6.54,0,0,1-1.653-4.4v-2.336a.739.739,0,0,1,.5-.7,4.3,4.3,0,0,0,1.525-.939.728.728,0,0,1,1-.086,4.491,4.491,0,0,0,1.643.676,7.008,7.008,0,0,0,4.493-.671.738.738,0,0,1,.851.16,6.9,6.9,0,0,0,1.1.931.739.739,0,0,1,.35.628v2.336a6.54,6.54,0,0,1-1.653,4.4A5.462,5.462,0,0,1,486.121,969.382Zm-4.255-8.108v1.842a4.284,4.284,0,1,0,8.509,0v-1.947a8.3,8.3,0,0,1-.668-.562,8.251,8.251,0,0,1-5.055.548,6.427,6.427,0,0,1-1.606-.593A5.943,5.943,0,0,1,481.867,961.275Z" transform="translate(-480.39 -958.897)" fill="#333"/></g><path d="M470.875,779.159a.738.738,0,0,1-.678-.445,5.624,5.624,0,0,1-.357-1.922,5.744,5.744,0,0,1,.074-1.7,4.383,4.383,0,0,1,.942-1.706c.079-.1.162-.192.246-.282a8.677,8.677,0,0,1,4.033-2.129,8.081,8.081,0,0,1,2.424-.207,7.114,7.114,0,0,1,1.382.227,2.161,2.161,0,0,1,1.27.88,3.162,3.162,0,0,1,.287.6,1.476,1.476,0,0,0,.175.365,2.637,2.637,0,0,0,.376.334,4.064,4.064,0,0,1,.552.5,4.022,4.022,0,0,1,.994,2.129,3.385,3.385,0,0,1-.5,1.932l-.045.087a4.146,4.146,0,0,1-.687,1.144.738.738,0,0,1-1.056-1.028c.04-.062.148-.246.432-.8.031-.06.053-.1.061-.117a1.964,1.964,0,0,0,.327-1.091,2.566,2.566,0,0,0-.629-1.283,2.853,2.853,0,0,0-.361-.317,3.874,3.874,0,0,1-.589-.54,2.609,2.609,0,0,1-.424-.787,2,2,0,0,0-.149-.331.755.755,0,0,0-.429-.26,5.739,5.739,0,0,0-1.1-.176,6.622,6.622,0,0,0-1.979.174,7.007,7.007,0,0,0-3.285,1.7c-.062.067-.124.137-.182.209a2.978,2.978,0,0,0-.648,1.113,4.516,4.516,0,0,0-.037,1.265,4.441,4.441,0,0,0,.239,1.428.738.738,0,0,1-.385.971A.727.727,0,0,1,470.875,779.159Zm9.487-1.283h0Z" transform="translate(-469.811 -770.749)" fill="#333"/></g><g transform="translate(0 16.457)"><path d="M331.408,1320.7h-20.18a.739.739,0,0,1-.738-.738V1310a3.148,3.148,0,0,1,2.39-3.059l4.72-1.177a.738.738,0,0,1,.632.134l3.086,2.4,3.086-2.4a.738.738,0,0,1,.632-.134l4.72,1.177a3.148,3.148,0,0,1,2.39,3.059v9.962A.739.739,0,0,1,331.408,1320.7Zm-19.441-1.477h18.7V1310a1.674,1.674,0,0,0-1.271-1.627l-4.372-1.089-3.256,2.53a.738.738,0,0,1-.906,0l-3.256-2.53-4.372,1.089a1.674,1.674,0,0,0-1.271,1.627v9.224Z" transform="translate(-310.49 -1305.738)" fill="#333"/></g><g transform="translate(4.323 22.634)"><path d="M451.768,1515.322a.738.738,0,0,1-.738-.739v-7.3a.738.738,0,1,1,1.476,0v7.3A.738.738,0,0,1,451.768,1515.322Z" transform="translate(-451.03 -1506.54)" fill="#333"/><g transform="translate(11.533)"><path d="M826.678,1515.322a.738.738,0,0,1-.738-.739v-7.3a.738.738,0,0,1,1.477,0v7.3A.738.738,0,0,1,826.678,1515.322Z" transform="translate(-825.94 -1506.54)" fill="#333"/></g></g></g><g transform="translate(22.926)"><g transform="translate(0 16.223)"><path d="M1076,797.532h-19.494a.739.739,0,0,1-.739-.738v-6.861a6.56,6.56,0,0,1,6.553-6.552h1.538a.738.738,0,0,1,0,1.477h-1.538a5.082,5.082,0,0,0-5.076,5.076v6.123h18.018v-6.123a5.081,5.081,0,0,0-5.076-5.076h-1.54a.738.738,0,0,1,0-1.477h1.54a6.56,6.56,0,0,1,6.552,6.552v6.861A.738.738,0,0,1,1076,797.532Z" transform="translate(-1055.77 -783.38)" fill="#333"/></g><g transform="translate(2.983)"><g transform="translate(2.413 4.029)"><path d="M1236.27,398.749a5.1,5.1,0,0,1-5.09-5.09V390.6a.739.739,0,0,1,.39-.651,4.241,4.241,0,0,0,2.146-2.441.738.738,0,0,1,.7-.545h.014a.738.738,0,0,1,.7.518c.346,1.11,1.335,1.849,2.938,2.2a9.49,9.49,0,0,0,2.487.186.739.739,0,0,1,.8.736v3.062a5.084,5.084,0,0,1-5.09,5.089Zm-3.613-7.726v2.637a3.613,3.613,0,1,0,7.226,0v-2.306a10.926,10.926,0,0,1-2.124-.234,5.679,5.679,0,0,1-3.287-1.811A6.178,6.178,0,0,1,1232.657,391.022Z" transform="translate(-1231.18 -386.96)" fill="#333"/></g><path d="M1167.008,274.454a.739.739,0,0,1-.738-.738V263.5a6.026,6.026,0,0,0-12.053,0v10.213a.738.738,0,1,1-1.476,0V263.5a7.5,7.5,0,0,1,15.006,0v10.213A.739.739,0,0,1,1167.008,274.454Z" transform="translate(-1152.74 -256)" fill="#333"/></g><g transform="translate(7.352 13.794)"><path d="M1297.9,711.612a.738.738,0,0,1-.6-.3l-2.395-3.286a.739.739,0,0,1-.14-.483l.159-2.423a.738.738,0,0,1,1.475.042h0c0,.016,0,.032,0,.048l-.141,2.162,1.64,2.251,1.641-2.251-.142-2.161a.738.738,0,0,1,1.474-.1l.159,2.428a.736.736,0,0,1-.14.483l-2.395,3.286A.738.738,0,0,1,1297.9,711.612Z" transform="translate(-1294.768 -704.42)" fill="#333"/></g><g transform="translate(3.744 21.848)"><path d="M1178.228,974.757a.739.739,0,0,1-.738-.738v-7.051a.738.738,0,0,1,1.477,0v7.051A.738.738,0,0,1,1178.228,974.757Z" transform="translate(-1177.49 -966.23)" fill="#333"/><g transform="translate(12.006)"><path d="M1568.528,974.757a.738.738,0,0,1-.738-.738v-7.051a.738.738,0,0,1,1.476,0v7.051A.738.738,0,0,1,1568.528,974.757Z" transform="translate(-1567.79 -966.23)" fill="#333"/></g></g></g></g><g transform="translate(8.672 1.302)"><g transform="translate(2.023 2.023)"><path d="M658.9,374.07a.739.739,0,0,1-.738-.738v-8.494a.739.739,0,0,1,.738-.738h8.494a.738.738,0,1,1,0,1.477h-7.756v7.756A.738.738,0,0,1,658.9,374.07Z" transform="translate(-658.16 -364.1)" fill="#333"/></g><g transform="translate(0 8.283)"><path d="M595.152,571.3a.739.739,0,0,1-.547-.243l-2.023-2.234a.738.738,0,0,1,1.094-.991l1.476,1.63,1.476-1.63a.738.738,0,0,1,1.095.991l-2.023,2.234A.738.738,0,0,1,595.152,571.3Z" transform="translate(-592.39 -567.587)" fill="#333"/></g><g transform="translate(8.282)"><path d="M862.375,303.859a.738.738,0,0,1-.5-1.286l1.63-1.476-1.63-1.476a.738.738,0,0,1,.991-1.094l2.234,2.023a.738.738,0,0,1,0,1.095l-2.234,2.023A.736.736,0,0,1,862.375,303.859Z" transform="translate(-861.637 -298.337)" fill="#333"/></g><g transform="translate(15.483 32.344)"><path d="M1104.952,1359.75h-8.494a.738.738,0,0,1,0-1.477h7.755v-7.755a.738.738,0,0,1,1.477,0v8.494A.738.738,0,0,1,1104.952,1359.75Z" transform="translate(-1095.72 -1349.78)" fill="#333"/><g transform="translate(6.471)"><path d="M1310.861,1353.49a.736.736,0,0,1-.547-.243l-1.476-1.63-1.475,1.63a.738.738,0,1,1-1.095-.991l2.023-2.234a.738.738,0,0,1,1.094,0l2.023,2.234a.738.738,0,0,1-.547,1.234Z" transform="translate(-1306.077 -1349.78)" fill="#333"/></g><g transform="translate(0 6.471)"><path d="M1098.7,1565.662a.736.736,0,0,1-.5-.191l-2.234-2.023a.738.738,0,0,1,0-1.094l2.234-2.023a.738.738,0,0,1,.991,1.095l-1.63,1.476,1.63,1.476a.738.738,0,0,1-.5,1.285Z" transform="translate(-1095.73 -1560.14)" fill="#333"/></g></g></g></g></g></svg>