<svg xmlns="http://www.w3.org/2000/svg" width="248" height="248" viewBox="0 0 248 248"><g transform="translate(6159 10218)"><g transform="translate(-6159 -10218)" fill="#fffdf4" stroke="#fff" stroke-width="1"><rect width="248" height="248" rx="20" stroke="none"/><rect x="0.5" y="0.5" width="247" height="247" rx="19.5" fill="none"/></g><g transform="translate(-6104 -10163)"><circle cx="67.341" cy="67.341" r="67.341" transform="translate(2.032 2.032)" fill="#ffd63d"/><circle cx="51.702" cy="51.702" r="51.702" transform="translate(17.671 17.671)" fill="#efe7e4"/><path d="M149.714,138.451a6.238,6.238,0,0,1,8.484,2.43,18.785,18.785,0,0,1,2.34,5.617V117.174a5.466,5.466,0,0,1,10.932,0v-6.879a5.466,5.466,0,0,1,10.932,0v8.524a5.466,5.466,0,1,1,10.932,0v11.07a5.466,5.466,0,1,1,10.932,0v26.106c0,11.755-7.54,25.417-20.889,25.417H167.1c-18.086,0-18.206-25.043-18.206-25.043s0-6.524-1.607-9.429A6.241,6.241,0,0,1,149.714,138.451Z" transform="translate(-106.799 -76.419)" fill="#f1d0a5"/><g transform="translate(39.7 28.406)"><path d="M200.122,175.754a1.816,1.816,0,0,0,1.816-1.816V135.689a5.469,5.469,0,0,1,3.65-5.156,5.467,5.467,0,0,0-7.283,5.155v38.248a1.817,1.817,0,0,0,1.816,1.817Z" transform="translate(-184.267 -123.34)" fill="#f1b986"/><path d="M240.462,146.87a1.816,1.816,0,0,0,1.816-1.816V110.29a5.469,5.469,0,0,1,3.65-5.156,5.467,5.467,0,0,0-7.283,5.155v34.764A1.816,1.816,0,0,0,240.462,146.87Z" transform="translate(-213.676 -104.824)" fill="#f1b986"/><path d="M280.805,168.06a1.816,1.816,0,0,0,1.816-1.816v-24.5a5.469,5.469,0,0,1,3.65-5.156,5.467,5.467,0,0,0-7.283,5.155v24.5A1.817,1.817,0,0,0,280.805,168.06Z" transform="translate(-243.086 -127.755)" fill="#f1b986"/><path d="M321.148,200.413a1.816,1.816,0,0,0,1.816-1.816v-16a5.469,5.469,0,0,1,3.65-5.156,5.467,5.467,0,0,0-7.283,5.155v16A1.817,1.817,0,0,0,321.148,200.413Z" transform="translate(-272.496 -157.535)" fill="#f1b986"/><path d="M152.525,244.714s0-6.524-1.607-9.429a6.242,6.242,0,0,1,3.639-9,6.24,6.24,0,0,0-7.271,9c1.611,2.905,1.607,9.429,1.607,9.429s.12,25.043,18.206,25.043h3.633C152.645,269.758,152.525,244.714,152.525,244.714Z" transform="translate(-146.501 -193.175)" fill="#f1b986"/></g><path d="M141.4,150.9a43.423,43.423,0,0,0,2.444,13.211c3.316,9.065,9.469,13.857,17.793,13.857h16.281a20.272,20.272,0,0,0,14.874-6.48,2.032,2.032,0,1,0-2.929-2.817,16.3,16.3,0,0,1-11.944,5.233H161.641c-6.531,0-11.223-3.735-13.944-11.1a39.9,39.9,0,0,1-2.229-11.911c0-.722-.052-7.149-1.862-10.414a4.207,4.207,0,1,1,7.358-4.082,19.953,19.953,0,0,1,2.085,4.824v9.651a2.032,2.032,0,0,0,2.42,2c.144-.028,14.531-2.671,20.282,9.331a2.032,2.032,0,0,0,3.666-1.756,20.309,20.309,0,0,0-15.139-11.426,28.649,28.649,0,0,0-7.163-.42V111.7a3.433,3.433,0,0,1,6.867-.012s0,.006,0,.009v28.559a2.032,2.032,0,0,0,4.065,0V104.821a3.433,3.433,0,1,1,6.867,0v33.657a2.032,2.032,0,1,0,4.065,0V113.349s0,0,0-.005a3.433,3.433,0,0,1,6.867,0v27.423a2.032,2.032,0,0,0,4.065,0V124.413s0,0,0-.005a3.435,3.435,0,0,1,6.869.005v26.1a28.469,28.469,0,0,1-2.722,11.977,2.032,2.032,0,1,0,3.671,1.745,32.623,32.623,0,0,0,3.115-13.723v-26.1a7.5,7.5,0,0,0-10.934-6.665v-4.4a7.5,7.5,0,0,0-10.932-6.67v-1.853a7.5,7.5,0,1,0-15,0v.216A7.5,7.5,0,0,0,153.05,111.7v20.8a8.275,8.275,0,0,0-13,9.952c.983,1.774,1.351,6.12,1.352,8.452Z" transform="translate(-101.342 -70.947)"/><path d="M118.428,20.319A69.392,69.392,0,0,0,4.015,46.066a2.032,2.032,0,0,0,3.829,1.365A65.122,65.122,0,1,1,5.66,54.964a2.033,2.033,0,0,0-3.966-.893A69.8,69.8,0,0,0,0,69.373a69.373,69.373,0,0,0,118.428,49.054,69.373,69.373,0,0,0,0-98.108Z" transform="translate(0 0)"/><path d="M111.445,165.179a53.734,53.734,0,1,0-53.734-53.734A53.8,53.8,0,0,0,111.445,165.179Zm0-103.4a49.669,49.669,0,1,1-49.669,49.669A49.726,49.726,0,0,1,111.445,61.776Z" transform="translate(-42.072 -42.072)"/></g></g></svg>