<svg xmlns="http://www.w3.org/2000/svg" width="248" height="248" viewBox="0 0 248 248"><g transform="translate(6159 9742)"><g transform="translate(-6159 -9742)" fill="#fffdf4" stroke="#fff" stroke-width="1"><rect width="248" height="248" rx="20" stroke="none"/><rect x="0.5" y="0.5" width="247" height="247" rx="19.5" fill="none"/></g><g transform="translate(-6107.178 -9698.045)"><g transform="translate(2.335 10.384)"><path d="M132.217,103.347c.019.585.031,1.171.031,1.761q0,1.176-.052,2.34a2.038,2.038,0,0,0,1.461,2.05l7.7,2.251a5.055,5.055,0,0,1,5.775-4.135,4.242,4.242,0,0,1,4.315,5.057l-1.341,8.42a5.055,5.055,0,0,1-9.994-1.525l-8.206-.258a2.035,2.035,0,0,0-2.008,1.436,52.782,52.782,0,0,1-5.646,12.374,2.036,2.036,0,0,0,.292,2.525l4.738,4.693a4.961,4.961,0,0,1,6.592,7.284l-2.193,2.633a5.051,5.051,0,0,1-6.932.857,4.961,4.961,0,0,1-1.688-5.452l-5.845-3.407a2.037,2.037,0,0,0-2.469.326,53.054,53.054,0,0,1-20.6,12.814,2.038,2.038,0,0,0-1.384,2.1l.682,7.985a5.055,5.055,0,0,1,5.991,4.153,5.149,5.149,0,0,1-4.069,5.774l-8.422,1.809a4.013,4.013,0,0,1-5.056-4.085,5.055,5.055,0,0,1,3.819-5.989l-2.727-7.755a2.034,2.034,0,0,0-2.062-1.354q-1.849.13-3.732.131A52.833,52.833,0,0,1,45.1,145.751a2.032,2.032,0,0,0-2.334-.2l-7.055,4.132.987,1.065a7.331,7.331,0,0,1-.083,10.144,7.218,7.218,0,0,1-10.39-.208l-7.433-8.025a7.331,7.331,0,0,1,.083-10.144,7.218,7.218,0,0,1,10.39.208l1.1,1.192,4.786-6.9a2.033,2.033,0,0,0,.016-2.295,52.8,52.8,0,0,1-9.029-29.615,53.412,53.412,0,0,1,.369-6.273,2.038,2.038,0,0,0-1.306-2.151l-7.512-2.816a5.055,5.055,0,0,1-6.066,3.695,3.932,3.932,0,0,1-4-5.057l2-8.466a5.149,5.149,0,0,1,5.857-3.949,5.055,5.055,0,0,1,4.029,6.075l8.163.867a2.037,2.037,0,0,0,2.111-1.286,52.925,52.925,0,0,1,5.882-10.981,2.034,2.034,0,0,0-.141-2.51l-5.3-6.021a5.055,5.055,0,0,1-7.286.223,5.149,5.149,0,0,1-.162-7.062l5.054-5.734A5.055,5.055,0,0,1,35.463,60.3l6.8,4.615a2.034,2.034,0,0,0,2.465-.138A52.824,52.824,0,0,1,73.177,52.4a2.034,2.034,0,0,0,1.79-1.765l1.012-7.96A5.055,5.055,0,0,1,71,37.353a5.149,5.149,0,0,1,5.191-4.791h7.5a5.149,5.149,0,0,1,5.191,4.791,5.055,5.055,0,0,1-4.985,5.319l1.036,8.153a2.036,2.036,0,0,0,1.74,1.758c1.476.208,2.93.484,4.365.811l7.76,2.218a47.239,47.239,0,0,1,27.157,20.514,43.194,43.194,0,0,1,6.264,27.22Z" transform="translate(-7.492 -27.257)" fill="#bbdeaf"/><g transform="translate(0 5.305)"><path d="M45.965,104.652A60.5,60.5,0,0,1,84.6,48.238l-.708-5.569a5.055,5.055,0,0,0,4.985-5.319,5.149,5.149,0,0,0-5.191-4.791h-7.5A5.149,5.149,0,0,0,71,37.35a5.055,5.055,0,0,0,4.985,5.319l-1.012,7.96a2.034,2.034,0,0,1-1.79,1.765A52.825,52.825,0,0,0,44.732,64.771a2.034,2.034,0,0,1-2.465.138l-6.8-4.615a5.055,5.055,0,0,0-7.627-6.636l-5.054,5.734a5.149,5.149,0,0,0,.162,7.062,5.055,5.055,0,0,0,7.286-.223l5.3,6.021a2.035,2.035,0,0,1,.141,2.51A52.925,52.925,0,0,0,29.79,85.744a2.037,2.037,0,0,1-2.111,1.286l-8.163-.867a5.055,5.055,0,0,0-4.029-6.075A5.149,5.149,0,0,0,9.63,84.036l-2,8.466a3.932,3.932,0,0,0,4,5.057,5.055,5.055,0,0,0,6.066-3.695l7.512,2.816a2.038,2.038,0,0,1,1.306,2.151,53.483,53.483,0,0,0-.369,6.273,52.8,52.8,0,0,0,9.029,29.615,2.033,2.033,0,0,1-.016,2.295l-4.786,6.9-1.1-1.192a7.218,7.218,0,0,0-10.39-.208,7.331,7.331,0,0,0-.083,10.144l7.433,8.025a7.218,7.218,0,0,0,10.39.208A7.331,7.331,0,0,0,36.7,150.75l-.987-1.065,7.055-4.132a2.032,2.032,0,0,1,2.334.2,52.84,52.84,0,0,0,33.113,12.4,60.476,60.476,0,0,1-32.249-53.5Z" transform="translate(-7.492 -32.559)" fill="#bbdeaf"/></g><g transform="translate(51.693 84.17)"><circle cx="11.803" cy="11.803" r="11.803" transform="translate(0 9.701)" fill="#ffd63d"/><circle cx="5.924" cy="5.924" r="5.924" transform="translate(38.85)" fill="#ffd63d"/></g><path d="M281.326,124.066a47.238,47.238,0,0,0-27.157-20.514l-4.644-1.327-13.917,22.43a15.4,15.4,0,0,0,13.084,23.515h39.1A43.2,43.2,0,0,0,281.326,124.066Z" transform="translate(-162.865 -75.197)" fill="#ebf5e7"/><path d="M322.567,82.283H262.491a9.161,9.161,0,0,1-7.785-13.991l30.038-48.414a9.161,9.161,0,0,1,15.569,0l30.038,48.414A9.161,9.161,0,0,1,322.567,82.283Z" transform="translate(-176.664 -15.547)" fill="#ff854e"/><path d="M287.593,94.582,314.8,50.73a1.381,1.381,0,0,1,2.347,0l27.208,43.852a1.381,1.381,0,0,1-1.174,2.109H288.767A1.381,1.381,0,0,1,287.593,94.582Z" transform="translate(-200.109 -39.31)" fill="#fbe98c"/><circle cx="19.729" cy="19.729" r="19.729" transform="translate(36.967 45.167)" fill="#f7f8f7"/></g><g transform="translate(-0.002 8.045)"><g transform="translate(0 0)"><path d="M222,238.978a2.339,2.339,0,0,0-3.033,1.318,17.015,17.015,0,0,1-7.591,8.632,2.339,2.339,0,1,0,2.261,4.094,21.7,21.7,0,0,0,9.681-11.011A2.338,2.338,0,0,0,222,238.978Z" transform="translate(-144.633 -166.856)"/><path d="M140.158,159.038a16.93,16.93,0,0,1,11.041,4.1,2.339,2.339,0,0,0,3.052-3.544,21.608,21.608,0,1,0-14.843,37.972h.082a2.339,2.339,0,0,0,.079-4.676,16.932,16.932,0,0,1,.59-33.854Z" transform="translate(-81.581 -108.737)"/><path d="M179.915,337.376a14.142,14.142,0,1,0-14.142-14.142A14.158,14.158,0,0,0,179.915,337.376Zm0-23.606a9.465,9.465,0,1,1-9.465,9.465A9.475,9.475,0,0,1,179.915,313.77Z" transform="translate(-114.082 -215.22)"/><path d="M306.892,286.244a8.263,8.263,0,1,0-8.263,8.263A8.272,8.272,0,0,0,306.892,286.244Zm-11.848,0a3.586,3.586,0,1,1,3.586,3.586A3.589,3.589,0,0,1,295.043,286.244Z" transform="translate(-199.824 -193.81)"/><path d="M327.159,61.9,297.121,13.482a11.5,11.5,0,0,0-19.544,0L270.2,25.372a2.339,2.339,0,0,0,3.974,2.466l7.377-11.889a6.822,6.822,0,0,1,11.595,0l30.038,48.414a6.822,6.822,0,0,1-5.8,10.419H257.312a6.822,6.822,0,0,1-5.8-10.419l17.264-27.827A2.339,2.339,0,1,0,264.8,34.07L247.54,61.9a11.5,11.5,0,0,0,9.772,17.562h60.076A11.5,11.5,0,0,0,327.159,61.9Z" transform="translate(-169.147 -8.045)"/><path d="M326.43,88.8a2.338,2.338,0,0,0,2.339,2.339h9.309a2.339,2.339,0,0,0,1.987-3.572L310.374,39.71a2.339,2.339,0,0,0-3.974,0L276.711,87.563a2.339,2.339,0,0,0,1.987,3.572h40.1a2.339,2.339,0,1,0,0-4.677H282.9l25.486-41.079,25.487,41.079h-5.106A2.338,2.338,0,0,0,326.43,88.8Z" transform="translate(-190.185 -29.075)"/><path d="M373.914,156.3a2.338,2.338,0,0,0-2.339,2.339v2.53a2.339,2.339,0,1,0,4.677,0v-2.53A2.338,2.338,0,0,0,373.914,156.3Z" transform="translate(-255.711 -110.072)"/><path d="M376.252,90.742a2.339,2.339,0,1,0-4.677,0v12.517a2.339,2.339,0,1,0,4.677,0Z" transform="translate(-255.711 -63.346)"/><path d="M142.164,100.114a7.429,7.429,0,0,0-7.372,3.622l-5.408-1.58c.03-.74.045-1.482.045-2.212,0-.563-.011-1.163-.032-1.836a2.339,2.339,0,1,0-4.675.151c.02.622.03,1.173.03,1.685,0,.737-.017,1.49-.05,2.237a4.369,4.369,0,0,0,3.142,4.4l7.7,2.251a2.339,2.339,0,0,0,2.961-1.848,2.724,2.724,0,0,1,3.1-2.223,2.341,2.341,0,0,0,.368.029,1.911,1.911,0,0,1,2.006,2.35l-1.341,8.42a2.717,2.717,0,0,1-3.111,2.257,2.726,2.726,0,0,1-2.259-3.076,2.339,2.339,0,0,0-2.241-2.676l-8.206-.258a4.373,4.373,0,0,0-4.317,3.085,50.479,50.479,0,0,1-5.4,11.826,4.354,4.354,0,0,0,.632,5.423l4.738,4.693a2.338,2.338,0,0,0,2.956.275,2.622,2.622,0,0,1,3.484,3.85l-2.279,2.737a2.622,2.622,0,0,1-4.511-2.485,2.338,2.338,0,0,0-1.048-2.738l-5.846-3.407a4.378,4.378,0,0,0-5.3.7A50.97,50.97,0,0,1,90.25,148.01a4.367,4.367,0,0,0-2.967,4.518l.682,7.985a2.339,2.339,0,0,0,2.792,2.094,2.7,2.7,0,0,1,3.184,2.051,2.624,2.624,0,0,1-.369,2.007,2.924,2.924,0,0,1-1.836,1.289L83.3,169.765a1.691,1.691,0,0,1-2.227-1.8,2.347,2.347,0,0,0-.052-.491,2.726,2.726,0,0,1,2.052-3.218,2.338,2.338,0,0,0,1.686-3.055l-2.726-7.755a4.38,4.38,0,0,0-4.432-2.911c-1.186.083-2.386.125-3.568.125A50.752,50.752,0,0,1,41.448,138.8a4.38,4.38,0,0,0-5.02-.423l-7.055,4.132a2.339,2.339,0,0,0-.534,3.607l1.1,1.192a4.879,4.879,0,0,1-7.159,6.63l-7.551-8.152a4.879,4.879,0,1,1,7.159-6.631l1.1,1.192a2.339,2.339,0,0,0,3.638-.257l4.786-6.9a4.345,4.345,0,0,0,.033-4.935,50.508,50.508,0,0,1-5.21-9.959c-.01-.026-.018-.052-.028-.077a50.621,50.621,0,0,1-3.391-18.271,51.336,51.336,0,0,1,.353-6,4.369,4.369,0,0,0-2.807-4.615l-7.512-2.816a2.339,2.339,0,0,0-3.09,1.623,2.725,2.725,0,0,1-3.259,1.986,2.338,2.338,0,0,0-.539-.063,1.832,1.832,0,0,1-1.485-.6,1.832,1.832,0,0,1-.24-1.582l2-8.476A2.924,2.924,0,0,1,8.077,77.6a2.622,2.622,0,0,1,2.013-.328,2.7,2.7,0,0,1,1.985,3.226,2.339,2.339,0,0,0,2.036,2.835l8.164.867a4.384,4.384,0,0,0,4.534-2.758,50.641,50.641,0,0,1,5.619-10.49,4.367,4.367,0,0,0-.3-5.4l-5.3-6.021a2.339,2.339,0,0,0-1.74-.793h-.016a2.338,2.338,0,0,0-1.735.77,2.7,2.7,0,0,1-3.78.244,2.625,2.625,0,0,1-.9-1.833,2.925,2.925,0,0,1,.71-2.128l5.06-5.741a2.717,2.717,0,0,1,4.1,3.566,2.338,2.338,0,0,0,.461,3.459l6.8,4.615a4.384,4.384,0,0,0,5.3-.3A50.381,50.381,0,0,1,68.277,49.56a4.367,4.367,0,0,0,3.853-3.795l1.012-7.96a2.338,2.338,0,0,0-2.29-2.633,2.717,2.717,0,0,1,.035-5.433h7.785a2.717,2.717,0,0,1,.035,5.433,2.338,2.338,0,0,0-2.29,2.633l1.036,8.153a4.387,4.387,0,0,0,3.734,3.779c1.34.189,2.743.449,4.171.775a2.339,2.339,0,0,0,1.041-4.56c-1.477-.337-2.934-.611-4.334-.814l-.735-5.786a7.392,7.392,0,0,0-2.657-14.291H70.887a7.392,7.392,0,0,0-2.657,14.291l-.71,5.587a55.059,55.059,0,0,0-15.877,4.33L48.135,42.74a2.339,2.339,0,1,0-4.12,2.214l3.432,6.386a55.509,55.509,0,0,0-9.217,6.345L33.4,54.409a7.392,7.392,0,0,0-12.477-7.456l-5.06,5.741A7.63,7.63,0,0,0,14,58.243,7.265,7.265,0,0,0,16.516,63.3a7.348,7.348,0,0,0,8.233.944l3.712,4.216a55.332,55.332,0,0,0-5.923,11.06l-5.778-.614a7.349,7.349,0,0,0-5.528-6.174,7.265,7.265,0,0,0-5.583.866A7.629,7.629,0,0,0,2.2,78.33l-2,8.476a6.483,6.483,0,0,0,1.124,5.561A6.445,6.445,0,0,0,6.2,94.735a7.431,7.431,0,0,0,7.534-3.083L19,93.628a55.989,55.989,0,0,0-.359,6.318q0,1.6.091,3.181l-6.032.821a2.339,2.339,0,1,0,.631,4.635l5.863-.8a55.046,55.046,0,0,0,2.452,10.2l-3.329,1.753A2.339,2.339,0,1,0,20.5,123.88l2.872-1.512a55.311,55.311,0,0,0,4.584,8.326L24.9,135.1a9.557,9.557,0,0,0-13.1,13.862l7.551,8.152a9.557,9.557,0,0,0,14.822-12l4.432-2.6a55.158,55.158,0,0,0,11.645,7.439l-2.2,5.225A2.338,2.338,0,1,0,52.362,157l2.194-5.211a55.623,55.623,0,0,0,8.936,2.526v1.778a2.339,2.339,0,1,0,4.677,0v-1.074a55.351,55.351,0,0,0,9.533.2l1.935,5.5a7.431,7.431,0,0,0-3.232,7.493,6.516,6.516,0,0,0,2.35,4.9,6.358,6.358,0,0,0,4.02,1.382,7.209,7.209,0,0,0,1.513-.162l8.432-1.812a7.632,7.632,0,0,0,4.8-3.352,7.265,7.265,0,0,0,.981-5.565,7.348,7.348,0,0,0-6.059-5.654l-.477-5.589a55.146,55.146,0,0,0,10.41-4.837l2.887,3.939a2.339,2.339,0,0,0,3.772-2.765l-2.742-3.741a55.481,55.481,0,0,0,6.8-5.739l4.245,2.474a7.3,7.3,0,0,0,12.905,4.99l2.28-2.737a7.3,7.3,0,0,0-7.909-11.6l-3.4-3.367a55.157,55.157,0,0,0,5.7-12.5l5.821.183a7.429,7.429,0,0,0,6.065,5.764,7.4,7.4,0,0,0,8.465-6.141l1.341-8.42a6.574,6.574,0,0,0-6.439-7.761Z" transform="translate(0.002 -19.755)"/></g></g></g></g></svg>