<svg xmlns="http://www.w3.org/2000/svg" xmlns:xlink="http://www.w3.org/1999/xlink" width="248" height="248" viewBox="0 0 248 248"><defs><linearGradient id="a" x1="-0.082" y1="1.309" x2="-0.043" y2="1.289" gradientUnits="objectBoundingBox"><stop offset="0" stop-color="#fff" stop-opacity="0.2"/><stop offset="1" stop-color="#fff" stop-opacity="0"/></linearGradient></defs><g transform="translate(6159 9278)"><g transform="translate(-6159 -9278)" fill="#fffdf4" stroke="#fff" stroke-width="1"><rect width="248" height="248" rx="20" stroke="none"/><rect x="0.5" y="0.5" width="247" height="247" rx="19.5" fill="none"/></g><g transform="translate(-6104 -9247.334)"><path d="M148.854,139.84,87.106,28.1a13.113,13.113,0,0,0-11.469-6.763h-.784A13.11,13.11,0,0,0,63.383,28.1L1.635,139.84A13.1,13.1,0,0,0,13.1,159.282H137.385a13.1,13.1,0,0,0,11.469-19.442Z" fill="#303c42"/><path d="M152.448,168.074H28.167a6.837,6.837,0,0,1-5.983-10.14L83.933,46.2a6.843,6.843,0,0,1,5.983-3.53H90.7a6.846,6.846,0,0,1,5.983,3.527l61.748,111.74a6.836,6.836,0,0,1-5.983,10.14Z" transform="translate(-15.063 -15.063)" fill="#f9c20a"/><path d="M158.7,157.934,96.956,46.194a6.846,6.846,0,0,0-5.983-3.527h-.784c-1.384,0,56.3,87.583,53.69,109.731-.523,4.441-2.351,8.622-9.406,9.406H21.721a6.786,6.786,0,0,0,6.72,6.27H152.721a6.837,6.837,0,0,0,5.983-10.14Z" transform="translate(-15.337 -15.063)" opacity="0.1"/><path d="M217.7,202.017H203.516l10.82-27.053a3.133,3.133,0,0,0-2.909-4.3H189.481a3.137,3.137,0,0,0-2.952,2.082l-15.676,43.893a3.13,3.13,0,0,0,2.952,4.188h14.182l-10.82,27.053a3.134,3.134,0,0,0,5.291,3.2l37.622-43.893a3.136,3.136,0,0,0-2.382-5.174Z" transform="translate(-120.507 -105.439)" fill="#303c42"/><path d="M148.854,139.84,87.106,28.1a13.113,13.113,0,0,0-11.469-6.763h-.784A13.11,13.11,0,0,0,63.383,28.1L1.635,139.84A13.1,13.1,0,0,0,13.1,159.282H137.385a13.1,13.1,0,0,0,11.469-19.442Z" fill="url(#a)"/></g></g></svg>