<svg xmlns="http://www.w3.org/2000/svg" width="248" height="248" viewBox="0 0 248 248"><g transform="translate(6159 10682)"><g transform="translate(-6159 -10682)" fill="#fffdf4" stroke="#fff" stroke-width="1"><rect width="248" height="248" rx="20" stroke="none"/><rect x="0.5" y="0.5" width="247" height="247" rx="19.5" fill="none"/></g><g transform="translate(-6154.735 -10640.5)"><path d="M181.722,177.574h0a32.789,32.789,0,0,0-32.789,32.788v43.029H214.51V210.363A32.788,32.788,0,0,0,181.722,177.574Z" transform="translate(-61.986 -123.193)" fill="#ff854e"/><path d="M188.6,178.3a32.922,32.922,0,0,0-6.876-.725h0a32.788,32.788,0,0,0-32.788,32.788v43.029h13.752V210.363A32.8,32.8,0,0,1,188.6,178.3Z" transform="translate(-61.987 -123.193)" fill="#ffce7e"/><rect width="9.612" height="19.728" transform="translate(114.578 110.472)" fill="#c4000a"/><rect width="78.448" height="15.193" transform="translate(80.511 125.352)" fill="#ff854e"/><rect width="6.434" height="15.193" transform="translate(80.511 125.352)" fill="#0e7889"/><rect width="92.039" height="17.984" transform="translate(73.716 136.515)" fill="#47b5ab"/><rect width="6.796" height="17.984" transform="translate(73.716 136.515)" fill="#76c2e0"/><circle cx="11.628" cy="11.628" r="11.628" transform="translate(107.755 92.29)" fill="#fec007"/><path d="M280.8,203.378a2.3,2.3,0,0,0-2.114,4.078c6.586,3.414,11.3,8.684,13.276,14.838a2.3,2.3,0,0,0,4.374-1.4C293.987,213.574,288.469,207.354,280.8,203.378Z" transform="translate(-151.142 -140.915)"/><path d="M192.564,252.206h-4.5v-8.864a2.3,2.3,0,0,0-2.3-2.3h-4.137V205.156a35.087,35.087,0,0,0-70.173,0v3.549a2.3,2.3,0,0,0,4.594,0v-3.549a30.493,30.493,0,1,1,60.986,0v35.889H153.294V233.9a13.883,13.883,0,0,0,5.873-6.942,2.3,2.3,0,0,0-4.28-1.668,9.283,9.283,0,0,1-4.739,5.072c-.04.016-.08.034-.119.052a9.333,9.333,0,1,1,4.652-12.384,2.3,2.3,0,0,0,4.177-1.91,13.923,13.923,0,1,0-19.767,17.755v7.17H116.051V217.752a2.3,2.3,0,1,0-4.594,0v23.293H107.32a2.3,2.3,0,0,0-2.3,2.3v8.864h-4.5a2.3,2.3,0,0,0-2.3,2.3v17.984a2.3,2.3,0,0,0,2.3,2.3h53.439a2.3,2.3,0,1,0,0-4.594H102.822V256.8h4.469l.03,0,.03,0h78.389l.03,0,.03,0h4.469v13.391H163.013a2.3,2.3,0,1,0,0,4.594h29.551a2.3,2.3,0,0,0,2.3-2.3V254.5A2.3,2.3,0,0,0,192.564,252.206ZM143.685,235.6a13.933,13.933,0,0,0,2.508.231,14.165,14.165,0,0,0,2.508-.224v5.441h-5.016V235.6Zm-34.067,10.041h73.854v6.567H109.618Z" transform="translate(-26.81 -117.987)"/><path d="M250.8,43.737a2.3,2.3,0,0,0,2.3-2.3V2.3a2.3,2.3,0,0,0-4.594,0V41.44A2.3,2.3,0,0,0,250.8,43.737Z" transform="translate(-131.062)"/><path d="M160.759,63.744a2.3,2.3,0,0,0,4.014-2.234l-19.036-34.2a2.3,2.3,0,0,0-4.014,2.234Z" transform="translate(-56.783 -18.126)"/><path d="M96.463,124.86a2.3,2.3,0,0,0,1.078-4.327L62.957,102.2a2.3,2.3,0,0,0-2.152,4.059l34.584,18.335A2.284,2.284,0,0,0,96.463,124.86Z" transform="translate(0 -70.715)"/><path d="M294.586,64.633a2.3,2.3,0,0,0,3.124-.89l19.036-34.2a2.3,2.3,0,1,0-4.014-2.234L293.7,61.509A2.3,2.3,0,0,0,294.586,64.633Z" transform="translate(-162.215 -18.125)"/><path d="M363.395,103.153a2.3,2.3,0,0,0-3.105-.953l-34.584,18.335a2.3,2.3,0,1,0,2.152,4.059l34.584-18.335A2.3,2.3,0,0,0,363.395,103.153Z" transform="translate(-183.776 -70.715)"/></g></g></svg>