<svg xmlns="http://www.w3.org/2000/svg" width="115.52" height="107" viewBox="0 0 115.52 107"><g transform="translate(-308 -538.186)"><g transform="translate(-11 -512.814)"><g transform="translate(79 -235.742)"><rect width="107" height="107" transform="translate(240 1286.742)" fill="none"/></g><g transform="translate(330.999 1063)"><path d="M102.05,36.474s-10.836-5.344-9.5-20.091a21.979,21.979,0,0,1,2.209-7.755L95.315,7.5a.907.907,0,0,1,1.7.2c1.135,4.935,4.7,15.126,14.935,16.279l2.567.365Zm0,0" transform="translate(-77.408 -5.861)" fill="#bc7d53"/><path d="M105.311,35.179l-3.265,3.176s-10.836-5.344-9.5-20.09a21.938,21.938,0,0,1,2.209-7.754l.558-1.125a.822.822,0,0,1,.086-.14,25.522,25.522,0,0,0-.411,2.781C93.667,26.625,102.475,33.4,105.311,35.179Zm0,0" transform="translate(-77.405 -7.743)" fill="#af663e"/><path d="M26.236,164.732s-5.713-6.579-17.978-4.008a1.566,1.566,0,0,0-1.211,1.9c.9,3.672,4.356,12.694,16.709,13.851Zm0,0" transform="translate(-5.863 -134.096)" fill="#ffc1b8"/><path d="M24.43,175.666l-.676,3.2C11.4,177.711,7.945,168.688,7.045,165.016a1.569,1.569,0,0,1,1.212-1.9c.226-.048.448-.091.669-.131C10.161,166.981,13.847,174.3,24.43,175.666Zm0,0" transform="translate(-5.862 -136.488)" fill="#ffb3a8"/><path d="M289.863,36.474s10.837-5.344,9.5-20.091a21.966,21.966,0,0,0-2.209-7.755L296.6,7.5a.907.907,0,0,0-1.7.2c-1.135,4.935-4.7,15.126-14.936,16.279l-2.567.365Zm0,0" transform="translate(-232.302 -5.861)" fill="#bc7d53"/><path d="M333.992,35.179l3.265,3.176s10.836-5.344,9.5-20.09a21.952,21.952,0,0,0-2.209-7.754l-.558-1.125a.821.821,0,0,0-.086-.14,25.514,25.514,0,0,1,.412,2.781C345.637,26.625,336.829,33.4,333.992,35.179Zm0,0" transform="translate(-279.695 -7.743)" fill="#af663e"/><path d="M380.332,164.732s5.713-6.579,17.978-4.008a1.566,1.566,0,0,1,1.211,1.9c-.9,3.672-4.355,12.694-16.709,13.851Zm0,0" transform="translate(-318.502 -134.096)" fill="#ffc1b8"/><path d="M391.438,175.666l.676,3.2c12.353-1.157,15.808-10.18,16.709-13.851a1.569,1.569,0,0,0-1.212-1.9c-.226-.048-.448-.091-.669-.131C405.706,166.981,402.021,174.3,391.438,175.666Zm0,0" transform="translate(-327.802 -136.488)" fill="#ffb3a8"/><path d="M129.045,88.966c-6.918-.167-13.9,2.236-18.647,7.082-7.011,7.159-7.116,17.454-5.324,26.393.141.7.321,1.394.528,2.078.8,2.649,3.028,10.349,3.028,14.211,0,5.117.76,10.42,5.313,14.034a15.331,15.331,0,0,0,6.192,2.838,23.577,23.577,0,0,0,4.448.529c5.848.175,12.551.561,17.487-2.92a14.3,14.3,0,0,0,5.586-9.056,26.71,26.71,0,0,0,.324-5.424c0-3.86,2.224-11.554,3.027-14.207a23.638,23.638,0,0,0,.581-2.355c2.044-10.59,1.073-22.85-9.583-29.469A25.814,25.814,0,0,0,129.045,88.966Zm0,0" transform="translate(-87.176 -74.496)" fill="#e7e7e7"/><path d="M267.82,122.168a23.836,23.836,0,0,1-.58,2.354c-.8,2.653-3.028,10.348-3.028,14.207a26.751,26.751,0,0,1-.324,5.424,14.3,14.3,0,0,1-5.587,9.056c-4.123,2.906-9.477,3.117-14.536,3.006,3.978-.116,7.929-.746,11.135-3.006a14.293,14.293,0,0,0,5.587-9.056,26.751,26.751,0,0,0,.324-5.424c0-3.859,2.224-11.554,3.026-14.207a23.154,23.154,0,0,0,.582-2.354c2.044-10.59,1.074-22.85-9.582-29.469a25.619,25.619,0,0,0-11.942-3.69q1.189-.072,2.383-.044A25.815,25.815,0,0,1,258.238,92.7C268.894,99.318,269.864,111.578,267.82,122.168Zm0,0" transform="translate(-203.407 -74.495)" fill="#cecece"/><path d="M160.406,340.029a19.658,19.658,0,0,0-7.274-3.483,33.757,33.757,0,0,0-18.262,0,19.653,19.653,0,0,0-7.274,3.483,13.955,13.955,0,0,0-3.951,14.942c2.292,6.059,7.656,7.788,13.105,7.859,4.857.063,9.643.064,14.5,0,5.449-.071,10.813-1.8,13.106-7.859A13.956,13.956,0,0,0,160.406,340.029Zm0,0" transform="translate(-102.899 -280.78)" fill="#ffc1b8"/><path d="M265.323,354.975c-2.293,6.058-7.656,7.787-13.1,7.858-2.942.038-5.858.053-8.777.044,1.9,0,3.807-.019,5.724-.044,5.449-.071,10.814-1.8,13.107-7.858a13.956,13.956,0,0,0-3.952-14.944,19.644,19.644,0,0,0-7.274-3.482,34.44,34.44,0,0,0-7.6-1.222,33.961,33.961,0,0,1,10.657,1.222,19.652,19.652,0,0,1,7.274,3.482A13.959,13.959,0,0,1,265.323,354.975Zm0,0" transform="translate(-203.865 -280.783)" fill="#ffb3a8"/><path d="M127.646,105.232c-2.155,1.777-5.415.963-8.055,1.869-2.244.772-3.861,2.729-5.127,4.734s-2.333,4.183-4.027,5.844a8.678,8.678,0,0,1-5.828,2.07c-1.232-8.255-.521-17.25,5.794-23.7,4.691-4.788,11.564-7.192,18.4-7.087q-.05.181-.092.355a15.337,15.337,0,0,0,.212,8.116C129.6,100.138,129.793,103.462,127.646,105.232Zm0,0" transform="translate(-87.182 -74.498)" fill="#5a5c5e"/><path d="M81.787,26.727a2.732,2.732,0,0,0-1.746-1.213,28.242,28.242,0,0,0-5.47-.619H74.1a1.137,1.137,0,0,0,.01,2.275h.448a25.937,25.937,0,0,1,5.021.57.446.446,0,0,1,.288.2.407.407,0,0,1,.052.319A16.571,16.571,0,0,1,66.376,40.941a33.6,33.6,0,0,0-.889-9.771q-.207-.816-.458-1.6a16.112,16.112,0,0,1,4.006-1.711,1.137,1.137,0,0,0-.61-2.191,18.553,18.553,0,0,0-4.2,1.736c-.116-.271-.237-.537-.362-.8,2.409-3.093,5.043-8.363,4.335-16.186a23.015,23.015,0,0,0-2.322-8.156l-.556-1.125a2.044,2.044,0,0,0-3.825.449,26.811,26.811,0,0,1-3.879,9.161,14.88,14.88,0,0,1-5.351,4.829,26.9,26.9,0,0,0-5.8-1.767,27.26,27.26,0,0,0-9.6-.175,31.5,31.5,0,0,0-6.785,2.013,14.833,14.833,0,0,1-5.485-4.9,26.824,26.824,0,0,1-3.879-9.161,2.044,2.044,0,0,0-3.825-.449l-.556,1.125a23.019,23.019,0,0,0-2.322,8.156c-.7,7.768,1.89,13.021,4.285,16.123a7.638,7.638,0,0,0-.4.8c-3.051-1.716-8.229-3.4-15.728-1.827A2.736,2.736,0,0,0,.416,26.727,2.665,2.665,0,0,0,.079,28.8,20.138,20.138,0,0,0,4.39,37.148a19.056,19.056,0,0,0,11.639,6.138c.046.435.1.871.154,1.3a36.263,36.263,0,0,0,1.156,5.762c.619,2.046,2.625,8.908,2.938,12.928a15.073,15.073,0,0,0-.594,11.313c1.769,4.675,5.4,7.475,10.789,8.322a1.137,1.137,0,1,0,.353-2.247c-4.587-.721-7.535-2.971-9.014-6.88a12.886,12.886,0,0,1,3.6-13.657,18.45,18.45,0,0,1,6.859-3.269,32.822,32.822,0,0,1,17.658,0,18.44,18.44,0,0,1,6.859,3.269,12.886,12.886,0,0,1,3.6,13.657c-1.783,4.711-5.726,7.042-12.056,7.124-4.095.053-8.079.062-12.18.025h-.01a1.137,1.137,0,0,0-.01,2.275c1.678.015,3.336.022,4.99.022,2.406,0,4.8-.016,7.24-.048,7.27-.1,12.033-2.987,14.154-8.594A15.07,15.07,0,0,0,61.936,63.3a1.171,1.171,0,0,0,.072-.3,79.715,79.715,0,0,1,2.913-12.639,24.841,24.841,0,0,0,.61-2.469q.455-2.363.678-4.607a19.046,19.046,0,0,0,11.606-6.132A20.146,20.146,0,0,0,82.125,28.8,2.664,2.664,0,0,0,81.787,26.727ZM59.476,12.052a28.68,28.68,0,0,0,4.083-9.334l.274.554a20.747,20.747,0,0,1,2.095,7.353A20.227,20.227,0,0,1,62.661,24.4a22.061,22.061,0,0,0-7.23-7.162c-.243-.151-.49-.3-.739-.438A17.759,17.759,0,0,0,59.476,12.052Zm-43.2-1.428a20.741,20.741,0,0,1,2.1-7.352l.274-.554a28.678,28.678,0,0,0,4.083,9.334,17.694,17.694,0,0,0,4.881,4.809,22.168,22.168,0,0,0-7.916,7.286l-.135.21-.011.02A20.266,20.266,0,0,1,16.274,10.625ZM2.289,28.257a.406.406,0,0,1,.052-.318.446.446,0,0,1,.288-.2,25.465,25.465,0,0,1,5.231-.566,18.725,18.725,0,0,1,7.542,1.48,15.248,15.248,0,0,1,1.723.887c-.074.257-.147.509-.217.749a28.041,28.041,0,0,0-.916,4.655,35.647,35.647,0,0,0-.189,5.135c.01.289.025.577.04.866A16.573,16.573,0,0,1,2.289,28.257ZM18.406,44.023a33.652,33.652,0,0,1,.38-11.884,20.771,20.771,0,0,1,7.168-11.382,22.713,22.713,0,0,1,6.022-3.474,23.823,23.823,0,0,1,8.1-1.66l.117,0a16.844,16.844,0,0,0,.443,7.592c1.007,4.05.067,5.849-.9,6.646-1.02.841-2.506.955-4.081,1.076a14.384,14.384,0,0,0-3.62.6c-2.787.958-4.6,3.427-5.718,5.2-.319.5-.627,1.022-.924,1.522a19.735,19.735,0,0,1-2.938,4.118,6.722,6.722,0,0,1-4.053,1.661S18.406,44.025,18.406,44.023ZM63.3,47.456a22.5,22.5,0,0,1-.552,2.241A101.387,101.387,0,0,0,60.1,60.268a12.371,12.371,0,0,0-1.872-1.9,20.633,20.633,0,0,0-7.69-3.7,35.076,35.076,0,0,0-18.865,0,20.628,20.628,0,0,0-7.69,3.7,12.334,12.334,0,0,0-1.826,1.846,101.989,101.989,0,0,0-2.639-10.519c-.211-.7-.375-1.341-.5-1.972-.1-.487-.185-.967-.267-1.444a8.85,8.85,0,0,0,5.307-2.285,21.708,21.708,0,0,0,3.3-4.579c.29-.487.589-.991.892-1.47,1.489-2.358,2.929-3.712,4.533-4.264a12.5,12.5,0,0,1,3.055-.478c1.857-.143,3.778-.29,5.354-1.589,2.109-1.738,2.683-4.833,1.66-8.949a14.4,14.4,0,0,1-.335-7.029A24.452,24.452,0,0,1,54.23,19.17a20.045,20.045,0,0,1,9.052,12.558A36.323,36.323,0,0,1,63.3,47.456Zm0,0" transform="translate(0 0)"/><g transform="translate(29.503 44.955)"><path d="M185.069,278.322a1.794,1.794,0,1,1-1.794-1.795A1.794,1.794,0,0,1,185.069,278.322Zm0,0" transform="translate(-181.48 -276.527)" fill="#111"/><path d="M305.682,278.322a1.794,1.794,0,1,1-1.795-1.795A1.794,1.794,0,0,1,305.682,278.322Zm0,0" transform="translate(-282.486 -276.527)" fill="#111"/><path d="M216.22,412.47c0-1.394-.661-2.524-1.477-2.524s-1.477,1.13-1.477,2.524.661,2.524,1.477,2.524S216.22,413.863,216.22,412.47Zm0,0" transform="translate(-208.098 -388.256)" fill="#111"/><path d="M277.165,412.47c0-1.394-.661-2.524-1.477-2.524s-1.477,1.13-1.477,2.524.662,2.524,1.477,2.524S277.165,413.863,277.165,412.47Zm0,0" transform="translate(-259.136 -388.256)" fill="#111"/></g></g></g><g transform="translate(366.5 542.044)"><path d="M60.559,35.621A24.945,24.945,0,1,1,35.613,10.676,24.945,24.945,0,0,1,60.559,35.621Zm0,0" transform="translate(-9.48 -9.48)" fill="#bbdeaf"/><path d="M26.133,52.274a26.133,26.133,0,1,1,14.1-48.135,1.781,1.781,0,1,1-1.922,3,22.569,22.569,0,1,0,10.394,19c0-.744-.036-1.48-.1-2.2a1.782,1.782,0,0,1,3.547-.342q.121,1.258.121,2.547A26.164,26.164,0,0,1,26.133,52.274Zm0,0"/><path d="M161.812,51.044a1.769,1.769,0,0,1-1.259-.522L149.862,39.83a1.782,1.782,0,1,1,2.52-2.521l9.432,9.432L186.686,21.87a1.782,1.782,0,0,1,2.521,2.52L163.073,50.523A1.785,1.785,0,0,1,161.812,51.044Zm0,0" transform="translate(-132.709 -18.963)"/></g></g></svg>