<svg xmlns="http://www.w3.org/2000/svg" width="917.954" height="275.176" viewBox="0 0 917.954 275.176"><g transform="translate(-312 -2958.685)"><g transform="translate(-72 1835.685)"><circle cx="85.5" cy="85.5" r="85.5" transform="translate(384 1123)" fill="#bbdeaf"/><g transform="translate(414 1115.831)"><path d="M118.557,85.651V99.18a40.457,40.457,0,0,0-28.7,11.889h0L80.29,101.5A53.955,53.955,0,0,1,118.557,85.651Z" transform="translate(-62.804 -30.101)" fill="#ffd63d"/><path d="M32.918,168v0a40.463,40.463,0,0,0-11.887,28.7H7.5a53.956,53.956,0,0,1,15.85-38.267h0Z" transform="translate(-5.867 -87.031)" fill="#ff854e"/><path d="M387.788,168v0a40.463,40.463,0,0,1,11.887,28.7h13.531a53.956,53.956,0,0,0-15.85-38.267h0Z" transform="translate(-303.333 -87.031)" fill="#bbdeaf"/><path d="M256,85.651V99.18a40.457,40.457,0,0,1,28.7,11.889h0l9.565-9.567A53.955,53.955,0,0,0,256,85.651Z" transform="translate(-200.245 -30.101)" fill="#aee69c"/><path d="M336.055,116.71l-38.25,28.719,9.549,9.549Z" transform="translate(-232.947 -54.396)" fill="#ff854e"/><path d="M185.87,236.959A27.06,27.06,0,1,1,158.81,209.9,26.976,26.976,0,0,1,185.87,236.959Z" transform="translate(-103.057 -127.291)" fill="#eaf6ff"/><path d="M207.758,376.476V380.6a27.058,27.058,0,0,1-37.228,0v-4.127a4.779,4.779,0,0,1,3.23-4.519l10.308-3.526h10.153l10.308,3.526A4.779,4.779,0,0,1,207.758,376.476Z" transform="translate(-133.391 -251.296)" fill="#f5d664"/><path d="M192.411,387.827A27.093,27.093,0,0,1,170.53,380.6v-4.127a4.779,4.779,0,0,1,3.23-4.519l10.308-3.526H190.6l-10.308,3.526a4.779,4.779,0,0,0-3.23,4.519V380.6A26.959,26.959,0,0,0,192.411,387.827Z" transform="translate(-133.391 -251.296)" fill="#ffce7e"/><path d="M216,287.022v10.571a8.046,8.046,0,0,0,8.046,8.046h1.33a8.046,8.046,0,0,0,8.046-8.046V287.022a2.464,2.464,0,0,0-2.464-2.464H218.465A2.464,2.464,0,0,0,216,287.022Z" transform="translate(-168.959 -185.689)" fill="#ffcebf"/><path d="M226.889,305.5a7.875,7.875,0,0,1-1.514.144h-1.328A8.046,8.046,0,0,1,216,297.6V287.024a2.464,2.464,0,0,1,2.465-2.463h4.356a2.464,2.464,0,0,0-2.465,2.463V297.6a8.043,8.043,0,0,0,6.534,7.9Z" transform="translate(-168.958 -185.691)" fill="#ffb09e"/><path d="M216,267.535h3.493a4.84,4.84,0,0,0,3.518-1.516l2.39-2.529,1.552,2.707a2.662,2.662,0,0,0,2.309,1.338h4.161V262.1a5.973,5.973,0,0,0-5.973-5.973h-5.476A5.973,5.973,0,0,0,216,262.1Z" transform="translate(-168.959 -163.448)" fill="#fff"/><path d="M216,267.535h3.493a4.84,4.84,0,0,0,3.518-1.516l2.39-2.529,1.552,2.707a2.662,2.662,0,0,0,2.309,1.338h4.161V262.1a5.973,5.973,0,0,0-5.973-5.973h-5.476A5.973,5.973,0,0,0,216,262.1Z" transform="translate(-168.959 -163.448)" fill="#68748f"/><path d="M221.974,256.121h4.356a5.974,5.974,0,0,0-5.974,5.974v5.358a4.719,4.719,0,0,1-.862.078H216v-5.436A5.974,5.974,0,0,1,221.974,256.121Z" transform="translate(-168.958 -163.445)" fill="#5d6980"/><g transform="translate(0 47.169)"><path d="M96.342,111.3h13.531a1.633,1.633,0,0,0,1.633-1.633A56.3,56.3,0,0,0,97.417,72.625l7-9.33q.84-3.127-2.287-2.286l-3.643,2.735A63.077,63.077,0,0,0,55.753,47.169a1.633,1.633,0,0,0,0,3.267A59.819,59.819,0,0,1,95.822,65.743L92.8,68.01A56.187,56.187,0,0,0,36.916,57.181a1.633,1.633,0,0,0,1.1,3.074,52.224,52.224,0,0,1,16.1-3.045V67.48a41.88,41.88,0,0,0-27.043,11.2L19.815,71.42a52.518,52.518,0,0,1,11.876-8.408,1.633,1.633,0,0,0-1.5-2.9A56.209,56.209,0,0,0,0,109.668,1.633,1.633,0,0,0,1.633,111.3H15.164a1.633,1.633,0,0,0,1.633-1.633c0-31.416,36.989-49.986,62.179-31.276l-8.7,6.53a28.7,28.7,0,0,0-43.22,24.746,28.925,28.925,0,0,0,24.924,28.446,1.633,1.633,0,1,0,.426-3.239,25.206,25.206,0,0,1-13.637-6.288V125.18a3.144,3.144,0,0,1,2.125-2.973l8.108-2.774a11.516,11.516,0,0,0,13.5,0l8.107,2.773a3.145,3.145,0,0,1,2.126,2.974v3.407A25.187,25.187,0,0,1,59.1,134.875a1.633,1.633,0,0,0-1.406,1.832,1.6,1.6,0,0,0,1.617,1.421c11.85-.61,25.143-12.479,25.134-28.461a28.62,28.62,0,0,0-3.935-14.5l6.529-8.7a38.76,38.76,0,0,1,4.737,8.359,1.672,1.672,0,0,0,2.133.887,1.633,1.633,0,0,0,.887-2.133,42.036,42.036,0,0,0-5.721-9.829L95.413,75.3a52.918,52.918,0,0,1,12.8,32.737H97.945a42.337,42.337,0,0,0-.936-7.393,1.633,1.633,0,1,0-3.192.7,39.177,39.177,0,0,1,.892,8.331,1.633,1.633,0,0,0,1.633,1.634Zm-82.78-3.267H3.292A52.092,52.092,0,0,1,17.5,73.73l7.263,7.263A41.883,41.883,0,0,0,13.562,108.034ZM57.387,67.479V57.212a52.248,52.248,0,0,1,32.745,12.8l-8.441,6.338a42.284,42.284,0,0,0-24.3-8.874ZM94.926,70.5,78.584,92.289a29.3,29.3,0,0,0-5.434-5.438ZM62.831,102.452H60.3a1.03,1.03,0,0,1-.892-.517l-1.553-2.707a1.635,1.635,0,0,0-2.6-.309c-.894,1.271-3.071,3.533-4.719,3.533h-1.86v-3.8a4.345,4.345,0,0,1,4.34-4.341h5.475a4.345,4.345,0,0,1,4.34,4.341Zm-7.742,15.864a6.468,6.468,0,0,1-6.414-6.412v-6.185h1.86a7.227,7.227,0,0,0,5.584-2.958,4.931,4.931,0,0,0,4.184,2.958h2.528V111.9c0,4.136-3.884,6.769-7.742,6.412ZM76,125.064a6.41,6.41,0,0,0-4.33-5.948l-6.875-2.352A9.621,9.621,0,0,0,66.1,111.9V98.65a7.616,7.616,0,0,0-7.607-7.607H53.016a7.616,7.616,0,0,0-7.607,7.607V111.9a9.623,9.623,0,0,0,1.307,4.86l-6.876,2.352a6.409,6.409,0,0,0-4.329,5.947,25.162,25.162,0,0,1-5.184-15.4,25.427,25.427,0,0,1,50.853,0A25.157,25.157,0,0,1,76,125.064Z" transform="translate(0 -47.169)"/><path d="M15.165,388.771H1.635a1.633,1.633,0,1,0,0,3.267h13.53a1.633,1.633,0,1,0,0-3.267Z" transform="translate(-0.002 -314.375)"/><path d="M450.036,364.473H444.9v-5.132a1.633,1.633,0,1,0-3.267,0v5.132h-5.131a1.633,1.633,0,1,0,0,3.267h5.131v5.132a1.633,1.633,0,1,0,3.267,0V367.74h5.132a1.633,1.633,0,0,0,0-3.267Z" transform="translate(-340.164 -290.077)"/></g></g></g><g transform="translate(-18 1835.685)"><circle cx="85.5" cy="85.5" r="85.5" transform="translate(576 1123)" fill="#bbdeaf"/><g transform="translate(603.632 1163)"><g transform="translate(17.222 1.332)"><path d="M82.341,124.338H28.94a3.134,3.134,0,0,1-3.134-3.134V45.343a3.134,3.134,0,0,1,3.134-3.134h53.4a3.134,3.134,0,0,1,3.134,3.134V121.2A3.134,3.134,0,0,1,82.341,124.338Z" transform="translate(-25.806 -36.043)" fill="#ffd63d"/><g transform="translate(71.86 26.435)"><path d="M0,0H31.158V10.454H0Z" transform="translate(10.454 8.339) rotate(90)" fill="#d83131"/><path d="M430.29,157.969v6.666h10.454v-6.666a1.673,1.673,0,0,0-1.673-1.673h-7.109A1.673,1.673,0,0,0,430.29,157.969Z" transform="translate(-430.29 -156.296)" fill="#f47c7c"/><path d="M440.744,378.614H430.29l4.372,8.76a.9.9,0,0,0,1.709,0Z" transform="translate(-430.29 -339.118)" fill="#f9c6c6"/><path d="M0,0H31.158V10.454H0Z" transform="translate(10.454 8.339) rotate(90)" fill="#ff854e"/><path d="M430.29,157.969v6.666h10.454v-6.666a1.673,1.673,0,0,0-1.673-1.673h-7.109A1.673,1.673,0,0,0,430.29,157.969Z" transform="translate(-430.29 -156.296)" fill="#f47c7c"/><path d="M440.744,378.614H430.29l4.372,8.76a.9.9,0,0,0,1.709,0Z" transform="translate(-430.29 -339.118)" fill="#f9c6c6"/><path d="M456.408,156.3h-5.036a1.673,1.673,0,0,1,1.673,1.673v6.666h5.036v-6.666A1.673,1.673,0,0,0,456.408,156.3Z" transform="translate(-447.627 -156.296)" fill="#ee6161"/><path d="M448.248,378.614l-2.709,5.427,1.663,3.332a.9.9,0,0,0,1.709,0l4.372-8.76Z" transform="translate(-442.83 -339.118)" fill="#f9b1b1"/></g><path d="M116.887,7.5h-53.4a3.134,3.134,0,0,0-3.134,3.134v3.033H110.72a3.134,3.134,0,0,1,3.134,3.134v72.83h3.033A3.134,3.134,0,0,0,120.02,86.5V10.634A3.134,3.134,0,0,0,116.887,7.5Z" transform="translate(-54.215 -7.5)" fill="#bbdeaf"/><path d="M74.482,417.111H67.139a1.421,1.421,0,0,1-1.421-1.421v-7.343a1.421,1.421,0,0,1,1.421-1.421h7.343a1.421,1.421,0,0,1,1.421,1.421v7.343A1.421,1.421,0,0,1,74.482,417.111Z" transform="translate(-58.627 -335.964)" fill="#7ca1b1"/><path d="M91.116,109.625H67.495a1.777,1.777,0,0,1-1.777-1.777V84.228a1.777,1.777,0,0,1,1.777-1.777H91.116a1.777,1.777,0,0,1,1.777,1.777v23.621A1.777,1.777,0,0,1,91.116,109.625Z" transform="translate(-58.627 -69.135)" fill="#fee2ca"/><circle cx="4.756" cy="4.756" r="4.756" transform="translate(15.922 18.115)" fill="#ffcebf"/><path d="M113.006,171.069h10.372v-2.878a5.186,5.186,0,0,0-10.372,0Z" transform="translate(-97.514 -135.378)" fill="#e94444"/><path d="M318.3,42.209h-5.558a3.134,3.134,0,0,1,3.134,3.134V121.2a3.134,3.134,0,0,1-3.134,3.134H318.3a3.134,3.134,0,0,0,3.134-3.134V45.343a3.134,3.134,0,0,0-3.134-3.134Z" transform="translate(-261.768 -36.043)" fill="#ffce7e"/></g><g transform="translate(15.368 0)"><path d="M79.894,0h-53.4a4.471,4.471,0,0,0-4.466,4.466v1.7H19.834a4.471,4.471,0,0,0-4.466,4.466V67.717a1.332,1.332,0,1,0,2.665,0V10.632a1.8,1.8,0,0,1,1.8-1.8h53.4a1.8,1.8,0,0,1,1.8,1.8V86.495a1.8,1.8,0,0,1-1.8,1.8h-53.4a1.8,1.8,0,0,1-1.8-1.8V73.935a1.332,1.332,0,0,0-2.665,0v12.56a4.471,4.471,0,0,0,4.466,4.466h53.4A4.471,4.471,0,0,0,77.7,86.495v-1.7h2.193a4.471,4.471,0,0,0,4.466-4.466V21.406a1.332,1.332,0,1,0-2.665,0V80.328a1.8,1.8,0,0,1-1.8,1.8h-1.7v-71.5a4.471,4.471,0,0,0-4.466-4.466H24.692v-1.7a1.8,1.8,0,0,1,1.8-1.8h53.4a1.8,1.8,0,0,1,1.8,1.8V15.188a1.332,1.332,0,0,0,2.665,0V4.466A4.471,4.471,0,0,0,79.894,0Z" transform="translate(-15.368 0)"/><path d="M432.9,148.8h-7.109a3.008,3.008,0,0,0-3.005,3.005v37.824c0,.026,0,.051,0,.076s0,.028,0,.042a1.331,1.331,0,0,0,.064.307l.011.031q.022.061.05.12c0,.006,0,.013.008.019l4.372,8.76a2.218,2.218,0,0,0,4.094,0l4.372-8.76c0-.008.006-.016.01-.023.017-.036.033-.073.047-.111,0-.013.01-.026.014-.039a1.316,1.316,0,0,0,.039-.14l0-.01a1.329,1.329,0,0,0,.022-.151c0-.017,0-.035,0-.052s0-.045,0-.068V151.8A3.008,3.008,0,0,0,432.9,148.8Zm-3.554,48.317-3.073-6.156h6.145Zm3.894-8.821h-7.789V159.8h7.789Zm0-31.158h-7.789V151.8a.341.341,0,0,1,.34-.34H432.9a.341.341,0,0,1,.34.34v5.333Z" transform="translate(-350.408 -122.361)"/><path d="M58.218,398.418a2.757,2.757,0,0,0,2.754,2.754h7.343a2.757,2.757,0,0,0,2.754-2.754V391.4l3.04-3.234a1.332,1.332,0,0,0-1.942-1.825L69.859,388.8a2.737,2.737,0,0,0-1.545-.475H60.972a2.757,2.757,0,0,0-2.754,2.754ZM68.4,394.236v4.182a.089.089,0,0,1-.089.089H64.366a1.331,1.331,0,0,0,.149-.134Zm-7.521-3.161a.089.089,0,0,1,.089-.089H67.8l-4.07,4.33-2.388-3.639a1.325,1.325,0,0,0-.46-.429v-.173Zm0,4.758c1.687,2.571,1.606,2.491,1.839,2.674h-1.75a.089.089,0,0,1-.089-.089Z" transform="translate(-50.605 -317.36)"/><path d="M178.431,428.091H150.124a1.332,1.332,0,0,0,0,2.665h28.307a1.332,1.332,0,0,0,0-2.665Z" transform="translate(-125.088 -352.037)"/><path d="M61.327,104.79H84.948a3.113,3.113,0,0,0,3.109-3.109V78.06a3.113,3.113,0,0,0-3.109-3.109H61.327a3.113,3.113,0,0,0-3.109,3.109v23.621A3.113,3.113,0,0,0,61.327,104.79Zm-.444-26.73a.445.445,0,0,1,.444-.444H84.948a.445.445,0,0,1,.444.444v23.621a.445.445,0,0,1-.444.444H61.327a.445.445,0,0,1-.444-.444Z" transform="translate(-50.605 -61.635)"/><path d="M106.841,122.206a1.334,1.334,0,0,0,1.334-1.331V118a3.868,3.868,0,0,1,3.837-3.855h.033A3.868,3.868,0,0,1,115.882,118v1.545h-2.823a1.332,1.332,0,0,0,0,2.665s0,0,0,0h4.152a1.331,1.331,0,0,0,1.332-1.331V118a6.475,6.475,0,0,0-1.91-4.61,6.6,6.6,0,0,0-.738-.637,6.088,6.088,0,1,0-7.742,0,6.605,6.605,0,0,0-.739.637A6.474,6.474,0,0,0,105.51,118v2.878a1.328,1.328,0,0,0,1.331,1.331Zm5.187-17.574a3.423,3.423,0,0,1,.012,6.846h-.023a3.423,3.423,0,0,1,.011-6.846Z" transform="translate(-89.496 -83.852)"/><path d="M243.169,114.232h11.777a1.332,1.332,0,0,0,0-2.665H243.169a1.332,1.332,0,0,0,0,2.665Z" transform="translate(-201.603 -91.746)"/><path d="M243.169,156.753h11.777a1.332,1.332,0,1,0,0-2.665H243.169a1.332,1.332,0,1,0,0,2.665Z" transform="translate(-201.603 -126.713)"/><path d="M243.169,202.106h11.777a1.332,1.332,0,0,0,0-2.665H243.169a1.332,1.332,0,0,0,0,2.665Z" transform="translate(-201.603 -164.009)"/><path d="M59.55,274.53h44.4a1.332,1.332,0,1,0,0-2.665H59.55a1.332,1.332,0,1,0,0,2.665Z" transform="translate(-50.605 -223.566)"/><path d="M59.55,317.05h44.4a1.332,1.332,0,1,0,0-2.665H59.55a1.332,1.332,0,1,0,0,2.665Z" transform="translate(-50.605 -258.532)"/><path d="M59.55,359.57h44.4a1.332,1.332,0,0,0,0-2.665H59.55a1.332,1.332,0,0,0,0,2.665Z" transform="translate(-50.605 -293.498)"/></g></g></g><g transform="translate(30 1835.685)"><circle cx="85.5" cy="85.5" r="85.5" transform="translate(771 1123)" fill="#bbdeaf"/><g transform="translate(809.991 1162)"><path d="M79.3,19.3V85.97a2.972,2.972,0,0,1-2.963,2.963H25.963A2.972,2.972,0,0,1,23,85.97V5.963A2.972,2.972,0,0,1,25.963,3H63V16.334A2.972,2.972,0,0,0,65.967,19.3Z" transform="translate(10.109 0.482)" fill="#fee9ab"/><path d="M63.89,14V80.672a2.972,2.972,0,0,1-2.963,2.963H55a2.972,2.972,0,0,0,2.963-2.963V14Z" transform="translate(25.521 5.779)" fill="#ffd422"/><path d="M66.3,19.3H52.963A2.972,2.972,0,0,1,50,16.334V3Z" transform="translate(23.113 0.482)" fill="#ff854e"/><path d="M11.853,0A11.853,11.853,0,1,1,0,11.853,11.853,11.853,0,0,1,11.853,0Z" transform="translate(59.778 59.783)" fill="#79be60"/><path d="M56.632,37.632H27V8A29.623,29.623,0,0,1,56.632,37.632Z" transform="translate(12.036 2.89)" fill="#ff854e"/><path d="M56.634,37.632H50.708A29.634,29.634,0,0,0,27,8.591L27,8A29.623,29.623,0,0,1,56.634,37.632Z" transform="translate(12.034 2.89)" fill="#cd2a00"/><path d="M29.81,32H59.442A29.632,29.632,0,0,1,8.86,52.95Z" transform="translate(3.3 14.448)" fill="#bbdeaf"/><path d="M32.63,12V41.632L11.68,62.582A29.632,29.632,0,0,1,32.63,12Z" transform="translate(0.479 4.816)" fill="#ffcd00"/><path d="M90.463,18.727l-16.3-16.3A1.53,1.53,0,0,0,73.113,2H36.073a4.458,4.458,0,0,0-4.445,4.445v8.964a31.074,31.074,0,0,0,0,62.079v8.964A4.458,4.458,0,0,0,36.073,90.9H86.447a4.458,4.458,0,0,0,4.445-4.445V19.779a1.53,1.53,0,0,0-.43-1.052ZM74.594,7.052,85.84,18.3H76.076a1.482,1.482,0,0,1-1.482-1.482ZM4.959,46.448A28.185,28.185,0,0,1,31.628,18.342v27.5L12.219,65.25a27.971,27.971,0,0,1-7.26-18.8Zm9.349,20.891L33.717,47.93h27.5A28.1,28.1,0,0,1,14.308,67.339ZM87.929,86.452a1.482,1.482,0,0,1-1.482,1.482H36.073a1.482,1.482,0,0,1-1.482-1.482V77.488a31.134,31.134,0,0,0,29.632-31.04,1.482,1.482,0,0,0-1.482-1.482H34.591V6.445a1.482,1.482,0,0,1,1.482-1.482H71.631V16.816a4.458,4.458,0,0,0,4.445,4.445H87.929Z"/><path d="M27.482,7A1.482,1.482,0,0,0,26,8.482V38.114A1.482,1.482,0,0,0,27.482,39.6H57.114A1.482,1.482,0,0,0,58.6,38.114,31.148,31.148,0,0,0,27.482,7Zm1.482,29.632V10.008A28.176,28.176,0,0,1,55.588,36.632Z" transform="translate(11.554 2.408)"/><path d="M53.334,40A13.334,13.334,0,1,0,66.669,53.334,13.334,13.334,0,0,0,53.334,40Zm0,23.706A10.371,10.371,0,1,1,63.706,53.334,10.371,10.371,0,0,1,53.334,63.706Z" transform="translate(18.297 18.301)"/><path d="M48.785,53.135l-3.4-3.4-2.095,2.1,4.445,4.445a1.482,1.482,0,0,0,2.095,0l8.89-8.89-2.095-2.1Z" transform="translate(19.883 20.85)"/><path d="M50,19H61.853v2.963H50Z" transform="translate(23.113 8.187)"/><path d="M50,25H61.853v2.963H50Z" transform="translate(23.113 11.077)"/><path d="M50,31H61.853v2.963H50Z" transform="translate(23.113 13.967)"/></g></g><g transform="translate(80 1835.685)"><circle cx="85.5" cy="85.5" r="85.5" transform="translate(967 1123)" fill="#bbdeaf"/><g transform="translate(986 1163)"><g transform="translate(27.777 1.776)"><g transform="translate(0)"><path d="M59.553,17.105H80.872a3.553,3.553,0,0,0,0-7.106H59.553a3.553,3.553,0,0,0,0,7.106Z" transform="translate(-52.447 -9.999)" fill="#ff854e" fill-rule="evenodd"/><path d="M80.872,90H59.553a3.553,3.553,0,1,0,0,7.106H80.872a3.553,3.553,0,0,0,0-7.106Z" transform="translate(-52.447 -75.786)" fill="#ff854e" fill-rule="evenodd"/><path d="M80.872,170H59.553a3.553,3.553,0,1,0,0,7.106H80.872a3.553,3.553,0,1,0,0-7.106Z" transform="translate(-52.447 -141.574)" fill="#ff854e" fill-rule="evenodd"/><path d="M80.872,250H59.553a3.553,3.553,0,1,0,0,7.106H80.872a3.553,3.553,0,1,0,0-7.106Z" transform="translate(-52.447 -207.361)" fill="#ff854e" fill-rule="evenodd"/><path d="M67.978,332H39.553A3.564,3.564,0,0,0,36,335.554v23.1a3.564,3.564,0,0,0,3.553,3.553H67.978a3.564,3.564,0,0,0,3.553-3.553v-23.1A3.563,3.563,0,0,0,67.978,332ZM44.617,344.324a3.553,3.553,0,0,1,5.024,0l2.089,2.089,6.16-6.16a3.553,3.553,0,0,1,5.024,5.024l-8.672,8.672a3.553,3.553,0,0,1-5.024,0l-4.6-4.6A3.553,3.553,0,0,1,44.617,344.324Z" transform="translate(-36 -274.795)" fill="#ff854e" fill-rule="evenodd"/></g><path d="M92.959,373.638,86.8,379.8l-2.089-2.089a3.553,3.553,0,1,0-5.024,5.024l4.6,4.6a3.553,3.553,0,0,0,5.024,0l8.672-8.672a3.553,3.553,0,0,0-5.025-5.024Z" transform="translate(-71.069 -308.179)" fill="#fff" fill-rule="evenodd"/><path d="M276,335.554v23.1a3.564,3.564,0,0,0,3.553,3.553h28.425a3.563,3.563,0,0,0,3.553-3.553v-23.1A3.564,3.564,0,0,0,307.979,332H279.554A3.564,3.564,0,0,0,276,335.554Zm10.228,14.06,2.512-2.512-2.512-2.512a3.553,3.553,0,1,1,5.025-5.025l2.512,2.512,2.512-2.512a3.553,3.553,0,0,1,5.025,5.025l-2.512,2.512,2.512,2.512a3.553,3.553,0,0,1-5.025,5.025l-2.512-2.512-2.512,2.512a3.553,3.553,0,0,1-5.025-5.025Z" transform="translate(-233.363 -274.795)" fill="#ffd63d" fill-rule="evenodd"/><path d="M328.778,374.8l2.512,2.512-2.512,2.512a3.553,3.553,0,0,0,5.025,5.025l2.512-2.512,2.512,2.512a3.553,3.553,0,0,0,5.025-5.025l-2.512-2.512,2.512-2.512a3.553,3.553,0,0,0-5.025-5.025l-2.512,2.512-2.512-2.512a3.553,3.553,0,0,0-5.025,5.025Z" transform="translate(-275.911 -305.008)" fill="#fff" fill-rule="evenodd"/><path d="M299.554,257.105h21.319a3.553,3.553,0,1,0,0-7.106H299.554a3.553,3.553,0,1,0,0,7.106Z" transform="translate(-249.81 -207.361)" fill="#ffd63d" fill-rule="evenodd"/><path d="M299.554,177.105h21.319a3.553,3.553,0,1,0,0-7.106H299.554a3.553,3.553,0,1,0,0,7.106Z" transform="translate(-249.81 -141.574)" fill="#ffd63d" fill-rule="evenodd"/></g><g transform="translate(26)"><path d="M299.756,322H271.331a5.336,5.336,0,0,0-5.33,5.33v23.1a5.336,5.336,0,0,0,5.33,5.33h28.425a5.336,5.336,0,0,0,5.33-5.33v-23.1A5.336,5.336,0,0,0,299.756,322Zm1.777,28.425a1.779,1.779,0,0,1-1.777,1.777H271.331a1.779,1.779,0,0,1-1.777-1.777v-23.1a1.779,1.779,0,0,1,1.777-1.777h28.425a1.779,1.779,0,0,1,1.777,1.777Z" transform="translate(-223.363 -264.795)"/><path d="M335.62,369.083l1.256-1.256a5.33,5.33,0,0,0-7.538-7.537l-1.256,1.256-1.256-1.256a5.33,5.33,0,0,0-7.538,7.537l1.256,1.256-1.256,1.256a5.33,5.33,0,0,0,7.538,7.537l1.256-1.256,1.256,1.256a5.33,5.33,0,1,0,7.538-7.537Zm-3.769,1.256,2.513,2.513a1.777,1.777,0,0,1-2.512,2.512l-2.512-2.512a1.777,1.777,0,0,0-2.512,0l-2.512,2.512a1.777,1.777,0,0,1-2.512-2.512l2.513-2.513a1.777,1.777,0,0,0,0-2.512l-2.513-2.512a1.777,1.777,0,0,1,2.513-2.513l2.512,2.512a1.777,1.777,0,0,0,2.513,0l2.512-2.512a1.777,1.777,0,0,1,2.512,2.512l-2.513,2.512a1.777,1.777,0,0,0,0,2.513Z" transform="translate(-265.902 -295)"/><path d="M59.755,322H31.33a5.336,5.336,0,0,0-5.33,5.33v23.1a5.336,5.336,0,0,0,5.33,5.33H59.755a5.336,5.336,0,0,0,5.33-5.33v-23.1A5.336,5.336,0,0,0,59.755,322Zm1.777,28.425a1.779,1.779,0,0,1-1.777,1.777H31.33a1.779,1.779,0,0,1-1.777-1.777v-23.1a1.779,1.779,0,0,1,1.777-1.777H59.755a1.779,1.779,0,0,1,1.777,1.777Z" transform="translate(-26 -264.795)"/><path d="M87.248,362.6a5.3,5.3,0,0,0-3.768,1.561l-4.9,4.9-.833-.833a5.329,5.329,0,0,0-7.537,7.537l4.6,4.6a5.336,5.336,0,0,0,7.537,0l8.672-8.672a5.329,5.329,0,0,0-3.768-9.1Zm1.256,6.585-8.672,8.672a1.778,1.778,0,0,1-2.512,0l-4.6-4.6h0a1.776,1.776,0,1,1,2.512-2.512l2.089,2.09a1.777,1.777,0,0,0,2.512,0l6.16-6.16a1.776,1.776,0,0,1,2.512,2.512Z" transform="translate(-61.069 -298.18)"/><path d="M51.33,250.658H72.649a5.33,5.33,0,0,0,0-10.659H51.33a5.33,5.33,0,1,0,0,10.659Zm0-7.106H72.649a1.777,1.777,0,0,1,0,3.553H51.33a1.777,1.777,0,0,1,0-3.553Z" transform="translate(-42.447 -197.361)"/><path d="M51.33,170.658h2.664a1.777,1.777,0,1,0,0-3.553H51.33a1.777,1.777,0,0,1,0-3.553H72.649a1.777,1.777,0,0,1,0,3.553H69.983a1.777,1.777,0,1,0,0,3.553h2.665a5.33,5.33,0,0,0,0-10.659H51.33a5.33,5.33,0,0,0,0,10.659Z" transform="translate(-42.447 -131.574)"/><path d="M51.33,90.658H72.649a5.33,5.33,0,0,0,0-10.659H51.33a5.33,5.33,0,0,0,0,10.659Zm0-7.106H72.649a1.777,1.777,0,0,1,0,3.553H51.33a1.777,1.777,0,0,1,0-3.553Z" transform="translate(-42.447 -65.787)"/><path d="M51.33,10.659H72.649A5.33,5.33,0,1,0,72.649,0H51.33a5.33,5.33,0,1,0,0,10.659Zm0-7.106H72.649a1.776,1.776,0,1,1,0,3.553H51.33a1.776,1.776,0,1,1,0-3.553Z" transform="translate(-42.447)"/><path d="M291.331,250.658H312.65a5.33,5.33,0,1,0,0-10.659H291.331a5.33,5.33,0,1,0,0,10.659Zm0-7.106H312.65a1.777,1.777,0,0,1,0,3.553H291.331a1.777,1.777,0,0,1,0-3.553Z" transform="translate(-239.81 -197.361)"/><path d="M291.331,170.658H312.65a5.33,5.33,0,1,0,0-10.659H291.331a5.33,5.33,0,1,0,0,10.659Zm0-7.106H312.65a1.777,1.777,0,1,1,0,3.553H291.331a1.777,1.777,0,0,1,0-3.553Z" transform="translate(-239.81 -131.574)"/><path d="M127.773,200a1.777,1.777,0,1,0,1.778,1.777A1.776,1.776,0,0,0,127.773,200Z" transform="translate(-108.232 -164.468)"/></g></g></g><path d="M5.317-4.764,4.052-3.375V0H.967V-12.8H4.052v5.643L5.124-8.78,7.884-12.8H11.7L7.374-7.137,11.7,0H8.042Zm10.248.422V0H12.48V-12.8h5.106a5.948,5.948,0,0,1,2.6.541,4.074,4.074,0,0,1,1.749,1.538,4.2,4.2,0,0,1,.62,2.263,3.7,3.7,0,0,1-1.34,2.993,5.561,5.561,0,0,1-3.678,1.121Zm0-2.382h2.021a1.906,1.906,0,0,0,1.367-.448,1.665,1.665,0,0,0,.47-1.266A2.059,2.059,0,0,0,18.94-9.87a1.712,1.712,0,0,0-1.318-.545H15.565ZM27.483,0H24.407V-12.8h3.076ZM33.6-4.825a5.809,5.809,0,0,1,.976-3.56,3.211,3.211,0,0,1,2.725-1.3,2.731,2.731,0,0,1,2.145,1V-13.5h2.971V0H39.753L39.6-1.02a2.8,2.8,0,0,1-2.32,1.2,3.205,3.205,0,0,1-2.689-1.3A5.993,5.993,0,0,1,33.6-4.825Zm2.962.185q0,2.531,1.477,2.531a1.458,1.458,0,0,0,1.406-.826V-6.557A1.419,1.419,0,0,0,38.057-7.4q-1.371,0-1.485,2.215ZM48.7.176a4.889,4.889,0,0,1-3.542-1.305,4.507,4.507,0,0,1-1.354-3.4v-.246a5.84,5.84,0,0,1,.541-2.575,3.955,3.955,0,0,1,1.578-1.727,4.763,4.763,0,0,1,2.461-.611,4.117,4.117,0,0,1,3.164,1.244,4.887,4.887,0,0,1,1.16,3.467v1.151H46.819a2.135,2.135,0,0,0,.694,1.257,2.066,2.066,0,0,0,1.389.457,2.662,2.662,0,0,0,2.2-.984l1.354,1.6A3.784,3.784,0,0,1,50.884-.277,5.3,5.3,0,0,1,48.7.176ZM48.366-7.4q-1.3,0-1.547,1.723h2.988v-.229a1.467,1.467,0,0,0-.36-1.1A1.434,1.434,0,0,0,48.366-7.4Zm15.768.571-.976-.07a1.752,1.752,0,0,0-1.793.879V0H58.4V-9.51h2.777l.1,1.222a2.294,2.294,0,0,1,2.083-1.4,2.888,2.888,0,0,1,.826.105Zm5.669,7a4.889,4.889,0,0,1-3.542-1.305,4.507,4.507,0,0,1-1.354-3.4v-.246a5.84,5.84,0,0,1,.541-2.575,3.955,3.955,0,0,1,1.578-1.727,4.763,4.763,0,0,1,2.461-.611A4.117,4.117,0,0,1,72.65-8.442a4.887,4.887,0,0,1,1.16,3.467v1.151H67.922a2.135,2.135,0,0,0,.694,1.257A2.066,2.066,0,0,0,70-2.109a2.662,2.662,0,0,0,2.2-.984l1.354,1.6A3.784,3.784,0,0,1,71.987-.277,5.3,5.3,0,0,1,69.8.176ZM69.469-7.4q-1.3,0-1.547,1.723H70.91v-.229a1.467,1.467,0,0,0-.36-1.1A1.434,1.434,0,0,0,69.469-7.4ZM77.722-9.51l.1,1.116a3.225,3.225,0,0,1,2.716-1.292,2.713,2.713,0,0,1,2.219.888,4.226,4.226,0,0,1,.76,2.672V0H80.543V-6a1.6,1.6,0,0,0-.29-1.059A1.342,1.342,0,0,0,79.2-7.4a1.413,1.413,0,0,0-1.292.686V0H74.944V-9.51Zm7.058,4.685a5.809,5.809,0,0,1,.976-3.56,3.211,3.211,0,0,1,2.725-1.3,2.731,2.731,0,0,1,2.145,1V-13.5h2.971V0H90.932l-.149-1.02a2.8,2.8,0,0,1-2.32,1.2,3.205,3.205,0,0,1-2.689-1.3A5.993,5.993,0,0,1,84.779-4.825Zm2.962.185q0,2.531,1.477,2.531a1.458,1.458,0,0,0,1.406-.826V-6.557A1.419,1.419,0,0,0,89.235-7.4q-1.371,0-1.485,2.215ZM98.4,0H95.432V-9.51H98.4ZM95.256-11.962A1.322,1.322,0,0,1,95.713-13a1.724,1.724,0,0,1,1.187-.4,1.724,1.724,0,0,1,1.187.4,1.322,1.322,0,0,1,.457,1.037,1.322,1.322,0,0,1-.457,1.037,1.724,1.724,0,0,1-1.187.4,1.724,1.724,0,0,1-1.187-.4A1.322,1.322,0,0,1,95.256-11.962Zm7.77,2.452.1,1.116a3.27,3.27,0,0,1,2.716-1.292,2.407,2.407,0,0,1,2.435,1.433,3.165,3.165,0,0,1,2.795-1.433q2.892,0,2.971,3.5V0h-2.971V-6a1.813,1.813,0,0,0-.246-1.063,1.048,1.048,0,0,0-.9-.334,1.4,1.4,0,0,0-1.31.782l.009.123V0h-2.971V-5.985a1.906,1.906,0,0,0-.237-1.081,1.045,1.045,0,0,0-.905-.334,1.42,1.42,0,0,0-1.3.782V0h-2.962V-9.51ZM118.854,0h-2.971V-9.51h2.971Zm-3.146-11.962A1.322,1.322,0,0,1,116.165-13a1.724,1.724,0,0,1,1.187-.4,1.724,1.724,0,0,1,1.187.4A1.322,1.322,0,0,1,119-11.962a1.322,1.322,0,0,1-.457,1.037,1.724,1.724,0,0,1-1.187.4,1.724,1.724,0,0,1-1.187-.4A1.322,1.322,0,0,1,115.708-11.962ZM125.279.176a4.889,4.889,0,0,1-3.542-1.305,4.507,4.507,0,0,1-1.354-3.4v-.246a5.84,5.84,0,0,1,.541-2.575A3.955,3.955,0,0,1,122.5-9.075a4.763,4.763,0,0,1,2.461-.611,4.117,4.117,0,0,1,3.164,1.244,4.887,4.887,0,0,1,1.16,3.467v1.151H123.4a2.135,2.135,0,0,0,.694,1.257,2.066,2.066,0,0,0,1.389.457,2.662,2.662,0,0,0,2.2-.984l1.354,1.6a3.784,3.784,0,0,1-1.569,1.217A5.3,5.3,0,0,1,125.279.176ZM124.945-7.4q-1.3,0-1.547,1.723h2.988v-.229a1.467,1.467,0,0,0-.36-1.1A1.434,1.434,0,0,0,124.945-7.4ZM133.2-9.51l.1,1.116a3.225,3.225,0,0,1,2.716-1.292,2.713,2.713,0,0,1,2.219.888,4.226,4.226,0,0,1,.76,2.672V0H136.02V-6a1.6,1.6,0,0,0-.29-1.059,1.342,1.342,0,0,0-1.055-.338,1.413,1.413,0,0,0-1.292.686V0h-2.962V-9.51Zm10.881-2.364V-9.51h1.564v2.057h-1.564V-3.1a1.111,1.111,0,0,0,.193.747,1.037,1.037,0,0,0,.765.211,4.345,4.345,0,0,0,.738-.053V-.079a5.466,5.466,0,0,1-1.67.255,3.1,3.1,0,0,1-2.259-.721,2.954,2.954,0,0,1-.729-2.188v-4.72H139.9V-9.51h1.213v-2.364Zm2.092,7.031a5.613,5.613,0,0,1,.554-2.536,3.96,3.96,0,0,1,1.591-1.709,4.791,4.791,0,0,1,2.435-.6,4.373,4.373,0,0,1,3.366,1.323,5.076,5.076,0,0,1,1.23,3.6v.105a4.925,4.925,0,0,1-1.235,3.529A4.384,4.384,0,0,1,150.768.176a4.434,4.434,0,0,1-3.261-1.217,4.761,4.761,0,0,1-1.327-3.3Zm2.962.185a3.538,3.538,0,0,0,.413,1.934,1.376,1.376,0,0,0,1.222.615q1.582,0,1.617-2.435v-.3q0-2.558-1.635-2.558-1.485,0-1.608,2.206Z" transform="translate(315 3183.685)" fill="#12263f"/><path d="M5.722-4.526H4.052V0H.967V-12.8H6a5.621,5.621,0,0,1,3.56,1.01,3.421,3.421,0,0,1,1.283,2.853,4.155,4.155,0,0,1-.541,2.213A3.837,3.837,0,0,1,8.613-5.3L11.285-.132V0H7.98ZM4.052-6.9H6a1.751,1.751,0,0,0,1.323-.463A1.788,1.788,0,0,0,7.77-8.653a1.809,1.809,0,0,0-.448-1.3A1.735,1.735,0,0,0,6-10.424H4.052ZM17.174.176a4.889,4.889,0,0,1-3.542-1.305,4.507,4.507,0,0,1-1.354-3.4v-.246a5.84,5.84,0,0,1,.541-2.575A3.955,3.955,0,0,1,14.4-9.075a4.763,4.763,0,0,1,2.461-.611,4.117,4.117,0,0,1,3.164,1.244,4.887,4.887,0,0,1,1.16,3.467v1.151H15.293a2.135,2.135,0,0,0,.694,1.257,2.066,2.066,0,0,0,1.389.457,2.662,2.662,0,0,0,2.2-.984l1.354,1.6A3.784,3.784,0,0,1,19.358-.277,5.3,5.3,0,0,1,17.174.176ZM16.84-7.4q-1.3,0-1.547,1.723h2.988v-.229a1.467,1.467,0,0,0-.36-1.1A1.434,1.434,0,0,0,16.84-7.4Zm5.186,2.575A6.421,6.421,0,0,1,22.5-7.374a3.821,3.821,0,0,1,1.362-1.709,3.591,3.591,0,0,1,2.065-.6,2.855,2.855,0,0,1,2.32,1l.105-.826h2.689V-.36a4.009,4.009,0,0,1-.584,2.184,3.75,3.75,0,0,1-1.692,1.424,6.219,6.219,0,0,1-2.566.5,5.365,5.365,0,0,1-2.026-.4,3.657,3.657,0,0,1-1.5-1.028L23.915.58a2.716,2.716,0,0,0,2.18.976A1.764,1.764,0,0,0,28.063-.466v-.3a2.781,2.781,0,0,1-2.153.94A3.437,3.437,0,0,1,23.1-1.156,5.517,5.517,0,0,1,22.025-4.72ZM25-4.641a3.383,3.383,0,0,0,.439,1.85,1.386,1.386,0,0,0,1.23.681,1.573,1.573,0,0,0,1.4-.642v-4a1.534,1.534,0,0,0-1.38-.65,1.4,1.4,0,0,0-1.239.708A3.858,3.858,0,0,0,25-4.641ZM35.851,0H32.88V-9.51h2.971ZM32.7-11.962A1.322,1.322,0,0,1,33.161-13a1.724,1.724,0,0,1,1.187-.4,1.724,1.724,0,0,1,1.187.4,1.322,1.322,0,0,1,.457,1.037,1.322,1.322,0,0,1-.457,1.037,1.724,1.724,0,0,1-1.187.4,1.724,1.724,0,0,1-1.187-.4A1.322,1.322,0,0,1,32.7-11.962Zm9.949,9.29a.684.684,0,0,0-.4-.606,6.016,6.016,0,0,0-1.5-.475A6.853,6.853,0,0,1,38.927-4.4a3.062,3.062,0,0,1-1.1-.971,2.319,2.319,0,0,1-.378-1.31,2.628,2.628,0,0,1,1.081-2.158,4.453,4.453,0,0,1,2.83-.848,4.934,4.934,0,0,1,3.023.853,2.666,2.666,0,0,1,1.143,2.241H42.557q0-1.143-1.2-1.143a1.194,1.194,0,0,0-.782.259.8.8,0,0,0-.316.646.737.737,0,0,0,.387.642,3.654,3.654,0,0,0,1.235.4,10.671,10.671,0,0,1,1.49.378A2.706,2.706,0,0,1,45.51-2.76,2.491,2.491,0,0,1,44.354-.642a5.068,5.068,0,0,1-2.993.817,5.172,5.172,0,0,1-2.18-.439,3.645,3.645,0,0,1-1.494-1.2,2.707,2.707,0,0,1-.536-1.591H39.92a1.145,1.145,0,0,0,.439.962,1.808,1.808,0,0,0,1.081.3,1.422,1.422,0,0,0,.91-.246A.787.787,0,0,0,42.653-2.672Zm7.69-9.2V-9.51h1.564v2.057H50.344V-3.1a1.111,1.111,0,0,0,.193.747,1.037,1.037,0,0,0,.765.211A4.345,4.345,0,0,0,52.04-2.2V-.079a5.466,5.466,0,0,1-1.67.255,3.1,3.1,0,0,1-2.259-.721,2.954,2.954,0,0,1-.729-2.188v-4.72H46.169V-9.51h1.213v-2.364Zm8.481,5.045L57.85-6.9a1.752,1.752,0,0,0-1.793.879V0H53.095V-9.51h2.777l.1,1.222a2.294,2.294,0,0,1,2.083-1.4,2.888,2.888,0,0,1,.826.105ZM59.2-4.843a5.613,5.613,0,0,1,.554-2.536,3.96,3.96,0,0,1,1.591-1.709,4.791,4.791,0,0,1,2.435-.6,4.373,4.373,0,0,1,3.366,1.323,5.076,5.076,0,0,1,1.23,3.6v.105a4.925,4.925,0,0,1-1.235,3.529A4.384,4.384,0,0,1,63.8.176a4.434,4.434,0,0,1-3.261-1.217,4.761,4.761,0,0,1-1.327-3.3Zm2.962.185a3.538,3.538,0,0,0,.413,1.934,1.376,1.376,0,0,0,1.222.615q1.582,0,1.617-2.435v-.3q0-2.558-1.635-2.558-1.485,0-1.608,2.206Zm12.5,1.986a.684.684,0,0,0-.4-.606,6.016,6.016,0,0,0-1.5-.475A6.853,6.853,0,0,1,70.937-4.4a3.062,3.062,0,0,1-1.1-.971,2.319,2.319,0,0,1-.378-1.31,2.628,2.628,0,0,1,1.081-2.158,4.453,4.453,0,0,1,2.83-.848,4.934,4.934,0,0,1,3.023.853,2.666,2.666,0,0,1,1.143,2.241H74.566q0-1.143-1.2-1.143a1.194,1.194,0,0,0-.782.259.8.8,0,0,0-.316.646.737.737,0,0,0,.387.642,3.654,3.654,0,0,0,1.235.4,10.671,10.671,0,0,1,1.49.378A2.706,2.706,0,0,1,77.52-2.76,2.491,2.491,0,0,1,76.364-.642a5.068,5.068,0,0,1-2.993.817,5.172,5.172,0,0,1-2.18-.439,3.645,3.645,0,0,1-1.494-1.2,2.707,2.707,0,0,1-.536-1.591H71.93a1.145,1.145,0,0,0,.439.962,1.808,1.808,0,0,0,1.081.3,1.422,1.422,0,0,0,.91-.246A.787.787,0,0,0,74.663-2.672Z" transform="translate(605 3183.685)" fill="#12263f"/><path d="M-61.348,0h-3.076V-12.8h3.076Zm4.729-9.51.1,1.116a3.225,3.225,0,0,1,2.716-1.292,2.713,2.713,0,0,1,2.219.888,4.226,4.226,0,0,1,.76,2.672V0H-53.8V-6a1.6,1.6,0,0,0-.29-1.059A1.342,1.342,0,0,0-55.143-7.4a1.413,1.413,0,0,0-1.292.686V0H-59.4V-9.51ZM-48.533,0V-7.453h-1.38V-9.51h1.38v-.756a3.286,3.286,0,0,1,.958-2.522,3.785,3.785,0,0,1,2.689-.9A5.89,5.89,0,0,1-43.5-13.5l.009,2.18a2.706,2.706,0,0,0-.729-.079q-1.345,0-1.345,1.16v.729h1.854v2.057h-1.854V0Zm5.493-4.843a5.613,5.613,0,0,1,.554-2.536A3.96,3.96,0,0,1-40.9-9.088a4.791,4.791,0,0,1,2.435-.6,4.373,4.373,0,0,1,3.366,1.323,5.076,5.076,0,0,1,1.23,3.6v.105A4.925,4.925,0,0,1-35.1-1.129,4.384,4.384,0,0,1-38.443.176,4.434,4.434,0,0,1-41.7-1.042a4.761,4.761,0,0,1-1.327-3.3Zm2.962.185a3.538,3.538,0,0,0,.413,1.934,1.376,1.376,0,0,0,1.222.615q1.582,0,1.617-2.435v-.3q0-2.558-1.635-2.558-1.485,0-1.608,2.206Zm13.271-2.171-.976-.07a1.752,1.752,0,0,0-1.793.879V0h-2.962V-9.51h2.777l.1,1.222a2.294,2.294,0,0,1,2.083-1.4,2.888,2.888,0,0,1,.826.105Zm3.867-2.681.1,1.116a3.27,3.27,0,0,1,2.716-1.292,2.407,2.407,0,0,1,2.435,1.433A3.165,3.165,0,0,1-14.9-9.686q2.892,0,2.971,3.5V0H-14.9V-6a1.813,1.813,0,0,0-.246-1.063,1.048,1.048,0,0,0-.9-.334,1.4,1.4,0,0,0-1.31.782l.009.123V0h-2.971V-5.985a1.906,1.906,0,0,0-.237-1.081,1.045,1.045,0,0,0-.905-.334,1.42,1.42,0,0,0-1.3.782V0h-2.962V-9.51ZM-5.634.176A4.889,4.889,0,0,1-9.176-1.129a4.507,4.507,0,0,1-1.354-3.4v-.246a5.84,5.84,0,0,1,.541-2.575A3.955,3.955,0,0,1-8.411-9.075,4.763,4.763,0,0,1-5.95-9.686,4.117,4.117,0,0,1-2.786-8.442a4.887,4.887,0,0,1,1.16,3.467v1.151H-7.515A2.135,2.135,0,0,0-6.82-2.566a2.066,2.066,0,0,0,1.389.457,2.662,2.662,0,0,0,2.2-.984l1.354,1.6A3.784,3.784,0,0,1-3.45-.277,5.3,5.3,0,0,1-5.634.176ZM-5.968-7.4q-1.3,0-1.547,1.723h2.988v-.229a1.467,1.467,0,0,0-.36-1.1A1.434,1.434,0,0,0-5.968-7.4ZM4.544-2.672a.684.684,0,0,0-.4-.606,6.016,6.016,0,0,0-1.5-.475A6.853,6.853,0,0,1,.817-4.4a3.062,3.062,0,0,1-1.1-.971A2.319,2.319,0,0,1-.659-6.68,2.628,2.628,0,0,1,.422-8.837a4.453,4.453,0,0,1,2.83-.848,4.934,4.934,0,0,1,3.023.853A2.666,2.666,0,0,1,7.418-6.592H4.447q0-1.143-1.2-1.143a1.194,1.194,0,0,0-.782.259.8.8,0,0,0-.316.646.737.737,0,0,0,.387.642,3.654,3.654,0,0,0,1.235.4,10.671,10.671,0,0,1,1.49.378A2.706,2.706,0,0,1,7.4-2.76,2.491,2.491,0,0,1,6.245-.642,5.068,5.068,0,0,1,3.252.176a5.172,5.172,0,0,1-2.18-.439,3.645,3.645,0,0,1-1.494-1.2A2.707,2.707,0,0,1-.958-3.05H1.811a1.145,1.145,0,0,0,.439.962,1.808,1.808,0,0,0,1.081.3,1.422,1.422,0,0,0,.91-.246A.787.787,0,0,0,4.544-2.672Zm8.35-2.153a5.809,5.809,0,0,1,.976-3.56,3.211,3.211,0,0,1,2.725-1.3,2.731,2.731,0,0,1,2.145,1V-13.5h2.971V0H19.046L18.9-1.02a2.8,2.8,0,0,1-2.32,1.2,3.205,3.205,0,0,1-2.689-1.3A5.993,5.993,0,0,1,12.894-4.825Zm2.962.185q0,2.531,1.477,2.531a1.458,1.458,0,0,0,1.406-.826V-6.557A1.419,1.419,0,0,0,17.35-7.4q-1.371,0-1.485,2.215ZM27.993.176a4.889,4.889,0,0,1-3.542-1.305,4.507,4.507,0,0,1-1.354-3.4v-.246a5.84,5.84,0,0,1,.541-2.575,3.955,3.955,0,0,1,1.578-1.727,4.763,4.763,0,0,1,2.461-.611,4.117,4.117,0,0,1,3.164,1.244A4.887,4.887,0,0,1,32-4.975v1.151H26.112a2.135,2.135,0,0,0,.694,1.257,2.066,2.066,0,0,0,1.389.457,2.662,2.662,0,0,0,2.2-.984l1.354,1.6A3.784,3.784,0,0,1,30.177-.277,5.3,5.3,0,0,1,27.993.176ZM27.659-7.4q-1.3,0-1.547,1.723H29.1v-.229a1.467,1.467,0,0,0-.36-1.1A1.434,1.434,0,0,0,27.659-7.4ZM40.8,0H37.828V-13.5H40.8Zm1.45-4.843A5.613,5.613,0,0,1,42.8-7.378a3.96,3.96,0,0,1,1.591-1.709,4.791,4.791,0,0,1,2.435-.6,4.373,4.373,0,0,1,3.366,1.323,5.076,5.076,0,0,1,1.23,3.6v.105A4.925,4.925,0,0,1,50.19-1.129,4.384,4.384,0,0,1,46.846.176a4.434,4.434,0,0,1-3.261-1.217,4.761,4.761,0,0,1-1.327-3.3Zm2.962.185a3.538,3.538,0,0,0,.413,1.934,1.376,1.376,0,0,0,1.222.615q1.582,0,1.617-2.435v-.3q0-2.558-1.635-2.558-1.485,0-1.608,2.206Zm12.5,1.986a.684.684,0,0,0-.4-.606,6.016,6.016,0,0,0-1.5-.475A6.853,6.853,0,0,1,53.982-4.4a3.062,3.062,0,0,1-1.1-.971,2.319,2.319,0,0,1-.378-1.31,2.628,2.628,0,0,1,1.081-2.158,4.453,4.453,0,0,1,2.83-.848,4.934,4.934,0,0,1,3.023.853,2.666,2.666,0,0,1,1.143,2.241H57.612q0-1.143-1.2-1.143a1.194,1.194,0,0,0-.782.259.8.8,0,0,0-.316.646.737.737,0,0,0,.387.642,3.654,3.654,0,0,0,1.235.4,10.671,10.671,0,0,1,1.49.378A2.706,2.706,0,0,1,60.565-2.76,2.491,2.491,0,0,1,59.41-.642a5.068,5.068,0,0,1-2.993.817,5.172,5.172,0,0,1-2.18-.439,3.645,3.645,0,0,1-1.494-1.2,2.707,2.707,0,0,1-.536-1.591h2.769a1.145,1.145,0,0,0,.439.962,1.808,1.808,0,0,0,1.081.3,1.422,1.422,0,0,0,.91-.246A.787.787,0,0,0,57.709-2.672ZM-39.164,25.176a4.889,4.889,0,0,1-3.542-1.305,4.507,4.507,0,0,1-1.354-3.4v-.246a5.84,5.84,0,0,1,.541-2.575,3.955,3.955,0,0,1,1.578-1.727,4.763,4.763,0,0,1,2.461-.611,4.117,4.117,0,0,1,3.164,1.244,4.887,4.887,0,0,1,1.16,3.467v1.151h-5.889a2.135,2.135,0,0,0,.694,1.257,2.066,2.066,0,0,0,1.389.457,2.662,2.662,0,0,0,2.2-.984l1.354,1.6a3.784,3.784,0,0,1-1.569,1.217A5.3,5.3,0,0,1-39.164,25.176ZM-39.5,17.6q-1.3,0-1.547,1.723h2.988v-.229a1.467,1.467,0,0,0-.36-1.1A1.434,1.434,0,0,0-39.5,17.6Zm8.332-2.109.1,1.116a3.27,3.27,0,0,1,2.716-1.292,2.407,2.407,0,0,1,2.435,1.433,3.165,3.165,0,0,1,2.795-1.433q2.892,0,2.971,3.5V25h-2.971V19a1.813,1.813,0,0,0-.246-1.063,1.048,1.048,0,0,0-.9-.334,1.4,1.4,0,0,0-1.31.782l.009.123V25h-2.971V19.015a1.906,1.906,0,0,0-.237-1.081,1.045,1.045,0,0,0-.905-.334,1.42,1.42,0,0,0-1.3.782V25h-2.962V15.49Zm21.533,4.825a5.735,5.735,0,0,1-1,3.538,3.2,3.2,0,0,1-2.694,1.323,2.742,2.742,0,0,1-2.153-.958v4.438h-2.962V15.49h2.769l.088.879a2.742,2.742,0,0,1,2.241-1.055,3.224,3.224,0,0,1,2.733,1.3,5.805,5.805,0,0,1,.976,3.564Zm-2.962-.185q0-2.531-1.477-2.531a1.394,1.394,0,0,0-1.406.756V22.1a1.439,1.439,0,0,0,1.424.791q1.415,0,1.459-2.443ZM-5.2,25H-8.174V11.5H-5.2Zm6.425.176A4.889,4.889,0,0,1-2.32,23.871a4.507,4.507,0,0,1-1.354-3.4v-.246a5.84,5.84,0,0,1,.541-2.575,3.955,3.955,0,0,1,1.578-1.727,4.763,4.763,0,0,1,2.461-.611,4.117,4.117,0,0,1,3.164,1.244,4.887,4.887,0,0,1,1.16,3.467v1.151H-.659a2.135,2.135,0,0,0,.694,1.257,2.066,2.066,0,0,0,1.389.457,2.662,2.662,0,0,0,2.2-.984l1.354,1.6a3.784,3.784,0,0,1-1.569,1.217A5.3,5.3,0,0,1,1.222,25.176ZM.888,17.6q-1.3,0-1.547,1.723H2.329v-.229a1.467,1.467,0,0,0-.36-1.1A1.434,1.434,0,0,0,.888,17.6ZM11.777,25a3.344,3.344,0,0,1-.281-.853,2.754,2.754,0,0,1-2.285,1.028,3.374,3.374,0,0,1-2.285-.813,2.588,2.588,0,0,1-.94-2.043,2.66,2.66,0,0,1,1.143-2.338,5.821,5.821,0,0,1,3.322-.791h.914v-.5q0-1.316-1.134-1.316a.927.927,0,0,0-1.055,1.042H6.214a2.655,2.655,0,0,1,1.173-2.239,4.931,4.931,0,0,1,2.993-.86,4.323,4.323,0,0,1,2.874.888,3.086,3.086,0,0,1,1.081,2.435v4.21a4.311,4.311,0,0,0,.4,2V25ZM9.923,23.066a1.652,1.652,0,0,0,.918-.237,1.487,1.487,0,0,0,.523-.536V20.772H10.5q-1.547,0-1.547,1.389a.848.848,0,0,0,.272.655A.986.986,0,0,0,9.923,23.066ZM15.6,20.175a5.809,5.809,0,0,1,.976-3.56,3.211,3.211,0,0,1,2.725-1.3,2.731,2.731,0,0,1,2.145,1V11.5h2.971V25H21.753L21.6,23.98a2.8,2.8,0,0,1-2.32,1.2,3.205,3.205,0,0,1-2.689-1.3A5.993,5.993,0,0,1,15.6,20.175Zm2.962.185q0,2.531,1.477,2.531a1.458,1.458,0,0,0,1.406-.826V18.443a1.419,1.419,0,0,0-1.389-.844q-1.371,0-1.485,2.215Zm7.163-.2a5.613,5.613,0,0,1,.554-2.536,3.96,3.96,0,0,1,1.591-1.709,4.791,4.791,0,0,1,2.435-.6,4.373,4.373,0,0,1,3.366,1.323,5.076,5.076,0,0,1,1.23,3.6v.105a4.925,4.925,0,0,1-1.235,3.529,4.384,4.384,0,0,1-3.344,1.305,4.434,4.434,0,0,1-3.261-1.217,4.761,4.761,0,0,1-1.327-3.3Zm2.962.185a3.538,3.538,0,0,0,.413,1.934,1.376,1.376,0,0,0,1.222.615q1.582,0,1.617-2.435v-.3q0-2.558-1.635-2.558-1.485,0-1.608,2.206Zm12.5,1.986a.684.684,0,0,0-.4-.606,6.016,6.016,0,0,0-1.5-.475,6.853,6.853,0,0,1-1.828-.646,3.062,3.062,0,0,1-1.1-.971,2.319,2.319,0,0,1-.378-1.31,2.628,2.628,0,0,1,1.081-2.158,4.453,4.453,0,0,1,2.83-.848,4.934,4.934,0,0,1,3.023.853,2.666,2.666,0,0,1,1.143,2.241H41.089q0-1.143-1.2-1.143a1.194,1.194,0,0,0-.782.259.8.8,0,0,0-.316.646.737.737,0,0,0,.387.642,3.654,3.654,0,0,0,1.235.4,10.671,10.671,0,0,1,1.49.378,2.706,2.706,0,0,1,2.145,2.646,2.491,2.491,0,0,1-1.156,2.118,5.068,5.068,0,0,1-2.993.817,5.172,5.172,0,0,1-2.18-.439,3.645,3.645,0,0,1-1.494-1.2,2.707,2.707,0,0,1-.536-1.591h2.769a1.145,1.145,0,0,0,.439.962,1.808,1.808,0,0,0,1.081.3,1.422,1.422,0,0,0,.91-.246A.787.787,0,0,0,41.186,22.328Z" transform="translate(886 3183.685)" fill="#12263f"/><path d="M-97.251-4.526h-1.67V0h-3.085V-12.8h5.036a5.621,5.621,0,0,1,3.56,1.01,3.421,3.421,0,0,1,1.283,2.853,4.155,4.155,0,0,1-.541,2.213A3.837,3.837,0,0,1-94.359-5.3l2.672,5.167V0h-3.3ZM-98.921-6.9h1.951a1.751,1.751,0,0,0,1.323-.463A1.788,1.788,0,0,0-95.2-8.653a1.809,1.809,0,0,0-.448-1.3,1.735,1.735,0,0,0-1.318-.471h-1.951ZM-85.8.176a4.889,4.889,0,0,1-3.542-1.305,4.507,4.507,0,0,1-1.354-3.4v-.246a5.84,5.84,0,0,1,.541-2.575,3.955,3.955,0,0,1,1.578-1.727,4.763,4.763,0,0,1,2.461-.611,4.117,4.117,0,0,1,3.164,1.244,4.887,4.887,0,0,1,1.16,3.467v1.151H-87.68a2.135,2.135,0,0,0,.694,1.257,2.066,2.066,0,0,0,1.389.457,2.662,2.662,0,0,0,2.2-.984l1.354,1.6A3.784,3.784,0,0,1-83.615-.277,5.3,5.3,0,0,1-85.8.176ZM-86.133-7.4q-1.3,0-1.547,1.723h2.988v-.229a1.467,1.467,0,0,0-.36-1.1A1.434,1.434,0,0,0-86.133-7.4Zm10.512,4.729a.684.684,0,0,0-.4-.606,6.016,6.016,0,0,0-1.5-.475A6.853,6.853,0,0,1-79.348-4.4a3.062,3.062,0,0,1-1.1-.971,2.319,2.319,0,0,1-.378-1.31,2.628,2.628,0,0,1,1.081-2.158,4.453,4.453,0,0,1,2.83-.848,4.934,4.934,0,0,1,3.023.853,2.666,2.666,0,0,1,1.143,2.241h-2.971q0-1.143-1.2-1.143a1.194,1.194,0,0,0-.782.259.8.8,0,0,0-.316.646.737.737,0,0,0,.387.642,3.654,3.654,0,0,0,1.235.4,10.671,10.671,0,0,1,1.49.378A2.706,2.706,0,0,1-72.765-2.76,2.491,2.491,0,0,1-73.92-.642a5.068,5.068,0,0,1-2.993.817,5.172,5.172,0,0,1-2.18-.439,3.645,3.645,0,0,1-1.494-1.2,2.707,2.707,0,0,1-.536-1.591h2.769a1.145,1.145,0,0,0,.439.962,1.808,1.808,0,0,0,1.081.3,1.422,1.422,0,0,0,.91-.246A.787.787,0,0,0-75.621-2.672Zm9.905,1.644a3.054,3.054,0,0,1-2.54,1.2,3,3,0,0,1-2.369-.91,3.826,3.826,0,0,1-.8-2.615V-9.51h2.962v6.179A1.065,1.065,0,0,0-67.28-2.109a1.548,1.548,0,0,0,1.45-.729V-9.51h2.979V0h-2.777ZM-58.1,0h-2.971V-13.5H-58.1Zm5.273-11.874V-9.51h1.564v2.057h-1.564V-3.1a1.111,1.111,0,0,0,.193.747,1.037,1.037,0,0,0,.765.211,4.345,4.345,0,0,0,.738-.053V-.079A5.466,5.466,0,0,1-52.8.176a3.1,3.1,0,0,1-2.259-.721,2.954,2.954,0,0,1-.729-2.188v-4.72h-1.213V-9.51h1.213v-2.364ZM-44.745,0a3.344,3.344,0,0,1-.281-.853A2.754,2.754,0,0,1-47.312.176,3.374,3.374,0,0,1-49.6-.637a2.588,2.588,0,0,1-.94-2.043,2.66,2.66,0,0,1,1.143-2.338,5.821,5.821,0,0,1,3.322-.791h.914v-.5q0-1.316-1.134-1.316a.927.927,0,0,0-1.055,1.042h-2.962a2.655,2.655,0,0,1,1.173-2.239,4.931,4.931,0,0,1,2.993-.86,4.323,4.323,0,0,1,2.874.888,3.086,3.086,0,0,1,1.081,2.435v4.21a4.311,4.311,0,0,0,.4,2V0ZM-46.6-1.934a1.652,1.652,0,0,0,.918-.237,1.487,1.487,0,0,0,.523-.536V-4.228h-.861q-1.547,0-1.547,1.389a.848.848,0,0,0,.272.655A.986.986,0,0,0-46.6-1.934Zm5.678-2.892a5.809,5.809,0,0,1,.976-3.56,3.211,3.211,0,0,1,2.725-1.3,2.731,2.731,0,0,1,2.145,1V-13.5h2.971V0H-34.77l-.149-1.02a2.8,2.8,0,0,1-2.32,1.2,3.205,3.205,0,0,1-2.689-1.3A5.993,5.993,0,0,1-40.922-4.825Zm2.962.185q0,2.531,1.477,2.531a1.458,1.458,0,0,0,1.406-.826V-6.557A1.419,1.419,0,0,0-36.466-7.4q-1.371,0-1.485,2.215Zm7.163-.2a5.613,5.613,0,0,1,.554-2.536,3.96,3.96,0,0,1,1.591-1.709,4.791,4.791,0,0,1,2.435-.6,4.373,4.373,0,0,1,3.366,1.323,5.076,5.076,0,0,1,1.23,3.6v.105a4.925,4.925,0,0,1-1.235,3.529A4.384,4.384,0,0,1-26.2.176a4.434,4.434,0,0,1-3.261-1.217,4.761,4.761,0,0,1-1.327-3.3Zm2.962.185a3.538,3.538,0,0,0,.413,1.934,1.376,1.376,0,0,0,1.222.615q1.582,0,1.617-2.435v-.3q0-2.558-1.635-2.558-1.485,0-1.608,2.206Zm12.5,1.986a.684.684,0,0,0-.4-.606,6.016,6.016,0,0,0-1.5-.475A6.853,6.853,0,0,1-19.063-4.4a3.062,3.062,0,0,1-1.1-.971,2.319,2.319,0,0,1-.378-1.31,2.628,2.628,0,0,1,1.081-2.158,4.453,4.453,0,0,1,2.83-.848,4.934,4.934,0,0,1,3.023.853,2.666,2.666,0,0,1,1.143,2.241h-2.971q0-1.143-1.2-1.143a1.194,1.194,0,0,0-.782.259.8.8,0,0,0-.316.646.737.737,0,0,0,.387.642,3.654,3.654,0,0,0,1.235.4,10.671,10.671,0,0,1,1.49.378A2.706,2.706,0,0,1-12.48-2.76,2.491,2.491,0,0,1-13.636-.642a5.068,5.068,0,0,1-2.993.817,5.172,5.172,0,0,1-2.18-.439,3.645,3.645,0,0,1-1.494-1.2,2.707,2.707,0,0,1-.536-1.591h2.769a1.145,1.145,0,0,0,.439.962,1.808,1.808,0,0,0,1.081.3,1.422,1.422,0,0,0,.91-.246A.787.787,0,0,0-15.337-2.672Zm8.35-2.153a5.809,5.809,0,0,1,.976-3.56,3.211,3.211,0,0,1,2.725-1.3,2.731,2.731,0,0,1,2.145,1V-13.5H1.828V0H-.835L-.984-1.02A2.8,2.8,0,0,1-3.3.176a3.205,3.205,0,0,1-2.689-1.3A5.993,5.993,0,0,1-6.987-4.825Zm2.962.185q0,2.531,1.477,2.531a1.458,1.458,0,0,0,1.406-.826V-6.557A1.419,1.419,0,0,0-2.531-7.4Q-3.9-7.4-4.017-5.186ZM8.112.176A4.889,4.889,0,0,1,4.57-1.129a4.507,4.507,0,0,1-1.354-3.4v-.246a5.84,5.84,0,0,1,.541-2.575A3.955,3.955,0,0,1,5.335-9.075,4.763,4.763,0,0,1,7.8-9.686,4.117,4.117,0,0,1,10.96-8.442a4.887,4.887,0,0,1,1.16,3.467v1.151H6.231a2.135,2.135,0,0,0,.694,1.257,2.066,2.066,0,0,0,1.389.457,2.662,2.662,0,0,0,2.2-.984l1.354,1.6A3.784,3.784,0,0,1,10.3-.277,5.3,5.3,0,0,1,8.112.176ZM7.778-7.4q-1.3,0-1.547,1.723H9.22v-.229a1.467,1.467,0,0,0-.36-1.1A1.434,1.434,0,0,0,7.778-7.4ZM23.15,0a3.344,3.344,0,0,1-.281-.853A2.754,2.754,0,0,1,20.584.176,3.374,3.374,0,0,1,18.3-.637a2.588,2.588,0,0,1-.94-2.043A2.66,2.66,0,0,1,18.5-5.019a5.821,5.821,0,0,1,3.322-.791h.914v-.5q0-1.316-1.134-1.316a.927.927,0,0,0-1.055,1.042H17.587A2.655,2.655,0,0,1,18.76-8.825a4.931,4.931,0,0,1,2.993-.86,4.323,4.323,0,0,1,2.874.888,3.086,3.086,0,0,1,1.081,2.435v4.21a4.311,4.311,0,0,0,.4,2V0ZM21.3-1.934a1.652,1.652,0,0,0,.918-.237,1.487,1.487,0,0,0,.523-.536V-4.228h-.861q-1.547,0-1.547,1.389a.848.848,0,0,0,.272.655A.986.986,0,0,0,21.3-1.934Zm11.716.905a3.054,3.054,0,0,1-2.54,1.2A3,3,0,0,1,28.1-.734a3.826,3.826,0,0,1-.8-2.615V-9.51h2.962v6.179a1.065,1.065,0,0,0,1.187,1.222,1.548,1.548,0,0,0,1.45-.729V-9.51h2.979V0H33.1Zm4.113-3.8a5.809,5.809,0,0,1,.976-3.56,3.211,3.211,0,0,1,2.725-1.3,2.731,2.731,0,0,1,2.145,1V-13.5H45.94V0H43.277l-.149-1.02a2.8,2.8,0,0,1-2.32,1.2,3.205,3.205,0,0,1-2.689-1.3A5.993,5.993,0,0,1,37.125-4.825Zm2.962.185q0,2.531,1.477,2.531a1.458,1.458,0,0,0,1.406-.826V-6.557A1.419,1.419,0,0,0,41.581-7.4Q40.21-7.4,40.1-5.186ZM50.748,0H47.777V-9.51h2.971ZM47.6-11.962A1.322,1.322,0,0,1,48.059-13a1.724,1.724,0,0,1,1.187-.4,1.724,1.724,0,0,1,1.187.4,1.322,1.322,0,0,1,.457,1.037,1.322,1.322,0,0,1-.457,1.037,1.724,1.724,0,0,1-1.187.4,1.724,1.724,0,0,1-1.187-.4A1.322,1.322,0,0,1,47.6-11.962Zm8.42.088V-9.51h1.564v2.057H56.021V-3.1a1.111,1.111,0,0,0,.193.747,1.037,1.037,0,0,0,.765.211,4.345,4.345,0,0,0,.738-.053V-.079a5.466,5.466,0,0,1-1.67.255,3.1,3.1,0,0,1-2.259-.721,2.954,2.954,0,0,1-.729-2.188v-4.72H51.847V-9.51H53.06v-2.364Zm2.092,7.031a5.613,5.613,0,0,1,.554-2.536,3.96,3.96,0,0,1,1.591-1.709,4.791,4.791,0,0,1,2.435-.6,4.373,4.373,0,0,1,3.366,1.323,5.076,5.076,0,0,1,1.23,3.6v.105a4.925,4.925,0,0,1-1.235,3.529A4.384,4.384,0,0,1,62.71.176a4.434,4.434,0,0,1-3.261-1.217,4.761,4.761,0,0,1-1.327-3.3Zm2.962.185a3.538,3.538,0,0,0,.413,1.934,1.376,1.376,0,0,0,1.222.615q1.582,0,1.617-2.435v-.3q0-2.558-1.635-2.558-1.485,0-1.608,2.206ZM74.347-6.829l-.976-.07a1.752,1.752,0,0,0-1.793.879V0H68.616V-9.51h2.777l.1,1.222a2.294,2.294,0,0,1,2.083-1.4,2.888,2.888,0,0,1,.826.105ZM78.645,0H75.665V-9.51h2.979ZM77.537-13.324h3.129l-2.443,2.76-2.417,0ZM85.9,0a3.344,3.344,0,0,1-.281-.853A2.754,2.754,0,0,1,83.338.176a3.374,3.374,0,0,1-2.285-.813,2.588,2.588,0,0,1-.94-2.043,2.66,2.66,0,0,1,1.143-2.338,5.821,5.821,0,0,1,3.322-.791h.914v-.5q0-1.316-1.134-1.316A.927.927,0,0,0,83.3-6.587H80.341a2.655,2.655,0,0,1,1.173-2.239,4.931,4.931,0,0,1,2.993-.86,4.323,4.323,0,0,1,2.874.888,3.086,3.086,0,0,1,1.081,2.435v4.21a4.311,4.311,0,0,0,.4,2V0ZM84.05-1.934a1.652,1.652,0,0,0,.918-.237,1.487,1.487,0,0,0,.523-.536V-4.228H84.63q-1.547,0-1.547,1.389a.848.848,0,0,0,.272.655A.986.986,0,0,0,84.05-1.934Zm11.03-.738a.684.684,0,0,0-.4-.606,6.016,6.016,0,0,0-1.5-.475A6.853,6.853,0,0,1,91.354-4.4a3.062,3.062,0,0,1-1.1-.971,2.319,2.319,0,0,1-.378-1.31,2.628,2.628,0,0,1,1.081-2.158,4.453,4.453,0,0,1,2.83-.848,4.934,4.934,0,0,1,3.023.853,2.666,2.666,0,0,1,1.143,2.241H94.983q0-1.143-1.2-1.143A1.194,1.194,0,0,0,93-7.475a.8.8,0,0,0-.316.646.737.737,0,0,0,.387.642,3.654,3.654,0,0,0,1.235.4,10.671,10.671,0,0,1,1.49.378A2.706,2.706,0,0,1,97.937-2.76,2.491,2.491,0,0,1,96.781-.642a5.068,5.068,0,0,1-2.993.817,5.172,5.172,0,0,1-2.18-.439,3.645,3.645,0,0,1-1.494-1.2,2.707,2.707,0,0,1-.536-1.591h2.769a1.145,1.145,0,0,0,.439.962,1.808,1.808,0,0,0,1.081.3,1.422,1.422,0,0,0,.91-.246A.787.787,0,0,0,95.08-2.672ZM-62.67,20.157a5.613,5.613,0,0,1,.554-2.536,3.96,3.96,0,0,1,1.591-1.709,4.791,4.791,0,0,1,2.435-.6,4.373,4.373,0,0,1,3.366,1.323,5.076,5.076,0,0,1,1.23,3.6v.105a4.925,4.925,0,0,1-1.235,3.529,4.384,4.384,0,0,1-3.344,1.305,4.434,4.434,0,0,1-3.261-1.217,4.761,4.761,0,0,1-1.327-3.3Zm2.962.185a3.538,3.538,0,0,0,.413,1.934,1.376,1.376,0,0,0,1.222.615q1.582,0,1.617-2.435v-.3q0-2.558-1.635-2.558-1.485,0-1.608,2.206ZM-44.583,25h-2.971V15.49h2.971Zm-3.146-11.962A1.322,1.322,0,0,1-47.272,12a1.724,1.724,0,0,1,1.187-.4A1.724,1.724,0,0,1-44.9,12a1.322,1.322,0,0,1,.457,1.037,1.322,1.322,0,0,1-.457,1.037,1.724,1.724,0,0,1-1.187.4,1.724,1.724,0,0,1-1.187-.4A1.322,1.322,0,0,1-47.729,13.038Zm7.69,2.452.1,1.116a3.225,3.225,0,0,1,2.716-1.292,2.713,2.713,0,0,1,2.219.888,4.226,4.226,0,0,1,.76,2.672V25h-2.971V19a1.6,1.6,0,0,0-.29-1.059,1.342,1.342,0,0,0-1.055-.338,1.413,1.413,0,0,0-1.292.686V25h-2.962V15.49Zm12.41,6.838a.684.684,0,0,0-.4-.606,6.016,6.016,0,0,0-1.5-.475,6.853,6.853,0,0,1-1.828-.646,3.062,3.062,0,0,1-1.1-.971,2.319,2.319,0,0,1-.378-1.31,2.628,2.628,0,0,1,1.081-2.158,4.453,4.453,0,0,1,2.83-.848,4.934,4.934,0,0,1,3.023.853,2.666,2.666,0,0,1,1.143,2.241h-2.971q0-1.143-1.2-1.143a1.194,1.194,0,0,0-.782.259.8.8,0,0,0-.316.646.737.737,0,0,0,.387.642,3.654,3.654,0,0,0,1.235.4,10.671,10.671,0,0,1,1.49.378,2.706,2.706,0,0,1,2.145,2.646,2.491,2.491,0,0,1-1.156,2.118,5.068,5.068,0,0,1-2.993.817,5.172,5.172,0,0,1-2.18-.439,3.645,3.645,0,0,1-1.494-1.2,2.707,2.707,0,0,1-.536-1.591h2.769a1.145,1.145,0,0,0,.439.962,1.808,1.808,0,0,0,1.081.3,1.422,1.422,0,0,0,.91-.246A.787.787,0,0,0-27.628,22.328Zm13.069-2.013a5.735,5.735,0,0,1-1,3.538,3.2,3.2,0,0,1-2.694,1.323,2.742,2.742,0,0,1-2.153-.958v4.438h-2.962V15.49H-20.6l.088.879a2.742,2.742,0,0,1,2.241-1.055,3.224,3.224,0,0,1,2.733,1.3,5.805,5.805,0,0,1,.976,3.564Zm-2.962-.185q0-2.531-1.477-2.531a1.394,1.394,0,0,0-1.406.756V22.1a1.439,1.439,0,0,0,1.424.791q1.415,0,1.459-2.443Zm8.868,5.045a4.889,4.889,0,0,1-3.542-1.305,4.507,4.507,0,0,1-1.354-3.4v-.246a5.84,5.84,0,0,1,.541-2.575,3.955,3.955,0,0,1,1.578-1.727,4.763,4.763,0,0,1,2.461-.611,4.117,4.117,0,0,1,3.164,1.244,4.887,4.887,0,0,1,1.16,3.467v1.151h-5.889a2.135,2.135,0,0,0,.694,1.257,2.066,2.066,0,0,0,1.389.457,2.662,2.662,0,0,0,2.2-.984l1.354,1.6a3.784,3.784,0,0,1-1.569,1.217A5.3,5.3,0,0,1-8.653,25.176ZM-8.987,17.6q-1.3,0-1.547,1.723h2.988v-.229a1.467,1.467,0,0,0-.36-1.1A1.434,1.434,0,0,0-8.987,17.6ZM.567,22.891a1.317,1.317,0,0,0,.967-.338,1.241,1.241,0,0,0,.334-.945H4.645a3.288,3.288,0,0,1-1.121,2.566,4.168,4.168,0,0,1-2.887,1,4.22,4.22,0,0,1-3.27-1.3,5.125,5.125,0,0,1-1.2-3.6v-.123A5.792,5.792,0,0,1-3.3,17.6a3.872,3.872,0,0,1,1.534-1.7,4.573,4.573,0,0,1,2.373-.593,4.116,4.116,0,0,1,2.944,1.028,3.647,3.647,0,0,1,1.09,2.786H1.868A1.626,1.626,0,0,0,1.507,18a1.244,1.244,0,0,0-.967-.4Q-.611,17.6-.8,19.067a10.357,10.357,0,0,0-.062,1.283,4.068,4.068,0,0,0,.343,1.986A1.187,1.187,0,0,0,.567,22.891Zm9.352,0a1.317,1.317,0,0,0,.967-.338,1.241,1.241,0,0,0,.334-.945H14a3.288,3.288,0,0,1-1.121,2.566,4.168,4.168,0,0,1-2.887,1,4.22,4.22,0,0,1-3.27-1.3,5.125,5.125,0,0,1-1.2-3.6v-.123A5.792,5.792,0,0,1,6.056,17.6a3.872,3.872,0,0,1,1.534-1.7,4.573,4.573,0,0,1,2.373-.593,4.116,4.116,0,0,1,2.944,1.028A3.647,3.647,0,0,1,14,19.129H11.219A1.626,1.626,0,0,0,10.859,18a1.244,1.244,0,0,0-.967-.4q-1.151,0-1.345,1.468a10.357,10.357,0,0,0-.062,1.283,4.068,4.068,0,0,0,.343,1.986A1.187,1.187,0,0,0,9.918,22.891ZM18.374,25H15.4V15.49h2.971ZM15.227,13.038A1.322,1.322,0,0,1,15.684,12a1.943,1.943,0,0,1,2.373,0,1.405,1.405,0,0,1,0,2.074,1.943,1.943,0,0,1-2.373,0A1.322,1.322,0,0,1,15.227,13.038Zm4.6,7.119a5.613,5.613,0,0,1,.554-2.536,3.96,3.96,0,0,1,1.591-1.709,4.791,4.791,0,0,1,2.435-.6,4.373,4.373,0,0,1,3.366,1.323,5.076,5.076,0,0,1,1.23,3.6v.105a4.925,4.925,0,0,1-1.235,3.529,4.384,4.384,0,0,1-3.344,1.305,4.434,4.434,0,0,1-3.261-1.217,4.761,4.761,0,0,1-1.327-3.3Zm2.962.185a3.538,3.538,0,0,0,.413,1.934,1.376,1.376,0,0,0,1.222.615q1.582,0,1.617-2.435v-.3q0-2.558-1.635-2.558-1.485,0-1.608,2.206ZM33.025,15.49l.1,1.116a3.225,3.225,0,0,1,2.716-1.292,2.713,2.713,0,0,1,2.219.888,4.226,4.226,0,0,1,.76,2.672V25H35.846V19a1.6,1.6,0,0,0-.29-1.059A1.342,1.342,0,0,0,34.5,17.6a1.413,1.413,0,0,0-1.292.686V25H30.248V15.49Zm12.032,9.686a4.889,4.889,0,0,1-3.542-1.305,4.507,4.507,0,0,1-1.354-3.4v-.246a5.84,5.84,0,0,1,.541-2.575,3.955,3.955,0,0,1,1.578-1.727,4.763,4.763,0,0,1,2.461-.611A4.117,4.117,0,0,1,47.9,16.558a4.887,4.887,0,0,1,1.16,3.467v1.151H43.176a2.135,2.135,0,0,0,.694,1.257,2.066,2.066,0,0,0,1.389.457,2.662,2.662,0,0,0,2.2-.984l1.354,1.6a3.784,3.784,0,0,1-1.569,1.217A5.3,5.3,0,0,1,45.057,25.176ZM44.723,17.6q-1.3,0-1.547,1.723h2.988v-.229a1.467,1.467,0,0,0-.36-1.1A1.434,1.434,0,0,0,44.723,17.6Zm10.512,4.729a.684.684,0,0,0-.4-.606,6.016,6.016,0,0,0-1.5-.475,6.853,6.853,0,0,1-1.828-.646,3.062,3.062,0,0,1-1.1-.971,2.319,2.319,0,0,1-.378-1.31,2.628,2.628,0,0,1,1.081-2.158,4.453,4.453,0,0,1,2.83-.848,4.934,4.934,0,0,1,3.023.853,2.666,2.666,0,0,1,1.143,2.241H55.138q0-1.143-1.2-1.143a1.194,1.194,0,0,0-.782.259.8.8,0,0,0-.316.646.737.737,0,0,0,.387.642,3.654,3.654,0,0,0,1.235.4,10.671,10.671,0,0,1,1.49.378,2.706,2.706,0,0,1,2.145,2.646,2.491,2.491,0,0,1-1.156,2.118,5.068,5.068,0,0,1-2.993.817,5.172,5.172,0,0,1-2.18-.439,3.645,3.645,0,0,1-1.494-1.2,2.707,2.707,0,0,1-.536-1.591H52.5a1.145,1.145,0,0,0,.439.962,1.808,1.808,0,0,0,1.081.3,1.422,1.422,0,0,0,.91-.246A.787.787,0,0,0,55.235,22.328ZM-35.517,50a3.344,3.344,0,0,1-.281-.853,2.754,2.754,0,0,1-2.285,1.028,3.374,3.374,0,0,1-2.285-.813,2.588,2.588,0,0,1-.94-2.043,2.66,2.66,0,0,1,1.143-2.338,5.821,5.821,0,0,1,3.322-.791h.914v-.5q0-1.316-1.134-1.316a.927.927,0,0,0-1.055,1.042H-41.08a2.655,2.655,0,0,1,1.173-2.239,4.931,4.931,0,0,1,2.993-.86,4.323,4.323,0,0,1,2.874.888,3.086,3.086,0,0,1,1.081,2.435v4.21a4.311,4.311,0,0,0,.4,2V50Zm-1.854-1.934a1.652,1.652,0,0,0,.918-.237,1.487,1.487,0,0,0,.523-.536V45.772h-.861q-1.547,0-1.547,1.389a.848.848,0,0,0,.272.655A.986.986,0,0,0-37.371,48.066ZM-28.2,50h-2.971V36.5H-28.2Zm11.285-2.672a.684.684,0,0,0-.4-.606,6.016,6.016,0,0,0-1.5-.475,6.853,6.853,0,0,1-1.828-.646,3.062,3.062,0,0,1-1.1-.971,2.319,2.319,0,0,1-.378-1.31,2.628,2.628,0,0,1,1.081-2.158,4.453,4.453,0,0,1,2.83-.848,4.934,4.934,0,0,1,3.023.853,2.666,2.666,0,0,1,1.143,2.241h-2.971q0-1.143-1.2-1.143a1.194,1.194,0,0,0-.782.259.8.8,0,0,0-.316.646.737.737,0,0,0,.387.642,3.654,3.654,0,0,0,1.235.4,10.671,10.671,0,0,1,1.49.378,2.706,2.706,0,0,1,2.145,2.646,2.491,2.491,0,0,1-1.156,2.118,5.068,5.068,0,0,1-2.993.817,5.172,5.172,0,0,1-2.18-.439,3.645,3.645,0,0,1-1.494-1.2,2.707,2.707,0,0,1-.536-1.591h2.769a1.145,1.145,0,0,0,.439.962,1.808,1.808,0,0,0,1.081.3,1.422,1.422,0,0,0,.91-.246A.787.787,0,0,0-16.91,47.328ZM-9.545,50h-2.971V40.49h2.971Zm-3.146-11.962A1.322,1.322,0,0,1-12.234,37a1.724,1.724,0,0,1,1.187-.4,1.724,1.724,0,0,1,1.187.4A1.322,1.322,0,0,1-9.4,38.038a1.322,1.322,0,0,1-.457,1.037,1.724,1.724,0,0,1-1.187.4,1.724,1.724,0,0,1-1.187-.4A1.322,1.322,0,0,1-12.691,38.038Zm9.949,9.29a.684.684,0,0,0-.4-.606,6.016,6.016,0,0,0-1.5-.475A6.853,6.853,0,0,1-6.469,45.6a3.062,3.062,0,0,1-1.1-.971,2.319,2.319,0,0,1-.378-1.31,2.628,2.628,0,0,1,1.081-2.158,4.453,4.453,0,0,1,2.83-.848,4.934,4.934,0,0,1,3.023.853A2.666,2.666,0,0,1,.132,43.408H-2.839q0-1.143-1.2-1.143a1.194,1.194,0,0,0-.782.259.8.8,0,0,0-.316.646.737.737,0,0,0,.387.642,3.654,3.654,0,0,0,1.235.4,10.671,10.671,0,0,1,1.49.378A2.706,2.706,0,0,1,.114,47.24a2.491,2.491,0,0,1-1.156,2.118,5.068,5.068,0,0,1-2.993.817,5.172,5.172,0,0,1-2.18-.439,3.645,3.645,0,0,1-1.494-1.2,2.707,2.707,0,0,1-.536-1.591h2.769a1.145,1.145,0,0,0,.439.962,1.808,1.808,0,0,0,1.081.3,1.422,1.422,0,0,0,.91-.246A.787.787,0,0,0-2.742,47.328Zm7.69-9.2V40.49H6.513v2.057H4.948V46.9a1.111,1.111,0,0,0,.193.747,1.037,1.037,0,0,0,.765.211,4.345,4.345,0,0,0,.738-.053v2.118a5.466,5.466,0,0,1-1.67.255,3.1,3.1,0,0,1-2.259-.721,2.954,2.954,0,0,1-.729-2.188v-4.72H.773V40.49H1.986V38.126Zm7.33,12.05a4.889,4.889,0,0,1-3.542-1.305,4.507,4.507,0,0,1-1.354-3.4v-.246a5.84,5.84,0,0,1,.541-2.575A3.955,3.955,0,0,1,9.5,40.925a4.763,4.763,0,0,1,2.461-.611,4.117,4.117,0,0,1,3.164,1.244,4.887,4.887,0,0,1,1.16,3.467v1.151H10.4a2.135,2.135,0,0,0,.694,1.257,2.066,2.066,0,0,0,1.389.457,2.662,2.662,0,0,0,2.2-.984l1.354,1.6a3.784,3.784,0,0,1-1.569,1.217A5.3,5.3,0,0,1,12.278,50.176ZM11.944,42.6q-1.3,0-1.547,1.723h2.988v-.229a1.467,1.467,0,0,0-.36-1.1A1.434,1.434,0,0,0,11.944,42.6Zm8.332-2.109.1,1.116a3.27,3.27,0,0,1,2.716-1.292,2.407,2.407,0,0,1,2.435,1.433,3.165,3.165,0,0,1,2.795-1.433q2.892,0,2.971,3.5V50H28.318V44a1.813,1.813,0,0,0-.246-1.063,1.048,1.048,0,0,0-.9-.334,1.4,1.4,0,0,0-1.31.782l.009.123V50H22.9V44.015a1.906,1.906,0,0,0-.237-1.081,1.045,1.045,0,0,0-.905-.334,1.42,1.42,0,0,0-1.3.782V50H17.5V40.49ZM38.338,50a3.344,3.344,0,0,1-.281-.853,2.754,2.754,0,0,1-2.285,1.028,3.374,3.374,0,0,1-2.285-.813,2.588,2.588,0,0,1-.94-2.043,2.66,2.66,0,0,1,1.143-2.338,5.821,5.821,0,0,1,3.322-.791h.914v-.5q0-1.316-1.134-1.316a.927.927,0,0,0-1.055,1.042H32.774a2.655,2.655,0,0,1,1.173-2.239,4.931,4.931,0,0,1,2.993-.86,4.323,4.323,0,0,1,2.874.888A3.086,3.086,0,0,1,40.9,43.637v4.21a4.311,4.311,0,0,0,.4,2V50Zm-1.854-1.934a1.652,1.652,0,0,0,.918-.237,1.487,1.487,0,0,0,.523-.536V45.772h-.861q-1.547,0-1.547,1.389a.848.848,0,0,0,.272.655A.986.986,0,0,0,36.483,48.066Z" transform="translate(1132 3183.685)" fill="#12263f"/><g transform="translate(379 3112.685)" fill="#ff854e"><path d="M 19 37 C 14.19202995300293 37 9.671830177307129 35.12767028808594 6.272079944610596 31.72792053222656 C 2.872329950332642 28.32817077636719 1 23.80797004699707 1 19 C 1 14.19202995300293 2.872329950332642 9.671830177307129 6.272079944610596 6.272079944610596 C 9.671830177307129 2.872329950332642 14.19202995300293 1 19 1 C 23.80797004699707 1 28.32817077636719 2.872329950332642 31.72792053222656 6.272079944610596 C 35.12767028808594 9.671830177307129 37 14.19202995300293 37 19 C 37 23.80797004699707 35.12767028808594 28.32817077636719 31.72792053222656 31.72792053222656 C 28.32817077636719 35.12767028808594 23.80797004699707 37 19 37 Z" stroke="none"/><path d="M 19 2 C 14.45914077758789 2 10.19005966186523 3.768310546875 6.979179382324219 6.979179382324219 C 3.768310546875 10.19005966186523 2 14.45914077758789 2 19 C 2 23.54085922241211 3.768310546875 27.80994033813477 6.979179382324219 31.02082061767578 C 10.19005966186523 34.231689453125 14.45914077758789 36 19 36 C 23.54085922241211 36 27.80994033813477 34.231689453125 31.02082061767578 31.02082061767578 C 34.231689453125 27.80994033813477 36 23.54085922241211 36 19 C 36 14.45914077758789 34.231689453125 10.19005966186523 31.02082061767578 6.979179382324219 C 27.80994033813477 3.768310546875 23.54085922241211 2 19 2 M 19 0 C 29.49341011047363 0 38 8.506589889526367 38 19 C 38 29.49341011047363 29.49341011047363 38 19 38 C 8.506589889526367 38 0 29.49341011047363 0 19 C 0 8.506589889526367 8.506589889526367 0 19 0 Z" stroke="none" fill="#fff"/></g><g transform="translate(625 3112.685)" fill="#ff854e"><path d="M 19 37 C 14.19202995300293 37 9.671830177307129 35.12767028808594 6.272079944610596 31.72792053222656 C 2.872329950332642 28.32817077636719 1 23.80797004699707 1 19 C 1 14.19202995300293 2.872329950332642 9.671830177307129 6.272079944610596 6.272079944610596 C 9.671830177307129 2.872329950332642 14.19202995300293 1 19 1 C 23.80797004699707 1 28.32817077636719 2.872329950332642 31.72792053222656 6.272079944610596 C 35.12767028808594 9.671830177307129 37 14.19202995300293 37 19 C 37 23.80797004699707 35.12767028808594 28.32817077636719 31.72792053222656 31.72792053222656 C 28.32817077636719 35.12767028808594 23.80797004699707 37 19 37 Z" stroke="none"/><path d="M 19 2 C 14.45914077758789 2 10.19005966186523 3.768310546875 6.979179382324219 6.979179382324219 C 3.768310546875 10.19005966186523 2 14.45914077758789 2 19 C 2 23.54085922241211 3.768310546875 27.80994033813477 6.979179382324219 31.02082061767578 C 10.19005966186523 34.231689453125 14.45914077758789 36 19 36 C 23.54085922241211 36 27.80994033813477 34.231689453125 31.02082061767578 31.02082061767578 C 34.231689453125 27.80994033813477 36 23.54085922241211 36 19 C 36 14.45914077758789 34.231689453125 10.19005966186523 31.02082061767578 6.979179382324219 C 27.80994033813477 3.768310546875 23.54085922241211 2 19 2 M 19 0 C 29.49341011047363 0 38 8.506589889526367 38 19 C 38 29.49341011047363 29.49341011047363 38 19 38 C 8.506589889526367 38 0 29.49341011047363 0 19 C 0 8.506589889526367 8.506589889526367 0 19 0 Z" stroke="none" fill="#fff"/></g><g transform="translate(868 3112.685)" fill="#ff854e"><path d="M 19 37 C 14.19202995300293 37 9.671830177307129 35.12767028808594 6.272079944610596 31.72792053222656 C 2.872329950332642 28.32817077636719 1 23.80797004699707 1 19 C 1 14.19202995300293 2.872329950332642 9.671830177307129 6.272079944610596 6.272079944610596 C 9.671830177307129 2.872329950332642 14.19202995300293 1 19 1 C 23.80797004699707 1 28.32817077636719 2.872329950332642 31.72792053222656 6.272079944610596 C 35.12767028808594 9.671830177307129 37 14.19202995300293 37 19 C 37 23.80797004699707 35.12767028808594 28.32817077636719 31.72792053222656 31.72792053222656 C 28.32817077636719 35.12767028808594 23.80797004699707 37 19 37 Z" stroke="none"/><path d="M 19 2 C 14.45914077758789 2 10.19005966186523 3.768310546875 6.979179382324219 6.979179382324219 C 3.768310546875 10.19005966186523 2 14.45914077758789 2 19 C 2 23.54085922241211 3.768310546875 27.80994033813477 6.979179382324219 31.02082061767578 C 10.19005966186523 34.231689453125 14.45914077758789 36 19 36 C 23.54085922241211 36 27.80994033813477 34.231689453125 31.02082061767578 31.02082061767578 C 34.231689453125 27.80994033813477 36 23.54085922241211 36 19 C 36 14.45914077758789 34.231689453125 10.19005966186523 31.02082061767578 6.979179382324219 C 27.80994033813477 3.768310546875 23.54085922241211 2 19 2 M 19 0 C 29.49341011047363 0 38 8.506589889526367 38 19 C 38 29.49341011047363 29.49341011047363 38 19 38 C 8.506589889526367 38 0 29.49341011047363 0 19 C 0 8.506589889526367 8.506589889526367 0 19 0 Z" stroke="none" fill="#fff"/></g><g transform="translate(1113 3112.685)" fill="#ff854e"><path d="M 19 37 C 14.19202995300293 37 9.671830177307129 35.12767028808594 6.272079944610596 31.72792053222656 C 2.872329950332642 28.32817077636719 1 23.80797004699707 1 19 C 1 14.19202995300293 2.872329950332642 9.671830177307129 6.272079944610596 6.272079944610596 C 9.671830177307129 2.872329950332642 14.19202995300293 1 19 1 C 23.80797004699707 1 28.32817077636719 2.872329950332642 31.72792053222656 6.272079944610596 C 35.12767028808594 9.671830177307129 37 14.19202995300293 37 19 C 37 23.80797004699707 35.12767028808594 28.32817077636719 31.72792053222656 31.72792053222656 C 28.32817077636719 35.12767028808594 23.80797004699707 37 19 37 Z" stroke="none"/><path d="M 19 2 C 14.45914077758789 2 10.19005966186523 3.768310546875 6.979179382324219 6.979179382324219 C 3.768310546875 10.19005966186523 2 14.45914077758789 2 19 C 2 23.54085922241211 3.768310546875 27.80994033813477 6.979179382324219 31.02082061767578 C 10.19005966186523 34.231689453125 14.45914077758789 36 19 36 C 23.54085922241211 36 27.80994033813477 34.231689453125 31.02082061767578 31.02082061767578 C 34.231689453125 27.80994033813477 36 23.54085922241211 36 19 C 36 14.45914077758789 34.231689453125 10.19005966186523 31.02082061767578 6.979179382324219 C 27.80994033813477 3.768310546875 23.54085922241211 2 19 2 M 19 0 C 29.49341011047363 0 38 8.506589889526367 38 19 C 38 29.49341011047363 29.49341011047363 38 19 38 C 8.506589889526367 38 0 29.49341011047363 0 19 C 0 8.506589889526367 8.506589889526367 0 19 0 Z" stroke="none" fill="#fff"/></g></g></svg>