<svg xmlns="http://www.w3.org/2000/svg" width="1328" height="978" viewBox="0 0 1328 978">
  <g id="Grupo_848777" data-name="Grupo 848777" transform="translate(-181 -251)">
    <path id="Trazado_574591" data-name="Trazado 574591" d="M20,0H1308a20,20,0,0,1,20,20V958a20,20,0,0,1-20,20H20A20,20,0,0,1,0,958V20A20,20,0,0,1,20,0Z" transform="translate(181 251)" fill="#fff"/>
    <path id="Trazado_574592" data-name="Trazado 574592" d="M0,0H335V121H0Z" transform="translate(633 534)" fill="#ff854e"/>
    <path id="Trazado_574593" data-name="Trazado 574593" d="M-96.6-4.342V0h-3.085V-12.8h5.106a5.948,5.948,0,0,1,2.6.541,4.074,4.074,0,0,1,1.749,1.538,4.2,4.2,0,0,1,.62,2.263,3.7,3.7,0,0,1-1.34,2.993,5.561,5.561,0,0,1-3.678,1.121Zm0-2.382h2.021a1.906,1.906,0,0,0,1.367-.448,1.665,1.665,0,0,0,.47-1.266,2.059,2.059,0,0,0-.483-1.433,1.712,1.712,0,0,0-1.318-.545H-96.6ZM-84.981,0h-2.971V-13.5h2.971ZM-77.8,0a3.344,3.344,0,0,1-.281-.853A2.754,2.754,0,0,1-80.367.176a3.374,3.374,0,0,1-2.285-.813,2.588,2.588,0,0,1-.94-2.043A2.66,2.66,0,0,1-82.45-5.019a5.821,5.821,0,0,1,3.322-.791h.914v-.5q0-1.316-1.134-1.316A.927.927,0,0,0-80.4-6.587h-2.962a2.655,2.655,0,0,1,1.173-2.239,4.931,4.931,0,0,1,2.993-.86,4.323,4.323,0,0,1,2.874.888,3.086,3.086,0,0,1,1.081,2.435v4.21a4.311,4.311,0,0,0,.4,2V0Zm-1.854-1.934a1.652,1.652,0,0,0,.918-.237,1.487,1.487,0,0,0,.523-.536V-4.228h-.861q-1.547,0-1.547,1.389a.848.848,0,0,0,.272.655A.986.986,0,0,0-79.655-1.934Zm8.771-7.576.1,1.116a3.225,3.225,0,0,1,2.716-1.292,2.713,2.713,0,0,1,2.219.888,4.226,4.226,0,0,1,.76,2.672V0h-2.971V-6a1.6,1.6,0,0,0-.29-1.059A1.342,1.342,0,0,0-69.407-7.4a1.413,1.413,0,0,0-1.292.686V0h-2.962V-9.51Zm11.54,4.685a5.809,5.809,0,0,1,.976-3.56,3.211,3.211,0,0,1,2.725-1.3,2.731,2.731,0,0,1,2.145,1V-13.5h2.971V0h-2.663l-.149-1.02a2.8,2.8,0,0,1-2.32,1.2,3.205,3.205,0,0,1-2.689-1.3A5.993,5.993,0,0,1-59.344-4.825Zm2.962.185q0,2.531,1.477,2.531A1.458,1.458,0,0,0-53.5-2.936V-6.557A1.419,1.419,0,0,0-54.888-7.4q-1.371,0-1.485,2.215ZM-44.244.176a4.889,4.889,0,0,1-3.542-1.305,4.507,4.507,0,0,1-1.354-3.4v-.246A5.84,5.84,0,0,1-48.6-7.348a3.955,3.955,0,0,1,1.578-1.727,4.763,4.763,0,0,1,2.461-.611A4.117,4.117,0,0,1-41.4-8.442a4.887,4.887,0,0,1,1.16,3.467v1.151h-5.889a2.135,2.135,0,0,0,.694,1.257,2.066,2.066,0,0,0,1.389.457,2.662,2.662,0,0,0,2.2-.984l1.354,1.6A3.784,3.784,0,0,1-42.06-.277,5.3,5.3,0,0,1-44.244.176ZM-44.578-7.4q-1.3,0-1.547,1.723h2.988v-.229a1.467,1.467,0,0,0-.36-1.1A1.434,1.434,0,0,0-44.578-7.4ZM-31.14,0h-3.076V-12.8h3.076Zm4.808-9.51.1,1.116A3.27,3.27,0,0,1-23.52-9.686a2.407,2.407,0,0,1,2.435,1.433A3.165,3.165,0,0,1-18.29-9.686q2.892,0,2.971,3.5V0H-18.29V-6a1.813,1.813,0,0,0-.246-1.063,1.048,1.048,0,0,0-.9-.334,1.4,1.4,0,0,0-1.31.782l.009.123V0H-23.7V-5.985a1.906,1.906,0,0,0-.237-1.081,1.045,1.045,0,0,0-.905-.334,1.42,1.42,0,0,0-1.3.782V0h-2.962V-9.51ZM-4.8-4.685a5.735,5.735,0,0,1-1,3.538A3.2,3.2,0,0,1-8.49.176a2.742,2.742,0,0,1-2.153-.958V3.656h-2.962V-9.51h2.769l.088.879A2.742,2.742,0,0,1-8.508-9.686a3.224,3.224,0,0,1,2.733,1.3A5.805,5.805,0,0,1-4.8-4.825Zm-2.962-.185q0-2.531-1.477-2.531a1.394,1.394,0,0,0-1.406.756V-2.9a1.439,1.439,0,0,0,1.424.791q1.415,0,1.459-2.443ZM-.369,0H-3.34V-13.5H-.369ZM6.056.176A4.889,4.889,0,0,1,2.514-1.129a4.507,4.507,0,0,1-1.354-3.4v-.246A5.84,5.84,0,0,1,1.7-7.348,3.955,3.955,0,0,1,3.278-9.075a4.763,4.763,0,0,1,2.461-.611A4.117,4.117,0,0,1,8.9-8.442a4.887,4.887,0,0,1,1.16,3.467v1.151H4.175a2.135,2.135,0,0,0,.694,1.257,2.066,2.066,0,0,0,1.389.457,2.662,2.662,0,0,0,2.2-.984l1.354,1.6A3.784,3.784,0,0,1,8.24-.277,5.3,5.3,0,0,1,6.056.176ZM5.722-7.4q-1.3,0-1.547,1.723H7.163v-.229a1.467,1.467,0,0,0-.36-1.1A1.434,1.434,0,0,0,5.722-7.4ZM14.054-9.51l.1,1.116a3.27,3.27,0,0,1,2.716-1.292A2.407,2.407,0,0,1,19.3-8.253,3.165,3.165,0,0,1,22.1-9.686q2.892,0,2.971,3.5V0H22.1V-6a1.813,1.813,0,0,0-.246-1.063,1.048,1.048,0,0,0-.9-.334,1.4,1.4,0,0,0-1.31.782l.009.123V0H16.682V-5.985a1.906,1.906,0,0,0-.237-1.081,1.045,1.045,0,0,0-.905-.334,1.42,1.42,0,0,0-1.3.782V0H11.276V-9.51ZM31.359.176a4.889,4.889,0,0,1-3.542-1.305,4.507,4.507,0,0,1-1.354-3.4v-.246A5.84,5.84,0,0,1,27-7.348a3.955,3.955,0,0,1,1.578-1.727,4.763,4.763,0,0,1,2.461-.611,4.117,4.117,0,0,1,3.164,1.244,4.887,4.887,0,0,1,1.16,3.467v1.151H29.479a2.135,2.135,0,0,0,.694,1.257,2.066,2.066,0,0,0,1.389.457,2.662,2.662,0,0,0,2.2-.984l1.354,1.6A3.784,3.784,0,0,1,33.543-.277,5.3,5.3,0,0,1,31.359.176ZM31.025-7.4q-1.3,0-1.547,1.723h2.988v-.229a1.467,1.467,0,0,0-.36-1.1A1.434,1.434,0,0,0,31.025-7.4ZM39.278-9.51l.1,1.116a3.225,3.225,0,0,1,2.716-1.292A2.713,2.713,0,0,1,44.31-8.8a4.226,4.226,0,0,1,.76,2.672V0H42.1V-6a1.6,1.6,0,0,0-.29-1.059A1.342,1.342,0,0,0,40.755-7.4a1.413,1.413,0,0,0-1.292.686V0H36.5V-9.51Zm10.881-2.364V-9.51h1.564v2.057H50.159V-3.1a1.111,1.111,0,0,0,.193.747,1.037,1.037,0,0,0,.765.211,4.345,4.345,0,0,0,.738-.053V-.079a5.466,5.466,0,0,1-1.67.255,3.1,3.1,0,0,1-2.259-.721A2.954,2.954,0,0,1,47.2-2.733v-4.72H45.984V-9.51H47.2v-2.364ZM58.245,0a3.344,3.344,0,0,1-.281-.853A2.754,2.754,0,0,1,55.679.176a3.374,3.374,0,0,1-2.285-.813,2.588,2.588,0,0,1-.94-2.043A2.66,2.66,0,0,1,53.6-5.019a5.821,5.821,0,0,1,3.322-.791h.914v-.5q0-1.316-1.134-1.316a.927.927,0,0,0-1.055,1.042H52.682a2.655,2.655,0,0,1,1.173-2.239,4.931,4.931,0,0,1,2.993-.86,4.323,4.323,0,0,1,2.874.888A3.086,3.086,0,0,1,60.8-6.363v4.21a4.311,4.311,0,0,0,.4,2V0ZM56.391-1.934a1.652,1.652,0,0,0,.918-.237,1.487,1.487,0,0,0,.523-.536V-4.228h-.861q-1.547,0-1.547,1.389a.848.848,0,0,0,.272.655A.986.986,0,0,0,56.391-1.934Zm10.072-.176a1.317,1.317,0,0,0,.967-.338,1.241,1.241,0,0,0,.334-.945h2.777A3.288,3.288,0,0,1,69.42-.826a4.168,4.168,0,0,1-2.887,1,4.22,4.22,0,0,1-3.27-1.3,5.125,5.125,0,0,1-1.2-3.6v-.123A5.792,5.792,0,0,1,62.6-7.4a3.872,3.872,0,0,1,1.534-1.7,4.573,4.573,0,0,1,2.373-.593,4.116,4.116,0,0,1,2.944,1.028,3.647,3.647,0,0,1,1.09,2.786H67.764A1.626,1.626,0,0,0,67.4-7a1.244,1.244,0,0,0-.967-.4q-1.151,0-1.345,1.468a10.357,10.357,0,0,0-.062,1.283,4.068,4.068,0,0,0,.343,1.986A1.187,1.187,0,0,0,66.463-2.109ZM74.918,0H71.947V-9.51h2.971ZM71.771-11.962A1.322,1.322,0,0,1,72.229-13a1.724,1.724,0,0,1,1.187-.4A1.724,1.724,0,0,1,74.6-13a1.322,1.322,0,0,1,.457,1.037,1.322,1.322,0,0,1-.457,1.037,1.724,1.724,0,0,1-1.187.4,1.724,1.724,0,0,1-1.187-.4A1.322,1.322,0,0,1,71.771-11.962Zm4.6,7.119a5.613,5.613,0,0,1,.554-2.536,3.96,3.96,0,0,1,1.591-1.709,4.791,4.791,0,0,1,2.435-.6,4.373,4.373,0,0,1,3.366,1.323,5.076,5.076,0,0,1,1.23,3.6v.105a4.925,4.925,0,0,1-1.235,3.529A4.384,4.384,0,0,1,80.965.176,4.434,4.434,0,0,1,77.7-1.042a4.761,4.761,0,0,1-1.327-3.3Zm2.962.185a3.538,3.538,0,0,0,.413,1.934,1.376,1.376,0,0,0,1.222.615q1.582,0,1.617-2.435v-.3q0-2.558-1.635-2.558-1.485,0-1.608,2.206ZM81.352-13.5H84.48l-2.443,2.76-2.417,0Zm8.218,3.99.1,1.116a3.225,3.225,0,0,1,2.716-1.292A2.713,2.713,0,0,1,94.6-8.8a4.226,4.226,0,0,1,.76,2.672V0H92.391V-6a1.6,1.6,0,0,0-.29-1.059A1.342,1.342,0,0,0,91.046-7.4a1.413,1.413,0,0,0-1.292.686V0H86.792V-9.51ZM-27.514,25V12.2h4.6a6.509,6.509,0,0,1,3.757.905,3.012,3.012,0,0,1,1.288,2.628,3.045,3.045,0,0,1-.457,1.7,2.663,2.663,0,0,1-1.345,1.037,2.7,2.7,0,0,1,1.538.984,2.862,2.862,0,0,1,.536,1.758,3.388,3.388,0,0,1-1.191,2.826A5.667,5.667,0,0,1-22.32,25Zm3.085-5.44v3.067h2.021a1.923,1.923,0,0,0,1.283-.382,1.338,1.338,0,0,0,.448-1.077,1.419,1.419,0,0,0-1.591-1.608Zm0-2.021h1.608a2.285,2.285,0,0,0,1.441-.37,1.314,1.314,0,0,0,.431-1.067,1.379,1.379,0,0,0-.466-1.168,2.493,2.493,0,0,0-1.5-.357h-1.512Zm11.61,3.12V25H-15.9V12.2H-10.8a5.948,5.948,0,0,1,2.6.541,4.074,4.074,0,0,1,1.749,1.538,4.2,4.2,0,0,1,.62,2.263,3.7,3.7,0,0,1-1.34,2.993,5.561,5.561,0,0,1-3.678,1.121Zm0-2.382H-10.8a1.906,1.906,0,0,0,1.367-.448,1.665,1.665,0,0,0,.47-1.266,2.059,2.059,0,0,0-.483-1.433,1.712,1.712,0,0,0-1.318-.545h-2.057ZM6.289,23.418a4.96,4.96,0,0,1-2.083,1.274,8.984,8.984,0,0,1-3.006.483,5.36,5.36,0,0,1-4.017-1.538,6.226,6.226,0,0,1-1.608-4.28l-.009-1.107a7.637,7.637,0,0,1,.668-3.3,4.96,4.96,0,0,1,1.912-2.171,5.407,5.407,0,0,1,2.878-.76,5.669,5.669,0,0,1,3.713,1.094A4.637,4.637,0,0,1,6.28,16.378H3.309a2.426,2.426,0,0,0-.686-1.529,2.212,2.212,0,0,0-1.494-.457,2.013,2.013,0,0,0-1.793.984,5.256,5.256,0,0,0-.642,2.813v.773A5.145,5.145,0,0,0-.65,21.84a2.316,2.316,0,0,0,2.061.962A2.592,2.592,0,0,0,3.2,22.267V20.28H1.059V18.162H6.289ZM8.082,25V12.2h4.6a6.509,6.509,0,0,1,3.757.905,3.012,3.012,0,0,1,1.288,2.628,3.045,3.045,0,0,1-.457,1.7,2.663,2.663,0,0,1-1.345,1.037,2.7,2.7,0,0,1,1.538.984A2.862,2.862,0,0,1,18,21.212,3.388,3.388,0,0,1,16.8,24.038,5.667,5.667,0,0,1,13.276,25Zm3.085-5.44v3.067h2.021a1.923,1.923,0,0,0,1.283-.382,1.338,1.338,0,0,0,.448-1.077,1.419,1.419,0,0,0-1.591-1.608Zm0-2.021h1.608a2.285,2.285,0,0,0,1.441-.37,1.314,1.314,0,0,0,.431-1.067,1.379,1.379,0,0,0-.466-1.168,2.493,2.493,0,0,0-1.5-.357H11.167Zm11.61,5.089h5.37V25H19.692V12.2h3.085Z" transform="translate(800 589)" fill="#fff"/>
    <path id="Trazado_574594" data-name="Trazado 574594" d="M0,0H251V121H0Z" transform="translate(220 796)" fill="#ebf5e7"/>
    <path id="Trazado_574595" data-name="Trazado 574595" d="M-102.727-4.342V0h-3.085V-12.8h5.106a5.948,5.948,0,0,1,2.6.541,4.074,4.074,0,0,1,1.749,1.538,4.2,4.2,0,0,1,.62,2.263,3.7,3.7,0,0,1-1.34,2.993,5.561,5.561,0,0,1-3.678,1.121Zm0-2.382h2.021a1.906,1.906,0,0,0,1.367-.448,1.665,1.665,0,0,0,.47-1.266,2.059,2.059,0,0,0-.483-1.433,1.712,1.712,0,0,0-1.318-.545h-2.057Zm14.247-.105-.976-.07a1.752,1.752,0,0,0-1.793.879V0H-94.21V-9.51h2.777l.1,1.222a2.294,2.294,0,0,1,2.083-1.4,2.888,2.888,0,0,1,.826.105Zm.378,1.986a5.613,5.613,0,0,1,.554-2.536,3.96,3.96,0,0,1,1.591-1.709,4.791,4.791,0,0,1,2.435-.6,4.373,4.373,0,0,1,3.366,1.323,5.076,5.076,0,0,1,1.23,3.6v.105a4.925,4.925,0,0,1-1.235,3.529A4.384,4.384,0,0,1-83.5.176a4.434,4.434,0,0,1-3.261-1.217,4.761,4.761,0,0,1-1.327-3.3Zm2.962.185a3.538,3.538,0,0,0,.413,1.934,1.376,1.376,0,0,0,1.222.615q1.582,0,1.617-2.435v-.3q0-2.558-1.635-2.558-1.485,0-1.608,2.206ZM-73.6-2.109a1.317,1.317,0,0,0,.967-.338,1.241,1.241,0,0,0,.334-.945h2.777A3.288,3.288,0,0,1-70.642-.826a4.168,4.168,0,0,1-2.887,1,4.22,4.22,0,0,1-3.27-1.3,5.125,5.125,0,0,1-1.2-3.6v-.123A5.792,5.792,0,0,1-77.462-7.4a3.872,3.872,0,0,1,1.534-1.7,4.573,4.573,0,0,1,2.373-.593,4.116,4.116,0,0,1,2.944,1.028,3.647,3.647,0,0,1,1.09,2.786H-72.3A1.626,1.626,0,0,0-72.659-7a1.244,1.244,0,0,0-.967-.4q-1.151,0-1.345,1.468a10.357,10.357,0,0,0-.062,1.283,4.068,4.068,0,0,0,.343,1.986A1.187,1.187,0,0,0-73.6-2.109ZM-63.668.176A4.889,4.889,0,0,1-67.21-1.129a4.507,4.507,0,0,1-1.354-3.4v-.246a5.84,5.84,0,0,1,.541-2.575,3.955,3.955,0,0,1,1.578-1.727,4.763,4.763,0,0,1,2.461-.611A4.117,4.117,0,0,1-60.82-8.442a4.887,4.887,0,0,1,1.16,3.467v1.151h-5.889a2.135,2.135,0,0,0,.694,1.257,2.066,2.066,0,0,0,1.389.457,2.662,2.662,0,0,0,2.2-.984l1.354,1.6A3.784,3.784,0,0,1-61.484-.277,5.3,5.3,0,0,1-63.668.176ZM-64-7.4q-1.3,0-1.547,1.723h2.988v-.229a1.467,1.467,0,0,0-.36-1.1A1.434,1.434,0,0,0-64-7.4Zm5.159,2.575a5.809,5.809,0,0,1,.976-3.56,3.211,3.211,0,0,1,2.725-1.3,2.731,2.731,0,0,1,2.145,1V-13.5h2.971V0H-52.69l-.149-1.02a2.8,2.8,0,0,1-2.32,1.2,3.205,3.205,0,0,1-2.689-1.3A5.993,5.993,0,0,1-58.843-4.825Zm2.962.185q0,2.531,1.477,2.531A1.458,1.458,0,0,0-53-2.936V-6.557A1.419,1.419,0,0,0-54.387-7.4q-1.371,0-1.485,2.215ZM-45.22,0H-48.19V-9.51h2.971Zm-3.146-11.962A1.322,1.322,0,0,1-47.909-13a1.724,1.724,0,0,1,1.187-.4,1.724,1.724,0,0,1,1.187.4,1.322,1.322,0,0,1,.457,1.037,1.322,1.322,0,0,1-.457,1.037,1.724,1.724,0,0,1-1.187.4,1.724,1.724,0,0,1-1.187-.4A1.322,1.322,0,0,1-48.366-11.962ZM-40.6-9.51l.1,1.116a3.27,3.27,0,0,1,2.716-1.292A2.407,2.407,0,0,1-35.35-8.253a3.165,3.165,0,0,1,2.795-1.433q2.892,0,2.971,3.5V0h-2.971V-6A1.813,1.813,0,0,0-32.8-7.066a1.048,1.048,0,0,0-.9-.334,1.4,1.4,0,0,0-1.31.782L-35-6.5V0h-2.971V-5.985a1.906,1.906,0,0,0-.237-1.081,1.045,1.045,0,0,0-.905-.334,1.42,1.42,0,0,0-1.3.782V0h-2.962V-9.51ZM-24.768,0h-2.971V-9.51h2.971Zm-3.146-11.962A1.322,1.322,0,0,1-27.457-13a1.724,1.724,0,0,1,1.187-.4,1.724,1.724,0,0,1,1.187.4,1.322,1.322,0,0,1,.457,1.037,1.322,1.322,0,0,1-.457,1.037,1.724,1.724,0,0,1-1.187.4,1.724,1.724,0,0,1-1.187-.4A1.322,1.322,0,0,1-27.914-11.962ZM-18.343.176a4.889,4.889,0,0,1-3.542-1.305,4.507,4.507,0,0,1-1.354-3.4v-.246A5.84,5.84,0,0,1-22.7-7.348,3.955,3.955,0,0,1-21.12-9.075a4.763,4.763,0,0,1,2.461-.611A4.117,4.117,0,0,1-15.5-8.442a4.887,4.887,0,0,1,1.16,3.467v1.151h-5.889a2.135,2.135,0,0,0,.694,1.257,2.066,2.066,0,0,0,1.389.457,2.662,2.662,0,0,0,2.2-.984l1.354,1.6A3.784,3.784,0,0,1-16.159-.277,5.3,5.3,0,0,1-18.343.176ZM-18.677-7.4q-1.3,0-1.547,1.723h2.988v-.229a1.467,1.467,0,0,0-.36-1.1A1.434,1.434,0,0,0-18.677-7.4Zm8.253-2.109.1,1.116A3.225,3.225,0,0,1-7.611-9.686,2.713,2.713,0,0,1-5.392-8.8a4.226,4.226,0,0,1,.76,2.672V0H-7.6V-6a1.6,1.6,0,0,0-.29-1.059A1.342,1.342,0,0,0-8.947-7.4a1.413,1.413,0,0,0-1.292.686V0H-13.2V-9.51ZM.457-11.874V-9.51H2.021v2.057H.457V-3.1a1.111,1.111,0,0,0,.193.747,1.037,1.037,0,0,0,.765.211A4.345,4.345,0,0,0,2.153-2.2V-.079A5.466,5.466,0,0,1,.483.176,3.1,3.1,0,0,1-1.775-.545,2.954,2.954,0,0,1-2.5-2.733v-4.72H-3.718V-9.51H-2.5v-2.364ZM2.549-4.843A5.613,5.613,0,0,1,3.1-7.378,3.96,3.96,0,0,1,4.693-9.088a4.791,4.791,0,0,1,2.435-.6,4.373,4.373,0,0,1,3.366,1.323,5.076,5.076,0,0,1,1.23,3.6v.105A4.925,4.925,0,0,1,10.49-1.129,4.384,4.384,0,0,1,7.146.176,4.434,4.434,0,0,1,3.885-1.042a4.761,4.761,0,0,1-1.327-3.3Zm2.962.185a3.538,3.538,0,0,0,.413,1.934,1.376,1.376,0,0,0,1.222.615q1.582,0,1.617-2.435v-.3Q8.763-7.4,7.128-7.4,5.643-7.4,5.52-5.194Zm12.5,1.986a.684.684,0,0,0-.4-.606,6.016,6.016,0,0,0-1.5-.475A6.853,6.853,0,0,1,14.282-4.4a3.062,3.062,0,0,1-1.1-.971,2.319,2.319,0,0,1-.378-1.31,2.628,2.628,0,0,1,1.081-2.158,4.453,4.453,0,0,1,2.83-.848,4.934,4.934,0,0,1,3.023.853,2.666,2.666,0,0,1,1.143,2.241H17.912q0-1.143-1.2-1.143a1.194,1.194,0,0,0-.782.259.8.8,0,0,0-.316.646A.737.737,0,0,0,16-6.187a3.654,3.654,0,0,0,1.235.4,10.671,10.671,0,0,1,1.49.378A2.706,2.706,0,0,1,20.865-2.76,2.491,2.491,0,0,1,19.709-.642a5.068,5.068,0,0,1-2.993.817,5.172,5.172,0,0,1-2.18-.439,3.645,3.645,0,0,1-1.494-1.2,2.707,2.707,0,0,1-.536-1.591h2.769a1.145,1.145,0,0,0,.439.962,1.808,1.808,0,0,0,1.081.3,1.422,1.422,0,0,0,.91-.246A.787.787,0,0,0,18.009-2.672Zm5.282,6.117-1.494-.7.3-.6a4.874,4.874,0,0,0,.642-2.18v-2.2H25.11L25.1-.325a4.767,4.767,0,0,1-.519,2.057A5.226,5.226,0,0,1,23.291,3.445ZM34.8-4.342V0H31.72V-12.8h5.106a5.948,5.948,0,0,1,2.6.541,4.074,4.074,0,0,1,1.749,1.538,4.2,4.2,0,0,1,.62,2.263,3.7,3.7,0,0,1-1.34,2.993,5.561,5.561,0,0,1-3.678,1.121Zm0-2.382h2.021a1.906,1.906,0,0,0,1.367-.448,1.665,1.665,0,0,0,.47-1.266A2.059,2.059,0,0,0,38.18-9.87a1.712,1.712,0,0,0-1.318-.545H34.8Zm14.247-.105-.976-.07a1.752,1.752,0,0,0-1.793.879V0H43.321V-9.51H46.1l.1,1.222a2.294,2.294,0,0,1,2.083-1.4,2.888,2.888,0,0,1,.826.105Zm.378,1.986a5.613,5.613,0,0,1,.554-2.536,3.96,3.96,0,0,1,1.591-1.709,4.791,4.791,0,0,1,2.435-.6,4.373,4.373,0,0,1,3.366,1.323,5.076,5.076,0,0,1,1.23,3.6v.105a4.925,4.925,0,0,1-1.235,3.529A4.384,4.384,0,0,1,54.026.176a4.434,4.434,0,0,1-3.261-1.217,4.761,4.761,0,0,1-1.327-3.3Zm2.962.185A3.538,3.538,0,0,0,52.8-2.725a1.376,1.376,0,0,0,1.222.615q1.582,0,1.617-2.435v-.3q0-2.558-1.635-2.558-1.485,0-1.608,2.206Zm11.54,2.549a1.317,1.317,0,0,0,.967-.338,1.241,1.241,0,0,0,.334-.945H68.01A3.288,3.288,0,0,1,66.889-.826,4.168,4.168,0,0,1,64,.176a4.22,4.22,0,0,1-3.27-1.3,5.125,5.125,0,0,1-1.2-3.6v-.123A5.792,5.792,0,0,1,60.069-7.4a3.872,3.872,0,0,1,1.534-1.7,4.573,4.573,0,0,1,2.373-.593A4.116,4.116,0,0,1,66.92-8.657a3.647,3.647,0,0,1,1.09,2.786H65.232A1.626,1.626,0,0,0,64.872-7a1.244,1.244,0,0,0-.967-.4q-1.151,0-1.345,1.468A10.357,10.357,0,0,0,62.5-4.649a4.068,4.068,0,0,0,.343,1.986A1.187,1.187,0,0,0,63.932-2.109ZM73.863.176a4.889,4.889,0,0,1-3.542-1.305,4.507,4.507,0,0,1-1.354-3.4v-.246a5.84,5.84,0,0,1,.541-2.575,3.955,3.955,0,0,1,1.578-1.727,4.763,4.763,0,0,1,2.461-.611,4.117,4.117,0,0,1,3.164,1.244,4.887,4.887,0,0,1,1.16,3.467v1.151H71.982a2.135,2.135,0,0,0,.694,1.257,2.066,2.066,0,0,0,1.389.457,2.662,2.662,0,0,0,2.2-.984l1.354,1.6A3.784,3.784,0,0,1,76.047-.277,5.3,5.3,0,0,1,73.863.176ZM73.529-7.4q-1.3,0-1.547,1.723h2.988v-.229a1.467,1.467,0,0,0-.36-1.1A1.434,1.434,0,0,0,73.529-7.4ZM84.041-2.672a.684.684,0,0,0-.4-.606,6.016,6.016,0,0,0-1.5-.475A6.853,6.853,0,0,1,80.314-4.4a3.062,3.062,0,0,1-1.1-.971,2.319,2.319,0,0,1-.378-1.31,2.628,2.628,0,0,1,1.081-2.158,4.453,4.453,0,0,1,2.83-.848,4.934,4.934,0,0,1,3.023.853,2.666,2.666,0,0,1,1.143,2.241H83.944q0-1.143-1.2-1.143a1.194,1.194,0,0,0-.782.259.8.8,0,0,0-.316.646.737.737,0,0,0,.387.642,3.654,3.654,0,0,0,1.235.4,10.671,10.671,0,0,1,1.49.378A2.706,2.706,0,0,1,86.9-2.76,2.491,2.491,0,0,1,85.742-.642a5.068,5.068,0,0,1-2.993.817,5.172,5.172,0,0,1-2.18-.439,3.645,3.645,0,0,1-1.494-1.2,2.707,2.707,0,0,1-.536-1.591h2.769a1.145,1.145,0,0,0,.439.962,1.808,1.808,0,0,0,1.081.3,1.422,1.422,0,0,0,.91-.246A.787.787,0,0,0,84.041-2.672Zm3.867-2.171a5.613,5.613,0,0,1,.554-2.536,3.96,3.96,0,0,1,1.591-1.709,4.791,4.791,0,0,1,2.435-.6,4.373,4.373,0,0,1,3.366,1.323,5.076,5.076,0,0,1,1.23,3.6v.105a4.925,4.925,0,0,1-1.235,3.529A4.384,4.384,0,0,1,92.5.176a4.434,4.434,0,0,1-3.261-1.217,4.761,4.761,0,0,1-1.327-3.3Zm2.962.185a3.538,3.538,0,0,0,.413,1.934,1.376,1.376,0,0,0,1.222.615q1.582,0,1.617-2.435v-.3q0-2.558-1.635-2.558Q91-7.4,90.879-5.194Zm12.5,1.986a.684.684,0,0,0-.4-.606,6.016,6.016,0,0,0-1.5-.475A6.853,6.853,0,0,1,99.642-4.4a3.062,3.062,0,0,1-1.1-.971,2.319,2.319,0,0,1-.378-1.31,2.628,2.628,0,0,1,1.081-2.158,4.453,4.453,0,0,1,2.83-.848,4.934,4.934,0,0,1,3.023.853,2.666,2.666,0,0,1,1.143,2.241h-2.971q0-1.143-1.2-1.143a1.194,1.194,0,0,0-.782.259.8.8,0,0,0-.316.646.737.737,0,0,0,.387.642,3.654,3.654,0,0,0,1.235.4,10.671,10.671,0,0,1,1.49.378,2.706,2.706,0,0,1,2.145,2.646,2.491,2.491,0,0,1-1.156,2.118,5.068,5.068,0,0,1-2.993.817A5.172,5.172,0,0,1,99.9-.264a3.645,3.645,0,0,1-1.494-1.2,2.707,2.707,0,0,1-.536-1.591h2.769a1.145,1.145,0,0,0,.439.962,1.808,1.808,0,0,0,1.081.3,1.422,1.422,0,0,0,.91-.246A.787.787,0,0,0,103.368-2.672ZM-41.309,20.852l1.582-5.361h3.173l-3.876,11.1-.167.4a2.944,2.944,0,0,1-2.918,1.846,4.642,4.642,0,0,1-1.222-.175v-2.11h.387a2.026,2.026,0,0,0,.954-.18,1.094,1.094,0,0,0,.488-.647l.237-.633-3.3-9.605h3.164Zm14.9-.378h-1.67V25h-3.085V12.2h5.036a5.621,5.621,0,0,1,3.56,1.01,3.421,3.421,0,0,1,1.283,2.853,4.155,4.155,0,0,1-.541,2.213A3.837,3.837,0,0,1-23.52,19.7l2.672,5.167V25h-3.3Zm-1.67-2.373h1.951a1.751,1.751,0,0,0,1.323-.463,1.788,1.788,0,0,0,.444-1.291,1.809,1.809,0,0,0-.448-1.3,1.735,1.735,0,0,0-1.318-.471h-1.951Zm13.122,7.075A4.889,4.889,0,0,1-18.5,23.871a4.507,4.507,0,0,1-1.354-3.4v-.246a5.84,5.84,0,0,1,.541-2.575,3.955,3.955,0,0,1,1.578-1.727,4.763,4.763,0,0,1,2.461-.611,4.117,4.117,0,0,1,3.164,1.244,4.887,4.887,0,0,1,1.16,3.467v1.151H-16.84a2.135,2.135,0,0,0,.694,1.257,2.066,2.066,0,0,0,1.389.457,2.662,2.662,0,0,0,2.2-.984l1.354,1.6a3.784,3.784,0,0,1-1.569,1.217A5.3,5.3,0,0,1-14.959,25.176Zm-.334-7.576q-1.3,0-1.547,1.723h2.988v-.229a1.467,1.467,0,0,0-.36-1.1A1.434,1.434,0,0,0-15.293,17.6Zm5.186,2.575a6.421,6.421,0,0,1,.475-2.549,3.821,3.821,0,0,1,1.362-1.709,3.591,3.591,0,0,1,2.065-.6,2.855,2.855,0,0,1,2.32,1l.105-.826H-1.09V24.64a4.009,4.009,0,0,1-.584,2.184,3.75,3.75,0,0,1-1.692,1.424,6.219,6.219,0,0,1-2.566.5,5.365,5.365,0,0,1-2.026-.4,3.657,3.657,0,0,1-1.5-1.028l1.239-1.74a2.716,2.716,0,0,0,2.18.976,1.764,1.764,0,0,0,1.969-2.021v-.3a2.781,2.781,0,0,1-2.153.94,3.437,3.437,0,0,1-2.812-1.332,5.517,5.517,0,0,1-1.072-3.564Zm2.971.185a3.383,3.383,0,0,0,.439,1.85,1.386,1.386,0,0,0,1.23.681,1.573,1.573,0,0,0,1.4-.642v-4a1.534,1.534,0,0,0-1.38-.65,1.4,1.4,0,0,0-1.239.708A3.858,3.858,0,0,0-7.137,20.359ZM3.718,25H.747V15.49H3.718ZM.571,13.038A1.322,1.322,0,0,1,1.028,12a1.724,1.724,0,0,1,1.187-.4A1.724,1.724,0,0,1,3.4,12a1.405,1.405,0,0,1,0,2.074,1.724,1.724,0,0,1-1.187.4,1.724,1.724,0,0,1-1.187-.4A1.322,1.322,0,0,1,.571,13.038Zm9.949,9.29a.684.684,0,0,0-.4-.606,6.016,6.016,0,0,0-1.5-.475A6.853,6.853,0,0,1,6.794,20.6a3.062,3.062,0,0,1-1.1-.971,2.319,2.319,0,0,1-.378-1.31A2.628,2.628,0,0,1,6.4,16.163a4.453,4.453,0,0,1,2.83-.848,4.934,4.934,0,0,1,3.023.853,2.666,2.666,0,0,1,1.143,2.241H10.424q0-1.143-1.2-1.143a1.194,1.194,0,0,0-.782.259.8.8,0,0,0-.316.646.737.737,0,0,0,.387.642,3.654,3.654,0,0,0,1.235.4,10.671,10.671,0,0,1,1.49.378,2.706,2.706,0,0,1,2.145,2.646,2.491,2.491,0,0,1-1.156,2.118,5.068,5.068,0,0,1-2.993.817,5.172,5.172,0,0,1-2.18-.439,3.645,3.645,0,0,1-1.494-1.2,2.707,2.707,0,0,1-.536-1.591H7.787a1.145,1.145,0,0,0,.439.962,1.808,1.808,0,0,0,1.081.3,1.422,1.422,0,0,0,.91-.246A.787.787,0,0,0,10.521,22.328Zm7.69-9.2V15.49h1.564v2.057H18.211V21.9a1.111,1.111,0,0,0,.193.747,1.037,1.037,0,0,0,.765.211,4.345,4.345,0,0,0,.738-.053v2.118a5.466,5.466,0,0,1-1.67.255,3.1,3.1,0,0,1-2.259-.721,2.954,2.954,0,0,1-.729-2.188v-4.72H14.036V15.49h1.213V13.126Zm8.481,5.045-.976-.07a1.752,1.752,0,0,0-1.793.879V25H20.962V15.49h2.777l.1,1.222a2.294,2.294,0,0,1,2.083-1.4,2.888,2.888,0,0,1,.826.105Zm.378,1.986a5.613,5.613,0,0,1,.554-2.536,3.96,3.96,0,0,1,1.591-1.709,4.791,4.791,0,0,1,2.435-.6,4.373,4.373,0,0,1,3.366,1.323,5.076,5.076,0,0,1,1.23,3.6v.105a4.925,4.925,0,0,1-1.235,3.529,4.384,4.384,0,0,1-3.344,1.305,4.434,4.434,0,0,1-3.261-1.217,4.761,4.761,0,0,1-1.327-3.3Zm2.962.185a3.538,3.538,0,0,0,.413,1.934,1.376,1.376,0,0,0,1.222.615q1.582,0,1.617-2.435v-.3q0-2.558-1.635-2.558-1.485,0-1.608,2.206Zm12.5,1.986a.684.684,0,0,0-.4-.606,6.016,6.016,0,0,0-1.5-.475A6.853,6.853,0,0,1,38.8,20.6a3.062,3.062,0,0,1-1.1-.971,2.319,2.319,0,0,1-.378-1.31,2.628,2.628,0,0,1,1.081-2.158,4.453,4.453,0,0,1,2.83-.848,4.934,4.934,0,0,1,3.023.853A2.666,2.666,0,0,1,45.4,18.408H42.434q0-1.143-1.2-1.143a1.194,1.194,0,0,0-.782.259.8.8,0,0,0-.316.646.737.737,0,0,0,.387.642,3.654,3.654,0,0,0,1.235.4,10.671,10.671,0,0,1,1.49.378,2.706,2.706,0,0,1,2.145,2.646,2.491,2.491,0,0,1-1.156,2.118,5.068,5.068,0,0,1-2.993.817,5.172,5.172,0,0,1-2.18-.439,3.645,3.645,0,0,1-1.494-1.2,2.707,2.707,0,0,1-.536-1.591H39.8a1.145,1.145,0,0,0,.439.962,1.808,1.808,0,0,0,1.081.3,1.422,1.422,0,0,0,.91-.246A.787.787,0,0,0,42.53,22.328Z" transform="translate(346 845)" fill="#12263f"/>
    <path id="Trazado_574596" data-name="Trazado 574596" d="M0,0H209V121H0Z" transform="translate(823 796)" fill="#ebf5e7"/>
    <path id="Trazado_574597" data-name="Trazado 574597" d="M-46.749-4.333a4.673,4.673,0,0,1-.721,2.36A4.35,4.35,0,0,1-49.32-.387a6.3,6.3,0,0,1-2.72.563,5.025,5.025,0,0,1-3.973-1.644,6.786,6.786,0,0,1-1.45-4.641v-.633a7.746,7.746,0,0,1,.655-3.292,4.961,4.961,0,0,1,1.885-2.18,5.26,5.26,0,0,1,2.848-.769,5.516,5.516,0,0,1,3.744,1.226,4.844,4.844,0,0,1,1.608,3.379H-49.8a2.292,2.292,0,0,0-.589-1.679,2.422,2.422,0,0,0-1.687-.51,1.843,1.843,0,0,0-1.687.861,5.536,5.536,0,0,0-.562,2.751v.905a6.126,6.126,0,0,0,.514,2.927,1.882,1.882,0,0,0,1.771.879,2.369,2.369,0,0,0,1.626-.5,2.126,2.126,0,0,0,.6-1.591Zm.949-.51a5.613,5.613,0,0,1,.554-2.536,3.96,3.96,0,0,1,1.591-1.709,4.791,4.791,0,0,1,2.435-.6,4.373,4.373,0,0,1,3.366,1.323,5.076,5.076,0,0,1,1.23,3.6v.105a4.925,4.925,0,0,1-1.235,3.529A4.384,4.384,0,0,1-41.2.176a4.434,4.434,0,0,1-3.261-1.217,4.761,4.761,0,0,1-1.327-3.3Zm2.962.185a3.538,3.538,0,0,0,.413,1.934,1.376,1.376,0,0,0,1.222.615q1.582,0,1.617-2.435v-.3q0-2.558-1.635-2.558-1.485,0-1.608,2.206ZM-32.52-9.51l.1,1.116a3.27,3.27,0,0,1,2.716-1.292,2.407,2.407,0,0,1,2.435,1.433,3.165,3.165,0,0,1,2.795-1.433q2.892,0,2.971,3.5V0h-2.971V-6a1.813,1.813,0,0,0-.246-1.063,1.048,1.048,0,0,0-.9-.334,1.4,1.4,0,0,0-1.31.782l.009.123V0h-2.971V-5.985a1.906,1.906,0,0,0-.237-1.081,1.045,1.045,0,0,0-.905-.334,1.42,1.42,0,0,0-1.3.782V0H-35.3V-9.51ZM-14.15-1.028a3.054,3.054,0,0,1-2.54,1.2,3,3,0,0,1-2.369-.91,3.826,3.826,0,0,1-.8-2.615V-9.51H-16.9v6.179a1.065,1.065,0,0,0,1.187,1.222,1.548,1.548,0,0,0,1.45-.729V-9.51h2.979V0h-2.777ZM-6.943-9.51l.1,1.116A3.225,3.225,0,0,1-4.131-9.686,2.713,2.713,0,0,1-1.912-8.8a4.226,4.226,0,0,1,.76,2.672V0H-4.122V-6a1.6,1.6,0,0,0-.29-1.059A1.342,1.342,0,0,0-5.467-7.4a1.413,1.413,0,0,0-1.292.686V0H-9.721V-9.51ZM3.612,0H.642V-9.51H3.612ZM.466-11.962A1.322,1.322,0,0,1,.923-13a1.724,1.724,0,0,1,1.187-.4A1.724,1.724,0,0,1,3.3-13a1.322,1.322,0,0,1,.457,1.037A1.322,1.322,0,0,1,3.3-10.925a1.724,1.724,0,0,1-1.187.4,1.724,1.724,0,0,1-1.187-.4A1.322,1.322,0,0,1,.466-11.962ZM9.457-2.109a1.317,1.317,0,0,0,.967-.338,1.241,1.241,0,0,0,.334-.945h2.777A3.288,3.288,0,0,1,12.415-.826a4.168,4.168,0,0,1-2.887,1,4.22,4.22,0,0,1-3.27-1.3,5.125,5.125,0,0,1-1.2-3.6v-.123A5.792,5.792,0,0,1,5.594-7.4a3.872,3.872,0,0,1,1.534-1.7A4.573,4.573,0,0,1,9.5-9.686a4.116,4.116,0,0,1,2.944,1.028,3.647,3.647,0,0,1,1.09,2.786H10.758A1.626,1.626,0,0,0,10.4-7a1.244,1.244,0,0,0-.967-.4q-1.151,0-1.345,1.468a10.357,10.357,0,0,0-.062,1.283,4.068,4.068,0,0,0,.343,1.986A1.187,1.187,0,0,0,9.457-2.109ZM20.145,0a3.344,3.344,0,0,1-.281-.853A2.754,2.754,0,0,1,17.578.176a3.374,3.374,0,0,1-2.285-.813,2.588,2.588,0,0,1-.94-2.043A2.66,2.66,0,0,1,15.5-5.019a5.821,5.821,0,0,1,3.322-.791h.914v-.5q0-1.316-1.134-1.316a.927.927,0,0,0-1.055,1.042H14.581a2.655,2.655,0,0,1,1.173-2.239,4.931,4.931,0,0,1,2.993-.86,4.323,4.323,0,0,1,2.874.888A3.086,3.086,0,0,1,22.7-6.363v4.21a4.311,4.311,0,0,0,.4,2V0ZM18.29-1.934a1.652,1.652,0,0,0,.918-.237,1.487,1.487,0,0,0,.523-.536V-4.228H18.87q-1.547,0-1.547,1.389a.848.848,0,0,0,.272.655A.986.986,0,0,0,18.29-1.934Zm10.072-.176a1.317,1.317,0,0,0,.967-.338,1.241,1.241,0,0,0,.334-.945H32.44A3.288,3.288,0,0,1,31.32-.826a4.168,4.168,0,0,1-2.887,1,4.22,4.22,0,0,1-3.27-1.3,5.125,5.125,0,0,1-1.2-3.6v-.123A5.792,5.792,0,0,1,24.5-7.4a3.872,3.872,0,0,1,1.534-1.7,4.573,4.573,0,0,1,2.373-.593,4.116,4.116,0,0,1,2.944,1.028,3.647,3.647,0,0,1,1.09,2.786H29.663A1.626,1.626,0,0,0,29.3-7a1.244,1.244,0,0,0-.967-.4q-1.151,0-1.345,1.468a10.357,10.357,0,0,0-.062,1.283,4.068,4.068,0,0,0,.343,1.986A1.187,1.187,0,0,0,28.362-2.109ZM36.817,0H33.847V-9.51h2.971ZM33.671-11.962A1.322,1.322,0,0,1,34.128-13a1.724,1.724,0,0,1,1.187-.4A1.724,1.724,0,0,1,36.5-13a1.322,1.322,0,0,1,.457,1.037,1.322,1.322,0,0,1-.457,1.037,1.724,1.724,0,0,1-1.187.4,1.724,1.724,0,0,1-1.187-.4A1.322,1.322,0,0,1,33.671-11.962Zm4.6,7.119a5.613,5.613,0,0,1,.554-2.536,3.96,3.96,0,0,1,1.591-1.709,4.791,4.791,0,0,1,2.435-.6,4.373,4.373,0,0,1,3.366,1.323,5.076,5.076,0,0,1,1.23,3.6v.105a4.925,4.925,0,0,1-1.235,3.529A4.384,4.384,0,0,1,42.864.176,4.434,4.434,0,0,1,39.6-1.042a4.761,4.761,0,0,1-1.327-3.3Zm2.962.185a3.538,3.538,0,0,0,.413,1.934,1.376,1.376,0,0,0,1.222.615q1.582,0,1.617-2.435v-.3q0-2.558-1.635-2.558-1.485,0-1.608,2.206ZM43.251-13.5H46.38l-2.443,2.76-2.417,0Zm8.218,3.99.1,1.116a3.225,3.225,0,0,1,2.716-1.292A2.713,2.713,0,0,1,56.5-8.8a4.226,4.226,0,0,1,.76,2.672V0H54.29V-6A1.6,1.6,0,0,0,54-7.062,1.342,1.342,0,0,0,52.945-7.4a1.413,1.413,0,0,0-1.292.686V0H48.691V-9.51Z" transform="translate(928 860)" fill="#12263f"/>
    <path id="Trazado_574605" data-name="Trazado 574605" d="M0,0H246V92H0Z" transform="translate(662 1030)" fill="#fff3c6"/>
    <path id="Trazado_574606" data-name="Trazado 574606" d="M-68.164,0V-12.8h4.6a6.509,6.509,0,0,1,3.757.905,3.012,3.012,0,0,1,1.288,2.628,3.045,3.045,0,0,1-.457,1.7A2.663,2.663,0,0,1-60.324-6.53a2.7,2.7,0,0,1,1.538.984,2.862,2.862,0,0,1,.536,1.758A3.388,3.388,0,0,1-59.44-.962,5.667,5.667,0,0,1-62.969,0Zm3.085-5.44v3.067h2.021a1.923,1.923,0,0,0,1.283-.382,1.338,1.338,0,0,0,.448-1.077A1.419,1.419,0,0,0-62.917-5.44Zm0-2.021h1.608a2.285,2.285,0,0,0,1.441-.37A1.314,1.314,0,0,0-61.6-8.9a1.379,1.379,0,0,0-.466-1.168,2.493,2.493,0,0,0-1.5-.357h-1.512Zm8.016,2.619a5.613,5.613,0,0,1,.554-2.536,3.96,3.96,0,0,1,1.591-1.709,4.791,4.791,0,0,1,2.435-.6,4.373,4.373,0,0,1,3.366,1.323,5.076,5.076,0,0,1,1.23,3.6v.105a4.925,4.925,0,0,1-1.235,3.529A4.384,4.384,0,0,1-52.466.176a4.434,4.434,0,0,1-3.261-1.217,4.761,4.761,0,0,1-1.327-3.3Zm2.962.185a3.538,3.538,0,0,0,.413,1.934,1.376,1.376,0,0,0,1.222.615q1.582,0,1.617-2.435v-.3q0-2.558-1.635-2.558-1.485,0-1.608,2.206Zm11.18,1.134,1.5-5.985h3.12L-41.4,0h-3.023l-3.1-9.51H-44.4ZM-34.291,0h-2.971V-9.51h2.971Zm-3.146-11.962A1.322,1.322,0,0,1-36.98-13a1.724,1.724,0,0,1,1.187-.4,1.724,1.724,0,0,1,1.187.4,1.322,1.322,0,0,1,.457,1.037,1.322,1.322,0,0,1-.457,1.037,1.724,1.724,0,0,1-1.187.4,1.724,1.724,0,0,1-1.187-.4A1.322,1.322,0,0,1-37.437-11.962Zm7.69,2.452.1,1.116a3.225,3.225,0,0,1,2.716-1.292,2.713,2.713,0,0,1,2.219.888,4.226,4.226,0,0,1,.76,2.672V0h-2.971V-6a1.6,1.6,0,0,0-.29-1.059A1.342,1.342,0,0,0-28.27-7.4a1.413,1.413,0,0,0-1.292.686V0h-2.962V-9.51Zm7.058,4.667a5.613,5.613,0,0,1,.554-2.536,3.96,3.96,0,0,1,1.591-1.709,4.791,4.791,0,0,1,2.435-.6,4.373,4.373,0,0,1,3.366,1.323,5.076,5.076,0,0,1,1.23,3.6v.105a4.925,4.925,0,0,1-1.235,3.529A4.384,4.384,0,0,1-18.092.176a4.434,4.434,0,0,1-3.261-1.217,4.761,4.761,0,0,1-1.327-3.3Zm2.962.185a3.538,3.538,0,0,0,.413,1.934,1.376,1.376,0,0,0,1.222.615q1.582,0,1.617-2.435v-.3q0-2.558-1.635-2.558-1.485,0-1.608,2.206Zm12.5,1.986a.684.684,0,0,0-.4-.606,6.016,6.016,0,0,0-1.5-.475A6.853,6.853,0,0,1-10.956-4.4a3.062,3.062,0,0,1-1.1-.971,2.319,2.319,0,0,1-.378-1.31,2.628,2.628,0,0,1,1.081-2.158,4.453,4.453,0,0,1,2.83-.848A4.934,4.934,0,0,1-5.5-8.833,2.666,2.666,0,0,1-4.355-6.592H-7.326q0-1.143-1.2-1.143a1.194,1.194,0,0,0-.782.259.8.8,0,0,0-.316.646.737.737,0,0,0,.387.642,3.654,3.654,0,0,0,1.235.4,10.671,10.671,0,0,1,1.49.378A2.706,2.706,0,0,1-4.373-2.76,2.491,2.491,0,0,1-5.528-.642,5.068,5.068,0,0,1-8.521.176,5.172,5.172,0,0,1-10.7-.264a3.645,3.645,0,0,1-1.494-1.2,2.707,2.707,0,0,1-.536-1.591h2.769a1.145,1.145,0,0,0,.439.962,1.808,1.808,0,0,0,1.081.3,1.422,1.422,0,0,0,.91-.246A.787.787,0,0,0-7.229-2.672Zm8.35-2.153A5.809,5.809,0,0,1,2.1-8.385a3.211,3.211,0,0,1,2.725-1.3,2.731,2.731,0,0,1,2.145,1V-13.5H9.936V0H7.273L7.124-1.02A2.8,2.8,0,0,1,4.8.176a3.205,3.205,0,0,1-2.689-1.3A5.993,5.993,0,0,1,1.121-4.825Zm2.962.185q0,2.531,1.477,2.531a1.458,1.458,0,0,0,1.406-.826V-6.557A1.419,1.419,0,0,0,5.577-7.4q-1.371,0-1.485,2.215ZM16.22.176a4.889,4.889,0,0,1-3.542-1.305,4.507,4.507,0,0,1-1.354-3.4v-.246a5.84,5.84,0,0,1,.541-2.575,3.955,3.955,0,0,1,1.578-1.727A4.763,4.763,0,0,1,15.9-9.686a4.117,4.117,0,0,1,3.164,1.244,4.887,4.887,0,0,1,1.16,3.467v1.151H14.339a2.135,2.135,0,0,0,.694,1.257,2.066,2.066,0,0,0,1.389.457,2.662,2.662,0,0,0,2.2-.984l1.354,1.6A3.784,3.784,0,0,1,18.4-.277,5.3,5.3,0,0,1,16.22.176ZM15.886-7.4q-1.3,0-1.547,1.723h2.988v-.229a1.467,1.467,0,0,0-.36-1.1A1.434,1.434,0,0,0,15.886-7.4ZM29.026,0H26.055V-13.5h2.971Zm6.425.176a4.889,4.889,0,0,1-3.542-1.305,4.507,4.507,0,0,1-1.354-3.4v-.246A5.84,5.84,0,0,1,31.1-7.348a3.955,3.955,0,0,1,1.578-1.727,4.763,4.763,0,0,1,2.461-.611A4.117,4.117,0,0,1,38.3-8.442a4.887,4.887,0,0,1,1.16,3.467v1.151H33.57a2.135,2.135,0,0,0,.694,1.257,2.066,2.066,0,0,0,1.389.457,2.662,2.662,0,0,0,2.2-.984l1.354,1.6A3.784,3.784,0,0,1,37.635-.277,5.3,5.3,0,0,1,35.451.176ZM35.117-7.4q-1.3,0-1.547,1.723h2.988v-.229a1.467,1.467,0,0,0-.36-1.1A1.434,1.434,0,0,0,35.117-7.4ZM44.67-2.109a1.317,1.317,0,0,0,.967-.338,1.241,1.241,0,0,0,.334-.945h2.777A3.288,3.288,0,0,1,47.628-.826a4.168,4.168,0,0,1-2.887,1,4.22,4.22,0,0,1-3.27-1.3,5.125,5.125,0,0,1-1.2-3.6v-.123A5.792,5.792,0,0,1,40.808-7.4a3.872,3.872,0,0,1,1.534-1.7,4.573,4.573,0,0,1,2.373-.593,4.116,4.116,0,0,1,2.944,1.028,3.647,3.647,0,0,1,1.09,2.786H45.971A1.626,1.626,0,0,0,45.611-7a1.244,1.244,0,0,0-.967-.4q-1.151,0-1.345,1.468a10.357,10.357,0,0,0-.062,1.283,4.068,4.068,0,0,0,.343,1.986A1.187,1.187,0,0,0,44.67-2.109ZM52.9-8.49a2.964,2.964,0,0,1,2.426-1.2,2.956,2.956,0,0,1,2.373.932A4.186,4.186,0,0,1,58.513-6V0H55.542V-5.933a1.674,1.674,0,0,0-.308-1.112A1.322,1.322,0,0,0,54.189-7.4a1.424,1.424,0,0,0-1.292.58V0H49.935V-13.5H52.9ZM64.762.176A4.889,4.889,0,0,1,61.22-1.129a4.507,4.507,0,0,1-1.354-3.4v-.246a5.84,5.84,0,0,1,.541-2.575,3.955,3.955,0,0,1,1.578-1.727,4.763,4.763,0,0,1,2.461-.611A4.117,4.117,0,0,1,67.61-8.442a4.887,4.887,0,0,1,1.16,3.467v1.151H62.881a2.135,2.135,0,0,0,.694,1.257,2.066,2.066,0,0,0,1.389.457,2.662,2.662,0,0,0,2.2-.984l1.354,1.6A3.784,3.784,0,0,1,66.946-.277,5.3,5.3,0,0,1,64.762.176ZM64.428-7.4q-1.3,0-1.547,1.723H65.87v-.229a1.467,1.467,0,0,0-.36-1.1A1.434,1.434,0,0,0,64.428-7.4Z" transform="translate(785 1079)" fill="#12263f"/>
    <path id="Trazado_570924" data-name="Trazado 570924" d="M10815.5-10834v-29.792h871.447V-10834" transform="translate(-10469.5 11630)" fill="none" stroke="#006c62" stroke-width="1"/>
    <path id="Trazado_574598" data-name="Trazado 574598" d="M0,0H246V121H0Z" transform="translate(512 796)" fill="#ebf5e7"/>
    <path id="Trazado_574599" data-name="Trazado 574599" d="M-22.135-1.582A4.96,4.96,0,0,1-24.218-.308a8.984,8.984,0,0,1-3.006.483,5.36,5.36,0,0,1-4.017-1.538,6.226,6.226,0,0,1-1.608-4.28l-.009-1.107a7.637,7.637,0,0,1,.668-3.3,4.96,4.96,0,0,1,1.912-2.171,5.407,5.407,0,0,1,2.878-.76,5.669,5.669,0,0,1,3.713,1.094,4.637,4.637,0,0,1,1.542,3.265h-2.971a2.426,2.426,0,0,0-.686-1.529,2.212,2.212,0,0,0-1.494-.457,2.013,2.013,0,0,0-1.793.984,5.256,5.256,0,0,0-.642,2.813v.773a5.145,5.145,0,0,0,.655,2.878,2.316,2.316,0,0,0,2.061.962,2.592,2.592,0,0,0,1.793-.536V-4.72h-2.145V-6.838h5.229ZM-15.877.176a4.889,4.889,0,0,1-3.542-1.305,4.507,4.507,0,0,1-1.354-3.4v-.246a5.84,5.84,0,0,1,.541-2.575,3.955,3.955,0,0,1,1.578-1.727,4.763,4.763,0,0,1,2.461-.611A4.117,4.117,0,0,1-13.03-8.442a4.887,4.887,0,0,1,1.16,3.467v1.151h-5.889a2.135,2.135,0,0,0,.694,1.257,2.066,2.066,0,0,0,1.389.457,2.662,2.662,0,0,0,2.2-.984l1.354,1.6A3.784,3.784,0,0,1-13.693-.277,5.3,5.3,0,0,1-15.877.176ZM-16.211-7.4q-1.3,0-1.547,1.723h2.988v-.229a1.467,1.467,0,0,0-.36-1.1A1.434,1.434,0,0,0-16.211-7.4ZM-5.7-2.672a.684.684,0,0,0-.4-.606,6.016,6.016,0,0,0-1.5-.475A6.853,6.853,0,0,1-9.426-4.4a3.062,3.062,0,0,1-1.1-.971A2.319,2.319,0,0,1-10.9-6.68,2.628,2.628,0,0,1-9.822-8.837a4.453,4.453,0,0,1,2.83-.848,4.934,4.934,0,0,1,3.023.853A2.666,2.666,0,0,1-2.826-6.592H-5.8q0-1.143-1.2-1.143a1.194,1.194,0,0,0-.782.259.8.8,0,0,0-.316.646.737.737,0,0,0,.387.642,3.654,3.654,0,0,0,1.235.4,10.671,10.671,0,0,1,1.49.378A2.706,2.706,0,0,1-2.843-2.76,2.491,2.491,0,0,1-4-.642,5.068,5.068,0,0,1-6.992.176a5.172,5.172,0,0,1-2.18-.439,3.645,3.645,0,0,1-1.494-1.2A2.707,2.707,0,0,1-11.2-3.05h2.769a1.145,1.145,0,0,0,.439.962,1.808,1.808,0,0,0,1.081.3A1.422,1.422,0,0,0-6-2.03.787.787,0,0,0-5.7-2.672Zm7.69-9.2V-9.51H3.555v2.057H1.991V-3.1a1.111,1.111,0,0,0,.193.747,1.037,1.037,0,0,0,.765.211A4.345,4.345,0,0,0,3.687-2.2V-.079a5.466,5.466,0,0,1-1.67.255A3.1,3.1,0,0,1-.242-.545,2.954,2.954,0,0,1-.971-2.733v-4.72H-2.184V-9.51H-.971v-2.364ZM7.844,0H4.874V-9.51H7.844ZM4.7-11.962A1.322,1.322,0,0,1,5.155-13a1.724,1.724,0,0,1,1.187-.4,1.724,1.724,0,0,1,1.187.4,1.322,1.322,0,0,1,.457,1.037,1.322,1.322,0,0,1-.457,1.037,1.724,1.724,0,0,1-1.187.4,1.724,1.724,0,0,1-1.187-.4A1.322,1.322,0,0,1,4.7-11.962Zm4.6,7.119a5.613,5.613,0,0,1,.554-2.536,3.96,3.96,0,0,1,1.591-1.709,4.791,4.791,0,0,1,2.435-.6A4.373,4.373,0,0,1,17.24-8.363a5.076,5.076,0,0,1,1.23,3.6v.105a4.925,4.925,0,0,1-1.235,3.529A4.384,4.384,0,0,1,13.891.176,4.434,4.434,0,0,1,10.63-1.042,4.761,4.761,0,0,1,9.3-4.342Zm2.962.185a3.538,3.538,0,0,0,.413,1.934,1.376,1.376,0,0,0,1.222.615q1.582,0,1.617-2.435v-.3q0-2.558-1.635-2.558-1.485,0-1.608,2.206ZM22.5-9.51l.1,1.116a3.225,3.225,0,0,1,2.716-1.292,2.713,2.713,0,0,1,2.219.888,4.226,4.226,0,0,1,.76,2.672V0H25.317V-6a1.6,1.6,0,0,0-.29-1.059A1.342,1.342,0,0,0,23.972-7.4a1.413,1.413,0,0,0-1.292.686V0H19.718V-9.51ZM-47.725,25V12.2H-43.6a6.064,6.064,0,0,1,3.05.769,5.406,5.406,0,0,1,2.114,2.171,6.554,6.554,0,0,1,.769,3.142v.589a6.592,6.592,0,0,1-.743,3.151A5.429,5.429,0,0,1-40.5,24.2a5.93,5.93,0,0,1-3.01.8Zm3.085-10.415v8.042h1.072a2.4,2.4,0,0,0,2.039-.945,4.63,4.63,0,0,0,.712-2.808V18.32a4.592,4.592,0,0,0-.712-2.795,2.442,2.442,0,0,0-2.074-.94Zm8.042,5.572a5.613,5.613,0,0,1,.554-2.536,3.96,3.96,0,0,1,1.591-1.709,4.791,4.791,0,0,1,2.435-.6,4.373,4.373,0,0,1,3.366,1.323,5.076,5.076,0,0,1,1.23,3.6v.105a4.925,4.925,0,0,1-1.235,3.529A4.384,4.384,0,0,1-32,25.176a4.434,4.434,0,0,1-3.261-1.217,4.761,4.761,0,0,1-1.327-3.3Zm2.962.185a3.538,3.538,0,0,0,.413,1.934A1.376,1.376,0,0,0-32,22.891q1.582,0,1.617-2.435v-.3q0-2.558-1.635-2.558-1.485,0-1.608,2.206Zm11.54,2.549a1.317,1.317,0,0,0,.967-.338,1.241,1.241,0,0,0,.334-.945h2.777a3.288,3.288,0,0,1-1.121,2.566,4.168,4.168,0,0,1-2.887,1,4.22,4.22,0,0,1-3.27-1.3,5.125,5.125,0,0,1-1.2-3.6v-.123a5.792,5.792,0,0,1,.532-2.544,3.872,3.872,0,0,1,1.534-1.7,4.573,4.573,0,0,1,2.373-.593,4.116,4.116,0,0,1,2.944,1.028,3.647,3.647,0,0,1,1.09,2.786h-2.777A1.626,1.626,0,0,0-21.155,18a1.244,1.244,0,0,0-.967-.4q-1.151,0-1.345,1.468a10.357,10.357,0,0,0-.062,1.283,4.068,4.068,0,0,0,.343,1.986A1.187,1.187,0,0,0-22.1,22.891Zm11,1.081a3.054,3.054,0,0,1-2.54,1.2,3,3,0,0,1-2.369-.91,3.826,3.826,0,0,1-.8-2.615V15.49h2.962v6.179a1.065,1.065,0,0,0,1.187,1.222,1.548,1.548,0,0,0,1.45-.729V15.49h2.979V25h-2.777Zm7.286-8.481.1,1.116A3.27,3.27,0,0,1-1,15.314a2.407,2.407,0,0,1,2.435,1.433,3.165,3.165,0,0,1,2.795-1.433q2.892,0,2.971,3.5V25H4.228V19a1.813,1.813,0,0,0-.246-1.063,1.048,1.048,0,0,0-.9-.334,1.4,1.4,0,0,0-1.31.782l.009.123V25H-1.187V19.015a1.906,1.906,0,0,0-.237-1.081,1.045,1.045,0,0,0-.905-.334,1.42,1.42,0,0,0-1.3.782V25H-6.592V15.49Zm17.306,9.686a4.889,4.889,0,0,1-3.542-1.305,4.507,4.507,0,0,1-1.354-3.4v-.246a5.84,5.84,0,0,1,.541-2.575,3.955,3.955,0,0,1,1.578-1.727,4.763,4.763,0,0,1,2.461-.611,4.117,4.117,0,0,1,3.164,1.244,4.887,4.887,0,0,1,1.16,3.467v1.151H11.61a2.135,2.135,0,0,0,.694,1.257,2.066,2.066,0,0,0,1.389.457,2.662,2.662,0,0,0,2.2-.984l1.354,1.6a3.784,3.784,0,0,1-1.569,1.217A5.3,5.3,0,0,1,13.491,25.176ZM13.157,17.6q-1.3,0-1.547,1.723H14.6v-.229a1.467,1.467,0,0,0-.36-1.1A1.434,1.434,0,0,0,13.157,17.6ZM21.41,15.49l.1,1.116a3.225,3.225,0,0,1,2.716-1.292,2.713,2.713,0,0,1,2.219.888,4.226,4.226,0,0,1,.76,2.672V25H24.231V19a1.6,1.6,0,0,0-.29-1.059,1.342,1.342,0,0,0-1.055-.338,1.413,1.413,0,0,0-1.292.686V25H18.633V15.49Zm10.881-2.364V15.49h1.564v2.057H32.291V21.9a1.111,1.111,0,0,0,.193.747,1.037,1.037,0,0,0,.765.211,4.345,4.345,0,0,0,.738-.053v2.118a5.466,5.466,0,0,1-1.67.255,3.1,3.1,0,0,1-2.259-.721,2.954,2.954,0,0,1-.729-2.188v-4.72H28.116V15.49h1.213V13.126ZM40.377,25a3.344,3.344,0,0,1-.281-.853,2.754,2.754,0,0,1-2.285,1.028,3.374,3.374,0,0,1-2.285-.813,2.588,2.588,0,0,1-.94-2.043,2.66,2.66,0,0,1,1.143-2.338,5.821,5.821,0,0,1,3.322-.791h.914v-.5q0-1.316-1.134-1.316a.927.927,0,0,0-1.055,1.042H34.813a2.655,2.655,0,0,1,1.173-2.239,4.931,4.931,0,0,1,2.993-.86,4.323,4.323,0,0,1,2.874.888,3.086,3.086,0,0,1,1.081,2.435v4.21a4.311,4.311,0,0,0,.4,2V25Zm-1.854-1.934a1.652,1.652,0,0,0,.918-.237,1.487,1.487,0,0,0,.523-.536V20.772H39.1q-1.547,0-1.547,1.389a.848.848,0,0,0,.272.655A.986.986,0,0,0,38.522,23.066ZM47.7,25H44.728V11.5H47.7Z" transform="translate(635 841)" fill="#12263f"/>
    <path id="Trazado_574600" data-name="Trazado 574600" d="M0,0H246V121H0Z" transform="translate(1089 796)" fill="#ebf5e7"/>
    <path id="Trazado_574601" data-name="Trazado 574601" d="M-34.339-1.582A4.96,4.96,0,0,1-36.422-.308a8.984,8.984,0,0,1-3.006.483,5.36,5.36,0,0,1-4.017-1.538,6.226,6.226,0,0,1-1.608-4.28l-.009-1.107a7.637,7.637,0,0,1,.668-3.3,4.96,4.96,0,0,1,1.912-2.171,5.407,5.407,0,0,1,2.878-.76,5.669,5.669,0,0,1,3.713,1.094,4.637,4.637,0,0,1,1.542,3.265h-2.971A2.426,2.426,0,0,0-38-10.151a2.212,2.212,0,0,0-1.494-.457,2.013,2.013,0,0,0-1.793.984,5.256,5.256,0,0,0-.642,2.813v.773a5.145,5.145,0,0,0,.655,2.878,2.316,2.316,0,0,0,2.061.962,2.592,2.592,0,0,0,1.793-.536V-4.72h-2.145V-6.838h5.229ZM-28.081.176a4.889,4.889,0,0,1-3.542-1.305,4.507,4.507,0,0,1-1.354-3.4v-.246a5.84,5.84,0,0,1,.541-2.575,3.955,3.955,0,0,1,1.578-1.727A4.763,4.763,0,0,1-28.4-9.686a4.117,4.117,0,0,1,3.164,1.244,4.887,4.887,0,0,1,1.16,3.467v1.151h-5.889a2.135,2.135,0,0,0,.694,1.257,2.066,2.066,0,0,0,1.389.457,2.662,2.662,0,0,0,2.2-.984l1.354,1.6A3.784,3.784,0,0,1-25.9-.277,5.3,5.3,0,0,1-28.081.176ZM-28.415-7.4q-1.3,0-1.547,1.723h2.988v-.229a1.467,1.467,0,0,0-.36-1.1A1.434,1.434,0,0,0-28.415-7.4ZM-17.9-2.672a.684.684,0,0,0-.4-.606,6.016,6.016,0,0,0-1.5-.475A6.853,6.853,0,0,1-21.63-4.4a3.062,3.062,0,0,1-1.1-.971,2.319,2.319,0,0,1-.378-1.31,2.628,2.628,0,0,1,1.081-2.158,4.453,4.453,0,0,1,2.83-.848,4.934,4.934,0,0,1,3.023.853,2.666,2.666,0,0,1,1.143,2.241H-18q0-1.143-1.2-1.143a1.194,1.194,0,0,0-.782.259.8.8,0,0,0-.316.646.737.737,0,0,0,.387.642,3.654,3.654,0,0,0,1.235.4,10.671,10.671,0,0,1,1.49.378A2.706,2.706,0,0,1-15.047-2.76,2.491,2.491,0,0,1-16.2-.642,5.068,5.068,0,0,1-19.2.176a5.172,5.172,0,0,1-2.18-.439,3.645,3.645,0,0,1-1.494-1.2,2.707,2.707,0,0,1-.536-1.591h2.769a1.145,1.145,0,0,0,.439.962,1.808,1.808,0,0,0,1.081.3,1.422,1.422,0,0,0,.91-.246A.787.787,0,0,0-17.9-2.672Zm7.69-9.2V-9.51h1.564v2.057h-1.564V-3.1a1.111,1.111,0,0,0,.193.747,1.037,1.037,0,0,0,.765.211A4.345,4.345,0,0,0-8.517-2.2V-.079a5.466,5.466,0,0,1-1.67.255,3.1,3.1,0,0,1-2.259-.721,2.954,2.954,0,0,1-.729-2.188v-4.72h-1.213V-9.51h1.213v-2.364ZM-4.359,0H-7.33V-9.51h2.971ZM-7.506-11.962A1.322,1.322,0,0,1-7.049-13a1.724,1.724,0,0,1,1.187-.4,1.724,1.724,0,0,1,1.187.4,1.322,1.322,0,0,1,.457,1.037,1.322,1.322,0,0,1-.457,1.037,1.724,1.724,0,0,1-1.187.4,1.724,1.724,0,0,1-1.187-.4A1.322,1.322,0,0,1-7.506-11.962Zm4.6,7.119a5.613,5.613,0,0,1,.554-2.536A3.96,3.96,0,0,1-.765-9.088a4.791,4.791,0,0,1,2.435-.6A4.373,4.373,0,0,1,5.036-8.363a5.076,5.076,0,0,1,1.23,3.6v.105A4.925,4.925,0,0,1,5.032-1.129,4.384,4.384,0,0,1,1.688.176,4.434,4.434,0,0,1-1.573-1.042,4.761,4.761,0,0,1-2.9-4.342Zm2.962.185A3.538,3.538,0,0,0,.466-2.725a1.376,1.376,0,0,0,1.222.615q1.582,0,1.617-2.435v-.3Q3.3-7.4,1.67-7.4.185-7.4.062-5.194ZM10.292-9.51l.1,1.116A3.225,3.225,0,0,1,13.1-9.686a2.713,2.713,0,0,1,2.219.888,4.226,4.226,0,0,1,.76,2.672V0H13.113V-6a1.6,1.6,0,0,0-.29-1.059A1.342,1.342,0,0,0,11.769-7.4a1.413,1.413,0,0,0-1.292.686V0H7.515V-9.51Zm11.54,4.685a5.809,5.809,0,0,1,.976-3.56,3.211,3.211,0,0,1,2.725-1.3,2.731,2.731,0,0,1,2.145,1V-13.5h2.971V0H27.984l-.149-1.02a2.8,2.8,0,0,1-2.32,1.2,3.205,3.205,0,0,1-2.689-1.3A5.993,5.993,0,0,1,21.832-4.825Zm2.962.185q0,2.531,1.477,2.531a1.458,1.458,0,0,0,1.406-.826V-6.557A1.419,1.419,0,0,0,26.288-7.4q-1.371,0-1.485,2.215ZM36.932.176A4.889,4.889,0,0,1,33.39-1.129a4.507,4.507,0,0,1-1.354-3.4v-.246a5.84,5.84,0,0,1,.541-2.575,3.955,3.955,0,0,1,1.578-1.727,4.763,4.763,0,0,1,2.461-.611,4.117,4.117,0,0,1,3.164,1.244,4.887,4.887,0,0,1,1.16,3.467v1.151H35.051a2.135,2.135,0,0,0,.694,1.257,2.066,2.066,0,0,0,1.389.457,2.662,2.662,0,0,0,2.2-.984l1.354,1.6A3.784,3.784,0,0,1,39.116-.277,5.3,5.3,0,0,1,36.932.176ZM36.6-7.4q-1.3,0-1.547,1.723h2.988v-.229a1.467,1.467,0,0,0-.36-1.1A1.434,1.434,0,0,0,36.6-7.4Zm-68.7,28.059V25h-3.085V12.2h5.106a5.948,5.948,0,0,1,2.6.541,4.074,4.074,0,0,1,1.749,1.538,4.2,4.2,0,0,1,.62,2.263,3.7,3.7,0,0,1-1.34,2.993,5.561,5.561,0,0,1-3.678,1.121Zm0-2.382h2.021a1.906,1.906,0,0,0,1.367-.448,1.665,1.665,0,0,0,.47-1.266,2.059,2.059,0,0,0-.483-1.433,1.712,1.712,0,0,0-1.318-.545h-2.057Zm13.1,6.9a4.889,4.889,0,0,1-3.542-1.305,4.507,4.507,0,0,1-1.354-3.4v-.246a5.84,5.84,0,0,1,.541-2.575,3.955,3.955,0,0,1,1.578-1.727,4.763,4.763,0,0,1,2.461-.611,4.117,4.117,0,0,1,3.164,1.244A4.887,4.887,0,0,1-15,20.025v1.151h-5.889a2.135,2.135,0,0,0,.694,1.257,2.066,2.066,0,0,0,1.389.457,2.662,2.662,0,0,0,2.2-.984l1.354,1.6a3.784,3.784,0,0,1-1.569,1.217A5.3,5.3,0,0,1-19.011,25.176Zm-.334-7.576q-1.3,0-1.547,1.723H-17.9v-.229a1.467,1.467,0,0,0-.36-1.1A1.434,1.434,0,0,0-19.345,17.6Zm11.285.571-.976-.07a1.752,1.752,0,0,0-1.793.879V25H-13.79V15.49h2.777l.1,1.222a2.294,2.294,0,0,1,2.083-1.4,2.888,2.888,0,0,1,.826.105Zm6.047,4.157a.684.684,0,0,0-.4-.606,6.016,6.016,0,0,0-1.5-.475A6.853,6.853,0,0,1-5.739,20.6a3.062,3.062,0,0,1-1.1-.971,2.319,2.319,0,0,1-.378-1.31,2.628,2.628,0,0,1,1.081-2.158,4.453,4.453,0,0,1,2.83-.848,4.934,4.934,0,0,1,3.023.853A2.666,2.666,0,0,1,.861,18.408H-2.109q0-1.143-1.2-1.143a1.194,1.194,0,0,0-.782.259.8.8,0,0,0-.316.646.737.737,0,0,0,.387.642,3.654,3.654,0,0,0,1.235.4,10.671,10.671,0,0,1,1.49.378A2.706,2.706,0,0,1,.844,22.24,2.491,2.491,0,0,1-.312,24.358a5.068,5.068,0,0,1-2.993.817,5.172,5.172,0,0,1-2.18-.439,3.645,3.645,0,0,1-1.494-1.2,2.707,2.707,0,0,1-.536-1.591h2.769a1.145,1.145,0,0,0,.439.962,1.808,1.808,0,0,0,1.081.3,1.422,1.422,0,0,0,.91-.246A.787.787,0,0,0-2.013,22.328Zm3.867-2.171a5.613,5.613,0,0,1,.554-2.536A3.96,3.96,0,0,1,4,15.912a4.791,4.791,0,0,1,2.435-.6A4.373,4.373,0,0,1,9.8,16.637a5.076,5.076,0,0,1,1.23,3.6v.105A4.925,4.925,0,0,1,9.8,23.871a4.384,4.384,0,0,1-3.344,1.305A4.434,4.434,0,0,1,3.19,23.958a4.761,4.761,0,0,1-1.327-3.3Zm2.962.185a3.538,3.538,0,0,0,.413,1.934,1.376,1.376,0,0,0,1.222.615q1.582,0,1.617-2.435v-.3q0-2.558-1.635-2.558-1.485,0-1.608,2.206ZM15.056,15.49l.1,1.116a3.225,3.225,0,0,1,2.716-1.292,2.713,2.713,0,0,1,2.219.888,4.226,4.226,0,0,1,.76,2.672V25H17.877V19a1.6,1.6,0,0,0-.29-1.059,1.342,1.342,0,0,0-1.055-.338,1.413,1.413,0,0,0-1.292.686V25H12.278V15.49ZM27.844,25a3.344,3.344,0,0,1-.281-.853,2.754,2.754,0,0,1-2.285,1.028,3.374,3.374,0,0,1-2.285-.813,2.588,2.588,0,0,1-.94-2.043,2.66,2.66,0,0,1,1.143-2.338,5.821,5.821,0,0,1,3.322-.791h.914v-.5q0-1.316-1.134-1.316a.927.927,0,0,0-1.055,1.042H22.28a2.655,2.655,0,0,1,1.173-2.239,4.931,4.931,0,0,1,2.993-.86,4.323,4.323,0,0,1,2.874.888A3.086,3.086,0,0,1,30.4,18.637v4.21a4.311,4.311,0,0,0,.4,2V25Zm-1.854-1.934a1.652,1.652,0,0,0,.918-.237,1.487,1.487,0,0,0,.523-.536V20.772h-.861q-1.547,0-1.547,1.389a.848.848,0,0,0,.272.655A.986.986,0,0,0,25.989,23.066ZM35.165,25H32.194V11.5h2.971Z" transform="translate(1212 841)" fill="#12263f"/>
    <path id="Trazado_574604" data-name="Trazado 574604" d="M-66.727,0h-2.215V-12.8h2.215Zm4.535-9.51.062.993a3.422,3.422,0,0,1,2.742-1.169,2.629,2.629,0,0,1,2.61,1.459,3.373,3.373,0,0,1,2.918-1.459,2.965,2.965,0,0,1,2.342.87,3.831,3.831,0,0,1,.787,2.566V0h-2.136V-6.187a1.891,1.891,0,0,0-.4-1.327,1.731,1.731,0,0,0-1.31-.422,1.778,1.778,0,0,0-1.191.391,2.063,2.063,0,0,0-.646,1.024L-56.4,0h-2.136V-6.258a1.523,1.523,0,0,0-1.714-1.679,1.88,1.88,0,0,0-1.819,1.046V0H-64.2V-9.51ZM-40.21-4.658a5.662,5.662,0,0,1-1,3.52A3.209,3.209,0,0,1-43.9.176a3.23,3.23,0,0,1-2.5-1.028V3.656h-2.136V-9.51h1.969l.088.967a3.137,3.137,0,0,1,2.558-1.143,3.242,3.242,0,0,1,2.729,1.3,5.813,5.813,0,0,1,.989,3.6Zm-2.127-.185A3.966,3.966,0,0,0-42.9-7.1a1.843,1.843,0,0,0-1.622-.835,1.965,1.965,0,0,0-1.881,1.081v4.219a1.983,1.983,0,0,0,1.9,1.107,1.841,1.841,0,0,0,1.6-.822A4.366,4.366,0,0,0-42.337-4.843ZM-36.132,0h-2.136V-13.5h2.136Zm6.513.176A4.419,4.419,0,0,1-32.911-1.1a4.639,4.639,0,0,1-1.261-3.406v-.264a5.706,5.706,0,0,1,.549-2.544A4.181,4.181,0,0,1-32.08-9.062a4.078,4.078,0,0,1,2.215-.624,3.733,3.733,0,0,1,3,1.239A5.24,5.24,0,0,1-25.8-4.939v.861h-6.214a2.856,2.856,0,0,0,.787,1.863,2.362,2.362,0,0,0,1.736.686,2.892,2.892,0,0,0,2.391-1.187l1.151,1.1A3.845,3.845,0,0,1-27.479-.294,4.774,4.774,0,0,1-29.619.176Zm-.255-8.147a1.8,1.8,0,0,0-1.419.615,3.189,3.189,0,0,0-.69,1.714h4.069V-5.8a2.6,2.6,0,0,0-.571-1.622A1.785,1.785,0,0,0-29.874-7.972ZM-22.14-9.51l.062.993a3.422,3.422,0,0,1,2.742-1.169,2.629,2.629,0,0,1,2.61,1.459,3.373,3.373,0,0,1,2.918-1.459,2.965,2.965,0,0,1,2.342.87,3.831,3.831,0,0,1,.787,2.566V0h-2.136V-6.187a1.891,1.891,0,0,0-.4-1.327,1.731,1.731,0,0,0-1.31-.422,1.778,1.778,0,0,0-1.191.391,2.063,2.063,0,0,0-.646,1.024L-16.348,0h-2.136V-6.258A1.523,1.523,0,0,0-20.2-7.937a1.88,1.88,0,0,0-1.819,1.046V0h-2.136V-9.51ZM-4.3.176A4.419,4.419,0,0,1-7.589-1.1,4.639,4.639,0,0,1-8.851-4.509v-.264A5.706,5.706,0,0,1-8.3-7.317,4.181,4.181,0,0,1-6.759-9.062a4.078,4.078,0,0,1,2.215-.624,3.733,3.733,0,0,1,3,1.239A5.24,5.24,0,0,1-.483-4.939v.861H-6.7a2.856,2.856,0,0,0,.787,1.863,2.362,2.362,0,0,0,1.736.686A2.892,2.892,0,0,0-1.784-2.716l1.151,1.1A3.845,3.845,0,0,1-2.158-.294,4.774,4.774,0,0,1-4.3.176Zm-.255-8.147a1.8,1.8,0,0,0-1.419.615,3.189,3.189,0,0,0-.69,1.714h4.069V-5.8a2.6,2.6,0,0,0-.571-1.622A1.785,1.785,0,0,0-4.553-7.972ZM3.155-9.51l.062,1.1A3.419,3.419,0,0,1,5.985-9.686q2.971,0,3.023,3.4V0H6.873V-6.161A1.958,1.958,0,0,0,6.482-7.5,1.645,1.645,0,0,0,5.2-7.937,2.058,2.058,0,0,0,3.278-6.768V0H1.143V-9.51ZM13.86-11.821V-9.51h1.679v1.582H13.86v5.309a1.169,1.169,0,0,0,.215.787,1,1,0,0,0,.769.242,3.29,3.29,0,0,0,.747-.088V-.026a5.26,5.26,0,0,1-1.406.2q-2.461,0-2.461-2.716V-7.928H10.16V-9.51h1.564v-2.312ZM22.852,0a3.3,3.3,0,0,1-.246-.888,3.325,3.325,0,0,1-2.5,1.063,3.355,3.355,0,0,1-2.338-.817,2.615,2.615,0,0,1-.905-2.021A2.7,2.7,0,0,1,18-5a5.473,5.473,0,0,1,3.23-.813h1.31v-.624a1.666,1.666,0,0,0-.413-1.182,1.638,1.638,0,0,0-1.257-.444,1.881,1.881,0,0,0-1.2.365,1.129,1.129,0,0,0-.466.927H17.068a2.37,2.37,0,0,1,.519-1.463A3.455,3.455,0,0,1,19-9.3a4.955,4.955,0,0,1,1.991-.387,3.99,3.99,0,0,1,2.663.839,2.993,2.993,0,0,1,1.02,2.36V-2.2a4.861,4.861,0,0,0,.36,2.048V0ZM20.5-1.538A2.429,2.429,0,0,0,21.7-1.846a2.055,2.055,0,0,0,.839-.826V-4.465H21.384a3.148,3.148,0,0,0-1.784.413A1.338,1.338,0,0,0,19-2.883a1.248,1.248,0,0,0,.409.98A1.583,1.583,0,0,0,20.5-1.538Zm6-3.287a5.654,5.654,0,0,1,1.02-3.529,3.267,3.267,0,0,1,2.733-1.332A3.1,3.1,0,0,1,32.7-8.631V-13.5H34.84V0H32.906L32.8-.984A3.148,3.148,0,0,1,30.243.176a3.248,3.248,0,0,1-2.7-1.345A5.861,5.861,0,0,1,26.508-4.825Zm2.136.185A3.958,3.958,0,0,0,29.2-2.377a1.811,1.811,0,0,0,1.586.813A2.017,2.017,0,0,0,32.7-2.733V-6.794a1.986,1.986,0,0,0-1.9-1.143,1.824,1.824,0,0,0-1.6.822A4.408,4.408,0,0,0,28.644-4.641Zm8.024-.2a5.607,5.607,0,0,1,.554-2.518,4.044,4.044,0,0,1,1.556-1.723,4.383,4.383,0,0,1,2.3-.6A4.154,4.154,0,0,1,44.2-8.446a4.874,4.874,0,0,1,1.3,3.287l.009.5a5.658,5.658,0,0,1-.541,2.514A4,4,0,0,1,43.422-.431,4.415,4.415,0,0,1,41.1.176a4.125,4.125,0,0,1-3.221-1.34,5.133,5.133,0,0,1-1.208-3.573Zm2.136.185a3.832,3.832,0,0,0,.606,2.3,1.971,1.971,0,0,0,1.688.831,1.95,1.95,0,0,0,1.683-.844,4.232,4.232,0,0,0,.6-2.47,3.782,3.782,0,0,0-.62-2.285,1.979,1.979,0,0,0-1.683-.844,1.96,1.96,0,0,0-1.661.831A4.152,4.152,0,0,0,38.8-4.658ZM55.986.176A4.419,4.419,0,0,1,52.695-1.1a4.639,4.639,0,0,1-1.261-3.406v-.264a5.706,5.706,0,0,1,.549-2.544,4.181,4.181,0,0,1,1.542-1.745,4.078,4.078,0,0,1,2.215-.624,3.733,3.733,0,0,1,3,1.239A5.24,5.24,0,0,1,59.8-4.939v.861H53.587a2.856,2.856,0,0,0,.787,1.863,2.362,2.362,0,0,0,1.736.686A2.892,2.892,0,0,0,58.5-2.716l1.151,1.1A3.845,3.845,0,0,1,58.126-.294,4.774,4.774,0,0,1,55.986.176Zm-.255-8.147a1.8,1.8,0,0,0-1.419.615,3.189,3.189,0,0,0-.69,1.714h4.069V-5.8a2.6,2.6,0,0,0-.571-1.622A1.785,1.785,0,0,0,55.731-7.972ZM63.439-9.51l.062,1.1A3.419,3.419,0,0,1,66.27-9.686q2.971,0,3.023,3.4V0H67.157V-6.161a1.958,1.958,0,0,0-.391-1.34,1.645,1.645,0,0,0-1.279-.435,2.058,2.058,0,0,0-1.925,1.169V0H61.427V-9.51Z" transform="translate(785 981)" fill="#12263f"/>
    <path id="Trazado_574137" data-name="Trazado 574137" d="M2717-10933.792v30.186" transform="translate(-2075 11700)" fill="none" stroke="#006c62" stroke-width="1"/>
    <path id="Trazado_574138" data-name="Trazado 574138" d="M2717-10933.792v30.186" transform="translate(-1789.5 11700)" fill="none" stroke="#006c62" stroke-width="1"/>
    <path id="Trazado_574139" data-name="Trazado 574139" d="M2717-10933.793v111.207" transform="translate(-1916.5 11588.792)" fill="none" stroke="#006c62" stroke-width="1"/>
    <g id="Trazado_574602" data-name="Trazado 574602" transform="translate(734 685)" fill="#fff">
      <path d="M 127.5 37.5 L 0.5 37.5 L 0.5 0.5 L 127.5 0.5 L 127.5 37.5 Z" stroke="none"/>
      <path d="M 1 1 L 1 37 L 127 37 L 127 1 L 1 1 M 0 0 L 128 0 L 128 38 L 0 38 L 0 0 Z" stroke="none" fill="#707070"/>
    </g>
    <path id="Trazado_574603" data-name="Trazado 574603" d="M-24.9-4.166A4.621,4.621,0,0,1-26.407-.971,5.154,5.154,0,0,1-29.914.176a4.99,4.99,0,0,1-2.694-.725A4.759,4.759,0,0,1-34.4-2.61a7.438,7.438,0,0,1-.659-3.1v-1.2a7.491,7.491,0,0,1,.642-3.19,4.835,4.835,0,0,1,1.841-2.127,5.136,5.136,0,0,1,2.773-.747,4.946,4.946,0,0,1,3.41,1.147,4.793,4.793,0,0,1,1.5,3.248H-27.11a3.161,3.161,0,0,0-.8-1.991,2.658,2.658,0,0,0-1.894-.611,2.6,2.6,0,0,0-2.228,1.06,5.3,5.3,0,0,0-.8,3.11v1.135a5.62,5.62,0,0,0,.743,3.167,2.464,2.464,0,0,0,2.175,1.091,2.875,2.875,0,0,0,1.969-.589,3.071,3.071,0,0,0,.835-1.96Zm1.38-.677a5.607,5.607,0,0,1,.554-2.518,4.044,4.044,0,0,1,1.556-1.723,4.383,4.383,0,0,1,2.3-.6,4.154,4.154,0,0,1,3.125,1.239,4.874,4.874,0,0,1,1.3,3.287l.009.5a5.658,5.658,0,0,1-.541,2.514A4,4,0,0,1-16.761-.431a4.415,4.415,0,0,1-2.325.606,4.125,4.125,0,0,1-3.221-1.34,5.133,5.133,0,0,1-1.208-3.573Zm2.136.185a3.832,3.832,0,0,0,.606,2.3,1.971,1.971,0,0,0,1.688.831A1.95,1.95,0,0,0-17.4-2.373a4.232,4.232,0,0,0,.6-2.47,3.782,3.782,0,0,0-.62-2.285A1.979,1.979,0,0,0-19.1-7.972a1.96,1.96,0,0,0-1.661.831A4.152,4.152,0,0,0-21.379-4.658ZM-10.885-9.51l.062,1.1A3.419,3.419,0,0,1-8.055-9.686q2.971,0,3.023,3.4V0H-7.167V-6.161A1.958,1.958,0,0,0-7.559-7.5a1.645,1.645,0,0,0-1.279-.435,2.058,2.058,0,0,0-1.925,1.169V0H-12.9V-9.51ZM-.18-11.821V-9.51H1.5v1.582H-.18v5.309a1.169,1.169,0,0,0,.215.787A1,1,0,0,0,.8-1.591a3.29,3.29,0,0,0,.747-.088V-.026a5.26,5.26,0,0,1-1.406.2q-2.461,0-2.461-2.716V-7.928H-3.88V-9.51h1.564v-2.312ZM5.4,0H3.265V-9.51H5.4ZM3.133-11.979a1.133,1.133,0,0,1,.312-.817,1.179,1.179,0,0,1,.892-.325,1.193,1.193,0,0,1,.9.325,1.125,1.125,0,0,1,.316.817,1.1,1.1,0,0,1-.316.8,1.2,1.2,0,0,1-.9.321,1.188,1.188,0,0,1-.892-.321A1.107,1.107,0,0,1,3.133-11.979ZM11.914.176A4.419,4.419,0,0,1,8.622-1.1,4.639,4.639,0,0,1,7.361-4.509v-.264A5.706,5.706,0,0,1,7.91-7.317,4.181,4.181,0,0,1,9.453-9.062a4.078,4.078,0,0,1,2.215-.624,3.733,3.733,0,0,1,3,1.239,5.24,5.24,0,0,1,1.059,3.507v.861H9.514A2.856,2.856,0,0,0,10.3-2.215a2.362,2.362,0,0,0,1.736.686,2.892,2.892,0,0,0,2.391-1.187l1.151,1.1A3.845,3.845,0,0,1,14.054-.294,4.774,4.774,0,0,1,11.914.176Zm-.255-8.147a1.8,1.8,0,0,0-1.419.615,3.189,3.189,0,0,0-.69,1.714h4.069V-5.8a2.6,2.6,0,0,0-.571-1.622A1.785,1.785,0,0,0,11.659-7.972ZM19.367-9.51l.062,1.1A3.419,3.419,0,0,1,22.2-9.686q2.971,0,3.023,3.4V0H23.084V-6.161a1.958,1.958,0,0,0-.391-1.34,1.645,1.645,0,0,0-1.279-.435A2.058,2.058,0,0,0,19.49-6.768V0H17.354V-9.51ZM31.583.176A4.419,4.419,0,0,1,28.292-1.1a4.639,4.639,0,0,1-1.261-3.406v-.264a5.706,5.706,0,0,1,.549-2.544,4.181,4.181,0,0,1,1.542-1.745,4.078,4.078,0,0,1,2.215-.624,3.733,3.733,0,0,1,3,1.239A5.24,5.24,0,0,1,35.4-4.939v.861H29.184a2.856,2.856,0,0,0,.787,1.863,2.362,2.362,0,0,0,1.736.686A2.892,2.892,0,0,0,34.1-2.716l1.151,1.1A3.845,3.845,0,0,1,33.724-.294,4.774,4.774,0,0,1,31.583.176Zm-.255-8.147a1.8,1.8,0,0,0-1.419.615,3.189,3.189,0,0,0-.69,1.714h4.069V-5.8a2.6,2.6,0,0,0-.571-1.622A1.785,1.785,0,0,0,31.329-7.972Z" transform="translate(800 709)" fill="#12263f"/>
    <path id="Trazado_574140" data-name="Trazado 574140" d="M2747.339-10783v159.354H2433.5" transform="translate(-1525.5 11700)" fill="none" stroke="#006c62" stroke-width="1"/>
    <path id="Trazado_574141" data-name="Trazado 574141" d="M2433.5-10783v159.354h313.839" transform="translate(-2088 11700)" fill="none" stroke="#006c62" stroke-width="1"/>
    <path id="Trazado_574142" data-name="Trazado 574142" d="M2645.542-10783v159.354" transform="translate(-2052 11700)" fill="none" stroke="#006c62" stroke-width="1"/>
    <path id="Trazado_574143" data-name="Trazado 574143" d="M2645.542-10783v159.354" transform="translate(-1671.542 11700)" fill="none" stroke="#006c62" stroke-width="1"/>
  </g>
</svg>
