<svg xmlns="http://www.w3.org/2000/svg" width="114" height="114" viewBox="0 0 114 114"><g transform="translate(-428 -924)"><g transform="translate(440.002 936.002)"><g transform="translate(1.404 49.68)"><path d="M41.272,411.83H8V400.119c0-3.7,3.306-5.773,7.05-6.736a38.531,38.531,0,0,1,19.176,0c3.753.931,7.05,3.033,7.05,6.736V411.83Z" transform="translate(-7.997 -372.912)" fill="#bbdeaf" fill-rule="evenodd"/><path d="M119.28,411.831H102.642V392.172a40.083,40.083,0,0,1,9.588,1.212c3.753.931,7.05,3.033,7.05,6.736Z" transform="translate(-86.004 -372.913)" fill="#91b785" fill-rule="evenodd"/><path d="M67.539,282.616c4.135,0,7.487,2.356,7.487,7.791s-3.352,9.84-7.487,9.84-7.487-4.406-7.487-9.84S63.4,282.616,67.539,282.616Z" transform="translate(-50.901 -282.616)" fill="#f6dccd" fill-rule="evenodd"/><path d="M102.643,282.616c4.135,0,7.487,2.356,7.487,7.791s-3.352,9.84-7.487,9.84Z" transform="translate(-86.005 -282.616)" fill="#f1cbbc" fill-rule="evenodd"/></g><g transform="translate(55.321 49.68)"><path d="M347.986,411.83V400.119c0-3.7-3.3-5.8-7.05-6.736a38.532,38.532,0,0,0-19.176,0c-3.744.963-7.05,3.031-7.05,6.736V411.83Z" transform="translate(-314.71 -372.912)" fill="#ffce7e" fill-rule="evenodd"/><path d="M425.994,411.832V400.121c0-3.7-3.3-5.8-7.05-6.736a40.075,40.075,0,0,0-9.588-1.212v19.659Z" transform="translate(-392.718 -372.914)" fill="#f8b74b" fill-rule="evenodd"/><path d="M374.251,282.616c4.135,0,7.487,2.356,7.487,7.791s-3.352,9.84-7.487,9.84-7.487-4.406-7.487-9.84S370.116,282.616,374.251,282.616Z" transform="translate(-357.613 -282.616)" fill="#f6dccd" fill-rule="evenodd"/><path d="M409.355,282.616c4.135,0,7.487,2.356,7.487,7.791s-3.352,9.84-7.487,9.84Z" transform="translate(-392.717 -282.616)" fill="#f1cbbc" fill-rule="evenodd"/></g><g transform="translate(17.838 1.404)"><path d="M133.486,46.439c.354.231,19.511-5.251,17.677-21.906C149.281,15.163,138.946,8,126.478,8c-13.8,0-24.993,8.781-24.993,19.612,0,6.3,3.792,11.914,9.683,15.5q-.62,3.261-4.476,7.658a14.646,14.646,0,0,0,11.553-4.637,31.185,31.185,0,0,0,8.232,1.09,31.425,31.425,0,0,0,7.008-.783Z" transform="translate(-101.485 -7.997)" fill="#ff854e" fill-rule="evenodd"/><path d="M133.486,138.393c.331.216,17.122-4.57,17.78-18.829H101.485c0,6.3,3.792,11.914,9.683,15.5q-.62,3.261-4.476,7.658a14.646,14.646,0,0,0,11.553-4.637,31.683,31.683,0,0,0,15.241.307Z" transform="translate(-101.485 -99.952)" fill="#ff854e" fill-rule="evenodd"/><path d="M251.119,80.088c8.483,0,15.36,6.1,15.36,13.623a12.939,12.939,0,0,1-4.934,10,12.079,12.079,0,0,0,3.024,5.138,9.9,9.9,0,0,1-7.331-2.643,16.989,16.989,0,0,1-6.119,1.125c-8.483,0-15.36-6.1-15.36-13.623s6.877-13.623,15.36-13.623Z" transform="translate(-212.155 -67.415)" fill="#fff3c6" fill-rule="evenodd"/></g><path d="M56.854,42.524a18.278,18.278,0,0,0,5.891-.961,11.294,11.294,0,0,0,6.915,2.516q.41,0,.813-.036a1.216,1.216,0,0,0,.805-2.013A13.078,13.078,0,0,1,68.7,38.088,14.182,14.182,0,0,0,73.5,27.625a14.1,14.1,0,0,0-4.779-10.43C66.476,7.207,55.666,0,42.822,0,28.31,0,16.5,9.38,16.5,20.912c0,6.305,3.467,12.14,9.549,16.127a18.892,18.892,0,0,1-4.017,6.331,1.216,1.216,0,0,0,.805,2.013q.568.052,1.146.051A16.184,16.184,0,0,0,34.928,40.87a33.25,33.25,0,0,0,14.833.213,18.139,18.139,0,0,0,7.093,1.441Zm14.211-14.9a11.7,11.7,0,0,1-4.51,9.106,1.216,1.216,0,0,0-.421,1.181A9.886,9.886,0,0,0,67.7,41.38a8.941,8.941,0,0,1-3.871-2.095,1.216,1.216,0,0,0-1.265-.243,15.793,15.793,0,0,1-5.708,1.048c-7.835,0-14.211-5.593-14.211-12.466s6.375-12.466,14.211-12.466,14.211,5.592,14.211,12.466ZM34.874,38.341a1.219,1.219,0,0,0-1.212.344,13.669,13.669,0,0,1-8.094,4.2,15.445,15.445,0,0,0,3.071-6.174,1.216,1.216,0,0,0-.562-1.267c-5.81-3.538-9.142-8.835-9.142-14.53,0-10.191,10.715-18.482,23.886-18.482,10.219,0,19.27,5.156,22.561,12.425a17.994,17.994,0,0,0-8.529-2.129c-9.177,0-16.643,6.683-16.643,14.9a14.341,14.341,0,0,0,6.153,11.553,30.7,30.7,0,0,1-11.49-.836ZM67.088,28.4a1.216,1.216,0,0,1-1.216,1.216H62.757a1.216,1.216,0,1,1,0-2.433h3.115A1.216,1.216,0,0,1,67.088,28.4Zm-7.46,0a1.216,1.216,0,0,1-1.216,1.216H55.3a1.216,1.216,0,0,1,0-2.433h3.115A1.216,1.216,0,0,1,59.628,28.4Zm-7.459,0a1.216,1.216,0,0,1-1.216,1.216H47.837a1.216,1.216,0,0,1,0-2.433h3.115A1.216,1.216,0,0,1,52.169,28.4ZM42.822,8.611C35.7,8.611,27.456,12,25.483,18.469a8.38,8.38,0,0,0-.367,2.443,1.216,1.216,0,0,1-2.433,0,10.8,10.8,0,0,1,.473-3.152C25.473,10.156,34.8,6.178,42.821,6.178a1.216,1.216,0,0,1,0,2.433ZM27.847,69.08a42.18,42.18,0,0,0-6.979-1.118c3.371-1.54,5.792-5.631,5.792-10.437,0-5.576-3.347-9.041-8.736-9.041s-8.736,3.464-8.736,9.041c0,4.794,2.409,8.875,5.766,10.425a39.5,39.5,0,0,0-6.961,1.132C2.837,70.408,0,73.229,0,77.025V88.788a1.216,1.216,0,1,0,2.433,0V77.025c0-3.307,3.354-4.864,6.168-5.586a37.706,37.706,0,0,1,18.663,0c2.3.57,6.157,2.055,6.157,5.584V88.787a1.216,1.216,0,1,0,2.433,0V77.025c0-3.788-2.918-6.683-8-7.946ZM11.621,57.525c0-5.75,3.95-6.608,6.3-6.608s6.3.858,6.3,6.608c0,4.779-2.828,8.667-6.3,8.667s-6.3-3.888-6.3-8.667Zm-1.6,22.353v8.909a1.216,1.216,0,1,1-2.433,0V79.878a1.216,1.216,0,0,1,2.433,0Zm18.234,0v8.909a1.216,1.216,0,1,1-2.433,0V79.878a1.216,1.216,0,0,1,2.433,0ZM82,69.08a42.179,42.179,0,0,0-6.979-1.118c3.371-1.54,5.792-5.631,5.792-10.437,0-5.576-3.348-9.041-8.737-9.041s-8.736,3.464-8.736,9.041c0,4.794,2.409,8.875,5.765,10.425a39.517,39.517,0,0,0-6.963,1.132c-5.154,1.326-7.993,4.147-7.993,7.943V88.788a1.216,1.216,0,1,0,2.433,0V77.025c0-3.307,3.354-4.864,6.167-5.586a37.7,37.7,0,0,1,18.663,0c2.3.57,6.157,2.055,6.157,5.584V88.788a1.216,1.216,0,1,0,2.433,0V77.025C90,73.238,87.086,70.342,82,69.08ZM65.774,57.525c0-5.75,3.949-6.608,6.3-6.608s6.3.858,6.3,6.608c0,4.779-2.828,8.667-6.3,8.667S65.774,62.3,65.774,57.525Zm-1.6,22.353v8.909a1.216,1.216,0,1,1-2.433,0V79.878a1.216,1.216,0,0,1,2.433,0Zm18.233,0v8.909a1.216,1.216,0,1,1-2.433,0V79.878a1.216,1.216,0,0,1,2.433,0Z" fill-rule="evenodd"/></g><rect width="114" height="114" transform="translate(428 924)" fill="none"/></g></svg>