<svg xmlns="http://www.w3.org/2000/svg" width="114" height="114" viewBox="0 0 114 114"><g transform="translate(-923 -924)"><g transform="translate(935.5 935.997)"><path d="M284,7.5H245.364a3.512,3.512,0,0,0-3.512,3.512V42.624a3.512,3.512,0,0,0,3.512,3.512h19.492a1.054,1.054,0,0,1,1.054,1.054v5.477a1.054,1.054,0,0,0,1.728.809l8.417-7.014a1.4,1.4,0,0,1,.9-.326H284a3.512,3.512,0,0,0,3.512-3.512V11.016A3.512,3.512,0,0,0,284,7.5Z" transform="translate(-199.811 -6.197)" fill="#79be60"/><g transform="translate(1.302 21.831)"><path d="M216.078,168.341l-2.433,1.4a1.4,1.4,0,0,1-1.919-.514l-23.179-40.147a1.4,1.4,0,0,1,.514-1.919l2.433-1.4a1.4,1.4,0,0,1,1.919.514l23.179,40.147a1.4,1.4,0,0,1-.514,1.919Z" transform="translate(-156.918 -125.572)" fill="#ff854e"/><path d="M266.579,204.574l-2.239,2.431L253.8,188.756l3.225-.724a3.512,3.512,0,0,1,3.81,1.671l6.2,10.735A3.512,3.512,0,0,1,266.579,204.574Z" transform="translate(-210.987 -177.105)" fill="#fff3c6"/><path d="M270.952,222.911a60.84,60.84,0,0,1,.725,11.887l8.17,14.151a1.4,1.4,0,0,0,1.919.514l2.433-1.4a1.4,1.4,0,0,0,.514-1.919l-13.9-24.077Q270.884,222.485,270.952,222.911Z" transform="translate(-225.039 -205.29)" fill="#fe5ca7"/><path d="M100.372,419.737l-2.1,1.212a1.756,1.756,0,0,1-2.2-.362L85.2,408.217l7.908-4.566,7.9,13.687a1.756,1.756,0,0,1-.643,2.4Z" transform="translate(-71.696 -355.312)" fill="#dff6fd"/><path d="M85.206,408.218l3.073,3.5,7.117-4.109-2.283-3.954Z" transform="translate(-71.697 -355.313)" fill="#c8effe"/><path d="M135.351,405.991l1.408-.813a1.756,1.756,0,0,0,.861-1.764l-.937-6.687-5.986,1.2Z" transform="translate(-109.281 -349.592)" fill="#528fd8"/><path d="M112.96,192.772l-32.337,6.5L70.087,181.027l21.8-24.753Z" transform="translate(-59.206 -150.937)" fill="#dff6fd"/><path d="M152.261,160.815c3.306,5.817,4.065,15.188,1.441,24.982a43.766,43.766,0,0,1-5.7,12.874l29.329-5.9-21.072-36.5Z" transform="translate(-123.578 -150.937)" fill="#c8effe"/><path d="M28.908,316.92l-9.125,5.268a3.512,3.512,0,0,1-4.8-1.285L7.962,308.736a3.512,3.512,0,0,1,1.285-4.8l9.124-5.268Z" transform="translate(-7.491 -268.581)" fill="#ffd63d"/><path d="M0,0H4.917V21.072H0Z" transform="matrix(0.866, -0.5, 0.5, 0.866, 6.623, 32.547)" fill="#ffd63d"/></g><g transform="translate(0 0.003)"><path d="M87.7,14.716a1.3,1.3,0,0,0,1.3-1.3V4.818A4.821,4.821,0,0,0,84.186,0H45.553a4.821,4.821,0,0,0-4.815,4.815v20.2l-1.812-3.138a2.712,2.712,0,0,0-3.7-.992l-2.431,1.4a2.708,2.708,0,0,0-.993,3.7l.585,1.014L11.346,50.9,2.407,56.059A4.821,4.821,0,0,0,.644,62.638L7.668,74.8a4.818,4.818,0,0,0,6.579,1.762l.29-.167,3.6,4.1A1.3,1.3,0,1,0,20.1,78.779l-3.26-3.71,5.4-3.119,7.25,12.558a.451.451,0,0,1-.166.618l-2.1,1.211a.456.456,0,0,1-.568-.092l-2.547-2.9a1.3,1.3,0,0,0-1.958,1.722l2.547,2.9a3.072,3.072,0,0,0,3.827.629l2.1-1.211a3.059,3.059,0,0,0,1.121-4.18l-2.6-4.5.279-.161a3.047,3.047,0,0,0,1.5-3.074L30.166,70,54.4,65.128l.585,1.012A2.689,2.689,0,0,0,56.625,67.4a2.7,2.7,0,0,0,2.056-.27l2.434-1.4a2.708,2.708,0,0,0,.99-3.7L56.263,51.91l1.59-1.726a4.794,4.794,0,0,0,.628-5.67l-1.888-3.27h8.2v5.225A2.337,2.337,0,0,0,66.152,48.6a2.337,2.337,0,0,0,2.509-.324l8.418-7.015a.1.1,0,0,1,.065-.022h7.042A4.822,4.822,0,0,0,89,36.426V19.5a1.3,1.3,0,1,0-2.607,0V36.426a2.211,2.211,0,0,1-2.208,2.21H77.144a2.713,2.713,0,0,0-1.735.627L67.4,45.935V40.993a2.36,2.36,0,0,0-2.357-2.357H55.088l-2.8-4.858a4.8,4.8,0,0,0-5.225-2.291L44.768,32l-1.423-2.464V4.818a2.21,2.21,0,0,1,2.207-2.208H84.186a2.21,2.21,0,0,1,2.208,2.208v8.594a1.3,1.3,0,0,0,1.3,1.3ZM12.943,74.308A2.211,2.211,0,0,1,9.926,73.5L9.7,73.108,11.612,72a1.3,1.3,0,0,0-1.3-2.258L8.4,70.85l-1.33-2.3,1.912-1.1a1.3,1.3,0,0,0-1.3-2.258l-1.912,1.1-1.33-2.3,1.912-1.1a1.3,1.3,0,0,0-1.3-2.258l-1.912,1.1L2.9,61.334a2.208,2.208,0,0,1,.808-3.016l8-4.616,9.232,15.991ZM28.35,75.833a.451.451,0,0,1-.222.455l-.279.161L24.755,71.09l2.85-.573ZM59.857,63.41a.1.1,0,0,1-.046.061l-2.433,1.4a.1.1,0,0,1-.078.011.1.1,0,0,1-.061-.047L53.116,57.7A1.3,1.3,0,1,0,50.858,59l2.162,3.745L23.38,68.707,13.78,52.08,33.763,29.391l14.052,24.34a1.3,1.3,0,0,0,2.258-1.3L34.06,24.691a.1.1,0,0,1,.038-.138l2.431-1.4a.1.1,0,0,1,.139.037l23.18,40.148a.1.1,0,0,1,.01.076ZM47.629,34.031a2.2,2.2,0,0,1,2.4,1.051l6.2,10.735a2.2,2.2,0,0,1-.288,2.6L54.9,49.544,46.134,34.366Z" transform="translate(0 -0.003)"/></g></g><rect width="114" height="114" transform="translate(923 924)" fill="none"/></g></svg>