<svg xmlns="http://www.w3.org/2000/svg" width="248" height="248" viewBox="0 0 248 248"><g transform="translate(-923 -1018)"><g transform="translate(923 1018)" fill="#fffdf4" stroke="#fff" stroke-width="1"><rect width="248" height="248" rx="20" stroke="none"/><rect x="0.5" y="0.5" width="247" height="247" rx="19.5" fill="none"/></g><g transform="translate(971 1047.518)"><path d="M11.989,144.976,70.435,43.745a14.525,14.525,0,0,1,25.157,0l58.446,101.232a14.525,14.525,0,0,1-12.579,21.787H24.567a14.525,14.525,0,0,1-12.579-21.787Z" transform="translate(-7.048 -7.033)" fill="#ff854e"/><g transform="translate(17.031 43.409)"><path d="M57.4,185.609h117.87L116.333,83.531Z" transform="translate(-57.398 -83.531)" fill="#ffd63d"/></g><g transform="translate(68.845 77.243)"><path d="M239.142,353.8a7.121,7.121,0,1,1,7.121-7.121A7.121,7.121,0,0,1,239.142,353.8Z" transform="translate(-232.021 -297.423)" fill="#fff"/><path d="M239.142,227.822a7.121,7.121,0,0,1-7.121-7.121V204.678a7.121,7.121,0,1,1,14.242,0V220.7A7.121,7.121,0,0,1,239.142,227.822Z" transform="translate(-232.021 -197.557)" fill="#fff"/></g><g transform="translate(0 26.482)"><path d="M149.56,136.46,91.114,35.228a17.492,17.492,0,0,0-30.3,0L2.371,136.46A17.492,17.492,0,0,0,17.52,162.7H62.614a2.967,2.967,0,1,0,0-5.934H17.52A11.558,11.558,0,0,1,7.51,139.427L65.957,38.2a11.558,11.558,0,0,1,20.018,0l58.446,101.232a11.558,11.558,0,0,1-10.009,17.336H89.318a2.967,2.967,0,1,0,0,5.934h45.094A17.492,17.492,0,0,0,149.56,136.46Z" transform="translate(0 -26.482)"/><path d="M170.8,180.06a2.966,2.966,0,0,0,0-2.967L111.869,75.015a2.967,2.967,0,0,0-5.139,0L47.8,177.093a2.967,2.967,0,0,0,2.57,4.451h117.87a2.967,2.967,0,0,0,2.57-1.484ZM55.5,175.609l53.8-93.177,53.8,93.177Z" transform="translate(-33.334 -59.571)"/><path d="M232.109,329.557A10.088,10.088,0,1,0,242.2,339.645,10.1,10.1,0,0,0,232.109,329.557Zm0,14.242a4.154,4.154,0,1,1,4.154-4.154A4.159,4.159,0,0,1,232.109,343.8Z" transform="translate(-156.144 -239.629)"/><path d="M222.021,197.645v16.023a10.088,10.088,0,1,0,20.177,0V197.645a10.088,10.088,0,0,0-20.177,0Zm14.242,0v16.023a4.154,4.154,0,1,1-8.308,0V197.645a4.154,4.154,0,1,1,8.308,0Z" transform="translate(-156.144 -139.763)"/><path d="M248.988,465.56a2.968,2.968,0,1,0,2.1.869A2.99,2.99,0,0,0,248.988,465.56Z" transform="translate(-173.022 -335.278)"/></g></g></g></svg>