<svg xmlns="http://www.w3.org/2000/svg" width="162.148" height="172.959" viewBox="0 0 162.148 172.959"><g transform="translate(-4)"><path d="M37.43,168.554H140.124V1H5V136.124Z" transform="translate(1.702 1.702)" fill="#f2f6fc"/><path d="M37.43,83.43V51H5Z" transform="translate(1.702 86.827)" fill="#cdd2e1"/><path d="M9,5H30.62V21.215H9Z" transform="translate(8.512 8.512)" fill="#ffa480"/><path d="M9,8H30.62v8.107H9Z" transform="translate(8.512 13.62)" fill="#ff7045"/><path d="M9,15H30.62V31.215H9Z" transform="translate(8.512 25.537)" fill="#ffa480"/><path d="M9,18H30.62v8.107H9Z" transform="translate(8.512 30.645)" fill="#ff7045"/><ellipse cx="40" cy="41" rx="40" ry="41" transform="translate(34.417 40.647)" fill="#bbdeaf"/><path d="M23.107,55.537A40.553,40.553,0,0,1,59.591,15.205C58.256,15.073,56.9,15,55.537,15a40.537,40.537,0,0,0,0,81.075c1.367,0,2.719-.073,4.054-.205A40.553,40.553,0,0,1,23.107,55.537Z" transform="translate(18.727 25.537)" fill="#b5efff"/><path d="M0,0H19.109V30.576H0Z" transform="translate(128.283 148.638) rotate(-45)" fill="#9196aa"/><path d="M56.459,51.054,60.512,47l8.107,8.107L55.107,68.62,47,60.512l4.054-4.054Z" transform="translate(73.207 80.017)" fill="#707789"/><path d="M63.1,57.693l-5.4,5.4L43.1,48.5a46.406,46.406,0,0,0,5.4-5.4Z" transform="translate(66.567 73.377)" fill="#afb4c8"/><path d="M104.936,99.531a46.407,46.407,0,0,1-5.4,5.4,54.112,54.112,0,1,1,5.4-5.4Zm-.27-35.4a40.537,40.537,0,1,0-40.537,40.537,40.537,40.537,0,0,0,40.537-40.537Z" transform="translate(10.136 16.946)" fill="#ff854e"/><path d="M30.107,39.215,22,47.322,35.512,60.835,65.24,31.107,57.132,23,35.512,44.62Z" transform="translate(30.645 39.157)" fill="#ffd63d"/><path d="M35.512,52.025,24.7,41.215l-2.7,2.7L35.512,57.43,65.24,27.7l-2.7-2.7Z" transform="translate(30.645 42.562)" fill="#ff432e"/><path d="M41.835,137.827a2.7,2.7,0,0,0-2.7-2.7H9.4V5.4H139.124V124.314h5.4V2.7a2.7,2.7,0,0,0-2.7-2.7H6.7A2.7,2.7,0,0,0,4,2.7V137.827c0,.057.03.108.032.168a2.7,2.7,0,0,0,.141.7c.03.086.051.168.089.251a2.7,2.7,0,0,0,.54.792l32.43,32.43a2.716,2.716,0,0,0,1.9.792h99.992v-5.4H41.835Zm-28.609,2.7h23.2v23.2Z"/><path d="M157.045,139.712l-29.727-29.727a2.7,2.7,0,0,0-3.821,0l-2.143,2.143-10.969-10.969a56.912,56.912,0,1,0-9.226,9.226l10.969,10.969-2.143,2.143a2.7,2.7,0,0,0,0,3.821l29.727,29.727a2.7,2.7,0,0,0,3.821,0l13.512-13.512A2.7,2.7,0,0,0,157.045,139.712ZM14.606,65.953A51.347,51.347,0,1,1,65.953,117.3,51.347,51.347,0,0,1,14.606,65.953Zm90.628,40.864q.811-.776,1.584-1.584l10.715,10.715-1.584,1.584Zm20.174,8.9L129.694,120,120,129.694l-4.286-4.286Zm16.215,35.6-17.8-17.8,9.691-9.691,17.8,17.8Z" transform="translate(8.312 15.122)"/><path d="M57.24,14a43.24,43.24,0,1,0,43.24,43.24A43.24,43.24,0,0,0,57.24,14Zm0,81.075A37.835,37.835,0,1,1,95.075,57.24,37.835,37.835,0,0,1,57.24,95.075Z" transform="translate(17.025 23.835)"/><path d="M35.025,22.917V6.7a2.7,2.7,0,0,0-2.7-2.7H10.7A2.7,2.7,0,0,0,8,6.7V22.917a2.7,2.7,0,0,0,2.7,2.7h21.62A2.7,2.7,0,0,0,35.025,22.917Zm-5.4-2.7H13.4V9.4H29.62Z" transform="translate(6.81 6.81)"/><path d="M8,16.7V32.917a2.7,2.7,0,0,0,2.7,2.7h2.7V19.4h8.107V14H10.7A2.7,2.7,0,0,0,8,16.7Z" transform="translate(6.81 23.835)"/><path d="M20,4h5.4V9.4H20Z" transform="translate(27.24 6.81)"/><path d="M24,4H96.967V9.4H24Z" transform="translate(34.05 6.81)"/><path d="M20,58h5.4v5.4H20Z" transform="translate(27.24 98.744)"/><path d="M24,58H72.645v5.4H24Z" transform="translate(34.05 98.744)"/><path d="M20,54H68.645v5.4H20Z" transform="translate(27.24 91.934)"/><path d="M60.745,22.791a2.7,2.7,0,0,0-3.821,0L37.215,42.5,33.72,39.006a2.7,2.7,0,0,0-3.821,0l-8.107,8.107a2.7,2.7,0,0,0,0,3.821L35.3,64.448a2.7,2.7,0,0,0,3.821,0L68.853,34.72a2.7,2.7,0,0,0,0-3.821ZM37.215,58.716l-9.691-9.691,4.286-4.286L35.3,48.233a2.7,2.7,0,0,0,3.821,0L58.834,28.523l4.286,4.286Z" transform="translate(28.943 37.455)"/></g></svg>