<svg xmlns="http://www.w3.org/2000/svg" width="248" height="248" viewBox="0 0 248 248"><g transform="translate(6159 8802)"><g transform="translate(-6159 -8802)" fill="#fffdf4" stroke="#fff" stroke-width="1"><rect width="248" height="248" rx="20" stroke="none"/><rect x="0.5" y="0.5" width="247" height="247" rx="19.5" fill="none"/></g><g transform="translate(-6106 -8749)"><path d="M52.567,13.495,25.243,47.457,31.4,81.473h73.734l-9.48-46.426L58.363,12.48a4.469,4.469,0,0,0-5.8,1.014Z" transform="translate(31.159 14.605)" fill="#dbe6fd"/><path d="M0,0H8.938V8.937H0Z" transform="matrix(0.985, -0.174, 0.174, 0.985, 111.585, 65.931)" fill="#a7d0e1"/><path d="M57.6,5.3,22.264,48.953a4.469,4.469,0,0,0,4.245,7.213l3.635-.641L57.468,21.562a4.469,4.469,0,0,1,5.8-1.021l37.294,22.567,3.635-.641a4.469,4.469,0,0,0,1.526-8.231Z" transform="translate(26.254 6.542)" fill="#ff854e"/><path d="M46.408,15.7a2.234,2.234,0,0,1-1.151-.32l-3.716-2.234a2.234,2.234,0,1,1,2.3-3.83l3.718,2.235A2.234,2.234,0,0,1,46.408,15.7Z" transform="translate(49.94 11.109)" fill="#fff"/><path d="M28.967,48.953,62.1,8.019,57.6,5.3,22.264,48.953a4.469,4.469,0,0,0,4.245,7.213l3.535-.623a4.469,4.469,0,0,1-1.077-6.589Z" transform="translate(26.254 6.542)" fill="#e04b4b"/><path d="M105.138,81.476l-1.37-6.7H65.728A35.721,35.721,0,0,1,32.538,52.223a8.9,8.9,0,0,1,1.381-8.841L52.567,20.2a4.469,4.469,0,0,1,5.8-1.021L95.657,41.746l1.321-.235-1.321-6.469L58.363,12.476a4.469,4.469,0,0,0-5.8,1.021L29.882,41.7l-4.639,5.765.992,5.472L31.4,81.476Z" transform="translate(31.159 14.602)" fill="#bbcff2"/><path d="M0,0H8.938V8.938H0Z" transform="matrix(0.985, -0.174, 0.174, 0.985, 67.572, 73.709)" fill="#a7d0e1"/><path d="M30.256,33.171l1.481,8.4,5.517-.974a35.7,35.7,0,0,1-7-7.429Z" transform="translate(37.347 40.945)" fill="#80bbce"/><circle cx="6.703" cy="6.703" r="6.703" transform="translate(83.742 42.556)" fill="#a7d0e1"/><path d="M139.531,43V87.688H1V43H45.688l8.938,8.938-4.469,4.469,6.7,6.7V74.281l6.7-6.7V58.641l-2.234-2.234V43Z" transform="translate(1.234 53.078)" fill="#f5ead9"/><path d="M7.7,43H1V87.688H139.531v-6.7H45.688A37.984,37.984,0,0,1,7.7,43Z" transform="translate(1.234 53.078)" fill="#f5ead9"/><path d="M8,27h8.938V62.75H8Z" transform="translate(9.875 33.328)" fill="#fcab68"/><path d="M8,44.03a12.244,12.244,0,0,0,8.938,0V27H8Z" transform="translate(9.875 33.328)" fill="#ea8e49"/><ellipse cx="15.5" cy="20" rx="15.5" ry="20" transform="translate(7 34)" fill="#79be60"/><path d="M25.344,47.7C16.706,47.7,9.7,38.7,9.7,27.59a23.986,23.986,0,0,1,3.07-11.929C7.044,18.653,3,25.856,3,34.293,3,45.4,10,54.4,18.641,54.4a14.852,14.852,0,0,0,12.571-8.18A12.631,12.631,0,0,1,25.344,47.7Z" transform="translate(3.703 19.332)" fill="#599149"/><path d="M60.34,58.393H42.2l-3.709-21.07a4.455,4.455,0,0,1,3.62-5.161l8.8-1.564a4.484,4.484,0,0,1,5.184,3.62Z" transform="translate(47.424 37.685)" fill="#ea5b5a"/><path d="M48.133,40.6A35.633,35.633,0,0,1,39.5,39.516l1.37,7.785H59.01l-1.184-6.7Z" transform="translate(48.754 48.778)" fill="#e04b4b"/><path d="M51.43,42.25a2.234,2.234,0,0,0,1.283.4,2.3,2.3,0,0,0,.389-.034l8.8-1.564a2.234,2.234,0,0,0,1.812-2.59l-1.564-8.8a2.234,2.234,0,0,0-2.587-1.812l-8.8,1.564a2.234,2.234,0,0,0-1.812,2.587l1.551,8.8a2.234,2.234,0,0,0,.93,1.443Zm6.719-9.6.778,4.4-4.4.775-.775-4.4Z" transform="translate(60.38 34.34)"/><path d="M41.543,31.7a2.234,2.234,0,0,0-1.669-.371L31.07,32.9a2.234,2.234,0,0,0-1.812,2.59l1.564,8.8a2.234,2.234,0,0,0,2.2,1.848,2.332,2.332,0,0,0,.391-.034l8.8-1.564a2.234,2.234,0,0,0,1.812-2.587l-1.564-8.8a2.216,2.216,0,0,0-.918-1.443ZM34.824,41.3l-.775-4.408,4.4-.775.775,4.4Z" transform="translate(36.073 38.633)"/><path d="M54.217,25.425a14.621,14.621,0,1,0,0,.011Zm-8.024,5.952A4.469,4.469,0,1,1,49.817,26.2a4.469,4.469,0,0,1-3.624,5.173Z" transform="translate(45.03 22.281)"/><path d="M140.766,88.531h-2.643l-8.658-42.391,1.374-.244a6.7,6.7,0,0,0,2.29-12.345L85,4.624a2.234,2.234,0,0,0-2.887.507L46.781,48.777A6.7,6.7,0,0,0,53.156,59.6l1.446-.255,5.727,31.616v13.207a2.234,2.234,0,0,0,.654,1.579l1.58,1.58v7.087l-2.234,2.234v-5.778a2.234,2.234,0,0,0-.654-1.579l-5.124-5.124,2.889-2.889a2.234,2.234,0,0,0,0-3.159L48.5,89.186a2.234,2.234,0,0,0-1.58-.655H29.047V69.012c6.542-3.323,11.172-11.342,11.172-20.7,0-12.32-8.019-22.344-17.875-22.344S4.469,35.992,4.469,48.312c0,9.358,4.63,17.377,11.172,20.7v19.52H2.234A2.234,2.234,0,0,0,0,90.765v44.688a2.234,2.234,0,0,0,2.234,2.234H140.766A2.234,2.234,0,0,0,143,135.453V90.765A2.234,2.234,0,0,0,140.766,88.531ZM52.38,55.2a2.234,2.234,0,0,1-2.125-3.606L84.363,9.454l46.475,27.93a2.234,2.234,0,0,1-.764,4.116l-2.809.494-14.876-9a2.234,2.234,0,0,0-2.315,3.821l14.747,8.938,8.739,42.777h-10.3l-1.47-8.334,3.108-4.42a2.235,2.235,0,1,0-3.662-2.563l-3.095,4.42-3.5.619a2.234,2.234,0,0,0,.384,4.435,2.33,2.33,0,0,0,.391-.034l2.2-.389,1.117,6.27h-9.1l-3.921-22.328a6.7,6.7,0,0,0-7.776-5.432l-8.8,1.564a6.69,6.69,0,0,0-5.434,7.749L86.96,88.531H64.428l-5.646-31.17,6.985-8.681,2.152,1.506-2.344,3.352a2.234,2.234,0,0,0,.547,3.112l7.767,5.438a2.235,2.235,0,0,0,2.563-3.662l-5.935-4.16,2.344-3.352a2.234,2.234,0,0,0-.55-3.112l-3.738-2.619,16.894-21a2.234,2.234,0,0,1,2.9-.512L102.7,32.341a2.234,2.234,0,1,0,2.317-3.814L90.687,19.853a6.725,6.725,0,0,0-8.692,1.533L55.189,54.7ZM88.113,69.315a2.223,2.223,0,0,1,1.81-2.574l8.795-1.564a2.234,2.234,0,0,1,2.6,1.805L105.1,88.531H91.5Zm-79.175-21c0-9.856,6.013-17.875,13.406-17.875S35.75,38.457,35.75,48.312,29.737,66.187,22.344,66.187,8.937,58.168,8.937,48.312ZM20.109,70.462a14.245,14.245,0,0,0,2.234.194,14.245,14.245,0,0,0,2.234-.194V88.531H20.109Zm118.422,62.757H91.609v-3.544l3.814-3.814a2.234,2.234,0,1,0-3.16-3.16l-2.889,2.889-2.234-2.234v-5.778a2.234,2.234,0,1,0-4.469,0v4.469H80.437a2.234,2.234,0,0,0,0,4.469h3.544l3.159,3.159v3.544H4.469V93H23.653l6.7,6.7L19.184,110.875H11.172a2.234,2.234,0,1,0,0,4.469h8.012L23,119.158a2.234,2.234,0,1,0,3.16-3.16l-2.889-2.889L35.1,101.283a2.234,2.234,0,0,0,0-3.159L29.972,93H46l6.7,6.7-2.889,2.889a2.234,2.234,0,0,0,0,3.159l6.048,6.048v10.247a2.234,2.234,0,0,0,3.814,1.58l6.7-6.7a2.234,2.234,0,0,0,.655-1.58v-8.937a2.234,2.234,0,0,0-.654-1.579l-1.58-1.58V93h50.466l-4.469,4.469H107.25a2.234,2.234,0,1,0,0,4.469h3.544l5.394,5.394v5.778a2.234,2.234,0,0,0,.654,1.579l6.7,6.7a2.234,2.234,0,1,0,3.16-3.16l-6.049-6.048V108.64h4.469a2.234,2.234,0,0,0,0-4.469h-5.778L114.878,99.7l6.7-6.7h16.95Z" transform="translate(0 5.313)"/><path d="M18.234,17.875a2.234,2.234,0,0,0,1.579-.654l2.235-2.235a5.4,5.4,0,0,0,0-7.628.925.925,0,0,1,0-1.309l2.234-2.234a2.234,2.234,0,1,0-3.16-3.16L18.889,2.889a5.4,5.4,0,0,0,0,7.628.925.925,0,0,1,0,1.309l-2.234,2.234a2.234,2.234,0,0,0,1.58,3.814Z" transform="translate(19.75)"/><path d="M20.655,14.061a2.234,2.234,0,1,0,3.16,3.16l2.234-2.235a5.4,5.4,0,0,0,0-7.628.925.925,0,0,1,0-1.309l2.234-2.234a2.234,2.234,0,1,0-3.16-3.16L22.889,2.889a5.4,5.4,0,0,0,0,7.628.925.925,0,0,1,0,1.309Z" transform="translate(24.688 0)"/><path d="M58.234,19.875a2.234,2.234,0,0,0,1.579-.654l2.235-2.235a5.4,5.4,0,0,0,0-7.628.925.925,0,0,1,0-1.309l2.234-2.234a2.234,2.234,0,1,0-3.16-3.16L58.889,4.889a5.4,5.4,0,0,0,0,7.628.925.925,0,0,1,0,1.309l-2.234,2.234a2.234,2.234,0,0,0,1.58,3.814Z" transform="translate(69.125 2.469)"/><path d="M60.655,16.061a2.234,2.234,0,1,0,3.16,3.16l2.234-2.235a5.4,5.4,0,0,0,0-7.628.925.925,0,0,1,0-1.309l2.234-2.234a2.234,2.234,0,1,0-3.16-3.16L62.889,4.889a5.4,5.4,0,0,0,0,7.628.925.925,0,0,1,0,1.309Z" transform="translate(74.063 2.469)"/><path d="M18.655,36.889a2.234,2.234,0,1,0,3.16,3.16l2.234-2.235a2.234,2.234,0,1,0-3.16-3.16Z" transform="translate(22.219 41.969)"/><path d="M66.048,24.654a2.234,2.234,0,0,0-3.159,0l-2.234,2.234a2.234,2.234,0,1,0,3.16,3.16l2.234-2.235A2.234,2.234,0,0,0,66.048,24.654Z" transform="translate(74.063 29.625)"/><path d="M26.469,41.469V39.234a2.234,2.234,0,0,0-4.469,0v2.234a2.234,2.234,0,0,0,4.469,0Z" transform="translate(27.156 45.672)"/><path d="M63.814,29.655a2.234,2.234,0,1,0-3.16,3.16l2.235,2.234a2.234,2.234,0,1,0,3.16-3.16Z" transform="translate(74.062 35.797)"/></g></g></svg>