<svg xmlns="http://www.w3.org/2000/svg" xmlns:xlink="http://www.w3.org/1999/xlink" width="505" height="478" viewBox="0 0 505 478"><defs><clipPath id="a"><rect width="334.388" height="236.617" fill="none"/></clipPath></defs><g transform="translate(-285 -1956)"><path d="M0,0H505V478H0Z" transform="translate(285 1956)" fill="#ffd63d"/><path d="M-120.371-3.4a1.268,1.268,0,0,0-.479-1.055,5.954,5.954,0,0,0-1.683-.782,16.147,16.147,0,0,1-1.969-.782q-2.487-1.222-2.487-3.357a3.011,3.011,0,0,1,.62-1.876,4.008,4.008,0,0,1,1.753-1.266,6.823,6.823,0,0,1,2.549-.453,5.969,5.969,0,0,1,2.474.492,3.917,3.917,0,0,1,1.7,1.4A3.661,3.661,0,0,1-117.286-9h-3.076a1.547,1.547,0,0,0-.479-1.213,1.867,1.867,0,0,0-1.3-.431,2.106,2.106,0,0,0-1.305.365,1.119,1.119,0,0,0-.479.927,1.127,1.127,0,0,0,.527.892,6.65,6.65,0,0,0,1.854.826,11.36,11.36,0,0,1,2.18.918,3.663,3.663,0,0,1,2.074,3.3,3.125,3.125,0,0,1-1.266,2.637,5.629,5.629,0,0,1-3.472.958,6.888,6.888,0,0,1-2.817-.558,4.247,4.247,0,0,1-1.9-1.529,3.985,3.985,0,0,1-.637-2.237h3.094a1.963,1.963,0,0,0,.532,1.516,2.513,2.513,0,0,0,1.727.488,1.985,1.985,0,0,0,1.208-.33A1.088,1.088,0,0,0-120.371-3.4Zm9.132,3.577a4.889,4.889,0,0,1-3.542-1.305,4.507,4.507,0,0,1-1.354-3.4v-.246a5.84,5.84,0,0,1,.541-2.575,3.955,3.955,0,0,1,1.578-1.727,4.763,4.763,0,0,1,2.461-.611,4.117,4.117,0,0,1,3.164,1.244,4.887,4.887,0,0,1,1.16,3.467v1.151h-5.889a2.135,2.135,0,0,0,.694,1.257,2.066,2.066,0,0,0,1.389.457,2.662,2.662,0,0,0,2.2-.984l1.354,1.6a3.784,3.784,0,0,1-1.569,1.217A5.3,5.3,0,0,1-111.239.176Zm-.334-7.576q-1.3,0-1.547,1.723h2.988v-.229a1.467,1.467,0,0,0-.36-1.1A1.434,1.434,0,0,0-111.573-7.4Zm5.186,2.575a6.421,6.421,0,0,1,.475-2.549,3.821,3.821,0,0,1,1.362-1.709,3.591,3.591,0,0,1,2.065-.6,2.855,2.855,0,0,1,2.32,1l.105-.826h2.689V-.36a4.009,4.009,0,0,1-.584,2.184,3.75,3.75,0,0,1-1.692,1.424,6.219,6.219,0,0,1-2.566.5,5.365,5.365,0,0,1-2.026-.4,3.657,3.657,0,0,1-1.5-1.028L-104.5.58a2.716,2.716,0,0,0,2.18.976,1.764,1.764,0,0,0,1.969-2.021v-.3a2.781,2.781,0,0,1-2.153.94,3.437,3.437,0,0,1-2.812-1.332,5.517,5.517,0,0,1-1.072-3.564Zm2.971.185a3.383,3.383,0,0,0,.439,1.85,1.386,1.386,0,0,0,1.23.681,1.573,1.573,0,0,0,1.4-.642v-4a1.534,1.534,0,0,0-1.38-.65,1.4,1.4,0,0,0-1.239.708A3.858,3.858,0,0,0-103.417-4.641Zm13.395,3.612a3.054,3.054,0,0,1-2.54,1.2,3,3,0,0,1-2.369-.91,3.826,3.826,0,0,1-.8-2.615V-9.51h2.962v6.179a1.065,1.065,0,0,0,1.187,1.222,1.548,1.548,0,0,0,1.45-.729V-9.51h2.979V0h-2.777ZM-82.411,0h-2.971V-9.51h2.971Zm-3.146-11.962A1.322,1.322,0,0,1-85.1-13a1.724,1.724,0,0,1,1.187-.4,1.724,1.724,0,0,1,1.187.4,1.322,1.322,0,0,1,.457,1.037,1.322,1.322,0,0,1-.457,1.037,1.724,1.724,0,0,1-1.187.4,1.724,1.724,0,0,1-1.187-.4A1.322,1.322,0,0,1-85.557-11.962Zm7.77,2.452.1,1.116a3.27,3.27,0,0,1,2.716-1.292,2.407,2.407,0,0,1,2.435,1.433,3.165,3.165,0,0,1,2.795-1.433q2.892,0,2.971,3.5V0h-2.971V-6a1.813,1.813,0,0,0-.246-1.063,1.048,1.048,0,0,0-.9-.334,1.4,1.4,0,0,0-1.31.782l.009.123V0H-75.16V-5.985A1.906,1.906,0,0,0-75.4-7.066,1.045,1.045,0,0,0-76.3-7.4a1.42,1.42,0,0,0-1.3.782V0h-2.962V-9.51ZM-61.958,0h-2.971V-9.51h2.971ZM-65.1-11.962A1.322,1.322,0,0,1-64.648-13a1.724,1.724,0,0,1,1.187-.4,1.724,1.724,0,0,1,1.187.4,1.322,1.322,0,0,1,.457,1.037,1.322,1.322,0,0,1-.457,1.037,1.724,1.724,0,0,1-1.187.4,1.724,1.724,0,0,1-1.187-.4A1.322,1.322,0,0,1-65.1-11.962ZM-55.534.176a4.889,4.889,0,0,1-3.542-1.305,4.507,4.507,0,0,1-1.354-3.4v-.246a5.84,5.84,0,0,1,.541-2.575,3.955,3.955,0,0,1,1.578-1.727,4.763,4.763,0,0,1,2.461-.611,4.117,4.117,0,0,1,3.164,1.244,4.887,4.887,0,0,1,1.16,3.467v1.151h-5.889a2.135,2.135,0,0,0,.694,1.257,2.066,2.066,0,0,0,1.389.457,2.662,2.662,0,0,0,2.2-.984l1.354,1.6A3.784,3.784,0,0,1-53.35-.277,5.3,5.3,0,0,1-55.534.176ZM-55.868-7.4q-1.3,0-1.547,1.723h2.988v-.229a1.467,1.467,0,0,0-.36-1.1A1.434,1.434,0,0,0-55.868-7.4Zm8.253-2.109.1,1.116A3.225,3.225,0,0,1-44.8-9.686a2.713,2.713,0,0,1,2.219.888,4.226,4.226,0,0,1,.76,2.672V0h-2.971V-6a1.6,1.6,0,0,0-.29-1.059A1.342,1.342,0,0,0-46.138-7.4a1.413,1.413,0,0,0-1.292.686V0h-2.962V-9.51Zm10.881-2.364V-9.51h1.564v2.057h-1.564V-3.1a1.111,1.111,0,0,0,.193.747,1.037,1.037,0,0,0,.765.211,4.345,4.345,0,0,0,.738-.053V-.079a5.466,5.466,0,0,1-1.67.255,3.1,3.1,0,0,1-2.259-.721A2.954,2.954,0,0,1-39.7-2.733v-4.72h-1.213V-9.51H-39.7v-2.364Zm2.092,7.031a5.613,5.613,0,0,1,.554-2.536A3.96,3.96,0,0,1-32.5-9.088a4.791,4.791,0,0,1,2.435-.6A4.373,4.373,0,0,1-26.7-8.363a5.076,5.076,0,0,1,1.23,3.6v.105A4.925,4.925,0,0,1-26.7-1.129,4.384,4.384,0,0,1-30.045.176a4.434,4.434,0,0,1-3.261-1.217,4.761,4.761,0,0,1-1.327-3.3Zm2.962.185a3.538,3.538,0,0,0,.413,1.934,1.376,1.376,0,0,0,1.222.615q1.582,0,1.617-2.435v-.3q0-2.558-1.635-2.558-1.485,0-1.608,2.206Zm11.628-.167a5.809,5.809,0,0,1,.976-3.56,3.211,3.211,0,0,1,2.725-1.3,2.731,2.731,0,0,1,2.145,1V-13.5h2.971V0H-13.9l-.149-1.02a2.8,2.8,0,0,1-2.32,1.2,3.205,3.205,0,0,1-2.689-1.3A5.993,5.993,0,0,1-20.052-4.825Zm2.962.185q0,2.531,1.477,2.531a1.458,1.458,0,0,0,1.406-.826V-6.557A1.419,1.419,0,0,0-15.6-7.4q-1.371,0-1.485,2.215ZM-4.953.176A4.889,4.889,0,0,1-8.495-1.129a4.507,4.507,0,0,1-1.354-3.4v-.246a5.84,5.84,0,0,1,.541-2.575A3.955,3.955,0,0,1-7.73-9.075a4.763,4.763,0,0,1,2.461-.611A4.117,4.117,0,0,1-2.1-8.442,4.887,4.887,0,0,1-.945-4.975v1.151H-6.833a2.135,2.135,0,0,0,.694,1.257,2.066,2.066,0,0,0,1.389.457,2.662,2.662,0,0,0,2.2-.984l1.354,1.6A3.784,3.784,0,0,1-2.769-.277,5.3,5.3,0,0,1-4.953.176ZM-5.287-7.4q-1.3,0-1.547,1.723h2.988v-.229a1.467,1.467,0,0,0-.36-1.1A1.434,1.434,0,0,0-5.287-7.4ZM3.371,0H.4V-13.5H3.371Zm9.756-11.874V-9.51h1.564v2.057H13.126V-3.1a1.111,1.111,0,0,0,.193.747,1.037,1.037,0,0,0,.765.211,4.345,4.345,0,0,0,.738-.053V-.079a5.466,5.466,0,0,1-1.67.255,3.1,3.1,0,0,1-2.259-.721,2.954,2.954,0,0,1-.729-2.188v-4.72H8.952V-9.51h1.213v-2.364Zm8.481,5.045-.976-.07a1.752,1.752,0,0,0-1.793.879V0H15.877V-9.51h2.777l.1,1.222a2.294,2.294,0,0,1,2.083-1.4,2.888,2.888,0,0,1,.826.105ZM27.769,0a3.344,3.344,0,0,1-.281-.853A2.754,2.754,0,0,1,25.2.176a3.374,3.374,0,0,1-2.285-.813,2.588,2.588,0,0,1-.94-2.043A2.66,2.66,0,0,1,23.12-5.019a5.821,5.821,0,0,1,3.322-.791h.914v-.5q0-1.316-1.134-1.316a.927.927,0,0,0-1.055,1.042H22.206a2.655,2.655,0,0,1,1.173-2.239,4.931,4.931,0,0,1,2.993-.86,4.323,4.323,0,0,1,2.874.888,3.086,3.086,0,0,1,1.081,2.435v4.21a4.311,4.311,0,0,0,.4,2V0ZM25.915-1.934a1.652,1.652,0,0,0,.918-.237,1.487,1.487,0,0,0,.523-.536V-4.228h-.861q-1.547,0-1.547,1.389a.848.848,0,0,0,.272.655A.986.986,0,0,0,25.915-1.934Zm14.88-2.742a5.8,5.8,0,0,1-.967,3.595A3.238,3.238,0,0,1,37.1.176,2.81,2.81,0,0,1,34.765-.976L34.642,0H31.988V-13.5H34.95v4.755a2.711,2.711,0,0,1,2.136-.94,3.239,3.239,0,0,1,2.742,1.274,5.826,5.826,0,0,1,.967,3.586Zm-2.971-.189a3.866,3.866,0,0,0-.365-1.952A1.229,1.229,0,0,0,36.338-7.4a1.418,1.418,0,0,0-1.389.763v3.773a1.426,1.426,0,0,0,1.406.755,1.258,1.258,0,0,0,1.327-1.018A7.309,7.309,0,0,0,37.824-4.865ZM47.457,0a3.344,3.344,0,0,1-.281-.853A2.754,2.754,0,0,1,44.89.176,3.374,3.374,0,0,1,42.6-.637a2.588,2.588,0,0,1-.94-2.043,2.66,2.66,0,0,1,1.143-2.338,5.821,5.821,0,0,1,3.322-.791h.914v-.5q0-1.316-1.134-1.316a.927.927,0,0,0-1.055,1.042H41.893a2.655,2.655,0,0,1,1.173-2.239,4.931,4.931,0,0,1,2.993-.86,4.323,4.323,0,0,1,2.874.888,3.086,3.086,0,0,1,1.081,2.435v4.21a4.311,4.311,0,0,0,.4,2V0ZM45.6-1.934a1.652,1.652,0,0,0,.918-.237,1.487,1.487,0,0,0,.523-.536V-4.228h-.861q-1.547,0-1.547,1.389a.848.848,0,0,0,.272.655A.986.986,0,0,0,45.6-1.934ZM54.839-9.51V.325a3.452,3.452,0,0,1-.967,2.6,3.714,3.714,0,0,1-2.672.914,6.308,6.308,0,0,1-1.4-.149V1.45a5.667,5.667,0,0,0,.835.079A1.084,1.084,0,0,0,51.869.308V-9.51Zm-3.19-2.452A1.322,1.322,0,0,1,52.106-13a1.724,1.724,0,0,1,1.187-.4,1.724,1.724,0,0,1,1.187.4,1.322,1.322,0,0,1,.457,1.037,1.322,1.322,0,0,1-.457,1.037,1.724,1.724,0,0,1-1.187.4,1.724,1.724,0,0,1-1.187-.4A1.322,1.322,0,0,1,51.649-11.962ZM56.14-4.843a5.613,5.613,0,0,1,.554-2.536,3.96,3.96,0,0,1,1.591-1.709,4.791,4.791,0,0,1,2.435-.6,4.373,4.373,0,0,1,3.366,1.323,5.076,5.076,0,0,1,1.23,3.6v.105a4.925,4.925,0,0,1-1.235,3.529A4.384,4.384,0,0,1,60.737.176a4.434,4.434,0,0,1-3.261-1.217,4.761,4.761,0,0,1-1.327-3.3Zm2.962.185a3.538,3.538,0,0,0,.413,1.934,1.376,1.376,0,0,0,1.222.615q1.582,0,1.617-2.435v-.3q0-2.558-1.635-2.558-1.485,0-1.608,2.206ZM76.46,0a3.344,3.344,0,0,1-.281-.853A2.754,2.754,0,0,1,73.894.176a3.374,3.374,0,0,1-2.285-.813,2.588,2.588,0,0,1-.94-2.043,2.66,2.66,0,0,1,1.143-2.338,5.821,5.821,0,0,1,3.322-.791h.914v-.5q0-1.316-1.134-1.316a.927.927,0,0,0-1.055,1.042H70.9A2.655,2.655,0,0,1,72.07-8.825a4.931,4.931,0,0,1,2.993-.86,4.323,4.323,0,0,1,2.874.888,3.086,3.086,0,0,1,1.081,2.435v4.21a4.311,4.311,0,0,0,.4,2V0ZM74.606-1.934a1.652,1.652,0,0,0,.918-.237,1.487,1.487,0,0,0,.523-.536V-4.228h-.861q-1.547,0-1.547,1.389a.848.848,0,0,0,.272.655A.986.986,0,0,0,74.606-1.934ZM87.86-9.51l.1,1.116a3.225,3.225,0,0,1,2.716-1.292,2.713,2.713,0,0,1,2.219.888,4.226,4.226,0,0,1,.76,2.672V0H90.681V-6a1.6,1.6,0,0,0-.29-1.059A1.342,1.342,0,0,0,89.336-7.4a1.413,1.413,0,0,0-1.292.686V0H85.083V-9.51ZM98.416,0H95.445V-9.51h2.971ZM95.269-11.962A1.322,1.322,0,0,1,95.726-13a1.724,1.724,0,0,1,1.187-.4A1.724,1.724,0,0,1,98.1-13a1.322,1.322,0,0,1,.457,1.037,1.322,1.322,0,0,1-.457,1.037,1.724,1.724,0,0,1-1.187.4,1.724,1.724,0,0,1-1.187-.4A1.322,1.322,0,0,1,95.269-11.962Zm8.763,8.438,1.5-5.985h3.12L105.552,0h-3.023l-3.1-9.51h3.129Zm10.107,3.7A4.889,4.889,0,0,1,110.6-1.129a4.507,4.507,0,0,1-1.354-3.4v-.246a5.84,5.84,0,0,1,.541-2.575,3.955,3.955,0,0,1,1.578-1.727,4.763,4.763,0,0,1,2.461-.611,4.117,4.117,0,0,1,3.164,1.244,4.887,4.887,0,0,1,1.16,3.467v1.151h-5.889a2.135,2.135,0,0,0,.694,1.257,2.066,2.066,0,0,0,1.389.457,2.662,2.662,0,0,0,2.2-.984l1.354,1.6a3.784,3.784,0,0,1-1.569,1.217A5.3,5.3,0,0,1,114.139.176ZM113.805-7.4q-1.3,0-1.547,1.723h2.988v-.229a1.467,1.467,0,0,0-.36-1.1A1.434,1.434,0,0,0,113.805-7.4ZM122.462,0h-2.971V-13.5h2.971ZM-35.644,25h-2.971V15.49h2.971Zm-3.146-11.962A1.322,1.322,0,0,1-38.333,12a1.724,1.724,0,0,1,1.187-.4,1.724,1.724,0,0,1,1.187.4,1.322,1.322,0,0,1,.457,1.037,1.322,1.322,0,0,1-.457,1.037,1.724,1.724,0,0,1-1.187.4,1.724,1.724,0,0,1-1.187-.4A1.322,1.322,0,0,1-38.791,13.038Zm7.69,2.452.1,1.116a3.225,3.225,0,0,1,2.716-1.292,2.713,2.713,0,0,1,2.219.888,4.226,4.226,0,0,1,.76,2.672V25h-2.971V19a1.6,1.6,0,0,0-.29-1.059,1.342,1.342,0,0,0-1.055-.338,1.413,1.413,0,0,0-1.292.686V25h-2.962V15.49Zm7.058,4.685a5.809,5.809,0,0,1,.976-3.56,3.211,3.211,0,0,1,2.725-1.3,2.731,2.731,0,0,1,2.145,1V11.5h2.971V25H-17.89l-.149-1.02a2.8,2.8,0,0,1-2.32,1.2,3.205,3.205,0,0,1-2.689-1.3A5.993,5.993,0,0,1-24.042,20.175Zm2.962.185q0,2.531,1.477,2.531a1.458,1.458,0,0,0,1.406-.826V18.443a1.419,1.419,0,0,0-1.389-.844q-1.371,0-1.485,2.215ZM-10.419,25H-13.39V15.49h2.971Zm-3.146-11.962A1.322,1.322,0,0,1-13.109,12a1.724,1.724,0,0,1,1.187-.4,1.724,1.724,0,0,1,1.187.4,1.322,1.322,0,0,1,.457,1.037,1.322,1.322,0,0,1-.457,1.037,1.724,1.724,0,0,1-1.187.4,1.724,1.724,0,0,1-1.187-.4A1.322,1.322,0,0,1-13.566,13.038ZM-4.8,21.476l1.5-5.985H-.18L-3.283,25H-6.306l-3.1-9.51H-6.28ZM3.828,25H.857V15.49H3.828ZM.681,13.038A1.322,1.322,0,0,1,1.138,12a1.724,1.724,0,0,1,1.187-.4,1.724,1.724,0,0,1,1.187.4,1.405,1.405,0,0,1,0,2.074,1.724,1.724,0,0,1-1.187.4,1.724,1.724,0,0,1-1.187-.4A1.322,1.322,0,0,1,.681,13.038Zm4.6,7.137a5.809,5.809,0,0,1,.976-3.56,3.211,3.211,0,0,1,2.725-1.3,2.731,2.731,0,0,1,2.145,1V11.5h2.971V25H11.43l-.149-1.02a2.8,2.8,0,0,1-2.32,1.2,3.205,3.205,0,0,1-2.689-1.3A5.993,5.993,0,0,1,5.278,20.175Zm2.962.185q0,2.531,1.477,2.531a1.458,1.458,0,0,0,1.406-.826V18.443A1.419,1.419,0,0,0,9.734,17.6q-1.371,0-1.485,2.215Zm13.2,3.612a3.054,3.054,0,0,1-2.54,1.2,3,3,0,0,1-2.369-.91,3.826,3.826,0,0,1-.8-2.615V15.49H18.69v6.179a1.065,1.065,0,0,0,1.187,1.222,1.548,1.548,0,0,0,1.45-.729V15.49h2.979V25H21.529ZM31.285,25A3.344,3.344,0,0,1,31,24.147a2.754,2.754,0,0,1-2.285,1.028,3.374,3.374,0,0,1-2.285-.813,2.588,2.588,0,0,1-.94-2.043,2.66,2.66,0,0,1,1.143-2.338,5.821,5.821,0,0,1,3.322-.791h.914v-.5q0-1.316-1.134-1.316a.927.927,0,0,0-1.055,1.042H25.721a2.655,2.655,0,0,1,1.173-2.239,4.931,4.931,0,0,1,2.993-.86,4.323,4.323,0,0,1,2.874.888,3.086,3.086,0,0,1,1.081,2.435v4.21a4.311,4.311,0,0,0,.4,2V25ZM29.43,23.066a1.652,1.652,0,0,0,.918-.237,1.487,1.487,0,0,0,.523-.536V20.772H30.01q-1.547,0-1.547,1.389a.848.848,0,0,0,.272.655A.986.986,0,0,0,29.43,23.066ZM38.606,25H35.635V11.5h2.971Z" transform="translate(538 2062)" fill="#12263f"/><g transform="translate(363.081 2125.352)"><g clip-path="url(#a)"><path d="M130.979,24.734C138.206,22.1,143.307,13.172,142.8,3.479s-3.826,3.571-6.886,7.142-11.223,7.907-16.579,7.652,11.648,6.462,11.648,6.462" transform="translate(-61.28 0)" fill="#efc266"/><path d="M50.4,31.79c-7.227-2.636-12.328-11.563-11.818-21.255s3.826,3.571,6.886,7.141,11.223,7.907,16.579,7.652S50.4,31.79,50.4,31.79" transform="translate(-19.971 -3.656)" fill="#efc266"/><path d="M30.25,63.2S17.667,55.723,3.723,58.444s14.964,20.4,26.186,17.344Z" transform="translate(0 -29.969)" fill="#f5eabc"/><path d="M29.946,79.346l.2-7.386a3.013,3.013,0,0,0-.709-1.8c-2.041-1.7-14.454-5.271-22.276-5.442C3.335,64.639,1.4,65.452.4,66.3c2.794,5.978,21.136,15.336,29.548,13.043" transform="translate(-0.206 -33.527)" fill="#e38064"/><path d="M129.4,47.246s46.591-1.361,56.454-1.02,43.871-4.081,73.458-2.381,37.409,3.741,54.753,1.7,51.693-3.061,60.875,8.5,8.5,21.765,8.5,26.526,1.361,52.033,3.061,58.494,8.5,27.207,7.482,31.968-4.762,1.361-7.142-2.381-8.5-28.907-8.5-28.907,1.361,28.907,4.421,35.369S385.825,186,385.825,201.3s-4.761,54.583-7.482,55.6-16.664-.17-16.664-.17.51-10.033,4.931-12.753c3.3-2.032-1.19-42-1.19-42s-14.284-18.365-16.324-22.106l-2.721,1.02s5.441,13.263,5.441,15.644-9.182,9.523-10.883,14.623-6.291,30.438-7.311,32.138-5.1,2.891-5.1,2.891l.51,10.542H309.987s3.23-9.692,4.931-12.753,14.113-41.32,14.113-43.361-16.664-23.806-16.664-23.806L297.4,174.1s-51.012,29.587-101.685,8.842c0,0,.34,16.324-2.041,25.846s-4.761,22.106-4.761,29.587-1.361,17.684-3.061,18.364-17.344,0-17.344,0l3.741-9.522s-.68-32.988-.68-36.389-4.761-14.284-4.761-14.284-14.623,50.673-15.3,52.373-5.442,3.4-5.442,3.4l.34,4.421H130.082s2.041-8.842,6.8-11.222,13.6-69.717,13.6-69.717-17.684-10.883-22.446-21.765-6.8-31.968-11.9-37.749S129.4,47.246,129.4,47.246" transform="translate(-59.703 -22.512)" fill="#f5eabc"/><path d="M204.489,343.871a.51.51,0,0,1-.511-.51v-7.484c0-2.714.778-12.359.976-14.8-7.411-.143-17.174-3.049-17.276-3.077a.513.513,0,0,1-.341-.638.524.524,0,0,1,.636-.343c.1.032,10.219,3.041,17.536,3.041h.554l-.046.554c-.01.12-1.018,12.255-1.018,15.26v7.484a.51.51,0,0,1-.51.51" transform="translate(-97.041 -164.228)" fill="#1a2e3c"/><path d="M281.675,282.022a.51.51,0,0,1-.51-.51c0-6.552,1.4-10.262,3.956-16.993l.839-2.228c1.54-4.1,6.068-18.237-.287-27.766a.513.513,0,0,1,.142-.709.508.508,0,0,1,.707.144c6.623,9.936,1.976,24.47.394,28.69l-.841,2.228c-2.508,6.624-3.89,10.27-3.89,16.635a.51.51,0,0,1-.51.51" transform="translate(-145.661 -121.086)" fill="#1a2e3c"/><path d="M602.444,81.458c0-4.761.68-14.964-8.5-26.526-8.386-10.56-37.725-10.62-55.969-9a18.956,18.956,0,0,1,4.957,12.058c1.7,24.826,3.741,28.907,15.984,35.369S578.979,90.3,582.379,92s9.182,13.263,9.862,21.085,5.1,29.587,5.1,29.587l.162.935c-.107-1.838-.162-2.976-.162-2.976s6.122,25.166,8.5,28.907,6.122,7.142,7.142,2.38-5.781-25.506-7.482-31.968-3.061-53.733-3.061-58.494" transform="translate(-278.703 -23.396)" fill="#3c6a7c"/><path d="M299.128,43.845c-29.587-1.7-63.6,2.721-73.458,2.38-5.143-.177-20.269.108-33.573.421-.114,14.432,5.352,28.677,12.828,39.029,8.843,12.243,25.846,24.486,47.612,16.324s29.247-36.049,47.612-31.968c14.3,3.179,30.188-10.546,32.667-23.842-8.185-.424-17.785-1.43-33.688-2.344" transform="translate(-99.517 -22.512)" fill="#3c6a7c"/><path d="M393.437,164.108c7.765-8.118,16.834-21.425,25.506-20.4s15.3,7.141,10.2,18.364-23.466,31.118-31.118,29.587-15.814-15.814-4.591-27.547" transform="translate(-200.968 -74.418)" fill="#3c6a7c"/><path d="M248.428,237.392c-1.689,7.6-14.794,1.53-13.263-5.611s15.3-3.571,13.263,5.611" transform="translate(-121.765 -118.115)" fill="#3c6a7c"/><path d="M228.557,271.839c5.2,0,3.061,9.692-1.53,9.182s-3.061-9.182,1.53-9.182" transform="translate(-116.178 -140.829)" fill="#3c6a7c"/><path d="M340.295,308.284a37.964,37.964,0,0,0,1.5-9.222c0-11.223-33.158-9.693-52.543-5.1s-12.753-6.122-17.344-9.693-11.733,1.02-11.733,8.162-5.612,22.446-12.754,30.607c-7.089,8.1,2.405,30.253,9.032,33.574a184.222,184.222,0,0,1,4.4-23.712c2.381-9.522,2.041-25.846,2.041-25.846,28.857,11.814,57.809,7.3,77.4,1.23" transform="translate(-126.877 -146.627)" fill="#3c6a7c"/><path d="M162.151,475.7l-13.261-4.42a29.009,29.009,0,0,0-2.857,7.1h16.324Z" transform="translate(-75.654 -244.153)" fill="#1a2e3c"/><path d="M243.117,478.171c.286-.114.556-.575.818-1.169l-15.3-6.12-2.863,7.289s15.643.68,17.344,0" transform="translate(-116.964 -243.946)" fill="#1a2e3c"/><path d="M538.25,475.672l-16.326-4.824c-1.352,3.566-2.6,7.305-2.6,7.305H538.37Z" transform="translate(-269.042 -243.928)" fill="#1a2e3c"/><path d="M585.487,298.356c2.041,3.741,16.324,22.106,16.324,22.106s1.892,16.84,2.316,29.215c2.738-6.322,4.984-21.777,2.785-30.575-2.721-10.882,6.122-34.008-5.441-42.17s-29.927-3.4-29.927-3.4l12.9,25.217Z" transform="translate(-296.095 -140.99)" fill="#3c6a7c"/><path d="M626.586,479.766s13.943,1.19,16.664.17c.415-.156.88-1.284,1.366-3l-17.1-2.975a33.42,33.42,0,0,0-.925,5.8" transform="translate(-324.61 -245.541)" fill="#1a2e3c"/><path d="M517.163,292.382c-15.3-.347-26.187-7.142-27.547-12.923s18.364-36.049,32.648-32.307,20.745,38.089,20.745,38.089a47.749,47.749,0,0,1-25.846,7.142" transform="translate(-253.616 -127.874)" fill="#e38064"/><path d="M103.662,61.756s8.162,1.02,13.943,0c4.689-.827,18.364-7.482,12.243-14.964s-28.227-3.741-28.227-3.741S93.459,33.529,81.9,32.169,57.411,44.751,57.411,44.751c-7.142,14.964,4.421,33.668,2.38,47.272a29.807,29.807,0,0,0-.28,6.086c14.687-.219,27.936-1.442,40.67,1.814a85.211,85.211,0,0,0,1.441-13.682c.34-6.122,2.041-24.486,2.041-24.486" transform="translate(-28.521 -16.617)" fill="#f5eabc"/><path d="M168.211,76.807c4.083-.72,14.2-5.345,12.7-11.468-14.794-10.185-28.176.737-28.176,5.262a12.89,12.89,0,0,0,1.705,6.227c.889.105,8.336.938,13.769-.02" transform="translate(-79.127 -31.668)" fill="#e38064"/><path d="M98.47,99.126C95.306,87.071,84.534,80.2,85.293,68.813c.619-9.28,11.569-22.555,16.281-27.84-3.1-2.876-9.492-7.845-17.642-8.8C72.37,30.809,59.447,44.752,59.447,44.752c-.28.587-.483,1.19-.708,1.788C62.674,52.062,74.86,65.218,76.366,70.6c1.549,5.532-9.751,22.946-12.775,27.467,12.451-.258,23.892-1.022,34.879,1.061" transform="translate(-30.43 -16.617)" fill="#3c6a7c"/><path d="M64.3,168.657c.612,10.96,7.844,19.76,23.406,19.76,11.061,0,15.44-9.248,17.264-17.945-12.734-3.257-25.983-2.034-40.669-1.814" transform="translate(-33.312 -87.164)" fill="#e38064"/><path d="M124.138,128.717a.513.513,0,0,1-.488-.363.507.507,0,0,1,.339-.633c.081-.028,8.168-2.63,10.619-13.9,2.513-11.558,4.055-40.356,4.069-40.647l.032-.574.566.1c.225.036,22.551,3.754,26.461-9.418.632-2.136.371-3.79-.8-5.065-5.31-5.8-26.963-1.475-27.182-1.435a.509.509,0,1,1-.2-1c.913-.2,22.441-4.479,28.137,1.742,1.411,1.538,1.753,3.571,1.02,6.042-3.848,12.988-23.374,10.756-27.046,10.226-.231,4.109-1.728,29.508-4.061,40.24-2.585,11.888-10.962,14.555-11.318,14.666a.631.631,0,0,1-.147.02" transform="translate(-64.047 -28.059)" fill="#1a2e3c"/><path d="M132.372,107.276c.689-1.948.6-3.755-.2-4.037s-2,1.069-2.69,3.016-.6,3.755.2,4.037,2-1.068,2.69-3.016" transform="translate(-66.841 -53.465)" fill="#3c251d"/><path d="M73.122,107.276c-.689-1.948-.6-3.755.2-4.037s2,1.069,2.69,3.016.6,3.755-.2,4.037-2-1.068-2.69-3.016" transform="translate(-37.641 -53.465)" fill="#3c251d"/><path d="M117.074,188.117a.956.956,0,1,0-.957.957.957.957,0,0,0,.957-.957" transform="translate(-59.66 -96.96)" fill="#3c251d"/><path d="M89.166,188.122a.829.829,0,1,0-.829.829.829.829,0,0,0,.829-.829" transform="translate(-45.334 -97.029)" fill="#3c251d"/><path d="M576.919,338.348A4.082,4.082,0,0,1,573,335.387l-3.061-10.713a4.08,4.08,0,1,1,7.847-2.24l3.061,10.713a4.084,4.084,0,0,1-2.8,5.046,4.221,4.221,0,0,1-1.124.155" transform="translate(-295.18 -165.508)" fill="#e38064"/><path d="M538.932,342.758h-.081a4.083,4.083,0,0,1-4-4.161l.255-13.008a4.082,4.082,0,0,1,8.162.16l-.255,13.008a4.081,4.081,0,0,1-4.079,4" transform="translate(-277.084 -166.602)" fill="#e38064"/><path d="M497.647,331.623a4.081,4.081,0,0,1-3.792-5.584l5.356-13.517a4.081,4.081,0,1,1,7.588,3l-5.356,13.518a4.083,4.083,0,0,1-3.8,2.578" transform="translate(-255.697 -160.569)" fill="#e38064"/><path d="M350.6,143.126l-1.71,9.421s-7.158.764-11.234-2.449l1.977-8.371,3.785-3.78Z" transform="translate(-174.926 -71.465)" fill="#e38064"/><path d="M385.566,105.688a.3.3,0,0,1-.162-.539c.043-.029,4.3-2.962,4.062-5.275-.241-2.362-3.543-5.04-3.576-5.067a.3.3,0,1,1,.37-.46c.144.115,3.529,2.859,3.793,5.468.271,2.661-4.128,5.7-4.315,5.823a.293.293,0,0,1-.172.052" transform="translate(-199.596 -48.843)" fill="#1a2e3c"/><path d="M359.786,150.188l1.232-3.962-3.305-4.431s-2.508,3.382,2.073,8.394" transform="translate(-184.962 -73.458)" fill="#3c251d"/><path d="M361.44,92.3c.663,2.187-.037,5.593.361,10.075s3.494,14.227-6.356,15.8c-8.693,1.384-13.542-9.834-13.542-9.834l-5.917-11.2c-1.315-6.607,3.107-11.63,9.755-12.716q.23-.038.467-.068C359.216,82.676,361.44,92.3,361.44,92.3" transform="translate(-173.942 -43.598)" fill="#e38064"/><path d="M338.372,83.548a15.927,15.927,0,0,0-4.111,1.689,15.223,15.223,0,0,0-6.608,7.2c-1.408,3.752-.836,7.9.273,11.708a23.636,23.636,0,0,0,2.364,5.458c.858,1.443,2.98,2.922,2.922,4.72-.014.462-.532,1.9,0,2.211.683.405.7-.383,1.407-1.751s-.236.718.455.63,9.977-6.524,10.4-8.192-1.854-6.974-1.854-6.974,4.035,6.623,4.314,3.947c.623-5.974,10.605-9.769,8.831-15.905-.138-.477-1.261-1.122-1.623-1.391a19.593,19.593,0,0,0-4.823-2.614,20.2,20.2,0,0,0-11.941-.734" transform="translate(-169.312 -42.981)" fill="#1a2e3c"/><path d="M387.121,120.581s2.794,2.581,2.8,3.64-1.67,3.153-1.67,3.153l-2.907-2.724Z" transform="translate(-199.631 -62.468)" fill="#e38064"/><path d="M384.34,119.545c-.038-.667.151-1.221.422-1.236s.521.513.559,1.181-.151,1.221-.422,1.236-.521-.513-.559-1.18" transform="translate(-199.109 -61.291)" fill="#3c251d"/><path d="M380.834,139.637c.633-1.754-1.122-1.61-2.1-2.471s-1.941-2-3.313-1.086c-2.19,1.455-1.047,2.9.913,3.89s3.981,1.119,4.5-.333" transform="translate(-193.871 -70.323)" fill="#fff"/><path d="M380.057,115.616a.307.307,0,0,1-.112-.536,3.788,3.788,0,0,1,3.576-.968.307.307,0,0,1,.178.4.315.315,0,0,1-.4.179,3.209,3.209,0,0,0-2.975.872.308.308,0,0,1-.273.057" transform="translate(-196.775 -59.054)" fill="#3c251d"/><path d="M380.742,126.067a.6.6,0,0,1,.183.467c-.017.463-.593.878-.949,1.087a3.759,3.759,0,0,1-2.731.23,2.371,2.371,0,0,1-1.4-.847,1.552,1.552,0,0,1-.007-1.777c.526-.683,1.324-.4,2-.13a11.778,11.778,0,0,0,1.823.55,2.271,2.271,0,0,1,1.082.419" transform="translate(-194.563 -64.657)" fill="#dc4747"/><path d="M352.407,103.892a.147.147,0,0,1-.009-.294c6.506-.488,12.254-4.658,15.2-8.081a.147.147,0,1,1,.223.193c-2.981,3.466-8.8,7.688-15.4,8.181h-.014" transform="translate(-182.493 -49.457)" fill="#fff"/><path d="M363.383,121.144s-2.4-3.881-5.222-3.532-4.451,5.91-1.887,7.641,6.435.291,6.435.291Z" transform="translate(-183.907 -60.919)" fill="#e38064"/><path d="M358.816,126.193a.12.12,0,0,1-.049-.021,2.814,2.814,0,0,1,.791-4.636c.712-.205,1.56.041,2.926.849a.118.118,0,0,1-.12.2c-1.287-.761-2.106-1.008-2.74-.825a2.281,2.281,0,0,0-1.3,1.308,2.246,2.246,0,0,0,.578,2.911.118.118,0,0,1-.09.211" transform="translate(-185.357 -62.927)" fill="#3c251d"/><path d="M321.057,394.636,331.4,371.3l-22.828,1.513-9.207.126-5.423,15.513Z" transform="translate(-152.279 -192.358)" fill="#315763"/><path d="M284.268,366.434a.233.233,0,0,1-.1-.02.252.252,0,0,1-.137-.329c.126-.306,12.648-30.638,16.137-41.6,2.78-8.74,3.281-14.476,1.487-17.05a3.631,3.631,0,0,0-3.024-1.539c-.028,0-.059,0-.089,0-2.609,0-9.712,4.852-17.227,9.985-8.707,5.946-17.711,12.1-21.527,11.962a2.725,2.725,0,0,1-2.1-1.121c-4.014-5.079.168-26.279.348-27.179a.25.25,0,0,1,.3-.2.252.252,0,0,1,.2.3c-.043.219-4.318,21.87-.446,26.768a2.214,2.214,0,0,0,1.721.93c.037,0,.075,0,.112,0,3.724,0,12.956-6.306,21.112-11.877,7.581-5.177,14.746-10.072,17.524-10.072.033,0,.067,0,.1,0a4.157,4.157,0,0,1,3.414,1.754c1.889,2.71,1.411,8.6-1.42,17.494-3.494,10.98-16.024,41.334-16.15,41.64a.255.255,0,0,1-.234.156" transform="translate(-132.601 -155.075)" fill="#1a2e3c"/><path d="M283.126,394.072s-13.829,40.042-11.6,45.236c.5,1.177,50.449,3.027,52.467-1.009S306,417.951,306,417.951l5.718-16.144Z" transform="translate(-140.54 -204.153)" fill="#e69654"/><path d="M271.376,481.026a7.766,7.766,0,0,0,.148,3.329c.5,1.177,50.449,3.027,52.467-1.009a2.087,2.087,0,0,0-.019-1.548c-16.58,2.425-45.5-.091-52.6-.772" transform="translate(-140.542 -249.201)" fill="#fff"/><path d="M321.566,409.123a.25.25,0,0,1-.065-.008l-28.42-7.567a.253.253,0,0,1-.178-.309.256.256,0,0,1,.308-.179l28.42,7.567a.253.253,0,0,1-.065.5" transform="translate(-151.737 -207.769)" fill="#1a2e3c"/><path d="M310.5,446.027a.252.252,0,0,1-.252-.244c-.126-4.026,7.624-33.021,7.954-34.252a.252.252,0,1,1,.487.13c-.081.3-8.061,30.154-7.937,34.106a.252.252,0,0,1-.244.26Z" transform="translate(-160.729 -213.101)" fill="#1a2e3c"/><path d="M263.962,247.583c-3.959,0-8.009-1.585-12.066-4.725-11.231-8.695-1.7-29.57,8.265-45.55l13.7,8.543c-5.886,9.453-10.787,20.776-10.945,25.047.475.317.859.556.861.556a2.3,2.3,0,0,0-.815.276c0,.008,0,.014,0,.022a.048.048,0,0,0,0-.02,3.836,3.836,0,0,0-1.172,1.113l12.971,9.613a13.243,13.243,0,0,1-8.774,4.988,14.759,14.759,0,0,1-2.02.138" transform="translate(-127.87 -102.218)" fill="#e38064"/><path d="M418.906,261.082c-11.574,0-24.584-14.408-33.507-26.575l16.27-11.938,0,0c5.609,7.631,13.024,15.4,16.838,17.791,2.866-2.558,7.684-9.779,10.8-16.382l18.249,8.612c-4.945,10.476-15.19,28.108-28.259,28.482-.13,0-.262.006-.394.006" transform="translate(-199.66 -115.304)" fill="#e38064"/><path d="M308.319,289.321s9.753,34.474-3.111,41.284-29.135.253-34.432.757-11.729,2.648-17.026-1.892S239.5,313.7,262.579,282.763Z" transform="translate(-128.232 -146.488)" fill="#add9e0"/><path d="M305.069,165.955s21.147,4.792,28.209,15.891S343.7,197.99,343.7,197.99s-6.054,13.79-20.853,17.489l-4.2-5.213s-3.7,3.363-6.39,3.363c0,0-2.522,8.408-1.177,13.957,0,0-28.756,8.576-45.74-6.558l2.9-20.012-15.387-4.667s11.351-26.485,23.963-30.017c12.418-3.477,16.9-2.649,16.9-2.649Z" transform="translate(-130.994 -84.754)" fill="#fff"/><path d="M382.477,362.008l-25.936-11.2c5.227-12.1,10.78-26.054,14.585-36.717A201.1,201.1,0,0,0,348.76,329.4l-17.531-22.154c17.768-14.069,42.221-30.141,57.8-26.819a19.061,19.061,0,0,1,13.185,9.92c2.877,5.512,6.137,11.763-19.735,71.663" transform="translate(-171.597 -145.048)" fill="#add9e0"/><path d="M384.411,366.434a.235.235,0,0,1-.1-.02.253.253,0,0,1-.137-.329c.126-.306,12.649-30.638,16.137-41.6,2.78-8.74,3.281-14.476,1.487-17.05a3.631,3.631,0,0,0-3.024-1.539c-.028,0-.059,0-.089,0-2.609,0-9.713,4.852-17.227,9.985-8.707,5.946-17.711,12.1-21.527,11.962a2.725,2.725,0,0,1-2.1-1.121c-4.014-5.079.168-26.279.348-27.179a.25.25,0,0,1,.3-.2.252.252,0,0,1,.2.3c-.043.219-4.318,21.87-.446,26.768a2.214,2.214,0,0,0,1.721.93c.037,0,.075,0,.112,0,3.724,0,12.956-6.306,21.112-11.877,7.581-5.177,14.746-10.072,17.524-10.072.033,0,.067,0,.1,0a4.157,4.157,0,0,1,3.414,1.754c1.889,2.71,1.411,8.6-1.42,17.494-3.494,10.98-16.024,41.334-16.15,41.64a.255.255,0,0,1-.234.156" transform="translate(-184.481 -155.075)" fill="#1a2e3c"/><path d="M413.526,341.568a.253.253,0,0,1-.148-.457l11.941-8.576a.253.253,0,1,1,.3.41l-11.94,8.577a.26.26,0,0,1-.148.047" transform="translate(-214.101 -172.249)" fill="#1a2e3c"/><path d="M426.718,340.66a2.079,2.079,0,0,1-1.506-.477.254.254,0,1,1,.359-.359c1.129,1.141,5.758-.861,7.441-1.726a.256.256,0,0,1,.339.11.253.253,0,0,1-.11.339c-.512.264-4.2,2.112-6.523,2.112" transform="translate(-220.247 -175.142)" fill="#1a2e3c"/><path d="M280.331,229.692l-3.532-2.586c1.6-2.014,36.44-48.983,48.368-54.169l4.351,1.766c-9.139,3.973-38.47,41.486-49.188,54.989" transform="translate(-143.399 -89.592)" fill="#add9e0"/><path d="M326.981,232.793c-.624-1.788-15.346-43.258-13.061-67.383l4.079-.673c-2.2,23.246,12.645,66.3,12.794,66.727Z" transform="translate(-162.505 -85.344)" fill="#add9e0"/><path d="M383.269,394.072s-13.829,40.042-11.6,45.236c.5,1.177,50.449,3.027,52.467-1.009s-17.993-20.348-17.993-20.348l5.717-16.144Z" transform="translate(-192.42 -204.153)" fill="#efc266"/><path d="M371.519,481.026a7.766,7.766,0,0,0,.148,3.329c.5,1.177,50.449,3.027,52.467-1.009a2.087,2.087,0,0,0-.019-1.548c-16.58,2.425-45.5-.091-52.6-.772" transform="translate(-192.422 -249.201)" fill="#fff"/><path d="M421.709,409.123a.249.249,0,0,1-.065-.008l-28.42-7.567a.253.253,0,0,1-.178-.309.256.256,0,0,1,.308-.179l28.42,7.567a.253.253,0,0,1-.065.5" transform="translate(-203.617 -207.769)" fill="#1a2e3c"/><path d="M410.647,446.027a.252.252,0,0,1-.252-.244c-.126-4.026,7.624-33.021,7.954-34.252a.252.252,0,1,1,.487.13c-.081.3-8.061,30.154-7.937,34.106a.252.252,0,0,1-.244.26Z" transform="translate(-212.609 -213.101)" fill="#1a2e3c"/><path d="M323.522,307.656a.251.251,0,0,1-.248-.207l-1.588-8.675c-31.879,9.839-49.99-5.9-50.167-6.066a.248.248,0,0,1-.02-.355.245.245,0,0,1,.355-.02c.179.158,18.181,15.8,49.954,5.874a.25.25,0,0,1,.205.024.255.255,0,0,1,.118.172l1.64,8.955a.252.252,0,0,1-.2.294.361.361,0,0,1-.045,0" transform="translate(-140.619 -151.413)" fill="#1a2e3c"/><path d="M294.213,343.93a.252.252,0,0,1-.223-.134c-7.542-14.2,3.169-35.212,3.277-35.423a.26.26,0,0,1,.341-.108.254.254,0,0,1,.108.341c-.108.209-10.7,20.984-3.281,34.954a.252.252,0,0,1-.223.371" transform="translate(-150.912 -159.687)" fill="#1a2e3c"/><path d="M383.859,251.735a.254.254,0,0,1-.217-.122l-4.877-8.072a.254.254,0,0,1,.087-.347.257.257,0,0,1,.347.087l4.878,8.072a.252.252,0,0,1-.217.382" transform="translate(-196.205 -125.972)" fill="#1a2e3c"/><path d="M283.985,228.448a.3.3,0,0,1-.057-.006.253.253,0,0,1-.189-.3l2.9-12.612a.253.253,0,0,1,.493.114l-2.9,12.612a.254.254,0,0,1-.246.2" transform="translate(-146.991 -111.555)" fill="#1a2e3c"/><path d="M316.6,345.105a.254.254,0,0,1-.1-.022l-9.753-4.373a.251.251,0,0,1-.146-.189c-1.338-7.855.484-19.139.5-19.253a.25.25,0,0,1,.249-.211h.006l19.338.5a.252.252,0,0,1,.237.321c-1.647,5.77-.01,18.771.008,18.9a.254.254,0,0,1-.156.266l-10.089,4.036a.265.265,0,0,1-.095.018m-9.526-4.8,9.532,4.274,9.81-3.923c-.207-1.679-1.5-12.936-.053-18.6l-18.8-.491c-.242,1.592-1.675,11.573-.493,18.737" transform="translate(-158.581 -166.327)" fill="#1a2e3c"/><path d="M268.014,313.906a.257.257,0,0,0-.177-.134l-14.309-2.788-.251.466,14.147,2.758c-2.368,5.34-2.951,16.657-3.026,18.348L254.075,334.8l-6.791-4.523-.013.6,6.613,4.406a.253.253,0,0,0,.14.041.219.219,0,0,0,.053-.006l10.619-2.309a.253.253,0,0,0,.2-.237c0-.132.541-13.227,3.122-18.642a.254.254,0,0,0,0-.223" transform="translate(-128.101 -161.109)" fill="#1a2e3c"/><rect width="60.034" height="7.315" transform="translate(120.473 185.378)" fill="#632727"/><path d="M347.5,398.259h8.24l10.594,43.723H358.1Z" transform="translate(-180.027 -206.322)" fill="#632727"/><path d="M256.772,398.259h-8.24l-10.594,43.723h8.24Z" transform="translate(-123.266 -206.322)" fill="#632727"/><rect width="49.44" height="3.363" transform="translate(124.593 210.266)" fill="#632727"/><path d="M298.4,132.066c-3.91-2.144-6.306-2.4-8.7-1.514s-7.567,5.424-7.315,10.09,2.4,9.081-4.54,9.711-13.5.127-15.513,7.19,12.486,7.946,11.856,11.224,8.2,6.18,11.1,4.289,6.685-6.055,9.964-5.928,7.442-4.415,7.315-8.7-6.432-11.351-7.946-15.513,4.288-7.946,4.288-7.946Z" transform="translate(-135.803 -67.387)" fill="#1a2e3c"/><path d="M388.056,212.231a.248.248,0,0,1-.136-.04.254.254,0,0,1-.077-.349c3.526-5.537,11.611-10.127,11.692-10.174a.254.254,0,0,1,.345.1.256.256,0,0,1-.1.345c-.081.043-8.058,4.574-11.514,10.005a.253.253,0,0,1-.213.116" transform="translate(-200.906 -104.46)" fill="#1a2e3c"/><path d="M330.2,96.3c14.393-7.2,24.285-16.582,22.1-20.961s-15.633-2.1-30.025,5.1-24.285,16.582-22.095,20.961,15.633,2.1,30.025-5.1" transform="translate(-155.354 -37.879)" fill="#efc266"/><path d="M349.231,80.178c-1.742-3.362-9.832-2.627-18.068,1.641s-13.5,10.453-11.759,13.815,9.831,2.627,18.068-1.641,13.5-10.453,11.759-13.815" transform="translate(-165.298 -40.444)" fill="#e69654"/><path d="M346.681,76.9l-2.8-5.4L314.054,86.949l2.738,5.285,16.644-4.48Z" transform="translate(-162.699 -37.038)" fill="#e69654"/><path d="M343.549,69.212c-1.742-3.362-9.832-2.627-18.068,1.641s-13.5,10.453-11.759,13.815,9.831,2.627,18.068-1.641,13.5-10.453,11.759-13.815" transform="translate(-162.354 -34.763)" fill="#efc266"/><path d="M347.841,86.536a.252.252,0,0,1-.179-.073.259.259,0,0,1,0-.359l4.036-4.036a.255.255,0,0,1,.359,0,.258.258,0,0,1,0,.359l-4.036,4.036a.252.252,0,0,1-.179.073" transform="translate(-180.072 -42.478)" fill="#1a2e3c"/><path d="M339.989,86.5a.249.249,0,0,1-.181-.077.252.252,0,0,1,.006-.357l5.234-5.044a.256.256,0,0,1,.357.006.252.252,0,0,1-.006.357l-5.234,5.045a.252.252,0,0,1-.175.071" transform="translate(-176.004 -41.939)" fill="#1a2e3c"/><path d="M352.292,84.164a.148.148,0,0,1-.029,0l-8.64-1.009a.252.252,0,1,1,.059-.5l8.639,1.009a.252.252,0,0,1-.029.5" transform="translate(-177.902 -42.818)" fill="#1a2e3c"/><path d="M349.091,87.69a.392.392,0,0,1-.047,0L342.3,86.425a.253.253,0,0,1-.2-.3.259.259,0,0,1,.3-.2l6.748,1.261a.253.253,0,0,1-.047.5" transform="translate(-177.224 -44.515)" fill="#1a2e3c"/><path d="M522.916,219.166a2.364,2.364,0,0,1-.714.862l-11.511,8.627a2.386,2.386,0,1,1-2.862-3.82l11.511-8.627a2.386,2.386,0,0,1,3.576,2.958" transform="translate(-262.59 -111.762)" fill="#e38064"/><path d="M511.656,198.689l0,.005-3.711,3.54a.16.16,0,0,1-.168.032l-.569-.232a.157.157,0,0,1-.086-.206.155.155,0,0,1,.2-.087l.474.194,3.634-3.467a.158.158,0,0,1,.226.22" transform="translate(-262.712 -102.796)" fill="#3c251d"/><path d="M509.4,186.348a3.156,3.156,0,0,1-.341.386l-10.454,10.021a3.184,3.184,0,1,1-4.407-4.6l10.454-10.022a3.183,3.183,0,0,1,4.749,4.21" transform="translate(-255.515 -93.9)" fill="#e38064"/><path d="M524.117,207.068a3.156,3.156,0,0,1-.341.386l-10.454,10.021a3.184,3.184,0,1,1-4.407-4.6l10.454-10.022a3.183,3.183,0,0,1,4.749,4.21" transform="translate(-263.142 -104.634)" fill="#e38064"/><path d="M518.77,195.371a3.264,3.264,0,0,1-.537.559l-13.2,10.727a3.183,3.183,0,0,1-4.015-4.942l13.2-10.727a3.183,3.183,0,0,1,4.552,4.383" transform="translate(-258.947 -98.574)" fill="#e38064"/><path d="M476.4,207.164c.578-4.471.792-7.015.573-8.371s1.454-9.391,1.615-12.909c.149-3.256,2.822-4.916,4.8-1.362,1.849,3.319-1.042,10.78-.174,10.051,2.679-2.252,3.682-3.045,3.682-3.045l9.373,12,.211,3.521-5.809,4.653Z" transform="translate(-246.806 -94.561)" fill="#e38064"/><path d="M474.951,225.456s1.6-7.414,3.474-8.768c5.311-3.842,8.1-4.663,8.1-4.663s14.072,7.812,12.246,10.6c-1.718,2.628-15.5,11.919-15.5,11.919Z" transform="translate(-246.054 -109.842)" fill="#e38064"/><path d="M498.562,209.687a.131.131,0,0,1-.084.219l-1.921.175a.131.131,0,0,1-.025-.26l1.921-.176a.131.131,0,0,1,.108.041" transform="translate(-257.173 -108.609)" fill="#3c251d"/><path d="M498.112,209.977a.126.126,0,0,0,.075.04.13.13,0,0,0,.15-.107l.318-1.9a.131.131,0,0,0-.258-.043l-.318,1.9a.131.131,0,0,0,.033.111" transform="translate(-258.034 -107.682)" fill="#3c251d"/><path d="M505.01,219.415a.131.131,0,0,1-.084.219l-1.921.176a.131.131,0,0,1-.025-.261l1.921-.176a.131.131,0,0,1,.108.041" transform="translate(-260.514 -113.648)" fill="#3c251d"/><path d="M504.56,219.7a.129.129,0,0,0,.075.04.13.13,0,0,0,.15-.107l.317-1.9a.131.131,0,0,0-.258-.044l-.318,1.9a.132.132,0,0,0,.033.111" transform="translate(-261.375 -112.721)" fill="#3c251d"/><path d="M512.032,227.22a.132.132,0,0,1,.034.077.13.13,0,0,1-.118.142l-1.921.176a.131.131,0,0,1-.025-.261l1.921-.176a.131.131,0,0,1,.108.041" transform="translate(-264.151 -117.692)" fill="#3c251d"/><path d="M511.582,227.509a.129.129,0,0,0,.075.04.13.13,0,0,0,.15-.107l.317-1.9a.131.131,0,0,0-.258-.044l-.318,1.9a.132.132,0,0,0,.033.111" transform="translate(-265.013 -116.764)" fill="#3c251d"/><path d="M483.642,188.347c-.473-.01-1.008-.042-1.041-.044a.158.158,0,0,1-.148-.167.149.149,0,0,1,.167-.148c.013,0,1.161.071,1.558.037a4.578,4.578,0,0,0-.515-2.488c-.115-.169-.227-.252-.328-.22a.155.155,0,0,1-.188-.118.157.157,0,0,1,.119-.188.563.563,0,0,1,.567.23,4.463,4.463,0,0,1,.635,2.9.263.263,0,0,1-.21.189,5.34,5.34,0,0,1-.615.013" transform="translate(-249.939 -95.841)" fill="#3c251d"/><path d="M529.039,201.78a.113.113,0,0,1,.018.015.12.12,0,0,1-.008.175l-8.286,6.75a.122.122,0,0,1-.166-.016.117.117,0,0,1,.015-.166l8.286-6.75a.117.117,0,0,1,.14-.008" transform="translate(-269.687 -104.524)" fill="#3c251d"/><path d="M528.84,220.368a.232.232,0,0,1,.031.027.124.124,0,0,1-.024.168l-3.566,2.67a.126.126,0,0,1-.168-.024.124.124,0,0,1,.024-.168l3.566-2.67a.121.121,0,0,1,.137,0" transform="translate(-272.029 -114.154)" fill="#3c251d"/><path d="M521.737,186.424a.125.125,0,0,1-.108.051.129.129,0,0,1-.121-.134c.069-1.409-1.489-1.894-1.839-1.986l-2.149,2.141c.135.973,1.846,2.157,1.865,2.169a.127.127,0,0,1,.034.177l0,.005a.126.126,0,0,1-.173.028c-.078-.052-1.9-1.316-1.981-2.418a.135.135,0,0,1,.037-.1l2.242-2.234a.125.125,0,0,1,.118-.032c.021,0,2.193.494,2.106,2.263a.119.119,0,0,1-.026.07" transform="translate(-267.972 -95.368)" fill="#3c251d"/><path d="M533.317,196.437a.125.125,0,0,1-.108.051.129.129,0,0,1-.121-.134c.069-1.409-1.489-1.894-1.839-1.986l-2.149,2.141c.135.973,1.847,2.157,1.865,2.169a.127.127,0,0,1,.034.177l0,.005a.127.127,0,0,1-.174.029c-.077-.053-1.9-1.316-1.981-2.418a.135.135,0,0,1,.037-.1l2.242-2.234a.125.125,0,0,1,.118-.032c.021,0,2.193.494,2.106,2.263a.119.119,0,0,1-.026.07" transform="translate(-273.971 -100.556)" fill="#3c251d"/><path d="M537.131,208.336a.125.125,0,0,1-.114.035.129.129,0,0,1-.1-.15c.27-1.385-1.2-2.087-1.535-2.229l-2.434,1.811c-.006.983,1.519,2.4,1.519,2.4a.133.133,0,0,1,.024.195l0,0a.128.128,0,0,1-.177,0c-.069-.063-1.692-1.575-1.614-2.677a.137.137,0,0,1,.051-.094l2.54-1.889a.124.124,0,0,1,.121-.014c.02.006,2.1.8,1.76,2.541a.121.121,0,0,1-.036.066" transform="translate(-275.968 -106.575)" fill="#3c251d"/><path d="M536.1,221.726a.128.128,0,0,1-.091.04c-.05,0-.075-.047-.058-.1a1.124,1.124,0,0,0-.892-1.488l-2.053,1.668c-.122.741.858,1.619.869,1.628.034.03.026.09-.015.135l0,0a.1.1,0,0,1-.133.025c-.044-.039-1.088-.975-.9-1.815a.149.149,0,0,1,.05-.078L535.02,220a.112.112,0,0,1,.093-.026c.014,0,1.488.343,1.024,1.7a.14.14,0,0,1-.035.054" transform="translate(-276.025 -113.96)" fill="#3c251d"/></g></g></g></svg>