<svg xmlns="http://www.w3.org/2000/svg" width="166.297" height="175.722" viewBox="0 0 166.297 175.722"><g transform="translate(-13.73)"><g transform="translate(92.074 18.842)"><path d="M279.861,125.165a30.43,30.43,0,0,0-29.642-23.535L242,78.361l8.219-23.46a77.169,77.169,0,0,1,75.171,59.687l-21.68,17.466Z" transform="translate(-242 -54.901)" fill="#ffd63d" fill-rule="evenodd"/></g><g transform="translate(116.538 78.529)"><path d="M339.087,310.981l-22.125-18.613L313.283,272a30.494,30.494,0,0,0,13.4-32.613l45.528-10.578a77.262,77.262,0,0,1-33.121,82.172Z" transform="translate(-313.283 -228.809)" fill="#bbdeaf" fill-rule="evenodd"/></g><g transform="translate(16.304 2.574)"><path d="M47.783,23.767h57.436V70.5H47.783V83.984c0,3.089-2.579,3.469-4.039,2.5L22.29,50.981a7.179,7.179,0,0,1,0-7.508l21.455-35.5c1.46-.97,4.039-.59,4.039,2.5Z" transform="translate(-21.23 -7.499)" fill="#ffd63d" fill-rule="evenodd"/></g><g transform="translate(58.244 121.43)"><path d="M185.478,358.8a30.25,30.25,0,0,0,16.246-4.7l25.8,38.981a77.25,77.25,0,0,1-84.1,0l2.674-32.353,22.68-6.918A30.291,30.291,0,0,0,185.478,358.8Z" transform="translate(-143.429 -353.809)" fill="#ff854e" fill-rule="evenodd"/></g><g transform="translate(23.142 95.995)"><path d="M101.609,305.135,76.255,344.406a77.093,77.093,0,0,1-35.1-64.705H87.882A30.393,30.393,0,0,0,101.609,305.135Z" transform="translate(-41.154 -279.701)" fill="#fff3c6" fill-rule="evenodd"/></g><g transform="translate(112.96 19.872)"><path d="M302.855,57.9a77.308,77.308,0,0,1,40.61,51.538,78.787,78.787,0,0,1,1.78,11.8l20.115-4.679A77.245,77.245,0,0,0,302.855,57.9Z" transform="translate(-302.855 -57.902)" fill="#ffd63d" fill-rule="evenodd"/></g><g transform="translate(131.715 78.529)"><path d="M381.336,239.148A76.951,76.951,0,0,1,357.5,294.925l10.627,16.056a77.261,77.261,0,0,0,33.121-82.171l-20.115,4.679C381.266,235.358,381.336,237.248,381.336,239.148Z" transform="translate(-357.502 -228.81)" fill="#bbdeaf" fill-rule="evenodd"/></g><g transform="translate(65.722 144.644)"><path d="M241.838,437.506,231.211,421.45A77.263,77.263,0,0,1,165.218,441.8a77.286,77.286,0,0,0,76.62-4.289Z" transform="translate(-165.218 -421.45)" fill="#ff854e" fill-rule="evenodd"/></g><g transform="translate(13.73 0)"><path d="M142.813,94.825H107.742a2.574,2.574,0,0,0,0,5.148h35.071a2.574,2.574,0,1,0,0-5.148Z" transform="translate(-73.786 -62.28)"/><path d="M189.552,135.928H178.905a2.574,2.574,0,0,0,0,5.148h10.647a2.574,2.574,0,0,0,0-5.148Z" transform="translate(-120.525 -89.277)"/><path d="M107.742,135.928a2.574,2.574,0,0,0,0,5.148H118.4a2.574,2.574,0,0,0,0-5.148Z" transform="translate(-73.786 -89.277)"/><path d="M156.671,39.62a79.217,79.217,0,0,0-56.379-23.351H75.339a2.574,2.574,0,1,0,0,5.148h22.38V63H42.857a2.574,2.574,0,0,0-2.574,2.574V79.006l-20.7-34.256a4.607,4.607,0,0,1,0-4.894L40.283,5.6V18.842a2.574,2.574,0,0,0,2.574,2.574H63.722a2.574,2.574,0,1,0,0-5.148H45.431V5.545A5.362,5.362,0,0,0,42.767.585,5.3,5.3,0,0,0,37.394.9a2.578,2.578,0,0,0-.779.813l-21.454,35.5-.026.044a9.748,9.748,0,0,0,0,10.082l.026.044,21.455,35.5a2.569,2.569,0,0,0,.778.812,5.425,5.425,0,0,0,2.992.9,5.037,5.037,0,0,0,2.381-.585,5.363,5.363,0,0,0,2.665-4.96V68.146h54.862A27.849,27.849,0,1,1,72.445,96a2.574,2.574,0,0,0-2.574-2.574H23.142A2.574,2.574,0,0,0,20.568,96a79.3,79.3,0,0,0,6.261,31.035,2.574,2.574,0,0,0,4.742-2A74.051,74.051,0,0,1,25.759,98.57H67.4a32.982,32.982,0,0,0,12.715,23.514l-22.628,35.05a74.92,74.92,0,0,1-20.761-22.116,2.574,2.574,0,1,0-4.384,2.7,79.685,79.685,0,0,0,67.956,38.006,79.723,79.723,0,0,0,56.379-136.1Zm-53.8,23.48V21.464a74.735,74.735,0,0,1,69.458,55.151l-40.57,9.425A33.072,33.072,0,0,0,102.867,63.1Zm-2.574,107.473a74.38,74.38,0,0,1-38.5-10.627l22.619-35.035a32.937,32.937,0,0,0,31.312.242l22.995,34.738A74.137,74.137,0,0,1,100.293,170.574Zm42.739-13.494L120.07,122.392a33,33,0,0,0,12.85-31.336l40.57-9.426a74.583,74.583,0,0,1-30.458,75.45Z" transform="translate(-13.73 0)"/><path d="M117.553,346.609a2.574,2.574,0,0,0,2.574-2.574V327.559a2.574,2.574,0,0,0-2.574-2.574h-3.519a2.574,2.574,0,1,0,0,5.148h.945v13.9A2.574,2.574,0,0,0,117.553,346.609Z" transform="translate(-77.918 -213.448)"/><path d="M262.729,413.867H262.7c-1.15.014-2.353.025-3.47.031.814-1.109,1.831-2.521,3.087-4.316a13.147,13.147,0,0,0,2.143-4.466,2.615,2.615,0,0,0,.047-.263l.08-.64a2.615,2.615,0,0,0,.02-.32,6.788,6.788,0,0,0-13.448-1.3,2.574,2.574,0,0,0,5.052.989,1.64,1.64,0,0,1,3.243.191l-.036.293a8.59,8.59,0,0,1-1.324,2.575c-2.61,3.734-4.159,5.76-4.992,6.849-1.065,1.393-1.708,2.234-1.29,3.613a2.643,2.643,0,0,0,1.7,1.746c.35.12.614.21,3.974.21,1.265,0,2.968-.013,5.279-.042a2.574,2.574,0,0,0-.032-5.147Z" transform="translate(-169.637 -260.82)"/><path d="M343.891,139.56a2.574,2.574,0,0,0,2.552,2.6h.022a2.574,2.574,0,0,0,2.574-2.552c.006-.64.013-1.542.021-2.6a2.575,2.575,0,0,0,.033-5.1c.022-4.049.029-8.109-.024-8.722a3.808,3.808,0,0,0-2.561-3.408,3.664,3.664,0,0,0-3.954,1.4c-1,1.221-5.23,8.824-7,12.037a2.574,2.574,0,0,0,2.254,3.818h6.1c-.007.893-.013,1.748-.02,2.533Zm-1.706-7.681c.619-1.1,1.222-2.166,1.773-3.13,0,.98-.008,2.04-.014,3.13Z" transform="translate(-224.891 -78.57)"/><path d="M389.032,304.186a6.82,6.82,0,0,0-6.662,5.466,2.574,2.574,0,1,0,5.047,1.015,1.644,1.644,0,1,1,1.615,1.947,2.574,2.574,0,0,0,0,5.148,1.64,1.64,0,1,1-1.619,1.877c0-.019-.005-.037-.008-.055a1.248,1.248,0,0,1-.008-.176,2.574,2.574,0,0,0-5.148,0,6.138,6.138,0,0,0,.068.954,6.787,6.787,0,1,0,12.031-5.172,6.779,6.779,0,0,0-5.316-11Z" transform="translate(-255.771 -199.787)"/></g></g></svg>