<svg xmlns="http://www.w3.org/2000/svg" width="295" height="211" viewBox="0 0 295 211"><g transform="translate(-1020 -4236)"><rect width="295" height="211" transform="translate(1020 4236)" fill="#fff"/><g transform="translate(1100.502 4268.75)"><path d="M159.016,24v94.583l-15.133,15.133H72V24Z" transform="translate(-42.76 -6.108)" fill="#fff3c6"/><circle cx="19.093" cy="19.093" r="19.093" transform="translate(49.942 76.462)" fill="#ff854e"/><path d="M391.133,424,376,439.133V424Z" transform="translate(-274.877 -311.526)" fill="#9cbd8a"/><path d="M45.909,199.3l5.711,6.241,1.566-8.314L31.423,120.819a3.783,3.783,0,0,0-7.277,2.073Z" transform="translate(-6.11 -77.936)" fill="#f9b89b"/><path d="M200,56h26.483v3.783H200Z" transform="translate(-140.493 -30.542)" fill="#abc79b"/><g transform="translate(40.59 33.025)"><path d="M120,224h64.316v3.783H120Z" transform="translate(-120 -191.842)" fill="#8bb276"/><path d="M144,158.7V136h7.567v22.7" transform="translate(-138.325 -124.65)" fill="#8bb276"/><path d="M208,146.483V120h7.567v26.483" transform="translate(-187.192 -112.433)" fill="#8bb276"/><path d="M272,134.266V104h7.567v30.266" transform="translate(-236.059 -100.217)" fill="#8bb276"/><path d="M336,88h7.567v34.05H336Z" transform="translate(-284.925 -88)" fill="#8bb276"/></g><path d="M374.266,222.266h-11.35l-9.458,9.458v-9.458h-5.675A3.783,3.783,0,0,1,344,218.483v-22.7A3.783,3.783,0,0,1,347.783,192h26.483a3.783,3.783,0,0,1,3.783,3.783v22.7A3.783,3.783,0,0,1,374.266,222.266Z" transform="translate(-250.444 -134.384)" fill="#bbdeaf"/><path d="M0,0H22.06V3.783H0Z" transform="matrix(0.515, -0.857, 0.857, 0.515, 103.298, 81.304)" fill="#62b8d3"/><path d="M392,216h3.783v3.783H392Z" transform="translate(-287.094 -152.709)" fill="#62b8d3"/><path d="M424,280h3.783v3.783H424Z" transform="translate(-311.527 -201.575)" fill="#62b8d3"/><path d="M240,352h26.483v.649a25.834,25.834,0,0,1-7.567,18.267Z" transform="translate(-171.035 -256.551)" fill="#00779c"/><path d="M31.423,120.819a3.783,3.783,0,0,0-7.277,2.073L25.7,128.35l7.277-2.073Z" transform="translate(-6.11 -77.936)" fill="#e88977"/><path d="M185.219,278.526a18.876,18.876,0,0,0-3.3,1.841l8.446,15.2-12.3,12.3a19.03,19.03,0,0,0,2.675,2.675l13.308-13.308a1.892,1.892,0,0,0,.316-2.256Z" transform="translate(-123.742 -200.45)" fill="#00779c"/><path d="M200,56h26.483v3.783H200Z" transform="translate(-140.493 -30.542)"/><path d="M167.291,126.266H165.4V97.892A1.892,1.892,0,0,0,163.508,96h-7.567a1.892,1.892,0,0,0-1.892,1.892v28.375h-3.783V101.675a1.892,1.892,0,0,0-1.892-1.892h-7.567a1.892,1.892,0,0,0-1.892,1.892v24.592h-3.783V105.458a1.892,1.892,0,0,0-1.892-1.892h-7.567a1.892,1.892,0,0,0-1.892,1.892v20.808H120v3.783h47.291Zm-35.941,0h-3.783V107.35h3.783Zm15.133,0H142.7v-22.7h3.783Zm15.133,0h-3.783V99.783h3.783Z" transform="translate(-79.41 -61.083)"/><path d="M331.783,83.783h3.783v17.025h3.783V81.892A1.892,1.892,0,0,0,337.458,80h-7.567A1.892,1.892,0,0,0,328,81.892v18.917h3.783Z" transform="translate(-238.227 -48.867)"/><path d="M123.823,55.725h-5.675V17.892A1.892,1.892,0,0,0,116.256,16H29.24a1.892,1.892,0,0,0-1.892,1.892V43.124l-.216-.759a5.675,5.675,0,0,0-10.916,3.109L27.349,84.559v43.049A1.892,1.892,0,0,0,29.24,129.5h71.883a1.892,1.892,0,0,0,1.338-.554l15.133-15.133a1.892,1.892,0,0,0,.554-1.338v-22.7h5.675A5.681,5.681,0,0,0,129.5,84.1V61.4A5.681,5.681,0,0,0,123.823,55.725ZM19.855,44.438A1.892,1.892,0,1,1,23.494,43.4L24.53,47.04l-3.639,1.036Zm11.277,81.278V97.842l6.848,24.043a1.893,1.893,0,0,0,.424.759l2.811,3.072Zm13.22-2.176L41.5,120.419l-19.568-68.7,3.639-1.036,19.568,68.7Zm58.663-.5v-8.675h8.675Zm11.35-12.458H101.123a1.892,1.892,0,0,0-1.892,1.892v13.242H47.791l1.144-6.072a1.891,1.891,0,0,0-.04-.868L31.132,56.407V19.783h83.233V55.725H97.34A5.681,5.681,0,0,0,91.665,61.4V84.1a5.681,5.681,0,0,0,5.675,5.675h3.783v7.567a1.892,1.892,0,0,0,3.229,1.338l8.9-8.9h1.108ZM125.715,84.1a1.894,1.894,0,0,1-1.892,1.892h-11.35a1.892,1.892,0,0,0-1.338.554l-6.229,6.229V87.883a1.892,1.892,0,0,0-1.892-1.892H97.34A1.894,1.894,0,0,1,95.448,84.1V61.4a1.894,1.894,0,0,1,1.892-1.892h26.483a1.894,1.894,0,0,1,1.892,1.892Z"/><path d="M0,0H22.06V3.783H0Z" transform="matrix(0.515, -0.857, 0.857, 0.515, 103.298, 81.304)"/><path d="M392,216h3.783v3.783H392Z" transform="translate(-287.094 -152.709)"/><path d="M424,280h3.783v3.783H424Z" transform="translate(-311.527 -201.575)"/><path d="M199.325,282.952h-5.762a20.8,20.8,0,1,0-7.4,17.884l4.262,4.262a1.892,1.892,0,0,0,2.675,0,27.544,27.544,0,0,0,8.121-19.605v-.649a1.892,1.892,0,0,0-1.892-1.892Zm-26.483-15.133a17.047,17.047,0,0,1,16.917,15.133h-15.8l-7.676-13.816A16.93,16.93,0,0,1,172.842,267.818Zm-17.025,17.025a17.011,17.011,0,0,1,7.16-13.862l7.519,13.533-10.947,10.947a16.939,16.939,0,0,1-3.731-10.618Zm17.025,17.025a16.939,16.939,0,0,1-10.618-3.731l10.618-10.618,10.625,10.625A16.874,16.874,0,0,1,172.842,301.868Zm18.865-.835-14.3-14.3H197.4A23.737,23.737,0,0,1,191.706,301.033Z" transform="translate(-103.877 -189.394)"/></g></g></svg>