<svg xmlns="http://www.w3.org/2000/svg" width="399" height="537" viewBox="0 0 399 537">
  <g id="Grupo_851276" data-name="Grupo 851276" transform="translate(-601 -7008)">
    <path id="Trazado_578290" data-name="Trazado 578290" d="M0,0H399V537H0Z" transform="translate(601 7008)" fill="#ff854e"/>
    <path id="Trazado_578291" data-name="Trazado 578291" d="M1.27,0V-14.219H5.645A6.644,6.644,0,0,1,9-13.374a5.89,5.89,0,0,1,2.31,2.4,7.41,7.41,0,0,1,.83,3.54v.654a7.431,7.431,0,0,1-.815,3.525,5.84,5.84,0,0,1-2.3,2.393A6.694,6.694,0,0,1,5.674,0ZM4.2-11.846v9.492H5.615A3.181,3.181,0,0,0,8.242-3.477,5.075,5.075,0,0,0,9.17-6.689v-.752a5.156,5.156,0,0,0-.9-3.286,3.171,3.171,0,0,0-2.627-1.118ZM17.061,0H14.229V-10.566h2.832Zm-3-13.3a1.39,1.39,0,0,1,.425-1.045,1.6,1.6,0,0,1,1.157-.41,1.6,1.6,0,0,1,1.152.41,1.382,1.382,0,0,1,.43,1.045,1.386,1.386,0,0,1-.435,1.055,1.6,1.6,0,0,1-1.147.41,1.6,1.6,0,0,1-1.147-.41A1.386,1.386,0,0,1,14.063-13.3ZM25.508,0a3.134,3.134,0,0,1-.283-.947A3.415,3.415,0,0,1,22.559.2a3.752,3.752,0,0,1-2.573-.9,2.89,2.89,0,0,1-1.021-2.266A2.986,2.986,0,0,1,20.21-5.547a6.144,6.144,0,0,1,3.6-.908h1.3v-.605a1.741,1.741,0,0,0-.376-1.172,1.479,1.479,0,0,0-1.187-.439,1.682,1.682,0,0,0-1.118.342,1.161,1.161,0,0,0-.405.938H19.2a2.835,2.835,0,0,1,.566-1.7,3.744,3.744,0,0,1,1.6-1.226,5.837,5.837,0,0,1,2.324-.444,4.611,4.611,0,0,1,3.1.981,3.433,3.433,0,0,1,1.147,2.759v4.58a5.052,5.052,0,0,0,.42,2.275V0ZM23.174-1.963a2.431,2.431,0,0,0,1.152-.278,1.828,1.828,0,0,0,.781-.747V-4.8H24.053Q21.934-4.8,21.8-3.34l-.01.166a1.13,1.13,0,0,0,.371.869A1.441,1.441,0,0,0,23.174-1.963Zm6.523-3.4a6.193,6.193,0,0,1,1.157-3.916,3.75,3.75,0,0,1,3.12-1.484A3.289,3.289,0,0,1,36.68-9.57l.117-1h2.559V-.352a4.516,4.516,0,0,1-.63,2.412,4.045,4.045,0,0,1-1.772,1.563,6.231,6.231,0,0,1-2.676.537A5.794,5.794,0,0,1,32.012,3.7a4.021,4.021,0,0,1-1.67-1.2L31.592.781A3.306,3.306,0,0,0,34.15,1.963a2.42,2.42,0,0,0,1.748-.6,2.253,2.253,0,0,0,.625-1.7V-.908A3.264,3.264,0,0,1,33.955.2a3.74,3.74,0,0,1-3.081-1.489A6.191,6.191,0,0,1,29.7-5.244Zm2.822.21A3.856,3.856,0,0,0,33.1-2.9a1.833,1.833,0,0,0,1.582.817,1.96,1.96,0,0,0,1.846-.968V-7.5A1.955,1.955,0,0,0,34.7-8.467a1.844,1.844,0,0,0-1.6.831A4.346,4.346,0,0,0,32.52-5.151ZM47.461-7.92A7.667,7.667,0,0,0,46.445-8a2.067,2.067,0,0,0-2.1,1.084V0H41.523V-10.566h2.666l.078,1.26a2.615,2.615,0,0,1,2.354-1.455,2.957,2.957,0,0,1,.879.127ZM54.648,0a3.134,3.134,0,0,1-.283-.947A3.415,3.415,0,0,1,51.7.2a3.752,3.752,0,0,1-2.573-.9,2.89,2.89,0,0,1-1.021-2.266,2.986,2.986,0,0,1,1.245-2.578,6.144,6.144,0,0,1,3.6-.908h1.3v-.605a1.741,1.741,0,0,0-.376-1.172,1.479,1.479,0,0,0-1.187-.439,1.682,1.682,0,0,0-1.118.342,1.161,1.161,0,0,0-.405.938H48.34a2.835,2.835,0,0,1,.566-1.7,3.744,3.744,0,0,1,1.6-1.226,5.837,5.837,0,0,1,2.324-.444,4.611,4.611,0,0,1,3.1.981A3.433,3.433,0,0,1,57.08-7.021v4.58A5.052,5.052,0,0,0,57.5-.166V0ZM52.314-1.963a2.431,2.431,0,0,0,1.152-.278,1.828,1.828,0,0,0,.781-.747V-4.8H53.193q-2.119,0-2.256,1.465l-.01.166A1.13,1.13,0,0,0,51.3-2.3,1.441,1.441,0,0,0,52.314-1.963Zm9.58-8.6.088,1.182a3.713,3.713,0,0,1,3.037-1.377,2.818,2.818,0,0,1,2.8,1.611A3.628,3.628,0,0,1,71-10.762a3.152,3.152,0,0,1,2.559,1,4.6,4.6,0,0,1,.84,3.013V0H71.563V-6.738a2.012,2.012,0,0,0-.352-1.313,1.558,1.558,0,0,0-1.24-.415,1.762,1.762,0,0,0-1.758,1.211L68.223,0H65.4V-6.729a1.988,1.988,0,0,0-.361-1.328,1.573,1.573,0,0,0-1.23-.41,1.829,1.829,0,0,0-1.738,1V0H59.248V-10.566ZM82.686,0A3.134,3.134,0,0,1,82.4-.947,3.415,3.415,0,0,1,79.736.2a3.752,3.752,0,0,1-2.573-.9,2.89,2.89,0,0,1-1.021-2.266,2.986,2.986,0,0,1,1.245-2.578,6.144,6.144,0,0,1,3.6-.908h1.3v-.605a1.741,1.741,0,0,0-.376-1.172,1.479,1.479,0,0,0-1.187-.439A1.682,1.682,0,0,0,79.6-8.33a1.161,1.161,0,0,0-.405.938H76.377a2.835,2.835,0,0,1,.566-1.7,3.744,3.744,0,0,1,1.6-1.226,5.837,5.837,0,0,1,2.324-.444,4.611,4.611,0,0,1,3.1.981,3.433,3.433,0,0,1,1.147,2.759v4.58a5.052,5.052,0,0,0,.42,2.275V0ZM80.352-1.963A2.431,2.431,0,0,0,81.5-2.241a1.828,1.828,0,0,0,.781-.747V-4.8H81.23q-2.119,0-2.256,1.465l-.01.166a1.13,1.13,0,0,0,.371.869A1.441,1.441,0,0,0,80.352-1.963Zm11.475-3.4A6.368,6.368,0,0,1,92.935-9.3a3.6,3.6,0,0,1,3.032-1.465,3.236,3.236,0,0,1,2.549,1.152V-15h2.832V0H98.8l-.137-1.123A3.321,3.321,0,0,1,95.947.2a3.587,3.587,0,0,1-2.993-1.47A6.573,6.573,0,0,1,91.826-5.361Zm2.822.21a4.171,4.171,0,0,0,.518,2.279,1.686,1.686,0,0,0,1.5.792,1.888,1.888,0,0,0,1.846-1.105V-7.362a1.861,1.861,0,0,0-1.826-1.105Q94.648-8.467,94.648-5.151ZM108.4.2a5.187,5.187,0,0,1-3.784-1.426,5.068,5.068,0,0,1-1.46-3.8V-5.3a6.383,6.383,0,0,1,.615-2.847,4.515,4.515,0,0,1,1.743-1.934,4.893,4.893,0,0,1,2.573-.679A4.385,4.385,0,0,1,111.5-9.395a5.555,5.555,0,0,1,1.245,3.877v1.152h-6.729a2.622,2.622,0,0,0,.825,1.66,2.5,2.5,0,0,0,1.743.625,3.046,3.046,0,0,0,2.549-1.182l1.387,1.553a4.237,4.237,0,0,1-1.719,1.4A5.639,5.639,0,0,1,108.4.2Zm-.322-8.682a1.764,1.764,0,0,0-1.362.569,2.946,2.946,0,0,0-.669,1.628h3.926v-.226a2.1,2.1,0,0,0-.508-1.457A1.819,1.819,0,0,0,108.076-8.486Zm18.33-4.326a13.583,13.583,0,0,0-1.562-.1q-1.914,0-1.914,1.631v.713h2.1V-8.5h-2.1V0H120.1V-8.5h-1.572v-2.07H120.1v-.82a3.61,3.61,0,0,1,1.152-2.827,4.711,4.711,0,0,1,3.2-.991q1.475,0,4.785.313V0h-2.832Zm11.5,11.738A3.539,3.539,0,0,1,135.02.2a3.338,3.338,0,0,1-2.593-.977,4.169,4.169,0,0,1-.913-2.861v-6.924h2.822v6.834q0,1.652,1.5,1.652a2.038,2.038,0,0,0,1.973-1v-7.489h2.832V0h-2.656Zm7.852-9.492V.576a3.78,3.78,0,0,1-.928,2.72,3.526,3.526,0,0,1-2.676.972,5.738,5.738,0,0,1-1.4-.166V1.865a5.3,5.3,0,0,0,.889.088q1.279,0,1.279-1.357V-10.566ZM142.705-13.3a1.39,1.39,0,0,1,.425-1.045,1.6,1.6,0,0,1,1.157-.41,1.6,1.6,0,0,1,1.157.41,1.39,1.39,0,0,1,.425,1.045,1.386,1.386,0,0,1-.435,1.055,1.6,1.6,0,0,1-1.147.41,1.6,1.6,0,0,1-1.147-.41A1.386,1.386,0,0,1,142.705-13.3Zm4.824,7.92a6.267,6.267,0,0,1,.605-2.8,4.432,4.432,0,0,1,1.743-1.9,5.086,5.086,0,0,1,2.642-.674,4.812,4.812,0,0,1,3.491,1.309A5.252,5.252,0,0,1,157.52-5.9l.02.723a5.523,5.523,0,0,1-1.357,3.9A4.718,4.718,0,0,1,152.539.2a4.742,4.742,0,0,1-3.647-1.465,5.62,5.62,0,0,1-1.362-3.984Zm2.822.2a3.95,3.95,0,0,0,.566,2.3,1.868,1.868,0,0,0,1.621.8,1.873,1.873,0,0,0,1.6-.787,4.322,4.322,0,0,0,.576-2.518,3.91,3.91,0,0,0-.576-2.289,1.873,1.873,0,0,0-1.621-.812,1.842,1.842,0,0,0-1.6.807A4.395,4.395,0,0,0,150.352-5.181Z" transform="translate(716 7087)" fill="#12263f"/>
    <g id="diagrama-de-flujo" transform="translate(682.16 7198.464)">
      <g id="Grupo_849779" data-name="Grupo 849779" transform="translate(144.612 107.292)">
        <path id="Trazado_575784" data-name="Trazado 575784" d="M367.614,336.533H338.98a8,8,0,0,1-8-8V316.487a8,8,0,0,1,8-8h28.633a8,8,0,0,1,8,8v12.046A8,8,0,0,1,367.614,336.533Z" transform="translate(-330.981 -308.488)" fill="#bbdeaf"/>
      </g>
      <g id="Grupo_849780" data-name="Grupo 849780" transform="translate(47.824 107.292)">
        <path id="Trazado_575785" data-name="Trazado 575785" d="M89.326,336.533H60.692a8,8,0,0,1-8-8V316.487a8,8,0,0,1,8-8H89.326a8,8,0,0,1,8,8v12.046A8,8,0,0,1,89.326,336.533Z" transform="translate(-52.693 -308.488)" fill="#bbdeaf"/>
      </g>
      <g id="Grupo_849783" data-name="Grupo 849783" transform="translate(101.179 142.846)">
        <circle id="Elipse_7002" data-name="Elipse 7002" cx="16.315" cy="16.315" r="16.315" fill="#bbdeaf"/>
      </g>
      <g id="Grupo_849785" data-name="Grupo 849785" transform="translate(97.153 56.99)">
        <path id="Trazado_575789" data-name="Trazado 575789" d="M212.409,203.523l-16.864-16.864a3.478,3.478,0,0,1,0-4.919l16.864-16.864a3.478,3.478,0,0,1,4.919,0l16.864,16.864a3.478,3.478,0,0,1,0,4.919l-16.864,16.864A3.478,3.478,0,0,1,212.409,203.523Z" transform="translate(-194.526 -163.858)" fill="#ffd63d"/>
      </g>
      <path id="Trazado_575791" data-name="Trazado 575791" d="M221.954,38.784H156.823a1.363,1.363,0,0,1-1.363-1.363V8.829a1.363,1.363,0,0,1,1.363-1.363h65.131a1.363,1.363,0,0,1,1.363,1.363V37.421A1.363,1.363,0,0,1,221.954,38.784Z" transform="translate(-71.894 -4.869)" fill="#f5d664"/>
      <g id="Grupo_849788" data-name="Grupo 849788" transform="translate(45.227 0)">
        <path id="Trazado_575793" data-name="Trazado 575793" d="M231.356,79.928V90.044l-1.574-1.818a2.6,2.6,0,0,0-3.926,3.4l6.133,7.083a2.6,2.6,0,0,0,3.926,0l6.134-7.083a2.6,2.6,0,1,0-3.925-3.4l-1.574,1.818V77.332a2.6,2.6,0,0,0-2.6-2.6h-27.08a6.018,6.018,0,0,0-1.183-1.688L188.8,56.161a6.02,6.02,0,0,0-1.688-1.183V51.437l5.5-6.351a2.6,2.6,0,0,0-3.926-3.4L187.116,43.5V36.512h29.975a3.958,3.958,0,0,0,3.953-3.953V3.953A3.958,3.958,0,0,0,217.091,0H177.255a2.6,2.6,0,1,0,0,5.193h38.6V31.318H153.187V5.193h10.637a2.6,2.6,0,1,0,0-5.193H151.947a3.958,3.958,0,0,0-3.953,3.953v28.6a3.958,3.958,0,0,0,3.953,3.953h29.975V43.5l-1.574-1.818a2.6,2.6,0,0,0-3.926,3.4l5.5,6.351v3.542a6.019,6.019,0,0,0-1.688,1.183L163.349,73.047a6.066,6.066,0,0,0,0,8.568L180.235,98.5a6.019,6.019,0,0,0,1.688,1.183v26.192l-1.574-1.818a2.6,2.6,0,1,0-3.926,3.4l6.133,7.083a2.6,2.6,0,0,0,3.926,0l6.133-7.083a2.6,2.6,0,0,0-3.926-3.4l-1.574,1.818V99.684A6.02,6.02,0,0,0,188.8,98.5L205.69,81.615a6.018,6.018,0,0,0,1.182-1.688Zm-29.339-1.985L185.131,94.829a.867.867,0,0,1-1.224,0L167.021,77.943a.866.866,0,0,1,0-1.224l16.886-16.886a.867.867,0,0,1,1.224,0l16.886,16.886a.866.866,0,0,1,0,1.224Z" transform="translate(-112.252 0)"/>
        <path id="Trazado_575794" data-name="Trazado 575794" d="M362.78,301.023H334.074a10.571,10.571,0,0,0-10.56,10.559V323.7a10.572,10.572,0,0,0,10.56,10.56H362.78a10.572,10.572,0,0,0,10.56-10.56V311.582A10.572,10.572,0,0,0,362.78,301.023Zm5.367,22.678a5.372,5.372,0,0,1-5.366,5.366H334.075a5.372,5.372,0,0,1-5.366-5.366V311.582a5.372,5.372,0,0,1,5.366-5.366h28.706a5.372,5.372,0,0,1,5.366,5.366Z" transform="translate(-226.727 -196.328)"/>
        <path id="Trazado_575795" data-name="Trazado 575795" d="M84.493,301.023H55.787a10.571,10.571,0,0,0-10.56,10.559V323.7a10.572,10.572,0,0,0,10.56,10.56H84.493a10.572,10.572,0,0,0,10.56-10.56V311.582A10.572,10.572,0,0,0,84.493,301.023ZM89.859,323.7a5.372,5.372,0,0,1-5.366,5.366H55.787A5.372,5.372,0,0,1,50.42,323.7V311.582a5.372,5.372,0,0,1,5.366-5.366H84.493a5.372,5.372,0,0,1,5.366,5.366Z" transform="translate(-45.227 -196.328)"/>
        <path id="Trazado_575796" data-name="Trazado 575796" d="M217.549,403.249a18.912,18.912,0,1,0,0,37.823,18.739,18.739,0,0,0,8.179-1.856,2.6,2.6,0,0,0-2.248-4.681,13.589,13.589,0,0,1-5.931,1.344,13.7,13.7,0,1,1,12.943-9.156,2.6,2.6,0,1,0,4.9,1.726,18.923,18.923,0,0,0-17.84-25.2Z" transform="translate(-145.281 -263)"/>
        <path id="Trazado_575797" data-name="Trazado 575797" d="M97.908,238.852a2.6,2.6,0,0,0,3.926,0l6.134-7.083a2.6,2.6,0,1,0-3.925-3.4l-1.574,1.818V220.072H113.5a2.6,2.6,0,0,0,0-5.193H99.871a2.6,2.6,0,0,0-2.6,2.6v12.712L95.7,228.37a2.6,2.6,0,0,0-3.926,3.4Z" transform="translate(-75.172 -140.144)"/>
      </g>
    </g>
  </g>
</svg>
