<svg xmlns="http://www.w3.org/2000/svg" width="66" height="66" viewBox="0 0 66 66"><g transform="translate(-318 -5245)"><rect width="66" height="66" rx="6" transform="translate(318 5245)" fill="#fff"/><g transform="translate(328.626 5254.318)"><g transform="translate(0.694 0.694)"><path d="M54.164,53.477H23.513a1.869,1.869,0,0,1-1.869-1.869V9.369A1.869,1.869,0,0,1,23.513,7.5h22.4a1.869,1.869,0,0,1,1.322.547l8.25,8.25a1.869,1.869,0,0,1,.547,1.322V51.608A1.869,1.869,0,0,1,54.164,53.477Z" transform="translate(-21.644 -7.5)" fill="#f5d664"/></g><g transform="translate(23.496 0.694)"><path d="M279.163,16.3l-8.25-8.25a1.869,1.869,0,0,0-1.322-.547h-1.469v7.476a4.112,4.112,0,0,0,4.112,4.112h4.3a.935.935,0,0,1,.935.935V51.7a1.869,1.869,0,0,1-1.287,1.776h1.661a1.869,1.869,0,0,0,1.869-1.869V17.619A1.868,1.868,0,0,0,279.163,16.3Z" transform="translate(-268.123 -7.5)" fill="#fff2c3"/></g><g transform="translate(25.738 0.864)"><path d="M294.237,18.515h7.306a1.865,1.865,0,0,0-.377-.547l-8.25-8.25a1.865,1.865,0,0,0-.547-.377v7.306A1.869,1.869,0,0,0,294.237,18.515Z" transform="translate(-292.368 -9.34)" fill="#ff854e"/></g><g transform="translate(3.684 3.684)"><g transform="translate(0 22.054)"><circle cx="1.495" cy="1.495" r="1.495" fill="#f7e365"/></g><g transform="translate(0 9.345)"><circle cx="1.495" cy="1.495" r="1.495" fill="#a2f5c3"/></g><g transform="translate(0 15.325)"><circle cx="1.495" cy="1.495" r="1.495" fill="#e175a5"/></g><g transform="translate(5.981 9.345)"><path d="M140.3,143.832H119.368a.748.748,0,0,1-.748-.748v-1.5a.748.748,0,0,1,.748-.748H140.3a.748.748,0,0,1,.748.748v1.5A.748.748,0,0,1,140.3,143.832Z" transform="translate(-118.62 -140.842)" fill="#ff854e"/></g><path d="M64.435,42.816H54.717a.748.748,0,0,1-.748-.748v-1.5a.748.748,0,0,1,.748-.748h9.719a.748.748,0,0,1,.748.748v1.5A.748.748,0,0,1,64.435,42.816Z" transform="translate(-53.969 -39.826)" fill="#ff854e"/><g transform="translate(5.981 9.345)"><path d="M130.955,143.832H119.368a.748.748,0,0,1-.748-.748v-1.5a.748.748,0,0,1,.748-.748h11.588a.748.748,0,0,1,.748.748v1.5A.748.748,0,0,1,130.955,143.832Z" transform="translate(-118.62 -140.842)" fill="#e69642"/></g><g transform="translate(5.981 15.326)"><path d="M140.3,208.482H119.368a.748.748,0,0,1-.748-.748v-1.5a.748.748,0,0,1,.748-.748H140.3a.748.748,0,0,1,.748.748v1.5A.748.748,0,0,1,140.3,208.482Z" transform="translate(-118.62 -205.492)" fill="#ff854e"/></g><g transform="translate(5.981 15.326)"><path d="M136.562,208.482H119.368a.748.748,0,0,1-.748-.748v-1.5a.748.748,0,0,1,.748-.748h17.195a.748.748,0,0,1,.748.748v1.5A.748.748,0,0,1,136.562,208.482Z" transform="translate(-118.62 -205.492)" fill="#e69642"/></g><g transform="translate(5.981 22.054)"><path d="M140.3,281.214H119.368a.748.748,0,0,1-.748-.748v-1.5a.748.748,0,0,1,.748-.747H140.3a.748.748,0,0,1,.748.747v1.5A.748.748,0,0,1,140.3,281.214Z" transform="translate(-118.62 -278.224)" fill="#ff854e"/></g><g transform="translate(5.981 22.054)"><path d="M128.152,281.214h-8.784a.748.748,0,0,1-.748-.748v-1.5a.748.748,0,0,1,.748-.747h8.784a.748.748,0,0,1,.748.747v1.5A.748.748,0,0,1,128.152,281.214Z" transform="translate(-118.62 -278.224)" fill="#e69642"/></g></g><g transform="translate(26.112 28.728)"><circle cx="8.971" cy="8.971" r="8.971" fill="#bbdeaf"/><g transform="translate(4.133 4.133)"><circle cx="4.838" cy="4.838" r="4.838" fill="#f5d664"/></g></g><path d="M14.835,39.111a.694.694,0,0,0,.694-.694V2.563A1.177,1.177,0,0,1,16.7,1.388h22.4c.027,0,.053,0,.08,0V8.17a2.566,2.566,0,0,0,2.563,2.563h6.778c0,.027,0,.053,0,.08v1.67a.694.694,0,1,0,1.388,0v-1.67A2.58,2.58,0,0,0,49.167,9L40.917.751A2.546,2.546,0,0,0,39.105,0H16.7a2.566,2.566,0,0,0-2.563,2.562V38.417a.694.694,0,0,0,.694.694ZM47.549,9.345h-5.8A1.176,1.176,0,0,1,40.573,8.17V2.37Z" transform="translate(-14.141 0)"/><path d="M48.658,275.1a2.189,2.189,0,1,0-2.189-2.189A2.192,2.192,0,0,0,48.658,275.1Zm0-2.99a.8.8,0,1,1-.8.8A.8.8,0,0,1,48.658,272.112Z" transform="translate(-43.478 -245.68)"/><path d="M48.658,137.72a2.189,2.189,0,1,0-2.189-2.189A2.192,2.192,0,0,0,48.658,137.72Zm0-2.99a.8.8,0,1,1-.8.8A.8.8,0,0,1,48.658,134.73Z" transform="translate(-43.478 -121.007)"/><path d="M48.658,202.37a2.189,2.189,0,1,0-2.189-2.189A2.191,2.191,0,0,0,48.658,202.37Zm0-2.99a.8.8,0,1,1-.8.8A.8.8,0,0,1,48.658,199.38Z" transform="translate(-43.478 -179.676)"/><path d="M47.91,36.7h9.719a1.443,1.443,0,0,0,1.441-1.441v-1.5a1.443,1.443,0,0,0-1.441-1.441H47.91a1.443,1.443,0,0,0-1.441,1.441v1.5A1.443,1.443,0,0,0,47.91,36.7Zm-.054-2.937a.054.054,0,0,1,.054-.054h9.719a.054.054,0,0,1,.054.054v1.5a.054.054,0,0,1-.054.054H47.91a.054.054,0,0,1-.054-.054Z" transform="translate(-43.478 -29.335)"/><path d="M47.163,98.364h2.243a.694.694,0,0,0,0-1.388H47.163a.694.694,0,0,0,0,1.388Z" transform="translate(-43.478 -88.005)"/><path d="M110.406,97.67a.694.694,0,0,0-.694-.694h-5.981a.694.694,0,0,0,0,1.388h5.981A.694.694,0,0,0,110.406,97.67Z" transform="translate(-94.814 -88.005)"/><path d="M134.935,134.783a1.443,1.443,0,0,0-1.441-1.441H112.561a1.443,1.443,0,0,0-1.441,1.441v1.5a1.443,1.443,0,0,0,1.441,1.441h20.933a1.443,1.443,0,0,0,1.441-1.441Zm-22.428,1.5v-1.5a.054.054,0,0,1,.054-.054h11.588a.054.054,0,0,1,.054.054v1.5a.054.054,0,0,1-.054.054H112.561A.054.054,0,0,1,112.508,136.278Zm21.04,0a.054.054,0,0,1-.054.054h-7.906c0-.018,0-.036,0-.054v-1.5c0-.018,0-.036,0-.054h7.906a.054.054,0,0,1,.054.054v1.5Z" transform="translate(-102.149 -121.007)"/><path d="M112.561,202.37h20.933a1.443,1.443,0,0,0,1.441-1.441v-1.5a1.443,1.443,0,0,0-1.441-1.441H112.561a1.443,1.443,0,0,0-1.441,1.441v1.5A1.443,1.443,0,0,0,112.561,202.37Zm20.986-2.937v1.5a.054.054,0,0,1-.054.054h-2.3c0-.018,0-.036,0-.054v-1.5c0-.018,0-.036,0-.054h2.3A.054.054,0,0,1,133.548,199.433Zm-21.04,0a.054.054,0,0,1,.054-.054h17.195a.054.054,0,0,1,.054.054v1.5a.054.054,0,0,1-.054.054H112.561a.054.054,0,0,1-.054-.054Z" transform="translate(-102.149 -179.676)"/><path d="M49.918,175.464v-12.34a.694.694,0,0,0-1.388,0v12.34a9.612,9.612,0,0,0-1.645.262,1.436,1.436,0,0,0,.042-.341v-1.5a1.443,1.443,0,0,0-1.441-1.441H24.554a1.443,1.443,0,0,0-1.441,1.441v1.5a1.443,1.443,0,0,0,1.441,1.441H44.239a9.66,9.66,0,0,0,0,16.555H16.7a1.177,1.177,0,0,1-1.176-1.175v-3.147a.694.694,0,1,0-1.388,0v3.147a2.566,2.566,0,0,0,2.563,2.562h32.52a9.665,9.665,0,0,0,.694-19.3ZM45.54,173.89v1.5a.054.054,0,0,1-.054.054H34.777c0-.018,0-.036,0-.054v-1.5c0-.018,0-.036,0-.054h10.71A.054.054,0,0,1,45.54,173.89Zm-21.04,1.5v-1.5a.054.054,0,0,1,.054-.054h8.784a.054.054,0,0,1,.054.054v1.5a.054.054,0,0,1-.054.054H24.554a.054.054,0,0,1-.054-.054Zm24.724,18a8.277,8.277,0,0,1,0-16.555h0a8.277,8.277,0,0,1,0,16.555Z" transform="translate(-14.141 -147.404)"/><path d="M374.542,390.785l-1.257,1.257-.383-.383a.694.694,0,0,0-.981.981l.874.874a.694.694,0,0,0,.981,0l1.747-1.747a.694.694,0,1,0-.981-.981Z" transform="translate(-338.639 -354.449)"/><path d="M344,353.055a.693.693,0,0,0-.76.62,4.144,4.144,0,1,1-.632-2.659.694.694,0,1,0,1.168-.749,5.533,5.533,0,1,0,.845,3.547A.694.694,0,0,0,344,353.055Z" transform="translate(-304.031 -315.552)"/><path d="M218.724,362.016a.694.694,0,1,0,0-1.388H215.86a.694.694,0,1,0,0,1.388Z" transform="translate(-196.569 -327.267)"/><path d="M110.462,393.647a.694.694,0,0,0,.694.694h12.55a.694.694,0,1,0,0-1.388h-12.55A.694.694,0,0,0,110.462,393.647Z" transform="translate(-101.551 -356.601)"/><path d="M47.163,394.341h2.9a.694.694,0,1,0,0-1.388h-2.9a.694.694,0,0,0,0,1.388Z" transform="translate(-43.478 -356.601)"/><path d="M59.778,360.628H47.163a.694.694,0,1,0,0,1.388H59.778a.694.694,0,1,0,0-1.388Z" transform="translate(-43.478 -327.267)"/><path d="M47.163,426.666H58.5a.694.694,0,1,0,0-1.388H47.163a.694.694,0,1,0,0,1.388Z" transform="translate(-43.478 -385.936)"/></g></g></svg>