<svg xmlns="http://www.w3.org/2000/svg" width="66" height="66" viewBox="0 0 66 66"><g transform="translate(-318 -5433)"><rect width="66" height="66" rx="6" transform="translate(318 5433)" fill="#fff"/><g transform="translate(328.5 5446.5)"><g transform="translate(0.638 0.638)"><circle cx="10.444" cy="10.444" r="10.444" transform="translate(1.367)" fill="#ffd63d"/><g transform="translate(0 11.727)"><circle cx="1.367" cy="1.367" r="1.367" fill="#f9b767"/></g><g transform="translate(6.587 5.14)"><circle cx="1.367" cy="1.367" r="1.367" fill="#f9b767"/></g><g transform="translate(13.573 12.126)"><circle cx="1.367" cy="1.367" r="1.367" fill="#f9b767"/></g><g transform="translate(22.645 3.054)"><circle cx="1.367" cy="1.367" r="1.367" fill="#f9b767"/></g><g transform="translate(28.668 9.077)"><circle cx="1.367" cy="1.367" r="1.367" fill="#f9b767"/></g><g transform="translate(6.123 10.444)"><rect width="3.74" height="10.52" transform="translate(0 18.167)" fill="#ff854e"/><rect width="3.74" height="10.52" transform="translate(6.3 18.167)" fill="#ff854e"/><rect width="3.74" height="13.632" transform="translate(12.6 15.055)" fill="#ff854e"/><rect width="3.74" height="18.27" transform="translate(18.899 10.416)" fill="#bbdeaf"/><rect width="3.74" height="23.068" transform="translate(25.199 5.619)" fill="#bbdeaf"/><rect width="3.74" height="28.687" transform="translate(31.499)" fill="#bbdeaf"/></g></g><path d="M2.374,34.208a11.038,11.038,0,0,0,2.325,3.3.638.638,0,1,0,.892-.912,9.772,9.772,0,0,1-2.1-3.015A2,2,0,0,0,3.8,31.343l3.9-3.9a2,2,0,0,0,1.739.024l4.288,4.288c.012.012.024.023.037.033a2.005,2.005,0,1,0,3.683.114L22,27.35A9.809,9.809,0,0,1,7.559,38.09.638.638,0,0,0,6.921,39.2,11.085,11.085,0,0,0,23.037,26.311l.88-.88a2,2,0,0,0,1.689-.1l3.305,3.305a2.008,2.008,0,1,0,.935-.87l-3.37-3.37a2,2,0,1,0-3.539.214l-.4.4A11.082,11.082,0,0,0,1.367,29.588c0,.247.009.494.025.74a2,2,0,0,0,.982,3.88Zm28.3-5.349a.729.729,0,1,1-.729.729A.73.73,0,0,1,30.673,28.859ZM24.65,22.836a.729.729,0,1,1-.729.729A.73.73,0,0,1,24.65,22.836ZM7.863,25.651a.729.729,0,1,1,.729.729A.73.73,0,0,1,7.863,25.651Zm7.715,7.715a.729.729,0,1,1,.729-.729A.73.73,0,0,1,15.578,33.366ZM12.449,19.782a9.822,9.822,0,0,1,9.117,6.195l-4.947,4.947a2,2,0,0,0-1.982-.057l-.011-.012L10.363,26.59A2.005,2.005,0,1,0,6.8,26.541l-3.9,3.9a2,2,0,0,0-.223-.095c-.019-.252-.029-.506-.029-.759A9.817,9.817,0,0,1,12.449,19.782ZM1.276,32.238a.729.729,0,1,1,.729.729A.73.73,0,0,1,1.276,32.238Z" transform="translate(0 -18.506)"/><path d="M49.33,171.242a.638.638,0,0,0,0-1.276h-.28V156a.638.638,0,0,0-1.276,0v13.967H45.311V142.555h2.464v10.839a.638.638,0,1,0,1.276,0V141.917a.638.638,0,0,0-.638-.638h-3.74a.638.638,0,0,0-.638.638v28.049H42.75v-22.43a.638.638,0,0,0-.638-.638H38.373a.638.638,0,0,0-.638.638v22.43H36.45V152.333a.638.638,0,0,0-.638-.638h-3.74a.638.638,0,0,0-.638.638v17.632H30.151V156.972a.638.638,0,0,0-.638-.638h-3.74a.638.638,0,0,0-.638.638v12.994H23.851v-9.882a.638.638,0,0,0-.638-.638h-3.74a.638.638,0,0,0-.638.638v3.688a.638.638,0,1,0,1.276,0v-3.05h2.464v9.244H20.111v-3.589a.638.638,0,1,0-1.276,0v3.589H17.551v-9.882a.638.638,0,0,0-.638-.638H13.174a.638.638,0,0,0-.638.638v9.882H7.647a.638.638,0,0,0,0,1.276H49.33Zm-10.32-23.068h2.463v21.792H39.011Zm-6.3,4.8h2.464v16.994H32.711Zm-6.3,4.639h2.464v12.356H26.411Zm-12.6,3.112h2.463v9.244H13.812Z" transform="translate(-6.413 -130.835)"/><path d="M486.843,32.189a.638.638,0,0,0,.638-.638v-.14a.638.638,0,0,0-1.276,0v.14A.638.638,0,0,0,486.843,32.189Z" transform="translate(-444.844 -29.729)"/><path d="M461.307,32.189a.638.638,0,0,0,.638-.638v-.14a.638.638,0,1,0-1.276,0v.14A.638.638,0,0,0,461.307,32.189Z" transform="translate(-421.48 -29.729)"/><path d="M461.307,63.615h2.157a.638.638,0,1,0,0-1.276h-2.157a.638.638,0,0,0,0,1.276Z" transform="translate(-421.48 -58.61)"/><path d="M419.054,87.818h5.751a.638.638,0,0,0,0-1.276h-5.751a.638.638,0,0,0,0,1.276Z" transform="translate(-382.821 -80.754)"/></g></g></svg>