<svg xmlns="http://www.w3.org/2000/svg" width="66" height="66" viewBox="0 0 66 66"><g transform="translate(-810 -5730)"><rect width="66" height="66" rx="6" transform="translate(810 5730)" fill="#fff"/><g transform="translate(823.58 5740.036)"><path d="M15.081,2.337l.809-1.4a1.341,1.341,0,0,1,2.323,1.341l-.809,1.4" transform="translate(23.148 0.406)" fill="#e4eff8"/><path d="M15.889.937l-.808,1.4L17.4,3.678l.354-.613L16.5,2.337l.81-1.4A1.333,1.333,0,0,1,17.76.473c-.013-.008-.024-.02-.038-.028a1.337,1.337,0,0,0-1.833.491Z" transform="translate(23.148 0.406)" fill="#c4dcf0"/><path d="M13.493,17.923a4.024,4.024,0,0,0,8.048,0V13.229H13.493" transform="translate(20.711 20.306)" fill="#ff854e"/><path d="M37.818,40.606H4.289A4.015,4.015,0,0,1,.265,36.582V1.073H33.8v36.18A3.77,3.77,0,0,0,37.818,40.606Z" transform="translate(0.406 1.647)" fill="#f5ead9"/><path d="M22.932,1.229l1.162.671a1.338,1.338,0,0,1,.491,1.832l-10.4,18-3.755,2.479.27-4.491,10.4-18a1.338,1.338,0,0,1,1.832-.491Z" transform="translate(16.016 1.61)" fill="#ffca28"/><path d="M21.1,1.72l-10.4,18-.27,4.49,1.415-.934.2-3.28,10.4-18a1.334,1.334,0,0,1,.766-.608l-.275-.158a1.338,1.338,0,0,0-1.833.49Z" transform="translate(16.016 1.61)" fill="#ecb200"/><path d="M.265,1.073V36.582a4.015,4.015,0,0,0,4.024,4.024H37.817a4.086,4.086,0,0,1-3.152-1.341H5.63a4.015,4.015,0,0,1-4.024-4.024V1.073Z" transform="translate(0.406 1.647)" fill="#c4dcf0"/><path d="M3.723,11.642H6.405a1.338,1.338,0,0,1,1.341,1.341v2.682a1.338,1.338,0,0,1-1.341,1.341H3.723a1.338,1.338,0,0,1-1.341-1.341V12.983a1.338,1.338,0,0,1,1.341-1.341Z" transform="translate(3.655 17.869)" fill="#ffd63d"/><path d="M3.723,7.938H6.405A1.338,1.338,0,0,1,7.747,9.279v2.682A1.338,1.338,0,0,1,6.405,13.3H3.723a1.338,1.338,0,0,1-1.341-1.341V9.279A1.338,1.338,0,0,1,3.723,7.938Z" transform="translate(3.655 12.184)" fill="#ff854e"/><path d="M3.723,4.234H6.405A1.338,1.338,0,0,1,7.747,5.576V8.258A1.338,1.338,0,0,1,6.405,9.6H3.723A1.338,1.338,0,0,1,2.381,8.258V5.576A1.338,1.338,0,0,1,3.723,4.234Z" transform="translate(3.655 6.499)" fill="#ff854e"/><path d="M5.365.009a.644.644,0,0,0-.671.669V2.016H.668A.671.671,0,0,0,0,2.689V38.232a4.688,4.688,0,0,0,4.693,4.693H38.229a4.689,4.689,0,0,0,4.7-4.693v-4.7a.671.671,0,0,0-.675-.668H34.874V16.6l5.3-9.18,1.162.672L37.984,13.9a.671.671,0,0,0,1.163.671l3.687-6.385a.671.671,0,0,0-.248-.916L40.845,6.259l.337-.583a1.987,1.987,0,0,0,.169-1.633l.593-1.024a2.014,2.014,0,1,0-3.491-2.008l-.586,1.017a2.023,2.023,0,0,0-1.334.966L34.874,5.868V2.689a.671.671,0,0,0-.668-.673H29.511V.678a.672.672,0,0,0-1.344,0V2.016H24.815V.678a.671.671,0,0,0-1.343,0V2.016H20.12V.678a.671.671,0,0,0-1.343,0V2.016H15.427V.678a.672.672,0,0,0-1.344,0V2.016H10.731V.678a.671.671,0,0,0-1.343,0V2.016H6.037V.678A.645.645,0,0,0,5.365.009ZM40.444,2.931l-1.163-.672.335-.582a.672.672,0,0,1,1.163.673Zm-1.832.489,1.153.665a.665.665,0,0,1,.253.923l-.334.58L37.361,4.246l.334-.579a.664.664,0,0,1,.917-.248ZM1.341,3.357H4.695V4.7a.671.671,0,0,0,1.343,0V3.357H9.388V4.7a.671.671,0,0,0,1.343,0V3.357h3.352V4.7a.672.672,0,0,0,1.344,0V3.357h3.351V4.7a.671.671,0,0,0,1.343,0V3.357h3.352V4.7a.671.671,0,0,0,1.343,0V3.357h3.352V4.7a.672.672,0,0,0,1.344,0V3.357h4.021V8.191L26.141,21a.671.671,0,0,0-.089.3l-.263,4.33-.255.443a.672.672,0,0,0,1.163.672l.257-.444,3.623-2.392a.671.671,0,0,0,.208-.224l2.748-4.76q-.007,9.663,0,19.31a4.689,4.689,0,0,0,1.406,3.35H4.693a3.342,3.342,0,0,1-3.352-3.35ZM36.689,5.409l2.324,1.34L34.32,14.881,32,13.538ZM7.375,10.063a2,2,0,0,0-2.009,2.009v2.684a2.012,2.012,0,0,0,2.009,2.014h2.688a2.011,2.011,0,0,0,2.009-2.014V12.072a2.01,2.01,0,0,0-2.009-2.009Zm0,1.341h2.688a.667.667,0,0,1,.668.668v2.684a.668.668,0,0,1-.668.673H7.375a.668.668,0,0,1-.668-.673V12.072A.663.663,0,0,1,7.375,11.4Zm8.051,0a.671.671,0,1,0,0,1.343H20.12a.671.671,0,0,0,0-1.343Zm0,2.681a.672.672,0,0,0,0,1.344H25.541a.672.672,0,0,0,0-1.344Zm15.9.613L33.65,16.04,29.7,22.874l-2.5,1.654.178-3ZM7.375,19.454a2.006,2.006,0,0,0-2.009,2.009v2.684a2.008,2.008,0,0,0,2.009,2.009h2.688a2.008,2.008,0,0,0,2.009-2.009V21.464a2,2,0,0,0-2.009-2.009Zm0,1.336h2.688a.671.671,0,0,1,.668.673v2.684a.662.662,0,0,1-.668.668H7.375a.665.665,0,0,1-.668-.668V21.464A.671.671,0,0,1,7.375,20.79Zm8.051,0a.671.671,0,1,0,0,1.343H20.12a.671.671,0,0,0,0-1.343Zm0,2.681a.672.672,0,0,0,0,1.344h6.707a.672.672,0,0,0,0-1.344ZM7.375,28.84A2.008,2.008,0,0,0,5.365,30.85v2.684a2.011,2.011,0,0,0,2.009,2.014h2.688a2.011,2.011,0,0,0,2.009-2.014V30.85a2.01,2.01,0,0,0-2.009-2.009Zm8.051,1.34a.671.671,0,1,0,0,1.343H20.12a.671.671,0,0,0,0-1.343Zm-8.051,0h2.688a.665.665,0,0,1,.668.668v2.684a.669.669,0,0,1-.668.673H7.375a.668.668,0,0,1-.668-.673V30.85A.669.669,0,0,1,7.375,30.182Zm8.051,2.68a.671.671,0,1,0,0,1.343h11.4a.671.671,0,0,0,0-1.343Zm19.448,1.345h6.708v4.025a3.354,3.354,0,0,1-6.708,0Z" transform="translate(0 0)"/></g></g></svg>