<svg xmlns="http://www.w3.org/2000/svg" width="66" height="66" viewBox="0 0 66 66"><g transform="translate(-440 -5672)"><g transform="translate(122 302)"><rect width="66" height="66" rx="6" transform="translate(318 5370)" fill="#fff"/><g transform="translate(328.5 5379.063)"><path d="M35.807,184H15.61A5.61,5.61,0,0,0,10,189.61v14.4a5.61,5.61,0,0,0,5.61,5.61h6.076l-.084.007,4.107,4.107,0-4.114h10.1a5.61,5.61,0,0,0,5.61-5.61v-14.4A5.61,5.61,0,0,0,35.807,184Z" transform="translate(-9.065 -166.795)" fill="#ffd63d"/><path d="M16.644,205.6a.935.935,0,0,1-.661-.274l-3.84-3.84h-5.6A6.553,6.553,0,0,1,0,194.945v-14.4A6.553,6.553,0,0,1,6.545,174h9.444a.935.935,0,0,1,0,1.87H6.545a4.68,4.68,0,0,0-4.675,4.675v14.4a4.68,4.68,0,0,0,4.675,4.675h6.076a.935.935,0,0,1,.858.562l2.232,2.232v-1.859a.935.935,0,0,1,.935-.934h10.1a4.68,4.68,0,0,0,4.675-4.675v-6.452a.935.935,0,0,1,1.87,0v6.452a6.553,6.553,0,0,1-6.545,6.545H17.581l0,3.18a.935.935,0,0,1-.935.934Z" transform="translate(0 -157.73)"/><path d="M221.022,10h-2.367A12.655,12.655,0,0,0,206,22.655h0a12.655,12.655,0,0,0,12.655,12.655h2.367a12.652,12.652,0,0,0,3.722-.557l3.884,3.882V32.77a12.636,12.636,0,0,0,5.049-10.115h0A12.655,12.655,0,0,0,221.022,10Z" transform="translate(-186.738 -9.065)" fill="#bbdeaf"/><path d="M219.563,30.506a.935.935,0,0,1-.661-.274l-3.5-3.494a13.616,13.616,0,0,1-3.449.442H209.59A13.59,13.59,0,1,1,209.59,0h2.366a13.606,13.606,0,0,1,13.59,13.59,13.444,13.444,0,0,1-1.477,6.167,13.721,13.721,0,0,1-3.572,4.4v5.41a.935.935,0,0,1-.935.935Zm-3.884-5.752a.935.935,0,0,1,.661.274l2.288,2.287V23.705a.935.935,0,0,1,.372-.747A11.721,11.721,0,0,0,211.957,1.87H209.59a11.72,11.72,0,1,0,0,23.441h2.366A11.724,11.724,0,0,0,215.4,24.8.934.934,0,0,1,215.679,24.754Z" transform="translate(-177.673)"/><path d="M318.421,80.976a.935.935,0,0,1-.935-.935V77.795a1.77,1.77,0,0,1,1.394-1.734,2.089,2.089,0,1,0-2.548-2.038.935.935,0,1,1-1.87,0,3.973,3.973,0,0,1,1.258-2.894,3.959,3.959,0,1,1,3.636,6.742v2.172A.935.935,0,0,1,318.421,80.976Z" transform="translate(-285.059 -63.512)"/><path d="M347.735,208.2a.934.934,0,1,1,.661-.273A.942.942,0,0,1,347.735,208.2Z" transform="translate(-314.373 -187.037)"/><path d="M74.664,311.87H54.935a.935.935,0,1,1,0-1.87H74.664a.935.935,0,1,1,0,1.87Z" transform="translate(-48.951 -281.014)"/><path d="M265.935,367.87a.935.935,0,1,1,.661-.274A.942.942,0,0,1,265.935,367.87Z" transform="translate(-240.221 -331.778)"/><path d="M70.987,367.87H54.935a.935.935,0,1,1,0-1.87H70.987a.935.935,0,1,1,0,1.87Z" transform="translate(-48.951 -331.778)"/><path d="M68.587,255.87H54.935a.935.935,0,1,1,0-1.87H68.587a.935.935,0,0,1,0,1.87Z" transform="translate(-48.951 -230.25)"/></g></g></g></svg>