<svg xmlns="http://www.w3.org/2000/svg" width="1156" height="541" viewBox="0 0 1156 541"><g transform="translate(-222 -406)"><g transform="translate(2 44)"><rect width="335" height="79" transform="translate(633 431)" fill="#ff854e"/><text transform="translate(800 477)" fill="#fff" font-size="18" font-family="Roboto-Black, Roboto" font-weight="800"><tspan x="-150.825" y="0">Seguimiento, evaluación y monitoreo</tspan></text><rect width="251" height="69" transform="translate(220 362)" fill="#ebf5e7"/><text transform="translate(346 403)" fill="#12263f" font-size="18" font-family="Roboto-Bold, Roboto" font-weight="700"><tspan x="-47.575" y="0">Indicadores</tspan></text><text transform="translate(800 563)" fill="#12263f" font-size="18" font-family="Roboto-Medium, Roboto" font-weight="500"><tspan x="-77.436" y="0">Se implementan en</tspan></text><rect width="251" height="69" transform="translate(220 438)" fill="#ebf5e7"/><text transform="translate(346 479)" fill="#12263f" font-size="18" font-family="Roboto-Bold, Roboto" font-weight="700"><tspan x="-63.743" y="0">Procedimientos</tspan></text><rect width="251" height="69" transform="translate(220 514)" fill="#ebf5e7"/><text transform="translate(346 555)" fill="#12263f" font-size="18" font-family="Roboto-Bold, Roboto" font-weight="700"><tspan x="-56" y="0">Diagramación</tspan></text><rect width="251" height="69" transform="translate(1125 362)" fill="#ebf5e7"/><text transform="translate(1251 403)" fill="#12263f" font-size="18" font-family="Roboto-Bold, Roboto" font-weight="700"><tspan x="-22.737" y="0">Tipos</tspan></text><rect width="251" height="69" transform="translate(1125 438)" fill="#ebf5e7"/><text transform="translate(1251 479)" fill="#12263f" font-size="18" font-family="Roboto-Bold, Roboto" font-weight="700"><tspan x="-36.699" y="0">Técnicas</tspan></text><rect width="251" height="69" transform="translate(1125 514)" fill="#ebf5e7"/><text transform="translate(1251 555)" fill="#12263f" font-size="18" font-family="Roboto-Bold, Roboto" font-weight="700"><tspan x="-50.81" y="0">Metodología</tspan></text><text transform="translate(800 717)" fill="#12263f" font-size="18" font-family="Roboto-Medium, Roboto" font-weight="500"><tspan x="-77.691" y="0">Las cuales abarcan</tspan></text><rect width="251" height="69" transform="translate(398 765)" fill="#ebf5e7"/><text transform="translate(524 806)" fill="#12263f" font-size="18" font-family="Roboto-Bold, Roboto" font-weight="700"><tspan x="-58.061" y="0">Contingencias</tspan></text><rect width="251" height="69" transform="translate(964 765)" fill="#ebf5e7"/><text transform="translate(1090 806)" fill="#12263f" font-size="18" font-family="Roboto-Bold, Roboto" font-weight="700"><tspan x="-49.856" y="0">Trazabilidad</tspan></text><rect width="251" height="69" transform="translate(675 834)" fill="#ebf5e7"/><text transform="translate(800 875)" fill="#12263f" font-size="18" font-family="Roboto-Bold, Roboto" font-weight="700"><tspan x="-84.959" y="0">Acciones correctivas</tspan></text><g transform="translate(0 -138)"><path d="M2302.786-10995.364l-.6-.8,132.386-98.325-132.336-75.6.5-.869L2436.4-11094.6l-.614.456Z" transform="translate(-1821 11700)" fill="#006c62"/><path d="M2435.488-11091H2301.676v-1h133.813Z" transform="translate(-1822 11697)" fill="#006c62"/></g><g transform="translate(983 391.469)"><path d="M2435.19-10995.364l-133.614-99.237.664-.38,133-75.984.5.869-132.336,75.6,132.386,98.325Z" transform="translate(-2302.488 11170.531)" fill="#006c62"/><path d="M2435.488-11091H2301.676v-1h133.813Z" transform="translate(-2300.676 11167.531)" fill="#006c62"/></g><rect width="234" height="38" transform="translate(683 612)" fill="#fff"/><path d="M1,1V37H233V1H1M0,0H234V38H0Z" transform="translate(683 612)" fill="#707070"/><text transform="translate(800 636)" fill="#12263f" font-size="18" font-family="Roboto-Medium, Roboto" font-weight="500"><tspan x="-34.181" y="0">Las BPG</tspan></text><path d="M2768.019-10706.04l-140.552-59.939-138.58,59.938-.4-.918,138.974-60.108.2.084,140.75,60.023Z" transform="translate(-1821 11506)" fill="#006c62"/><path d="M2627-10672h-1v-94.523h1Z" transform="translate(-1821 11506)" fill="#006c62"/></g></g></svg>